<?xml version="1.0" encoding="UTF-8" standalone="no"?>
<svg xmlns="http://www.w3.org/2000/svg" xmlns:sodipodi="http://sodipodi.sourceforge.net/DTD/sodipodi-0.dtd" xmlns:inkscape="http://www.inkscape.org/namespaces/inkscape" width="24" height="24" version="1.1">
 <metadata id="metadata3064"/>
 <g inkscape:label="Layer 1" inkscape:groupmode="layer" id="layer1" transform="translate(0,-1028.3622)">
  <path inkscape:connector-curvature="0" id="path4305" d="m 21.887317,1035.9366 c -0.04771,0 -0.09492,0 -0.141903,0.01 -0.597417,0.034 -1.132448,0.2812 -1.450926,0.6765 -0.114029,0.1416 -0.356407,0.1856 -0.541427,0.098 -0.120747,-0.057 -0.186751,-0.1554 -0.186832,-0.2563 0,-0.054 0.01842,-0.1085 0.05808,-0.1576 0.470154,-0.5838 1.272944,-0.9406 2.162251,-0.9657 -0.07538,-1.9228 -2.096246,-3.4714 -4.60875,-3.5349 0.153647,0.3492 0.264017,0.7142 0.325154,1.0919 0.02671,0.1649 -0.126498,0.3152 -0.342209,0.3357 -0.0039,4e-4 -0.0077,3e-4 -0.01174,5e-4 -0.01238,0 -0.02486,0 -0.03704,0 -0.19576,0 -0.365416,-0.1116 -0.390113,-0.264 -0.06388,-0.3948 -0.187836,-0.7742 -0.364008,-1.1332 -0.403386,-0.8222 -1.081649,-1.5369 -1.94461,-2.0838 -0.117327,-0.074 -0.238033,-0.1454 -0.361917,-0.2135 -1.075092,-0.5898 -2.389908,-0.9346 -3.797595,-0.9346 -0.120263,0 -0.239924,0 -0.3589004,0.01 -0.6587147,0.028 -1.2965944,0.1304 -1.8964644,0.2993 -1.6054185,0.4524 -2.9383334,1.3778 -3.6691258,2.5956 0.096694,-0.01 0.1940307,-0.01 0.2920515,-0.01 1.0352724,0 2.0340235,0.2333 2.888257,0.6747 0.1124203,0.058 0.173075,0.1527 0.1731957,0.2492 8.04e-5,0.058 -0.0218,0.1168 -0.067493,0.1685 -0.1217117,0.1378 -0.3663014,0.1739 -0.546375,0.08 -0.7235926,-0.3738 -1.5699427,-0.5714 -2.4475854,-0.5714 -0.2474454,0 -0.4900641,0.015 -0.7264082,0.046 -0.068377,0.028 -0.1471319,0.041 -0.2269322,0.034 -0.027873,0.01 -0.055667,0.01 -0.083339,0.014 -1.9151274,0.357 -3.3410755,1.6796 -3.3410755,3.2525 0,4e-4 -4.022e-5,7e-4 -4.022e-5,0 6.8377e-4,2.0145 2.13666982,3.6474 4.77148832,3.6474 l 12.0025086,0 4.47638,0 c 1.249454,0 2.262645,-0.7746 2.262645,-1.7302 0,-0.788 -0.838548,-1.4292 -1.869194,-1.4292 z" fill="#b3b3b3" stroke="#808080" stroke-width="0.487"/>
  <g id="g4307" transform="matrix(0.04105515,0,0,0.04105515,-0.19392772,1024.4556)">
   <path inkscape:connector-curvature="0" id="path4309" d="m 45.378,497.42 c -3.818,10.365 1.488,21.863 11.853,25.682 2.281,0.84 4.616,1.238 6.912,1.238 8.14,0 15.791,-5.008 18.769,-13.092 l 49.855,-135.322 -42.627,0 -44.762,121.494 z" fill="#b3b3b3"/>
   <path inkscape:connector-curvature="0" id="path4311" d="m 181.378,497.42 c -3.818,10.365 1.488,21.863 11.853,25.682 2.281,0.84 4.616,1.238 6.912,1.238 8.14,0 15.791,-5.008 18.769,-13.092 l 49.855,-135.322 -42.627,0 -44.762,121.494 z" fill="#b3b3b3"/>
   <path inkscape:connector-curvature="0" id="path4313" d="m 317.379,497.42 c -3.818,10.365 1.488,21.863 11.853,25.682 2.28,0.84 4.616,1.238 6.912,1.238 8.14,0 15.79,-5.008 18.769,-13.092 l 49.855,-135.322 -42.628,0 -44.761,121.494 z" fill="#b3b3b3"/>
   <path inkscape:connector-curvature="0" id="path4315" d="m 498.139,375.926 -44.76,121.494 c -3.818,10.365 1.488,21.863 11.853,25.682 2.28,0.84 4.616,1.238 6.912,1.238 8.14,0 15.79,-5.008 18.769,-13.092 l 49.855,-135.322 -42.629,0 z" fill="#b3b3b3"/>
  </g>
  <circle id="circle4505" transform="matrix(0.98480773,-0.17364829,0.17364829,0.98480773,0,0)" r="1.219" cy="1026.49" cx="-174" fill="#80b3ff"/>
  <circle id="circle4515" transform="matrix(0.98480773,-0.17364829,0.17364829,0.98480773,0,0)" r="1.219" cy="1029.18" cx="-175.93" fill="#80b3ff"/>
  <circle id="circle4505-8" transform="matrix(0.98480773,-0.17364829,0.17364829,0.98480773,0,0)" r="1.219" cy="1027.47" cx="-168.42" fill="#80b3ff"/>
  <circle id="circle4515-0" transform="matrix(0.98480773,-0.17364829,0.17364829,0.98480773,0,0)" r="1.219" cy="1030.17" cx="-170.34" fill="#80b3ff"/>
  <circle id="circle4505-8-9" transform="matrix(0.98480773,-0.17364829,0.17364829,0.98480773,0,0)" r="1.219" cy="1028.42" cx="-163.01" fill="#80b3ff"/>
  <circle id="circle4515-0-6" transform="matrix(0.98480773,-0.17364829,0.17364829,0.98480773,0,0)" r="1.219" cy="1031.12" cx="-164.94" fill="#80b3ff"/>
  <text x="-0.156" y="1052.23" id="text3098" sodipodi:linespacing="125%" fill="#1a1a1a" font-family="Sans" word-spacing="0" line-height="125%" font-weight="bold" letter-spacing="0" font-size="7"><tspan sodipodi:role="line" id="tspan3100" x="-0.156" y="1052.23">SLEET</tspan>
  </text>
 </g>
</svg>
