<?xml version="1.0" encoding="UTF-8" standalone="no"?>
<svg xmlns="http://www.w3.org/2000/svg" xmlns:sodipodi="http://sodipodi.sourceforge.net/DTD/sodipodi-0.dtd" xmlns:inkscape="http://www.inkscape.org/namespaces/inkscape" version="1.1" width="24" height="24">
 <metadata id="metadata16"/>
 <rect x="-16.834" y="8.951" height="5.149" width="16.834" id="rect6" transform="scale(-1,1)" fill="#ff0000"/>
 <path inkscape:connector-curvature="0" d="m 17.262338,8.262819 0,6.38346 -10.0774435,0.0082 c 0.5913749,0.483155 0.9605805,1.149107 0.9557546,2.023167 l 10.0037429,-0.006 c 0.09583,-3.391009 4.906836,-3.379471 5.011375,-0.0196 0.722587,-0.0054 0.822818,-0.169504 0.829785,-0.835124 l 0,-2.54551 c 0.0091,-1.137564 0.151138,-0.386644 -0.690943,-2.543831 C 22.428158,8.4281362 22.667023,8.6406854 21.883322,8.5813386 L 17.262338,8.262819 Z m 2.001581,3.763825 -0.03988,-2.7121043 2.57251,0.1595355 c 0.468983,0.031418 0.472886,0.034362 0.638143,0.5783168 l 0.658084,1.754891 c 0.22108,0.538266 0.185892,0.696875 -0.418781,0.6182 l -3.410073,-0.398839 z m -19.25064324,2.632702 -0.00490023,1.434155 1.66120227,0.588036 1.4585673,-9.33e-4 c -0.00594,-0.831598 0.3396595,-1.53102 0.9524215,-2.022334 l -4.06729084,0.0011 z" id="path4" fill="#ff0000" fill-rule="evenodd"/>
 <circle r="1.472" cx="-5.635" cy="16.624" id="circle10" transform="scale(-1,1)" fill="none" stroke="#000000" stroke-width="1.487"/>
 <path d="m 0.06519882,5.2563742 3.67926758,0 0,2.9947522 -2.84501464,0 C 0.22810636,8.3130312 0.02206606,7.9484071 0.03311293,7.3847869 Z" id="path4266" inkscape:connector-curvature="0" sodipodi:nodetypes="cccccc" fill="#1a1a1a" fill-rule="evenodd" stroke-width="3.488"/>
 <path id="path4230-7" d="m 4.2792429,6.4865296 0,1.4332034 3.123098,0 0,-1.4118114 z m 7.6580091,0 0,1.4332034 3.123097,0 0,-1.4118114 z m -3.8290057,0 0,1.4332034 3.1230987,0 0,-1.4118114 z m -6.609845,1.4009481 2.0107626,-1.3904208 0,1.4118117 -2.0963258,0 m 15.3587959,-2.0749345 -13.818638,0 -2.28884665,1.7326778 0,0.9412071 16.17165965,0 0,-0.6203413 -1.026772,0 0,-1.4118114 0.98399,0 z" inkscape:connector-curvature="0" fill="#4d4d4d" fill-rule="evenodd" stroke-width="3.488"/>
 <path inkscape:connector-curvature="0" d="m 21.614958,8.1381339 0.02868,-0.4101547 -0.535784,-0.037466 0.01815,-0.2595229 C 21.158279,6.9694151 20.781066,6.5681619 20.282189,6.533277 19.784115,6.4984483 19.355121,6.8435282 19.322858,7.3049026 l -0.01815,0.2595228 -0.524293,-0.036662 -0.02868,0.4101547 2.863221,0.2002159 z" id="path3" fill="#0000ff" stroke="#000000" stroke-width="0"/>
 <path d="M 21.214851,7.0125175 21.738875,6.8378429" id="path4411" inkscape:connector-curvature="0" fill="#0000ff" fill-rule="evenodd" stroke="#0000ff" stroke-width="0.111"/>
 <path d="M 19.318657,6.8472358 18.842401,6.5674276" id="path4411-1" inkscape:connector-curvature="0" fill="#0000ff" fill-rule="evenodd" stroke="#0000ff" stroke-width="0.111"/>
 <path d="m 20.752567,6.4995702 0.351836,-0.425823" id="path4411-4" inkscape:connector-curvature="0" fill="#0000ff" fill-rule="evenodd" stroke="#0000ff" stroke-width="0.111"/>
 <path d="M 19.836981,6.4496678 19.616145,5.943361" id="path4411-4-2" inkscape:connector-curvature="0" fill="#0000ff" fill-rule="evenodd" stroke="#0000ff" stroke-width="0.111"/>
 <circle r="1.472" cx="-20.651" cy="16.624" id="circle10-6" transform="scale(-1,1)" fill="none" stroke="#000000" stroke-width="1.487"/>
 <rect id="rect3343" width="13.212" height="0.379" x="1.723" y="11.36" fill="#ffffff" fill-rule="evenodd" stroke="#ffffff" stroke-width="0.706"/>
</svg>
