<?xml version="1.0" encoding="UTF-8" standalone="no"?>
<svg xmlns="http://www.w3.org/2000/svg" xmlns:sodipodi="http://sodipodi.sourceforge.net/DTD/sodipodi-0.dtd" xmlns:inkscape="http://www.inkscape.org/namespaces/inkscape" version="1.1" width="24" height="24" viewBox="-0.258 -0.548 24.000001 24">
 <metadata id="metadata17"/>
 <g id="g4180" transform="matrix(1.0127819,0,0,1.0127819,-0.24080261,-0.17759904)">
  <path d="m 13.941942,11.960746 c 0.601141,0.205439 1.252519,-0.106889 1.461379,-0.706533 0.20886,-0.601141 -0.108598,-1.25252 -0.709739,-1.4613797 -0.599645,-0.2088601 -1.25252,0.1085987 -1.46138,0.7097397 -0.203729,0.596438 0.110309,1.252733 0.70974,1.458173 z" id="path9" inkscape:connector-curvature="0"/>
  <path sodipodi:nodetypes="ccccccccccccccccccccccccccccc" d="M 11.797545,8.6023093 11.44182,12.22476 9.1471382,12.787635 c -0.2037294,0.04682 -0.3758199,0.147078 -0.5160576,0.272138 l -5.0387232,4.865136 c -0.2973637,0.282186 -0.3039908,0.756557 -0.016675,1.04879 0.2821856,0.297364 0.7565567,0.308908 1.0487898,0.02672 l 3.792831,-3.654303 4.6430228,-1.137294 -0.03164,0.01005 0.773231,-0.197103 0.70974,0.808291 c 0.110308,0.120143 0.265511,0.193682 0.43247,0.193682 l 2.500122,0.01005 c 0.314038,0 0.574632,-0.255463 0.574632,-0.574632 l 0,0 c 0,-0.277269 -0.193681,-0.491046 -0.449359,-0.554537 l -1.86221,-6.4849279 z m 5.214234,5.2758017 c -0.569502,0 -1.518244,-0.0049 -1.805346,-0.0049 -0.272138,-0.307411 -1.347864,-1.523161 -1.347864,-1.523161 -0.01497,-0.02181 -0.04169,-0.02672 -0.05686,-0.04169 -0.272138,-0.318955 -0.704822,-0.482709 -1.137293,-0.380737 l -0.67297,0.16696 0.359145,-3.6592205 2.844303,-0.8617349 1.81689,6.3044964 z" id="path11" inkscape:connector-curvature="0"/>
  <path sodipodi:nodetypes="csccccc" d="m 23.07216,4.463962 c 0,0 -3.773916,-0.4529368 -11.610758,-0.4529368 -5.7801351,0 -10.50210258,0.4529368 -10.50210258,0.4529368 0,0 1.95759978,0.8634881 1.61831308,3.5353982 0,0 2.8096608,-0.3343004 3.986673,2.0729118 0,0 -0.1009115,0.03153 16.6182025,-5.035283 0.36027,-0.1558268 0.331181,-0.5244092 -0.110328,-0.573027 z" id="path11-9" inkscape:connector-curvature="0" fill="#ff0000" stroke="#550000" stroke-width="0.5"/>
 </g>
</svg>
