<?xml version="1.0" encoding="UTF-8" standalone="no"?>
<svg xmlns="http://www.w3.org/2000/svg" xmlns:sodipodi="http://sodipodi.sourceforge.net/DTD/sodipodi-0.dtd" xmlns:inkscape="http://www.inkscape.org/namespaces/inkscape" width="24" height="24" version="1.1">
 <metadata id="metadata7"/>
 <g inkscape:label="Camada 1" inkscape:groupmode="layer" id="layer1" transform="translate(0,-1028.3622)">
  <path d="m 23.310235,1028.8715 c -0.037,6e-4 -0.0751,0 -0.11147,0.01 -6.7e-4,2e-4 -0.001,-1e-4 -0.002,0 l -3.67436,0.6276 c -0.23368,0.04 -0.42959,0.2003 -0.51606,0.4211 a 0.16705751,0.16705751 0 0 0 0,0 l -1.70506,4.3721 -16.63986969,0.4149 c -0.19136,0 -0.37099,0.091 -0.49542,0.2353 -0.1244,0.1441 -0.18429,0.3358 -0.16101,0.5264 l 0.91859,7.5985 c 0.0379,0.3188 0.30127999,0.5716 0.62133999,0.5966 l 11.8631997,0.9433 2.35117,1.8496 a 0.16705751,0.16705751 0 0 0 0.008,0.01 c 0.003,0 0.006,0 0.008,0 0.003,0 0.005,0 0.008,0.01 0.42908,0.3203 0.53543,0.7566 0.47479,0.9991 -0.0346,0.1381 -0.0873,0.2397 -0.21262,0.3179 -0.12532,0.078 -0.34179,0.1348 -0.71216,0.1135 a 0.16705751,0.16705751 0 0 0 -0.004,0 c -0.0119,-4e-4 -0.0252,-3e-4 -0.0371,0 -0.002,0 -0.004,-10e-5 -0.006,0 l -14.1483297,0.041 -0.002,0 c -0.37180999,0 -0.68473999,0.3095 -0.68325999,0.6812 0.001,0.3717 0.31561,0.6824 0.68739999,0.6771 7.2e-4,0 10e-4,0 0.002,0 l 1.03419,0 c -0.38426,0.2449 -0.64198,0.6734 -0.64198,1.1601 0,0.7569 0.61995,1.3768 1.37685,1.3768 0.75692,0 1.37685,-0.6199 1.37685,-1.3768 0,-0.4893 -0.2584,-0.9221 -0.6461,-1.1663 l 11.6505897,-0.033 c -0.41975,0.2366 -0.70598,0.6859 -0.70598,1.1993 0,0.7569 0.61993,1.3768 1.37685,1.3768 0.75692,0 1.37686,-0.6199 1.37686,-1.3768 0,-0.6574 -0.46699,-1.2115 -1.0858,-1.3459 0.58509,-0.207 1.03455,-0.6338 1.31286,-1.286 a 0.16705751,0.16705751 0 0 0 0.0103,-0.025 c 0.21336,-0.8532 -0.16506,-1.7808 -0.94542,-2.3842 a 0.16705751,0.16705751 0 0 0 -0.006,-0.01 c -0.002,0 -0.002,0 -0.004,-0.01 a 0.16705751,0.16705751 0 0 0 -0.0227,-0.023 l -1.66584,-1.3067 5.1957,-13.3082 3.2966,-0.5615 c 6.6e-4,-10e-5 0.001,2e-4 0.002,0 0.34631,-0.056 0.59958,-0.3784 0.56973,-0.7287 -0.0299,-0.3509 -0.33564,-0.6261 -0.68739,-0.6213 z m -6.51063,6.4818 -0.95781,2.4565 -1.24886,0 0,-2.4008 2.20667,-0.056 z m -2.68352,0.068 0,2.3883 -2.30575,0 0,-2.3305 2.30575,-0.058 z m -2.7826,0.068 0,2.3202 -2.3057497,0 0,-2.2624 2.3057497,-0.058 z m -2.7825997,0.07 0,2.25 -2.30576,0 0,-2.1922 2.30576,-0.058 z m -2.7826,0.07 0,2.1799 -2.30576,0 0,-2.1221 2.30576,-0.058 z m -2.7826,0.068 0,2.1117 -1.69061,0 -0.24978,-2.0621 1.94039,-0.05 z m -1.63281,2.5865 1.63281,0 0,2.1572 -1.37272,0 -0.26009,-2.1572 z m 2.10965,0 2.30576,0 0,2.1572 -2.30576,0 0,-2.1572 z m 2.7826,0 2.30576,0 0,2.1572 -2.30576,0 0,-2.1572 z m 2.78261,0 2.3057497,0 0,2.1572 -2.3057497,0 0,-2.1572 z m 2.7825997,0 2.30575,0 0,2.1572 -2.30575,0 0,-2.1572 z m 2.7826,0 1.06515,0 -0.84222,2.1572 -0.22293,0 0,-2.1572 z m -12.9221697,2.6319 1.31492,0 0,1.5482 -1.13946,-0.091 -0.17546,-1.4574 z m 1.79176,0 2.30576,0 0,1.7691 -2.30576,-0.1837 0,-1.5854 z m 2.7826,0 2.30576,0 0,1.99 -2.30576,-0.1817 0,-1.8083 z m 2.78261,0 2.3057497,0 0,2.2129 -2.3057497,-0.1837 0,-2.0292 z m 2.7825997,0 2.30575,0 0,1.3129 -0.43762,1.1209 c -0.0568,-0.028 -0.11873,-0.044 -0.18165,-0.05 l -1.68648,-0.1342 0,-2.25 z m 2.7826,0 0.0351,0 -0.0351,0.097 0,-0.097 z m -11.6815597,8.7483 c 0.44991,0 0.80918,0.3593 0.80918,0.8092 0,0.4499 -0.35927,0.8071 -0.80918,0.8071 -0.44989,0 -0.80919,-0.3572 -0.80919,-0.8071 0,-0.4499 0.3593,-0.8092 0.80919,-0.8092 z m 13.0522097,0 c 0.4499,0 0.80919,0.3593 0.80919,0.8092 0,0.4499 -0.35929,0.8071 -0.80919,0.8071 -0.4499,0 -0.80918,-0.3572 -0.80918,-0.8071 0,-0.4499 0.35928,-0.8092 0.80918,-0.8092 z m -13.0522097,0.3839 c -0.24442,0 -0.43968,0.1953 -0.43968,0.4397 0,0.2444 0.19526,0.4376 0.43968,0.4376 0.24442,0 0.43969,-0.1932 0.43969,-0.4376 0,-0.2444 -0.19527,-0.4397 -0.43969,-0.4397 z m 13.0522097,0 c -0.24442,0 -0.43968,0.1953 -0.43968,0.4397 0,0.2444 0.19526,0.4376 0.43968,0.4376 0.24442,0 0.43968,-0.1932 0.43968,-0.4376 0,-0.2444 -0.19526,-0.4397 -0.43968,-0.4397 z" id="path3847" inkscape:connector-curvature="0" color="#000000" stroke-width="15.5" fill="#550000"/>
 </g>
</svg>
