<?xml version="1.0" encoding="UTF-8" standalone="no"?>
<svg xmlns="http://www.w3.org/2000/svg" xmlns:sodipodi="http://sodipodi.sourceforge.net/DTD/sodipodi-0.dtd" xmlns:inkscape="http://www.inkscape.org/namespaces/inkscape" viewBox="0 0 24 24" version="1.1" width="24" height="24">
 <metadata id="metadata26"/>
 <path inkscape:connector-curvature="0" id="path6-9" d="M 0.42237017,20.852183 C 1.4886938,21.641264 2.6475758,22.253 3.8782569,22.569115 c 2.0606033,0.632017 3.9047512,0.997097 5.9958112,1.1718 1.0803169,0.09786 2.4267789,0.121537 3.4780879,0.103979 1.148719,0.03236 3.06396,0.134213 3.06396,0.134213 1.492934,-0.09743 3.020733,-0.125285 4.329408,-0.525325 1.16385,-0.500881 2.142446,-1.482579 2.983006,-2.530347 0.550327,-1.131092 -0.573852,-2.065826 -1.349076,-2.451413 -1.584141,-1.093048 -3.36483,-1.490939 -5.387889,-2.103011 C 15.387074,15.896081 14.028803,15.67259 11.583978,14.996822 9.4965832,14.749861 7.5530337,15.26673 6.2960009,15.657008 4.3380386,16.436501 4.9218724,16.35612 2.6306795,17.363095 1.5947333,17.95343 0.28957936,18.6799 0.12804054,20.191189 c -0.006513,0.261309 0.0969278,0.53011 0.29432963,0.660994 z" sodipodi:nodetypes="cccccccccccccc" fill="#2a7fff" stroke-width="0.255"/>
 <path inkscape:connector-curvature="0" id="path6" d="m 2.7730463,20.337108 c 0.8607735,0.540145 1.7962623,0.958893 2.7897109,1.175281 1.6633903,0.432631 3.3793443,-0.02419 5.0673198,0.0954 0.872069,-0.09363 1.655922,0.340182 2.504575,0.392413 0.927285,0.02215 1.866334,-0.08029 2.776392,0.156119 1.072561,0.206361 2.230089,0.444281 3.267555,-0.03836 0.9395,-0.342865 1.729455,-1.01486 2.407986,-1.732083 0.444242,-0.774259 -0.463235,-1.414107 -1.089021,-1.67805 -1.278774,-0.748219 -2.716208,-1.156875 -4.081423,-1.71214 -1.348774,-0.505452 -2.766658,-0.794726 -4.097323,-1.348165 -1.042133,-0.396197 -2.182444,-0.22411 -3.2507381,-0.04781 -1.6876819,0.351863 -3.1450431,1.341724 -4.5124108,2.349031 -0.836251,0.404097 -1.8898162,0.901385 -2.0202169,1.935898 -0.00525,0.178873 0.078247,0.362873 0.2375941,0.452464 z" fill="#e5b380" stroke-width="0.19"/>
 <path inkscape:connector-curvature="0" id="path8" d="m 14.155551,20.157272 c -0.108809,0.123074 -0.712277,-0.223187 -0.88619,-0.17749 -0.173914,0.0457 -0.436605,0.619553 -0.609194,0.570419 -0.172587,-0.04913 0.0319,-0.639557 -0.07344,-0.764754 -0.10534,-0.125197 -0.834465,-0.158301 -0.83232,-0.311741 0.0021,-0.15344 0.731991,-0.172081 0.840801,-0.295154 0.10881,-0.123074 -0.07912,-0.717388 0.09479,-0.763085 0.173913,-0.0457 0.420497,0.533205 0.593085,0.582337 0.17259,0.04913 0.785564,-0.285068 0.890905,-0.159871 0.10534,0.125198 -0.472111,0.50162 -0.474255,0.655059 -0.0021,0.153439 0.564629,0.541207 0.455819,0.66428 z" fill="#f3f98f" stroke-width="0.338"/>
 <path inkscape:connector-curvature="0" id="path10" d="M 8.7185804,17.631722 C 7.6474285,12.043944 9.4008377,7.2022748 13.759866,3.5144596 14.286828,3.470482 14.218373,3.9973953 13.83578,4.2926727 10.355637,8.1216331 9.669201,12.985452 10.120977,17.983736 9.7056131,17.646691 9.2814064,17.346933 8.7185804,17.631722 Z" fill="#9c6434" stroke-width="0.237"/>
 <path inkscape:connector-curvature="0" id="path12" d="m 14.200774,3.9008721 c 0.846883,0.8169903 1.492017,1.7650085 2.110296,2.7560443 l 0.392165,-0.6594174 0.209479,0.8337544 3.856939,1.5668713 -2.276069,-3.6008689 -1.04933,0.079075 c 0.005,-0.1957562 0.07546,-0.5014145 0.08051,-0.6971694 C 16.552831,3.7037343 15.546575,3.3106627 14.459617,3.529059 14.370307,3.558324 14.226546,3.546675 14.169112,3.599897 l 0.03165,0.3009754 z" fill="#026333" stroke-width="0.237"/>
 <path inkscape:connector-curvature="0" id="path14" d="M 13.693886,3.9300053 C 12.67843,4.5224553 11.828091,5.2901655 10.993699,6.106054 L 10.768177,5.3721624 10.368051,6.1324177 6.2512902,6.7379065 9.3117522,3.7804582 10.312603,4.1067214 c 0.04126,-0.1913914 0.04491,-0.5050974 0.08617,-0.6964882 1.056408,-0.2308717 2.126745,-0.3735697 3.131299,0.096998 0.07987,0.049664 0.222292,0.072519 0.265542,0.1378807 l -0.101726,0.284893 z" fill="#026333" stroke-width="0.237"/>
 <path inkscape:connector-curvature="0" id="path16" d="m 13.847257,3.9837972 c -0.28159,1.2232894 -0.792609,2.3329258 -1.357456,3.4413939 l 0.814474,0 -0.644791,0.6473913 0.678727,4.3954436 2.036184,-4.0547117 -0.644791,-0.9199767 C 14.910597,7.3911179 15.227337,7.2888987 15.408331,7.1866789 15.310666,6.0350583 15.119277,4.896888 14.327093,4.0184255 14.251693,3.9524265 14.183828,3.8141139 14.104017,3.7904499 l -0.25676,0.1933473 z" fill="#026333" stroke-width="0.252"/>
 <path inkscape:connector-curvature="0" id="path18" d="M 13.70466,3.7179063 C 12.708895,3.3516704 11.687172,3.2017038 10.641327,3.0906587 L 11.01885,2.50992 10.262073,2.6695945 7.4677368,0.14827983 11.279478,0.5758619 11.631314,1.4620384 c 0.156194,-0.081672 0.37531,-0.2601348 0.531504,-0.3418078 0.769281,0.6034346 1.485609,1.2674602 1.739762,2.2394902 0.01173,0.084353 0.07811,0.1968542 0.05785,0.2647289 l -0.255769,0.093457 z" fill="#026333" stroke-width="0.214"/>
 <path inkscape:connector-curvature="0" id="path20" d="M 14.110627,3.5996953 C 15.06045,3.30601 16.023993,3.2160071 17.008209,3.163618 L 16.683281,2.6015113 17.38373,2.7882401 20.122147,0.56628391 16.533904,0.77861736 16.161309,1.5906377 c -0.142187,-0.084135 -0.33853,-0.2619512 -0.480717,-0.3460832 -0.749455,0.5268353 -1.452311,1.1129868 -1.737683,2.0101682 -0.0151,0.078367 -0.08273,0.1803834 -0.06708,0.2449039 l 0.2348,0.1000687 z" fill="#026333" stroke-width="0.201"/>
</svg>
