<?xml version="1.0" encoding="UTF-8" standalone="no"?>
<svg xmlns="http://www.w3.org/2000/svg" xmlns:sodipodi="http://sodipodi.sourceforge.net/DTD/sodipodi-0.dtd" xmlns:inkscape="http://www.inkscape.org/namespaces/inkscape" version="1.1" width="24" height="24" viewBox="-0.258 -0.548 24.000001 24">
 <metadata id="metadata25"/>
 <path d="m 18.726837,7.1624246 0,-2.9805619 -0.274301,0 c -0.822901,0 -1.492036,0.6674961 -1.492036,1.490164 0,0.8245402 0.669135,1.4901639 1.492036,1.4901639 l 0.274301,0 z" id="path11" inkscape:connector-curvature="0"/>
 <path d="M 16.479538,6.4839284 15.17778,3.8801788 C 14.887096,3.3463224 14.325623,2.9879996 13.672871,2.9879996 l -3.022456,0 c -0.283428,0 -0.508345,0.2267895 -0.508345,0.5102179 0,0.2834284 0.224917,0.5083456 0.508345,0.5083456 l 3.022456,-0.00187 c 0.246918,0 0.515601,0.1664059 0.625368,0.3967061 l 0.828285,1.6603146 1.353014,0.422217 z" id="path13" inkscape:connector-curvature="0"/>
 <path d="m 23.04497,9.1623456 c 0.414529,0.1194237 0.722958,0.5031096 0.722958,0.9561304 l -2.320867,0.002 c -3.05345,0 -5.534454,2.482732 -5.534454,5.536428 l -7.5528137,0 c 0,-2.453863 -1.5961827,-4.535884 -3.8052758,-5.262542 L 0.39269753,9.0254029 1.0828386,7.9710686 c 0.2427955,-0.3681411 0.6689213,-0.6111832 1.143162,-0.6111832 0.1098008,0 0.2082513,0.00766 0.2988062,0.026895 l 9.2740942,2.87604 c 0.11375,0.03282 0.231447,0.05404 0.35852,0.05404 0.418229,0 0.782669,-0.211953 1.000543,-0.537901 l 2.108915,-3.0457999 7.778091,2.4291883 z" id="path15" inkscape:connector-curvature="0" fill="#550000" stroke-width="0.702"/>
 <circle id="path4236-3" cx="20.15" cy="16.419" r="2.175" fill="#4d4d4d" stroke-width="3"/>
 <path d="m 16.589305,16.33956 c 0,-1.980254 1.605314,-3.578313 3.57644,-3.578313 1.976509,0 3.57644,1.598059 3.57644,3.578313 0,1.972998 -1.599931,3.57644 -3.57644,3.57644 -1.971126,0 -3.57644,-1.603676 -3.57644,-3.57644 z m 3.57644,1.33663 c 0.742391,0 1.342014,-0.599623 1.342014,-1.33663 0,-0.742391 -0.599623,-1.338503 -1.342014,-1.338503 -0.73139,0 -1.331247,0.596112 -1.331247,1.338503 2.34e-4,0.736773 0.599857,1.33663 1.331247,1.33663 z" id="path17" inkscape:connector-curvature="0"/>
 <circle id="path4236" cx="3.536" cy="15.864" r="2.175" fill="#4d4d4d" stroke-width="3"/>
 <path d="m -0.25818392,15.955492 c 0,-2.16866 1.76071982,-3.933125 3.93476302,-3.933125 2.1777879,0 3.9312524,1.764465 3.9312524,3.933125 0,2.174043 -1.7534645,3.936635 -3.9312524,3.936635 -2.1740432,0 -3.93476302,-1.762592 -3.93476302,-3.936635 z m 3.94389082,1.475653 c 0.808157,0 1.4681637,-0.658134 1.4681637,-1.471908 0,-0.813775 -0.6600067,-1.471909 -1.4681637,-1.471909 -0.8172849,0 -1.4719085,0.658134 -1.4719085,1.471909 0,0.813774 0.6546236,1.471908 1.4719085,1.471908 z" id="path19" inkscape:connector-curvature="0"/>
</svg>
