<?xml version="1.0" encoding="UTF-8" standalone="no"?>
<svg
   xmlns:dc="http://purl.org/dc/elements/1.1/"
   xmlns:cc="http://creativecommons.org/ns#"
   xmlns:rdf="http://www.w3.org/1999/02/22-rdf-syntax-ns#"
   xmlns:svg="http://www.w3.org/2000/svg"
   xmlns="http://www.w3.org/2000/svg"
   xmlns:sodipodi="http://sodipodi.sourceforge.net/DTD/sodipodi-0.dtd"
   xmlns:inkscape="http://www.inkscape.org/namespaces/inkscape"
   enable-background="new 0 0 1000 600"
   height="24"
   id="Shape_1_7_"
   overflow="visible"
   version="1.1"
   viewBox="0 0 24 24"
   width="24"
   xml:space="preserve"
   inkscape:version="0.91 r13725"
   sodipodi:docname="107-2.svg"
   style="overflow:visible"><metadata
     id="metadata12"><rdf:RDF><cc:Work
         rdf:about=""><dc:format>image/svg+xml</dc:format><dc:type
           rdf:resource="http://purl.org/dc/dcmitype/StillImage" /><dc:title /></cc:Work></rdf:RDF></metadata><defs
     id="defs10" /><sodipodi:namedview
     pagecolor="#ffffff"
     bordercolor="#666666"
     borderopacity="1"
     objecttolerance="10"
     gridtolerance="10"
     guidetolerance="10"
     inkscape:pageopacity="0"
     inkscape:pageshadow="2"
     inkscape:window-width="1875"
     inkscape:window-height="1056"
     id="namedview8"
     showgrid="false"
     inkscape:zoom="28.963094"
     inkscape:cx="6.8080044"
     inkscape:cy="18.809498"
     inkscape:window-x="45"
     inkscape:window-y="24"
     inkscape:window-maximized="1"
     inkscape:current-layer="Shape_1_7_"
     showguides="false" /><path
     style="fill:#e6e6e6;fill-rule:evenodd;stroke:none;stroke-width:1px;stroke-linecap:butt;stroke-linejoin:miter;stroke-opacity:1"
     d="M 2.2905532,7.0474501 12.64907,7.0772571 17.545906,11.229782 0.9604041,10.550176 Z"
     id="path4754"
     inkscape:connector-curvature="0"
     sodipodi:nodetypes="ccccc" /><g
     id="Shape_1"
     transform="matrix(0.03259342,0,0,0.03259342,-6.7040498,2.4819419)"
     style="fill:#800000"><g
       id="g4"
       style="fill:#800000"><path
         d="m 219.11831,311.436 c -0.022,0.005 -0.032,0.003 -0.056,0.009 0.024,0.139 0.043,0.128 0.056,-0.009 z M 941.987,332.575 c 1.476,-52.841 -33.835,-74.252 -32.12,-72.974 -8.865,-6.607 -20.691,-9.007 -32.965,-12.397 21.246,5.869 -30.112,-5.286 -143.693,-17.75 -2.16,-0.094 -4.32,-0.188 -6.48,-0.281 -22.21592,-15.3252 -26.194,-19.84328 -34.373,-25.61628 -24.20348,-20.55582 -65.04568,-54.59248 -73.69602,-60.576 -20.5372,-13.81947 -25.36669,-13.09519 -57.478,-17.186 0,0 -34.41662,-3.834 -69.20062,-5.042 -56.897,-1.977 -59.22177,-1.14794 -59.22177,-1.14794 0,0 -10.29628,-0.44906 -64.23328,1.77994 -32.192,1.331 -57.895,3.538 -57.895,3.538 0,0 -39.964,6.832 -38.318,6.224 -16.795,6.207 -4.993,7.6 -4.508,10.425 -9.25,9.972 -25.809,27.88228 -47.053,90.70028 -1.77,5.233 -1.238,11.699 -2.536,17.188 0,22.552 1.117,59.737 0.901,61.977 3.723,-0.819 -22.681,14.576 -9.917,58.612 1.274,4.397 7.411,17.749 10.153,14.138 -12.241,16.121 26.23477,24.601 82.84877,29.028 -2.35,-7.895 -3.617,-16.253 -3.617,-24.908 0,-58.84291 46.96623,-95.75377 95.43923,-95.75377 48.473,0 95.95709,34.01536 96.80881,95.75377 0.14307,10.37001 -1.815,20.317 -5.14,29.548 1.244,-0.013 1.904,-0.021 1.904,-0.021 l 207.10605,0.467 c -4.41,-10.433 -6.0455,-21.92293 -6.85,-33.927 -3.48821,-52.04824 44.40983,-95.00472 92.88283,-95.00472 48.473,0 97.86913,38.90097 95.7505,95.00472 -0.45698,12.10137 -2.471,23.645 -6.936,34.132 l 4.628,0.006 c 0,0 31.2835,2.535 36.8155,-12.115 1.754,-1.079 5.025,-0.462 7.044,-1.127 6.262,-2.064 16.019,-14.87 12.397,-12.679 7.087,-4.291 10.955,-38.623 11.552,-60.016 z M 399.50952,160.78231 353.02052,228.077 c 0,0 61.37379,0.282 -97.76121,-0.146 13.339,-45.461 46.34,-72.04469 46.34,-72.04469 l 91.43021,-8.005 c 0,0 7.981,-0.04 9.017,2.745 2.233,2.728 -2.537,10.156 -2.537,10.156 z m 22.08935,69.95369 c 0,0 -16.209,-15.43728 -18.878,-23.79728 -1.136,-3.561 -0.391,-8.308 0.521,-11.395 -0.005,0.007 0.008,-0.039 0.044,-0.157 -0.016,0.049 -0.029,0.107 -0.044,0.157 0.127,-0.175 13.628,-32.09641 24.274,-41.32141 13.686,-7.696 64.52812,-1.69 64.52812,-1.69 l 0.037,78.05869 z m 224.62854,-33.00196 c -11.544,14.993 0.82333,36.79096 0.82333,36.79096 l -125.45162,-0.048 c 0,0 0.265,-77.31869 0.265,-71.23869 0.839,-3.864 0.624,-7.521 2.536,-10.143 1.871,-2.565 25.43498,-2.26 28.86098,-3.381 0.707,0.027 16.02428,-0.88 37.83228,6.198 26.11437,11.24671 34.46442,26.75419 55.13403,41.82173 z"
         id="path6"
         inkscape:connector-curvature="0"
         style="fill:#800000"
         sodipodi:nodetypes="cccccccccccccccccccccccssscccssscccccccccccccccccccccccccccccc" /></g></g><path
     style="overflow:visible;fill:#666666;stroke:#000000;stroke-width:1.88725293;stroke-miterlimit:4;stroke-dasharray:none"
     id="path3514-1-1-5"
     sodipodi:type="arc"
     sodipodi:cx="6.1523438"
     sodipodi:cy="15.137695"
     sodipodi:rx="1.8765619"
     sodipodi:ry="1.8765619"
     sodipodi:start="3.1415927"
     sodipodi:end="3.1406327"
     d="m 4.2757819,15.137695 a 1.8765619,1.8765619 0 0 1 1.8761116,-1.876562 1.8765619,1.8765619 0 0 1 1.8770119,1.875662 1.8765619,1.8765619 0 0 1 -1.8752106,1.877462 1.8765619,1.8765619 0 0 1 -1.8779121,-1.87476"
     sodipodi:open="true" /><path
     style="overflow:visible;fill:#666666;stroke:#000000;stroke-width:1.88725293;stroke-miterlimit:4;stroke-dasharray:none"
     id="path3514-1-1-5-5"
     sodipodi:type="arc"
     sodipodi:cx="18.782524"
     sodipodi:cy="15.057586"
     sodipodi:rx="1.8765619"
     sodipodi:ry="1.8765619"
     sodipodi:start="3.1415927"
     sodipodi:end="3.1406327"
     d="m 16.905962,15.057586 a 1.8765619,1.8765619 0 0 1 1.876112,-1.876562 1.8765619,1.8765619 0 0 1 1.877012,1.875661 1.8765619,1.8765619 0 0 1 -1.875211,1.877462 1.8765619,1.8765619 0 0 1 -1.877912,-1.87476"
     sodipodi:open="true" /></svg>
