<?xml version="1.0" encoding="UTF-8" standalone="no"?>
<svg xmlns="http://www.w3.org/2000/svg" xmlns:sodipodi="http://sodipodi.sourceforge.net/DTD/sodipodi-0.dtd" xmlns:inkscape="http://www.inkscape.org/namespaces/inkscape" viewBox="0 0 24 24" version="1.0" width="24" height="24">
 <defs id="defs7856">
  <linearGradient id="linearGradient5418" y2="18.14" gradientUnits="userSpaceOnUse" x2="25.17" gradientTransform="matrix(1.0625,0,0,0.93333,-1.5,0.51667)" y1="4.739" x1="21.09" inkscape:collect="always">
   <stop id="stop5414" stop-color="#ffffff"/>
   <stop id="stop5416" offset="1" stop-color="#ffffff" stop-opacity="0"/>
  </linearGradient>
  <linearGradient id="linearGradient5426" y2="8.24" gradientUnits="userSpaceOnUse" x2="0" gradientTransform="matrix(1.0452,0,0,0.97519,-0.83237,0.65789)" y1="26.933" inkscape:collect="always">
   <stop id="stop5422" stop-color="#3465a4"/>
   <stop id="stop5424" offset="1" stop-color="#204a87"/>
  </linearGradient>
  <filter id="filter5450" height="1.203" width="1.076" y="-0.102" x="-0.038" inkscape:collect="always">
   <feGaussianBlur id="feGaussianBlur5452" stdDeviation="0.71466" inkscape:collect="always"/>
  </filter>
  <linearGradient id="linearGradient5741" y2="30.489" gradientUnits="userSpaceOnUse" x2="24" y1="2.01" x1="17.799" inkscape:collect="always">
   <stop id="stop5737" stop-color="#2e3436"/>
   <stop id="stop5739" offset="1" stop-color="#080d19"/>
  </linearGradient>
 </defs>
 <g id="layer1" inkscape:label="Layer 1" inkscape:groupmode="layer" transform="translate(0,-24)">
  <g id="g3416" transform="matrix(0.48504583,0,0,0.48504583,0.3597217,23.888137)">
   <path d="M 4.8125,29.363 1.5,42.582 c -0.70396,1.954 0.0843,2.946 0.625,3.125 l 43.125,0 c 0.788,-0.629 1.614,-1.476 1.125,-3.25 l -2.5,-12.969 C 43.809,29.132 43.523,28.94 43.125,28.832 L 6.25,28.863 C 5.5292,28.82 5.1504,28.837 4.8125,29.363 Z" transform="matrix(1.0154,0,0,1.1259,-0.2403,-5.4628)" sodipodi:nodetypes="ccccccccc" id="path5428" inkscape:connector-curvature="0" filter="url(#filter5450)" fill-rule="evenodd" color="#000000"/>
   <rect x="4.511" y="2.511" width="38.978" height="27.478" ry="0.492" rx="0.557" id="rect5139" fill="url(#linearGradient5741)" fill-rule="evenodd" stroke="#202526" stroke-linejoin="round" stroke-linecap="square" color="#000000"/>
   <path d="M 4.8125,28.656 1.5,41.875 c -0.221,0.613 -0.4895,1.189 -0.2756,1.56 L 2.125,45 45.25,45 46.389,43.566 c 0.312,-0.392 0.194,-1.061 -0.014,-1.816 l -2.5,-12.969 c -0.066,-0.357 -0.352,-0.549 -0.75,-0.656 L 6.25,28.156 C 5.5292,28.113 5.1504,28.13 4.8125,28.656 Z" sodipodi:nodetypes="ccsccsccccc" id="path5147" inkscape:connector-curvature="0" fill="#2e3436" fill-rule="evenodd" stroke="#202526" stroke-linejoin="round" stroke-linecap="square" color="#000000"/>
   <path d="m 6.7502,29.752 -0.9651,6.267 c -0.6372,0.926 0.0762,1.396 0.5656,1.481 l 27.679,0 0.088,1.061 8.259,0 c 0.713,-0.298 1.46,-0.7 1.018,-1.541 l -1.29,-7.209 c -0.06,-0.169 -0.319,-0.26 -0.679,-0.311 L 8.0507,29.515 C 7.3985,29.494 7.0557,29.502 6.7499,29.752 Z" sodipodi:nodetypes="ccccccccccc" id="path2787" inkscape:connector-curvature="0" opacity="0.85" fill="none" stroke="#171b1c" stroke-linejoin="round" stroke-linecap="square" color="#000000" stroke-width="0.5"/>
   <g transform="translate(-1.0607,-1.5581)" id="g5266" fill="#555753" fill-rule="evenodd" stroke="#222728" stroke-linejoin="round" stroke-linecap="square" color="#000000" stroke-width="0.489">
    <rect x="7.745" y="33.12" width="2.928" height="1.511" id="rect5268"/>
    <rect x="10.989" y="33.12" width="2.133" height="1.511" id="rect5270"/>
    <rect x="13.475" y="33.12" width="2.133" height="1.511" id="rect5272"/>
    <rect x="15.906" y="33.12" width="2.133" height="1.511" id="rect5274"/>
    <rect x="18.513" y="33.12" width="2.133" height="1.511" id="rect5276"/>
    <rect x="20.988" y="33.12" width="2.133" height="1.511" id="rect5278"/>
    <rect x="23.463" y="33.12" width="2.133" height="1.511" id="rect5280"/>
    <rect x="26.07" y="33.12" width="2.133" height="1.511" id="rect5282"/>
    <rect x="28.59" y="33.12" width="2.133" height="1.511" id="rect5284"/>
    <rect x="31.06" y="33.12" width="2.133" height="1.511" id="rect5286"/>
    <rect x="33.495" y="33.12" width="2.133" height="1.511" id="rect5288"/>
    <rect x="36.01" y="33.12" width="2.133" height="1.511" id="rect5290"/>
    <rect x="38.489" y="33.12" width="2.133" height="1.511" id="rect5320"/>
    <rect x="40.964" y="33.12" width="1.914" height="1.511" id="rect5324"/>
   </g>
   <rect x="6.596" y="33.12" width="4.077" height="1.511" id="rect5199" fill="#555753" fill-rule="evenodd" stroke="#222728" stroke-linejoin="round" stroke-linecap="square" color="#000000" stroke-width="0.489"/>
   <rect x="10.989" y="33.12" width="2.133" height="1.511" id="rect5203" fill="#555753" fill-rule="evenodd" stroke="#222728" stroke-linejoin="round" stroke-linecap="square" color="#000000" stroke-width="0.489"/>
   <rect x="13.475" y="33.12" width="2.133" height="1.511" id="rect5207" fill="#555753" fill-rule="evenodd" stroke="#222728" stroke-linejoin="round" stroke-linecap="square" color="#000000" stroke-width="0.489"/>
   <rect x="15.906" y="33.12" width="2.133" height="1.511" id="rect5211" fill="#555753" fill-rule="evenodd" stroke="#222728" stroke-linejoin="round" stroke-linecap="square" color="#000000" stroke-width="0.489"/>
   <rect x="18.513" y="33.12" width="2.133" height="1.511" id="rect5215" fill="#555753" fill-rule="evenodd" stroke="#222728" stroke-linejoin="round" stroke-linecap="square" color="#000000" stroke-width="0.489"/>
   <rect x="20.988" y="33.12" width="2.133" height="1.511" id="rect5219" fill="#555753" fill-rule="evenodd" stroke="#222728" stroke-linejoin="round" stroke-linecap="square" color="#000000" stroke-width="0.489"/>
   <rect x="23.463" y="33.12" width="2.133" height="1.511" id="rect5223" fill="#555753" fill-rule="evenodd" stroke="#222728" stroke-linejoin="round" stroke-linecap="square" color="#000000" stroke-width="0.489"/>
   <rect x="26.07" y="33.12" width="2.133" height="1.511" id="rect5227" fill="#555753" fill-rule="evenodd" stroke="#222728" stroke-linejoin="round" stroke-linecap="square" color="#000000" stroke-width="0.489"/>
   <rect x="28.59" y="33.12" width="2.133" height="1.511" id="rect5231" fill="#555753" fill-rule="evenodd" stroke="#222728" stroke-linejoin="round" stroke-linecap="square" color="#000000" stroke-width="0.489"/>
   <rect x="31.06" y="33.12" width="2.133" height="1.511" id="rect5235" fill="#555753" fill-rule="evenodd" stroke="#222728" stroke-linejoin="round" stroke-linecap="square" color="#000000" stroke-width="0.489"/>
   <rect x="33.495" y="33.12" width="2.133" height="1.511" id="rect5239" fill="#555753" fill-rule="evenodd" stroke="#222728" stroke-linejoin="round" stroke-linecap="square" color="#000000" stroke-width="0.489"/>
   <rect x="36.01" y="33.12" width="2.133" height="1.511" id="rect5243" fill="#555753" fill-rule="evenodd" stroke="#222728" stroke-linejoin="round" stroke-linecap="square" color="#000000" stroke-width="0.489"/>
   <rect x="38.31" y="33.12" width="3.724" height="1.511" id="rect5247" fill="#545755" fill-rule="evenodd" stroke="#222728" stroke-linejoin="round" stroke-linecap="square" color="#000000" stroke-width="0.489"/>
   <rect x="6.484" y="5.484" width="35.03" height="21.03" ry="0.372" rx="0.361" id="rect5137" fill="url(#linearGradient5426)" fill-rule="evenodd" stroke="#204a87" stroke-linejoin="round" stroke-linecap="square" color="#000000" stroke-width="0.968"/>
   <rect x="11.373" y="35.24" width="2.133" height="1.511" id="rect5149" fill="#555753" fill-rule="evenodd" stroke="#222728" stroke-linejoin="round" stroke-linecap="square" color="#000000" stroke-width="0.489"/>
   <rect x="13.994" y="35.24" width="2.133" height="1.511" id="rect5159" fill="#555753" fill-rule="evenodd" stroke="#222728" stroke-linejoin="round" stroke-linecap="square" color="#000000" stroke-width="0.489"/>
   <rect x="16.623" y="35.24" width="12.414" height="1.511" id="rect5163" fill="#555753" fill-rule="evenodd" stroke="#222728" stroke-linejoin="round" stroke-linecap="square" color="#000000" stroke-width="0.489"/>
   <rect x="29.588" y="35.24" width="2.133" height="1.511" id="rect5167" fill="#555753" fill-rule="evenodd" stroke="#222728" stroke-linejoin="round" stroke-linecap="square" color="#000000" stroke-width="0.489"/>
   <rect x="32.21" y="35.24" width="2.133" height="1.511" id="rect5171" fill="#555753" fill-rule="evenodd" stroke="#222728" stroke-linejoin="round" stroke-linecap="square" color="#000000" stroke-width="0.489"/>
   <rect x="34.98" y="36.432" width="2.133" height="1.324" id="rect5175" fill="#555753" fill-rule="evenodd" stroke="#222728" stroke-linejoin="round" stroke-linecap="square" color="#000000" stroke-width="0.489"/>
   <rect x="37.37" y="35.18" width="2.133" height="1.199" id="rect5183" fill="#555753" fill-rule="evenodd" stroke="#222728" stroke-linejoin="round" stroke-linecap="square" color="#000000" stroke-width="0.489"/>
   <rect x="37.623" y="36.554" width="2.133" height="1.168" id="rect5179" fill="#555753" fill-rule="evenodd" stroke="#222728" stroke-linejoin="round" stroke-linecap="square" color="#000000" stroke-width="0.489"/>
   <rect x="40.24" y="36.526" width="2.133" height="1.23" id="rect5187" fill="#555753" fill-rule="evenodd" stroke="#222728" stroke-linejoin="round" stroke-linecap="square" color="#000000" stroke-width="0.489"/>
   <rect x="8.779" y="35.24" width="2.133" height="1.511" id="rect5191" fill="#555753" fill-rule="evenodd" stroke="#222728" stroke-linejoin="round" stroke-linecap="square" color="#000000" stroke-width="0.489"/>
   <rect x="6.154" y="35.24" width="2.133" height="1.511" id="rect5195" fill="#555753" fill-rule="evenodd" stroke="#222728" stroke-linejoin="round" stroke-linecap="square" color="#000000" stroke-width="0.489"/>
   <g transform="translate(-1.4982,-2.9331)" id="g5328" fill="#555753" fill-rule="evenodd" stroke="#222728" stroke-linejoin="round" stroke-linecap="square" color="#000000" stroke-width="0.489">
    <rect x="8.495" y="33.12" width="2.178" height="1.511" id="rect5330"/>
    <rect x="10.989" y="33.12" width="2.133" height="1.511" id="rect5332"/>
    <rect x="13.475" y="33.12" width="2.133" height="1.511" id="rect5334"/>
    <rect x="15.906" y="33.12" width="2.133" height="1.511" id="rect5336"/>
    <rect x="18.513" y="33.12" width="2.133" height="1.511" id="rect5338"/>
    <rect x="20.988" y="33.12" width="2.133" height="1.511" id="rect5340"/>
    <rect x="23.463" y="33.12" width="2.133" height="1.511" id="rect5342"/>
    <rect x="26.07" y="33.12" width="2.133" height="1.511" id="rect5344"/>
    <rect x="28.59" y="33.12" width="2.133" height="1.511" id="rect5346"/>
    <rect x="31.06" y="33.12" width="2.133" height="1.511" id="rect5348"/>
    <rect x="33.495" y="33.12" width="2.133" height="1.511" id="rect5350"/>
    <rect x="36.01" y="33.12" width="2.133" height="1.511" id="rect5352"/>
    <rect x="38.489" y="33.12" width="2.133" height="1.511" id="rect5354"/>
    <rect x="40.964" y="33.12" width="2.133" height="1.511" id="rect5356"/>
   </g>
   <path d="M 18.143,39.34 18,41 29,41 28.929,39.462 C 28.913,39.15 28.727,39.006 28.5,39 l -10.071,0 c -0.144,0.009 -0.238,0.124 -0.286,0.34 z" sodipodi:nodetypes="ccccccc" id="path5386" inkscape:connector-curvature="0" opacity="0.75" fill="#555753" fill-rule="evenodd" color="#000000"/>
   <path d="M 18.143,41.731 18,41 29,41 28.929,41.769 C 28.904,41.988 28.67,41.973 28.5,42 l -10.071,0 c -0.117,0.016 -0.217,-0.05 -0.286,-0.269 z" sodipodi:nodetypes="ccccccc" id="path5388" inkscape:connector-curvature="0" opacity="0.75" fill="#555753" fill-rule="evenodd" color="#000000"/>
   <path d="m 1.591,43.05 c 0.0984,0.644 0.0034,1.371 0.8839,1.68 l 42.426,0 c 0.499,-0.476 0.927,-0.783 1.194,-1.724 L 1.5909,43.05 Z" sodipodi:nodetypes="ccccc" id="path5398" inkscape:connector-curvature="0" fill="#2e3436" fill-rule="evenodd" color="#000000"/>
   <path d="m 7,6.1167 0.1255,13.883 c 7.1195,-4.224 26.594,-6.457 33.874,-6.65 l 0,-7.35 -34,0.1167 z" sodipodi:nodetypes="ccccc" id="path5410" inkscape:connector-curvature="0" opacity="0.218" fill="url(#linearGradient5418)" fill-rule="evenodd" color="#000000"/>
   <path d="m 1.6661,43 44.396,0 c 0,0.619 -0.488,1 -0.937,1 L 2.8541,44 C 1.9356,44 1.6662,43 1.6662,43 Z" sodipodi:nodetypes="ccccc" id="rect5496" inkscape:connector-curvature="0" opacity="0.12" fill="#eeeeec" fill-rule="evenodd" color="#000000"/>
   <path d="M 28.997,43.006 29,44.08 c 0,0.191 -0.154,0.345 -0.345,0.345 l -10.31,0 C 18.154,44.425 18,44.271 18,44.08 l 0,-1.082 10.997,0.008 z" sodipodi:nodetypes="ccccccc" id="rect5733" inkscape:connector-curvature="0" opacity="0.615" fill="#000000" fill-rule="evenodd" color="#000000"/>
   <rect x="23.688" y="42.42" width="5.313" height="1" ry="0.345" rx="0.157" id="rect5466" opacity="0.273" fill="#808285" fill-rule="evenodd" color="#000000"/>
   <rect x="18" y="42.42" width="5.438" height="1" ry="0.345" rx="0.157" id="rect3766" opacity="0.273" fill="#808285" fill-rule="evenodd" color="#000000"/>
   <path d="m 18.501,37.265 -0.147,1.293 4.646,0 -0.031,-1.198 C 22.962,37.117 22.88,37.005 22.781,37 l -4.154,0 c -0.063,0.007 -0.104,0.097 -0.126,0.265 z" sodipodi:nodetypes="ccccccc" id="path4778" inkscape:connector-curvature="0" opacity="0.27" fill="#888a85" fill-rule="evenodd" color="#000000"/>
   <path d="m 28.615,37.265 0.154,1.293 -4.813,0 0.032,-1.198 C 23.995,37.117 24.08,37.005 24.183,37 l 4.303,0 c 0.065,0.007 0.108,0.097 0.129,0.265 z" sodipodi:nodetypes="ccccccc" id="path4780" inkscape:connector-curvature="0" opacity="0.27" fill="#888a85" fill-rule="evenodd" color="#000000"/>
   <ellipse transform="matrix(0.34811,0,0,0.2901,21.238,17.601)" id="path4782" cx="6.497" cy="59.977" rx="2.873" ry="1.724" fill="#555753" fill-rule="evenodd" stroke="#3465a4" fill-opacity="0.75" stroke-width="3.147"/>
   <rect x="22.938" y="37" width="1.094" height="1.5" ry="0.345" rx="0.157" id="rect3781" opacity="0.619" fill="#808285" fill-rule="evenodd" color="#000000"/>
  </g>
 </g>
 <metadata id="metadata88"/>
</svg>
