<?xml version="1.0" encoding="UTF-8" standalone="no"?>
<!-- Created with Inkscape (http://www.inkscape.org/) -->

<svg
   xmlns:dc="http://purl.org/dc/elements/1.1/"
   xmlns:cc="http://creativecommons.org/ns#"
   xmlns:rdf="http://www.w3.org/1999/02/22-rdf-syntax-ns#"
   xmlns:svg="http://www.w3.org/2000/svg"
   xmlns="http://www.w3.org/2000/svg"
   xmlns:sodipodi="http://sodipodi.sourceforge.net/DTD/sodipodi-0.dtd"
   xmlns:inkscape="http://www.inkscape.org/namespaces/inkscape"
   width="24"
   height="24"
   id="svg3000"
   version="1.1"
   inkscape:version="0.48.4 r9939"
   sodipodi:docname="Nytt dokument 2">
  <defs
     id="defs3002" />
  <sodipodi:namedview
     id="base"
     pagecolor="#ffffff"
     bordercolor="#666666"
     borderopacity="1.0"
     inkscape:pageopacity="0.0"
     inkscape:pageshadow="2"
     inkscape:zoom="7.9195959"
     inkscape:cx="25.766187"
     inkscape:cy="25.439181"
     inkscape:document-units="px"
     inkscape:current-layer="layer1"
     showgrid="false"
     inkscape:window-width="1867"
     inkscape:window-height="1056"
     inkscape:window-x="53"
     inkscape:window-y="24"
     inkscape:window-maximized="1" />
  <metadata
     id="metadata3005">
    <rdf:RDF>
      <cc:Work
         rdf:about="">
        <dc:format>image/svg+xml</dc:format>
        <dc:type
           rdf:resource="http://purl.org/dc/dcmitype/StillImage" />
        <dc:title></dc:title>
      </cc:Work>
    </rdf:RDF>
  </metadata>
  <g
     inkscape:label="Layer 1"
     inkscape:groupmode="layer"
     id="layer1"
     transform="translate(0,-1028.3622)">
    <g
       transform="matrix(-44.210088,0,0,44.210088,35.674396,1031.1014)"
       id="g6547">
      <path
         d="m 0.67499548,0.44929292 -0.002899,4.1666e-4 -0.002795,3.6458e-4 -0.002691,2.9514e-4 -0.002569,2.2569e-4 -0.0025,1.7361e-4 -0.002378,1.0417e-4 -0.002292,5.208e-5 -0.002205,0 -0.002101,-6.944e-5 -0.002014,-1.2153e-4 -0.001927,-1.7361e-4 -0.00184,-2.2569e-4 -0.001771,-2.9514e-4 -0.001667,-3.2986e-4 -0.001597,-3.8194e-4 -0.00151,-4.3402e-4 -0.001441,-4.8611e-4 -0.001372,-5.3819e-4 -0.001285,-5.9028e-4 -0.001233,-6.2499e-4 -0.001146,-6.7708e-4 -0.001094,-7.2916e-4 -0.001024,-7.6389e-4 -9.5485e-4,-8.1596e-4 -9.0277e-4,-8.5069e-4 -8.3333e-4,-9.0278e-4 -7.8125e-4,-9.3749e-4 -7.2916e-4,-9.7222e-4 -6.7708e-4,-0.001024 -6.2499e-4,-0.001059 -0.001094,-0.002222 -9.2013e-4,-0.002361 -7.4652e-4,-0.0025 -6.0764e-4,-0.002622 -4.6875e-4,-0.00276 -3.2985e-4,-0.002865 -2.4306e-4,-0.002969 -1.5625e-4,-0.003073 -8.68e-5,-0.003177 -1.736e-5,-0.003247 3.472e-5,-0.003333 3.472e-5,-0.003403 6.944e-5,-0.003455 8.681e-5,-0.007118 1.736e-5,-0.003611 -0.003802,-0.0803294 -0.0158332,0.0741662 c -0.003333,0.0137499 -0.007083,0.0266665 0.0129166,0.0370831 0.0141666,0.0125173 -0.001667,0.0296005 -0.0170832,0.0275172 -0.0462497,0.001649 -0.0395831,-0.0291665 -0.0354164,-0.0508504 l 0.0025,-0.0316665 0.0075,-0.0645829 -0.00625,-0.0162499 C 0.51582983,0.27137739 0.48166338,0.26179412 0.44291363,0.24096092 l -0.0274998,0.00375 c -0.0129166,0.002083 -0.009583,0.0166666 -0.0108333,0.0262498 l -0.004167,0.0262672 -0.0229165,0.059583 -0.001667,0.004983 c -0.001667,0.004167 -0.00125,0.0204165 0.004583,0.0287498 l 0.0124999,0.0250172 c 0.009167,0.0137326 0.0116666,0.0487323 -0.0141666,0.0374824 l 4.1666e-4,0 -0.0191665,-0.007917 c -0.0137499,-0.005816 -0.0249998,-0.0437324 -0.0299998,-0.0712322 l 8.3333e-4,-0.0391838 c -0.0120833,-0.003316 -0.0170832,0.0662496 -0.0120833,0.0808502 l 0.0120833,0.0362324 c 0.003333,0.0116666 -0.0104166,0.0158506 -0.0199999,0.0158506 -0.0224998,0 -0.0324998,-0.0229339 -0.0370831,-0.0421004 l -0.003333,-0.0145832 c -0.005833,-0.0220832 -0.002917,-0.055833 0.008333,-0.0754162 l 0.005833,-0.0120833 c 0.009583,-0.0241665 -0.002917,-0.0412497 -0.005833,-0.0537496 -0.009583,-0.0391664 -0.0174999,-0.0770828 0.009583,-0.1145826 l 0.0025,-0.002899 c -0.00125,-0.002934 -0.009167,-0.009167 -0.0137499,-0.0237672 C 0.26666352,0.0951289 0.25749692,0.04054591 0.27041312,0.04054591 l 0.00875,-4.1666e-4 c 0.0216665,0 0.0149999,0.08999943 0.0412497,0.08416613 l 0.1874988,0.002083 0.0333331,-0.009149 c 0.0116666,-0.003351 0.0220832,-0.0108506 0.0329164,-0.01751725 l 0.0216665,-0.01333325 c 0.0241665,0.02458318 0.045833,0.03999975 0.0812495,0.05291633 0.009583,0.0733329 -0.00125,0.0896001 -0.0104166,0.13333248 l -0.003333,0.0179166 c -0.007083,0.0312672 -0.009167,0.0637496 -0.0075,0.0962494 l 8.3332e-4,0.0149999 c -8.3332e-4,0.0154166 0.008333,0.0166839 0.0204165,0.0204339 0.007917,0.004149 0.0133333,0.0195658 -0.002083,0.0270658 l 4.1666e-4,0 -4.1666e-4,0 z"
         id="path12"
         inkscape:connector-curvature="0"
         stroke-miterlimit="10.433"
         style="fill:#1e1916;stroke:#1e1916;stroke-width:0;stroke-linecap:round;stroke-linejoin:round;stroke-miterlimit:10.43299961" />
      <path
         d="m 0.71499522,1.29127e-4 9.375e-4,6.9444e-4 9.7221e-4,6.94443e-4 0.001962,0.0015104 0.002031,0.00161458 0.002066,0.00171874 0.002101,0.00180554 0.002118,0.00187499 0.002153,0.0019444 0.00217,0.0019965 0.00217,0.002066 0.00217,0.0020833 0.004288,0.0042708 0.002101,0.0021528 0.002083,0.0021528 0.002031,0.0021354 0.001979,0.0021354 0.0133332,0.01414922 c 0.008333,0.0087499 0.0212499,0.0074999 0.0324998,0.0099999 l 0.004583,4.1667e-4 c 0.0120832,0.006684 0.008333,0.02001723 0.004167,0.02999981 l -0.0025,0.0062673 c -0.0120832,0.02873245 -0.047083,0.03081577 -0.0720829,0.01748253 l -0.0108333,-0.005833 -0.00375,0 -0.007917,0.005 -0.0154166,0.0125173 C 0.65791226,0.10681247 0.63166242,0.09012855 0.61082922,0.06762869 l 0.048333,-0.06083294 0.0162499,-0.02333318 0.003333,-0.0079166 0.00375,-0.0087326 c 0,0 0.0149999,-0.01876724 0.0237498,-0.01501727 0.00875,0.0037673 0.0141666,0.01999987 0.0120833,0.02833316 l -0.0025,0.00999993 -8.3333e-4,0.009999937 4.1667e-4,0"
         id="path14"
         inkscape:connector-curvature="0"
         stroke-miterlimit="10.433"
         style="fill:#1e1916;stroke:#1e1916;stroke-width:0;stroke-linecap:round;stroke-linejoin:round;stroke-miterlimit:10.43299961" />
    </g>
  </g>
</svg>
