<?xml version="1.0" encoding="UTF-8" standalone="no"?>
<svg xmlns="http://www.w3.org/2000/svg" xmlns:sodipodi="http://sodipodi.sourceforge.net/DTD/sodipodi-0.dtd" xmlns:inkscape="http://www.inkscape.org/namespaces/inkscape" width="24" height="24" version="1.1">
 <metadata id="metadata3212"/>
 <g inkscape:label="Layer 1" inkscape:groupmode="layer" id="layer1" transform="translate(0,-1028.3622)">
  <switch id="switch3117" transform="matrix(0.04126034,0,0,0.04126034,-0.21995112,513.7136)">
   <g id="g3121">
    <path d="m 587.001,191.775 c 0,-34.867 -24.173,-64.178 -56.635,-72.094 -0.487,-0.119 -0.977,-0.23 -1.468,-0.34 -1.321,0.132 -2.625,-0.138 -3.761,-0.734 -4.019,-0.676 -8.14,-1.047 -12.347,-1.047 -14.877,0 -29.225,4.381 -41.491,12.671 -3.054,2.063 -7.2,1.261 -9.263,-1.792 -0.774,-1.146 -1.145,-2.447 -1.144,-3.735 0.002,-2.139 1.03,-4.239 2.936,-5.526 14.481,-9.786 31.411,-14.959 48.962,-14.959 1.654,0 3.297,0.051 4.928,0.142 C 499.864,65.46 460.832,40.014 417.312,40.014 c -46.851,0 -87.649,29.456 -103.479,71.663 -2.983,7.955 -5.083,16.361 -6.166,25.111 -0.418,3.378 -3.293,5.852 -6.612,5.852 -0.207,0 -0.417,-0.019 -0.627,-0.039 -0.067,-0.006 -0.133,-0.004 -0.2,-0.012 -3.656,-0.452 -6.253,-3.783 -5.801,-7.439 1.036,-8.369 2.905,-16.456 5.507,-24.189 -42.585,1.412 -76.817,35.727 -78.098,78.348 8.087,0.308 15.9,2.767 22.695,7.162 1.975,1.276 3.044,3.421 3.043,5.609 -0.001,1.24 -0.342,2.495 -1.065,3.614 -2,3.095 -6.129,3.979 -9.224,1.978 -4.437,-2.869 -9.495,-4.561 -14.755,-4.959 -0.804,-0.062 -1.611,-0.097 -2.423,-0.097 -14.922,0 -27.461,10.372 -30.804,24.284 11.929,-3.955 24.376,-6.65 37.163,-7.951 5.847,-0.594 11.765,-0.901 17.736,-0.901 5.979,0 11.893,0.314 17.732,0.909 11.826,1.203 23.331,3.594 34.384,7.062 20.481,6.429 39.406,16.55 55.945,29.621 6.605,5.221 12.835,10.904 18.624,17.02 h 135.23 c 44.668,0 80.877,-36.205 80.885,-80.871 0,-0.006 -10e-4,-0.01 -10e-4,-0.014 z" id="path3123" inkscape:connector-curvature="0" fill="#b3b3b3"/>
    <path d="m 521.806,465.719 c -1.138,0 -2.266,0.055 -3.387,0.139 -14.255,1.062 -27.023,8.777 -34.622,21.114 -2.721,4.414 -8.506,5.79 -12.921,3.07 -2.88,-1.773 -4.455,-4.852 -4.456,-8.002 0,-1.681 0.439,-3.382 1.385,-4.918 11.22,-18.215 30.377,-29.352 51.597,-30.136 -1.799,-60.006 -50.021,-108.336 -109.977,-110.315 3.667,10.895 6.302,22.287 7.761,34.077 0.637,5.147 -3.02,9.836 -8.166,10.473 -0.094,0.012 -0.187,0.009 -0.281,0.018 -0.296,0.027 -0.592,0.055 -0.884,0.055 -4.672,0 -8.72,-3.482 -9.308,-8.238 -1.525,-12.323 -4.483,-24.163 -8.688,-35.367 -9.626,-25.658 -25.811,-47.963 -46.402,-65.029 -2.799,-2.319 -5.68,-4.541 -8.637,-6.662 -25.652,-18.406 -57.028,-29.169 -90.619,-29.169 -2.87,0 -5.725,0.084 -8.565,0.239 -15.718,0.86 -30.94,4.069 -45.253,9.344 -38.31,14.117 -70.116,42.994 -87.554,81 2.307,-0.129 4.63,-0.201 6.969,-0.201 24.705,0 48.537,7.281 68.921,21.057 2.683,1.812 4.13,4.769 4.133,7.779 0.002,1.812 -0.52,3.645 -1.61,5.259 -2.904,4.298 -8.741,5.427 -13.038,2.522 -17.267,-11.669 -37.463,-17.836 -58.405,-17.836 -5.904,0 -11.693,0.5 -17.333,1.446 -1.631,0.87 -3.511,1.261 -5.415,1.056 -0.665,0.148 -1.328,0.304 -1.988,0.465 -45.703,11.139 -79.73,52.417 -79.73,101.501 0,0.011 -0.001,0.021 -0.001,0.031 0.017,62.868 50.986,113.828 113.86,113.828 H 405.6 512.417 c 29.816,0 53.992,-24.176 53.992,-53.997 0,-24.594 -20.009,-44.603 -44.603,-44.603 z" id="path3125" inkscape:connector-curvature="0" fill="#b3b3b3"/>
   </g>
  </switch>
  <switch transform="matrix(0.04099584,0,0,0.04099584,-0.41974494,1028.2304)" id="switch4024">
   <g id="g4028">
    <g id="g4030">
     <path inkscape:connector-curvature="0" d="m 259.145,407.478 c 17.73,-46.855 62.652,-78.06 113.067,-78.06 19.159,0 37.393,4.506 53.622,12.558 8.705,-21.276 13.515,-44.558 13.515,-68.967 0,-100.664 -81.604,-182.267 -182.268,-182.267 -100.663,0 -182.266,81.603 -182.266,182.267 0,82.6 54.95,152.352 130.283,174.73 11.605,-19.933 31.027,-34.761 54.047,-40.261 z" id="path4032" fill="#ffaa00"/>
     <path inkscape:connector-curvature="0" d="m 294.336,76.668 c -0.122,0 -0.245,-0.011 -0.367,-0.034 -12.121,-2.262 -24.531,-3.409 -36.888,-3.409 -11.317,0 -22.722,0.969 -33.895,2.88 -0.113,0.02 -0.226,0.029 -0.338,0.029 -0.647,0 -1.263,-0.314 -1.641,-0.857 -0.443,-0.636 -0.479,-1.472 -0.091,-2.143 l 23.761,-41.157 c 3.607,-6.248 8.423,-9.688 13.56,-9.688 5.137,0 9.953,3.44 13.561,9.688 l 24.07,41.69 c 0.391,0.676 0.352,1.518 -0.099,2.155 -0.38,0.537 -0.991,0.846 -1.633,0.846 z" id="path4034" fill="#ffaa00"/>
     <path inkscape:connector-curvature="0" d="m 103.03,144.698 c -0.174,0 -0.349,-0.022 -0.521,-0.069 -0.749,-0.202 -1.313,-0.819 -1.448,-1.583 L 92.804,96.214 C 91.729,90.115 92.71,84.88 95.568,81.473 c 2.333,-2.78 5.779,-4.25 9.966,-4.25 2.499,0 5.206,0.524 8.045,1.558 l 45.236,16.465 c 0.734,0.267 1.245,0.937 1.309,1.716 0.064,0.778 -0.331,1.523 -1.012,1.906 -20.767,11.696 -39.122,26.877 -54.555,45.121 -0.386,0.457 -0.948,0.709 -1.527,0.709 z" id="path4036" fill="#ffaa00"/>
     <path inkscape:connector-curvature="0" d="m 55.301,274.2 c -0.462,0 -0.919,-0.16 -1.286,-0.468 l -36.419,-30.56 c -5.526,-4.638 -8.078,-9.978 -7.186,-15.037 0.892,-5.059 5.117,-9.204 11.896,-11.671 l 45.213,-16.457 c 0.223,-0.081 0.455,-0.121 0.684,-0.121 0.525,0 1.041,0.207 1.423,0.594 0.549,0.556 0.725,1.381 0.449,2.112 -8.382,22.233 -12.68,45.655 -12.774,69.615 -0.003,0.776 -0.455,1.48 -1.158,1.807 -0.269,0.125 -0.557,0.186 -0.842,0.186 z" id="path4038" fill="#ffaa00"/>
     <path inkscape:connector-curvature="0" d="m 54.448,404.091 c -7.214,0 -12.602,-2.45 -15.17,-6.898 -2.568,-4.449 -1.997,-10.341 1.61,-16.589 l 24.06,-41.67 c 0.359,-0.622 1.022,-1 1.731,-1 0.062,0 0.124,0.003 0.187,0.009 0.778,0.072 1.442,0.592 1.701,1.329 7.889,22.476 19.65,43.181 34.958,61.539 0.497,0.597 0.604,1.427 0.275,2.129 -0.329,0.703 -1.035,1.152 -1.811,1.152 l -47.541,-10e-4 z" id="path4040" fill="#ffaa00"/>
     <path inkscape:connector-curvature="0" d="m 174.05,508.828 c -6.811,0 -11.828,-5.395 -13.421,-14.431 l -8.36,-47.413 c -0.136,-0.771 0.189,-1.549 0.833,-1.993 0.341,-0.235 0.739,-0.354 1.137,-0.354 0.353,0 0.706,0.093 1.021,0.28 12.801,7.597 26.484,13.76 40.669,18.317 1.05,0.338 1.629,1.462 1.293,2.513 -2.481,7.765 -4.133,14.701 -4.133,23.319 0,1.573 0.304,4.142 0.548,6.204 l 0.054,0.453 c 0.076,0.646 -0.166,1.288 -0.649,1.723 l -6.928,6.226 c -4.04,3.389 -8.193,5.156 -12.064,5.156 z" id="path4042" fill="#ffaa00"/>
     <path inkscape:connector-curvature="0" d="m 457.351,363.719 c -0.501,0 -1,-0.188 -1.385,-0.557 -4.231,-4.062 -8.809,-7.854 -13.604,-11.272 -0.759,-0.542 -1.044,-1.535 -0.686,-2.396 1.022,-2.462 1.996,-4.938 2.892,-7.36 0.27,-0.727 0.935,-1.233 1.707,-1.299 0.057,-0.005 0.113,-0.007 0.17,-0.007 0.71,0 1.372,0.378 1.731,1 l 10.906,18.892 c 0.497,0.862 0.285,1.96 -0.499,2.574 -0.362,0.284 -0.798,0.425 -1.232,0.425 z" id="path4044" fill="#ffaa00"/>
     <path inkscape:connector-curvature="0" d="m 458.85,277.275 c -0.291,0 -0.584,-0.063 -0.857,-0.193 -0.707,-0.335 -1.153,-1.052 -1.143,-1.834 0.011,-0.772 0.016,-1.513 0.016,-2.239 0,-23.188 -3.945,-45.919 -11.726,-67.56 -0.263,-0.73 -0.079,-1.546 0.471,-2.094 0.381,-0.38 0.892,-0.583 1.411,-0.583 0.229,0 0.461,0.04 0.685,0.121 l 44.62,16.243 c 6.778,2.467 11.003,6.612 11.896,11.671 0.892,5.059 -1.66,10.399 -7.186,15.037 l -36.901,30.964 c -0.368,0.307 -0.825,0.467 -1.286,0.467 z" id="path4046" fill="#ffaa00"/>
     <path inkscape:connector-curvature="0" d="m 413.104,147.04 c -0.59,0 -1.161,-0.262 -1.546,-0.731 -15.14,-18.452 -33.266,-33.903 -53.873,-45.926 -0.67,-0.391 -1.054,-1.134 -0.984,-1.906 0.07,-0.772 0.579,-1.436 1.309,-1.701 l 44.652,-16.25 c 2.841,-1.034 5.547,-1.558 8.044,-1.558 4.188,0 7.636,1.47 9.968,4.251 2.857,3.405 3.839,8.64 2.763,14.739 l -8.362,47.428 c -0.136,0.77 -0.707,1.39 -1.463,1.587 -0.17,0.046 -0.34,0.067 -0.508,0.067 z" id="path4048" fill="#ffaa00"/>
     <path inkscape:connector-curvature="0" d="m 595.627,530.521 c -0.834,-16.318 -14.371,-29.338 -30.894,-29.338 -0.795,0 -1.583,0.039 -2.366,0.098 -9.877,0.741 -18.727,6.09 -23.994,14.643 -1.887,3.061 -5.897,4.017 -8.961,2.129 -1.996,-1.23 -3.089,-3.364 -3.09,-5.549 0,-1.166 0.305,-2.347 0.961,-3.412 7.777,-12.625 21.057,-20.328 35.763,-20.88 -1.24,-41.618 -34.663,-75.128 -76.243,-76.507 2.54,7.55 4.365,15.445 5.376,23.615 0.442,3.569 -2.094,6.821 -5.663,7.263 -0.065,0.008 -0.129,0.006 -0.194,0.012 -0.206,0.02 -0.411,0.038 -0.614,0.038 -3.239,0 -6.047,-2.415 -6.454,-5.713 -1.058,-8.541 -3.106,-16.748 -6.02,-24.515 -1.118,-2.981 -2.362,-5.899 -3.729,-8.744 -7.823,-16.288 -19.604,-30.232 -34.023,-40.684 -4.734,-3.432 -9.754,-6.486 -15.012,-9.122 -14.585,-7.312 -30.999,-11.411 -48.257,-11.411 -42.489,0 -80.596,24.844 -98.026,62.824 1.596,-0.089 3.199,-0.144 4.815,-0.144 17.132,0 33.66,5.05 47.798,14.604 1.86,1.257 2.864,3.308 2.866,5.396 10e-4,1.257 -0.36,2.526 -1.116,3.646 -2.014,2.979 -6.063,3.764 -9.043,1.749 -11.976,-8.092 -25.982,-12.369 -40.505,-12.369 -4.108,0 -8.132,0.361 -12.056,1.022 -1.109,0.582 -2.381,0.845 -3.67,0.717 -0.479,0.106 -0.957,0.216 -1.434,0.331 -18.139,4.424 -33.616,15.69 -43.544,30.905 -3.263,5 -5.92,10.425 -7.879,16.174 -2.063,6.056 -3.355,12.464 -3.736,19.115 -0.08,1.387 -0.13,2.78 -0.13,4.187 0,0.004 0,0.009 0,0.013 0.007,43.604 35.357,78.95 78.963,78.95 h 198.628 74.08 c 20.677,0 37.443,-16.766 37.443,-37.447 0,-0.536 -0.019,-1.067 -0.04,-1.596 z" id="path4050" fill="#b3b3b3"/>
    </g>
   </g>
  </switch>
 </g>
</svg>
