<?xml version="1.0" encoding="UTF-8" standalone="no"?>
<svg xmlns="http://www.w3.org/2000/svg" xmlns:sodipodi="http://sodipodi.sourceforge.net/DTD/sodipodi-0.dtd" xmlns:inkscape="http://www.inkscape.org/namespaces/inkscape" width="24" height="24" viewBox="0 0 24 24" version="1.0">
 <metadata id="metadata4"/>
 <rect id="rect3411" width="20.379" height="21.849" x="1.847" y="1.119" fill="#ffffff"/>
 <g transform="matrix(0.04136539,0,0,0.04136539,-1.4461831,-1.267893)" id="g8" fill="#000080">
  <path d="m 81.553493,609.68121 c -23.478786,-4.36846 -38.026716,-17.69952 -44.23322,-40.5333 -1.666124,-6.12969 -1.76678,-20.20156 -1.76678,-247 l 0,-240.499996 2.233155,-8.373779 c 5.725822,-21.470413 19.780719,-35.211978 41.766845,-40.83572 6.631125,-1.696148 19.594455,-1.790501 245.999997,-1.790501 223.52273,0 239.43669,0.112295 245.7433,1.734056 16.60649,4.270396 29.36707,14.086266 36.09557,27.765944 7.75705,15.770794 7.16113,-5.990182 7.16113,261.499996 0,227.0761 -0.0902,239.38457 -1.8089,246.70814 -4.92962,21.0063 -17.56825,34.06696 -39.1911,40.49976 -5.67908,1.68953 -18.81014,1.79417 -245.5,1.95641 -193.0645,0.13817 -240.857193,-0.0811 -246.499997,-1.13101 z m 99.648477,-94.63903 c 5.92937,-4.22208 5.85152,-3.32583 5.85152,-67.36215 l 0,-58.53212 4.5,0 4.5,0 0,58.7656 c 0,66.74815 -0.36956,63.63344 8.07399,68.04897 7.47759,3.91038 14.99459,1.99127 20.36422,-5.19902 2.02074,-2.7059 2.06723,-3.94405 2.33484,-62.18821 l 0.27305,-59.42734 19.97695,0 c 10.98732,0 19.97695,-0.27385 19.97695,-0.60856 0,-0.3347 -9.675,-33.85244 -21.5,-74.48386 -11.825,-40.63142 -21.5,-74.10757 -21.5,-74.39144 0,-0.28388 1.54468,-0.51614 3.43261,-0.51614 2.4037,0 3.58903,0.52456 3.95444,1.75 0.287,0.9625 6.20184,20.854 13.14408,44.20334 6.94224,23.34933 13.48194,43.66065 14.53267,45.13626 2.8155,3.95401 9.11875,6.20761 13.82101,4.94142 6.07042,-1.6346 10.11519,-7.14266 10.11519,-13.77462 0,-5.09778 -29.1129,-101.06697 -32.3189,-106.53759 -6.13905,-10.4755 -18.89204,-19.53452 -30.56759,-21.71353 -7.03332,-1.31263 -50.28136,-1.30097 -57.22269,0.0154 -12.59805,2.38917 -25.40548,11.71042 -30.72495,22.36162 -2.94595,5.8987 -32.16587,102.06675 -32.16587,105.86372 0,8.06714 5.92419,13.74372 14.35,13.75021 4.15703,0.003 5.32197,-0.46823 8.15325,-3.29951 3.75233,-3.75233 3.69318,-3.57876 19.578,-57.44675 l 10.39467,-35.25 3.32943,0 c 2.70585,0 3.23029,0.32776 2.80014,1.75 -2.25569,7.45809 -42.60549,147.41352 -42.60549,147.77942 0,0.25882 9,0.47058 20,0.47058 l 20,0 0,57.2566 c 0,34.24599 0.39229,58.62443 0.97612,60.66013 1.17576,4.09965 4.454,7.84185 8.52388,9.73025 4.04465,1.87669 11.766,1.01186 15.64848,-1.75271 z m 262.39289,0.22607 c 5.46787,-2.48371 9.0604,-7.03621 10.3695,-13.14037 0.7299,-3.4034 1.08913,-29.46955 1.08913,-79.02919 l 0,-73.95078 3,0 3,0 0,76.9349 c 0,52.06692 0.34477,77.84484 1.06661,79.75 5.17311,13.65333 26.21636,15.19519 33.69752,2.46905 l 2.73587,-4.65395 0.26467,-129.75 0.26468,-129.75 2.98532,0 2.98533,0 0.002,47.75 c 10e-4,43.45693 0.15876,48.06468 1.75,51.25 4.58907,9.18628 19.48162,9.14868 24.42118,-0.0617 1.70573,-3.18051 1.82727,-7.03595 1.82727,-57.96264 0,-59.30802 -0.13002,-60.93195 -5.69773,-71.16166 -3.50091,-6.43232 -12.013,-14.33444 -18.77628,-17.43077 -8.78679,-4.02273 -15.6615,-4.53932 -55.69793,-4.18539 -35.41726,0.31309 -37.62367,0.44102 -43.10284,2.49908 -11.2885,4.24012 -20.39716,13.16752 -25.083,24.58384 -2.09219,5.09731 -2.14864,6.56211 -2.41718,62.7192 -0.25998,54.36819 -0.17407,57.68642 1.57727,60.92273 4.79424,8.85933 18.99389,9.38064 24.17206,0.88745 1.95044,-3.19912 2.01828,-4.92908 2.02189,-51.56018 l 0.004,-48.25 3.5,0 3.5,0 0,129.4349 c 0,89.02006 0.3321,130.31389 1.06362,132.25 1.40532,3.7195 5.70967,8.23429 9.43638,9.89774 4.24127,1.89313 11.30401,1.68958 16.04137,-0.4623 z m -98.04137,-196.12034 0,-196.5 -18.75,-0.27207 -18.75,-0.27206 0,196.3554 c 0,107.99547 0.30982,196.66522 0.6885,197.04389 0.37867,0.37868 8.81617,0.56618 18.75,0.41667 l 18.0615,-0.27183 0,-196.5 z m -146,-136.35609 c 7.48349,-1.99414 10.69414,-3.98175 16.24814,-10.05871 5.98478,-6.54831 8.24999,-12.45035 8.25681,-21.51334 0.007,-9.73191 -2.39611,-15.46761 -9.49547,-22.6606 -6.98516,-7.07728 -13.15174,-9.67387 -22.89386,-9.64 -12.71415,0.0442 -24.01473,7.35234 -29.39274,19.0084 -6.72112,14.56707 -1.08243,32.94399 12.56187,40.94008 8.4767,4.96768 16.19833,6.19368 24.71525,3.92417 z m 265.78946,-0.13109 c 22.72524,-5.91917 31.93438,-31.7694 18.10284,-50.81504 -11.77397,-16.21242 -36.44442,-17.44384 -49.88903,-2.49019 -11.15873,12.4112 -11.26723,31.49906 -0.247,43.45461 5.05046,5.4791 9.00592,7.91593 15.8251,9.74933 7.01655,1.88646 9.29958,1.90073 16.20809,0.10129 z" id="path10" inkscape:connector-curvature="0"/>
 </g>
</svg>
