<?xml version="1.0" encoding="UTF-8" standalone="no"?>
<svg xmlns="http://www.w3.org/2000/svg" xmlns:sodipodi="http://sodipodi.sourceforge.net/DTD/sodipodi-0.dtd" xmlns:inkscape="http://www.inkscape.org/namespaces/inkscape" version="1.0" width="24" height="24" viewBox="0 0 24 24" enable-background="new 0 0 99.988 49.124">
 <metadata id="metadata15"/>
 <path d="M -3.5754934e-8,17.89555 C 0.48989565,17.89555 0.96298942,17.784177 1.3801568,17.595036 1.8088456,17.394613 2.2929806,17.27772 2.7941575,17.27772 c 0.5062176,0 0.9905926,0.116893 1.4190413,0.317316 0.4231681,0.189141 0.8907413,0.300514 1.3803969,0.300514 0.4843751,0 0.9574688,-0.111373 1.3748763,-0.300514 0.4284487,-0.200423 0.9128237,-0.317316 1.4192813,-0.317316 0.5009369,0 0.9850719,0.116893 1.4137606,0.317316 0.4229281,0.189141 0.8905011,0.300514 1.3801571,0.300514 0.489895,0 0.957469,-0.111373 1.375116,-0.300514 0.428449,-0.200423 0.912824,-0.317316 1.419041,-0.317316 0.506458,0 0.985312,0.116893 1.413761,0.317316 0.422928,0.189141 0.890501,0.300514 1.380157,0.300514 0.489656,0 0.951708,-0.111373 1.369356,-0.300514 0.434209,-0.200423 0.912823,-0.317316 1.419281,-0.317316 0.506457,0 0.985072,0.116893 1.419281,0.317316 0.417408,0.189141 0.884981,0.300514 1.374876,0.300514 v -2.064955 c -0.489895,0 -0.957228,-0.111372 -1.374876,-0.300754 -0.434209,-0.194662 -0.912824,-0.311555 -1.419281,-0.311555 -0.506458,0 -0.985072,0.116893 -1.419281,0.311555 -0.417408,0.189382 -0.87946,0.300754 -1.369356,0.300754 -0.489896,0 -0.957229,-0.111372 -1.380157,-0.300754 -0.428449,-0.194662 -0.907303,-0.311555 -1.413761,-0.311555 -0.506217,0 -0.990592,0.116893 -1.419041,0.311555 -0.417407,0.189382 -0.885221,0.300754 -1.375116,0.300754 -0.489656,0 -0.957229,-0.111372 -1.3801571,-0.300754 -0.4284486,-0.194662 -0.9128237,-0.311555 -1.4137606,-0.311555 -0.5064576,0 -0.9908326,0.116893 -1.4192813,0.311555 -0.4171675,0.189382 -0.8905012,0.300754 -1.3748763,0.300754 -0.4896556,0 -0.9572288,-0.111372 -1.3803969,-0.300754 -0.4284487,-0.194662 -0.9128237,-0.311555 -1.4190413,-0.311555 -0.5011769,0 -0.9850719,0.116893 -1.4140007,0.311555 C 0.96298942,15.719223 0.48989565,15.830595 -3.5754935e-8,15.830595 v 2.064955 z" id="path3" inkscape:connector-curvature="0" fill="#333333"/>
 <path d="m 5.6214389,9.2713698 -4.0631818,0.3170761 0.3060348,-2.075996 2.983539,-0.211464 c 0.8067317,-0.038884 0.6900785,0.7680873 0.6900785,0.7680873 l 0.08353,1.2022966 z" id="path5" inkscape:connector-curvature="0" fill="#1a1a1a"/>
 <path d="m 12.986123,8.7982761 c -0.745764,0 -1.346793,-0.6010283 -1.346793,-1.3467931 0,-0.7457648 0.601029,-1.3470331 1.346793,-1.3470331 0.745765,0 1.346793,0.6012683 1.346793,1.3470331 0,0.7457648 -0.600788,1.3467931 -1.346793,1.3467931 z" id="path7" inkscape:connector-curvature="0" fill="#1a1a1a"/>
 <path d="m 21.4726,13.988386 c -0.172579,-0.04993 -0.339638,-0.116653 -0.495416,-0.189142 -0.434209,-0.200422 -0.912824,-0.317316 -1.419281,-0.317316 -0.506458,0 -0.985072,0.116894 -1.419282,0.317316 -0.417407,0.189142 -0.879459,0.300515 -1.369355,0.300515 -0.489896,0 -0.957229,-0.111373 -1.380157,-0.300515 -0.428449,-0.200422 -0.907303,-0.317316 -1.413761,-0.317316 -0.506217,0 -0.990592,0.116894 -1.419041,0.317316 -0.417407,0.189142 -0.885221,0.300515 -1.375116,0.300515 -0.489656,0 -0.957229,-0.111373 -1.3801571,-0.300515 -0.4284487,-0.200422 -0.9128238,-0.317316 -1.4137607,-0.317316 -0.5064575,0 -0.9908326,0.116894 -1.4192813,0.317316 -0.4171674,0.189142 -0.8905012,0.300515 -1.3748763,0.300515 -0.4896556,0 -0.9572287,-0.111373 -1.3803968,-0.300515 -0.4284487,-0.200422 -0.9128238,-0.317316 -1.4190413,-0.317316 -0.501177,0 -0.985072,0.116894 -1.4140007,0.317316 -0.41716744,0.189142 -0.88498061,0.300515 -1.37463626,0.300515 L 0.4613324,10.41798 17.353252,9.0042195 14.804163,6.4328072 15.92293,6.3327158 18.467219,8.9096487 23.999608,8.4533569 C 24.03297,10.339971 21.929132,13.476408 21.4726,13.988386 l 0,0 z" id="path9" inkscape:connector-curvature="0" fill="#165016"/>
</svg>
