<?xml version="1.0" encoding="UTF-8" standalone="no"?>
<svg xmlns="http://www.w3.org/2000/svg" xmlns:sodipodi="http://sodipodi.sourceforge.net/DTD/sodipodi-0.dtd" xmlns:inkscape="http://www.inkscape.org/namespaces/inkscape" width="24" height="24" version="1.1">
 <metadata id="metadata3212"/>
 <g inkscape:label="Layer 1" inkscape:groupmode="layer" id="layer1" transform="translate(0,-1028.3622)">
  <g transform="matrix(0.12955143,0,0,0.13637681,-4.7984412e-5,1030.9522)" id="g3405" fill="#4d4d4d">
   <g id="g3509">
    <path inkscape:connector-curvature="0" d="m 61.254807,4.999999 0,2 c -12.621002,1.629901 -27.061005,4.7024 -38,11.4684 -11.507004,7.117199 -9.490997,16.063301 2,21.531601 -2.535995,-13.834801 24.475998,-21.2733 35,-19 -7.85701,4.938299 -37.820007,12.626499 -16.001999,23.621899 2.25499,1.136002 4.563004,1.798603 7.001999,2.378101 -8.223999,-11.623299 13.093002,-14.979 21,-16 -3.404999,4.229698 -14.292999,3.501999 -15.218002,10.039398 -0.899002,6.361401 10.871002,8.882801 15.218002,9.699802 13.065994,2.4557 29.030703,2.5117 42.000003,-0.638901 4.61149,-1.1203 17.0063,-5.137302 13.91359,-12.006901 -1.41739,-3.148399 -5.4102,-4.907799 -7.91359,-7.093399 8.3441,-1.2341 18.63359,4.719498 16,14 2.10899,-0.921898 4.0885,-1.860199 5.96449,-3.223801 18.70981,-13.5991 -11.95689,-18.598499 -16.96449,-25.7762 12.94209,1.6713 34.612,5.9484 35,22.000001 2.1483,-1.917702 4.48039,-3.7542 6.19749,-6.091 C 177.6577,16.659798 148.58,6.909198 138.25481,4.155098 c -3.668,-0.978399 -7.6133,-1.0165 -10,-4.155099 15.2339,1.203899 32.7129,5.132899 46,12.876499 6.28795,3.6646 13.32872,10.0522 10.25772,18.123501 -2.76161,7.258099 -11.49953,11.5462 -18.25772,14.188301 -16.82201,6.5765 -35.98741,9.983597 -54,10.772297 C 84.948807,57.156299 56.663804,56.2877 30.254807,48.709098 21.236802,46.121101 10.155808,43.918998 3.387803,36.895099 c -7.645004,-7.935501 -1.042999,-15.4701 6.867004,-19.632 14.806,-7.7901 34.358002,-11.5485 51,-12.263101 z" id="path1365"/>
    <path inkscape:connector-curvature="0" d="m 70.254807,42 c 5.369003,-1.971802 10.352997,-2.606598 16,-3.168999 4.231995,-0.421501 7.767998,-0.421501 12,0 l 7.000003,0.607998 c 2.17399,0.344101 11.19619,1.819798 8.10959,5.851902 -1.90999,2.495098 -7.2558,2.824299 -10.10959,3.2701 C 95.077607,49.838101 73.358811,51.857201 70.254807,42 Z" id="path1605"/>
    <path inkscape:connector-curvature="0" d="m 177.99594,40.912319 c -2.26642,12.892502 -16.72382,17.374199 -28,19.789402 -28.3129,6.064102 -55.64762,3.871994 -84.000014,0.210598 9.261002,-3.886002 22.1464,0.392101 32,-0.0394 28.575794,-1.251202 56.046294,-3.301403 80.000014,-19.960602 z" id="path1609"/>
    <path inkscape:connector-curvature="0" d="m 173.25481,59 c -4.2818,14.376198 -22.65641,14.798904 -35,16.4244 -28.04901,3.693703 -59.458011,-2.149002 -86.000003,-11.091805 -10.475998,-3.529896 -24.57901,-8.821396 -28,-20.332596 8.263992,3.475399 15.481003,9.102398 24,12.315598 38.215996,14.414398 87.339703,20.267502 125.000003,2.684402 z" id="path1627"/>
    <path inkscape:connector-curvature="0" d="m 164.25481,74 c -1.5712,15.199005 -22.54,14 -34,14 -28.863,0 -74.668002,-1.978104 -93.000003,-28 9.51799,1.8353 18.641998,8.528 28,11.645096 C 94.757805,81.471802 135.80611,89.602997 164.25481,74 Z" id="path1699"/>
    <path inkscape:connector-curvature="0" d="m 151.25481,82 -1,1 1,-1 z" id="path1775"/>
    <path inkscape:connector-curvature="0" d="m 137.25481,93 c -15.87451,14.72299 -56.256,7.877 -70.000003,-7 10.156998,-0.596405 22.635994,5.794006 33.000003,7.410004 12.30829,1.917999 24.7016,-0.376007 37,-0.410004 z" id="path1797"/>
    <path inkscape:connector-curvature="0" d="m 71.254807,95 c 17.209999,9.79401 35.089603,9.013 54.000003,9 -9.73851,10.34 -32.788005,9.522 -44.000003,2.3 -3.865997,-2.49 -10.106003,-6.298 -10,-11.3 z" id="path1819"/>
    <path inkscape:connector-curvature="0" d="m 72.254807,107 c 14.245995,8.313 23.916,5.653 39.000003,7 -7.16851,8.588 -21.832004,9.218 -31.000003,3.44099 C 76.6418,115.164 71.311799,111.698 72.254807,107 Z" id="path1855"/>
    <path inkscape:connector-curvature="0" d="m 94.254807,124 c -3.297302,5.44 -9.484009,7.22501 -10,14 -6.074997,-3.64999 -12.81601,-10.162 -15,-17 9.421997,2.713 15.110992,3.78 25,3 z" id="path1887"/>
   </g>
  </g>
 </g>
</svg>
