<?xml version="1.0" encoding="UTF-8" standalone="no"?>
<svg xmlns="http://www.w3.org/2000/svg" xmlns:sodipodi="http://sodipodi.sourceforge.net/DTD/sodipodi-0.dtd" xmlns:inkscape="http://www.inkscape.org/namespaces/inkscape" width="24" height="24" version="1.0">
 <metadata id="metadata3205"/>
 <g inkscape:label="Layer 1" inkscape:groupmode="layer" id="layer1" transform="translate(0,-73)">
  <text x="-35.536" y="68.786" id="text3301" font-family="RoadSign" font-size="72"><tspan sodipodi:role="line" id="tspan3303" x="-35.536" y="68.786"/>
  </text>
  <text x="-14.286" y="63.25" id="text3305" font-family="RoadSign" font-size="72"><tspan sodipodi:role="line" id="tspan3307" x="-14.286" y="63.25"/>
  </text>
  <text x="-10.536" y="52.54" id="text3309" font-family="RoadSign" font-size="72"><tspan sodipodi:role="line" id="tspan3311" x="-10.536" y="52.54"/>
  </text>
  <circle id="path3374-9" cx="18.796" cy="89.89" r="1.74" fill="#cccccc" stroke="#000000" stroke-width="1.602"/>
  <circle id="path3374" cx="4.28" cy="89.89" r="1.74" fill="#cccccc" stroke="#000000" stroke-width="1.602"/>
  <g id="g4295" fill="#007ad4">
   <path sodipodi:nodetypes="cccccccccccccccscc" id="path3678" d="m 21.808672,89.618143 1.369448,0 c 0.547753,8e-6 0.821643,-0.273881 0.821669,-0.821669 l 0,-1.369448 -0.821669,0 0,-1.917228 c -2.5e-5,-0.547766 -0.25109,-0.890127 -0.753196,-1.027086 l -0.280954,-0.546148 -1.780283,-5.83048 c -0.182615,-0.296697 -2.992157,-0.512983 -3.266025,-0.513 l -0.374425,9.90187 -10.6974543,-0.06793 c 0.753188,0.547789 1.1754341,1.278161 1.2667394,2.191117 l 8.4905779,0 c 0.06846,-0.776012 0.387992,-1.426499 0.958614,-1.951464 0.593408,-0.524944 1.278132,-0.787422 2.054172,-0.787433 0.798823,1.1e-5 1.472135,0.262489 2.019936,0.787433 0.57058,0.502141 0.901529,1.152628 0.99285,1.951464" inkscape:connector-curvature="0"/>
   <path sodipodi:nodetypes="ccsccccsc" id="path3676" d="m 17.556318,77.567 -15.7415879,0 c -0.4564861,2e-5 -0.84449594,0.159789 -1.16403114,0.479306 -0.31954015,0.319558 -0.4793087,0.707568 -0.4793068,1.164031 l 0,7.668909 17.29688984,0.03261 0.540171,-6.605956 c 0.27387,1.7e-5 0.410814,-0.136927 0.410835,-0.410835 -2.1e-5,-0.09128 -0.03426,-0.171162 -0.102709,-0.239653" inkscape:connector-curvature="0"/>
   <path id="path3666" d="m 2.5336903,87.427026 -2.53347913634,0 0,1.232503 C 2.0926165e-4,89.298613 0.31974675,89.618151 0.95882476,89.618143 l 0.30812584,0 c 0.091293,-0.93578 0.5135395,-1.666152 1.2667397,-2.191117" inkscape:connector-curvature="0"/>
  </g>
  <path inkscape:connector-curvature="0" d="m 20.877773,83.188801 c 0.0228,0.06849 0.03421,0.136959 0.03424,0.205417 -2.2e-5,0.273903 -0.136966,0.410848 -0.410834,0.410835 l -2.3373,0 c -0.273908,1.3e-5 -0.410853,-0.136932 -0.410835,-0.410835 l 0,-3.712725 c -1.8e-5,-0.273874 0.136927,-0.410819 0.410835,-0.410835 l 0.728198,0 c 0.296694,1.6e-5 0.524935,0.125549 0.684724,0.376599 l 1.300976,3.541544" id="path3662" sodipodi:nodetypes="cscccccccc" fill="#cccccc"/>
  <path d="m 15.492906,79.628566 0,3.962045 c -6.4e-5,0.122847 -0.337431,0.184274 -1.012083,0.184282 l -10.1207902,0 c -0.6747747,-8e-6 -1.0121442,-0.06144 -1.0120848,-0.184282 l 0,-3.962045 c -5.94e-5,-0.122858 0.3373101,-0.184284 1.0120848,-0.184281 l 10.1207902,0 c 0.674652,-3e-6 1.012019,0.06142 1.012083,0.184281" id="path3700-4" inkscape:connector-curvature="0" fill="#cccccc"/>
 </g>
</svg>
