<?xml version="1.0" encoding="UTF-8" standalone="no"?>
<svg xmlns="http://www.w3.org/2000/svg" xmlns:sodipodi="http://sodipodi.sourceforge.net/DTD/sodipodi-0.dtd" xmlns:inkscape="http://www.inkscape.org/namespaces/inkscape" width="24" height="24" version="1.1">
 <metadata id="metadata18081">image/svg+xmlPublic Domainclker.comMohamed Ibrahimmap symbolsmap symbols</metadata>
 <g id="g3363" transform="matrix(0.1260878,0,0,0.1260878,-20.426648,35.46397)">
  <path sodipodi:nodetypes="csccccscc" id="path6712" d="m 251.64044,-204.39984 c -6.83786,6.62585 -16.06195,9.22351 -26.29251,9.22351 -12.98724,0 -24.80786,-5.30078 -31.59329,-15.31989 -6.73184,10.23114 -18.60602,15.31989 -31.75229,15.31989 l 0,-29.10217 c 13.14627,0 25.02045,-6.51984 31.75229,-16.7504 6.78543,10.01855 18.60605,16.7504 31.59329,16.7504 13.25226,0 24.96744,-6.83786 31.6463,-17.17441 z" inkscape:connector-curvature="0" fill="#2948cc"/>
  <path sodipodi:nodetypes="ccscsccscsccc" d="m 352.34793,-194.17633 c -12.98724,0 -24.80786,-5.30078 -31.59329,-15.31989 -6.73184,10.23114 -18.60602,15.31989 -31.75229,15.31989 -12.98666,0 -24.70184,-5.4068 -31.48669,-15.4259 -6.73243,10.33715 -18.60605,15.4259 -31.91129,15.4259 -9.59454,0 -18.39404,-2.17365 -25.02045,-8.05747 l -5.03578,-36.04602 c 6.89144,9.1175 17.81099,15.00132 30.05623,15.00132 13.30524,0 25.17886,-6.51984 31.91129,-16.85639 6.78485,10.01853 18.50003,16.85639 31.48669,16.85639 13.14627,0 25.02045,-6.51984 31.75229,-16.7504 6.78543,10.01855 18.60605,16.7504 31.59329,16.7504 z" id="svg_1" inkscape:connector-curvature="0" fill="#2948cc"/>
 </g>
 <rect id="rect3367" width="24" height="15.333" y="8.667" fill="#2948cc" fill-rule="evenodd"/>
 <text x="-0.018" y="22.762" id="text3369" sodipodi:linespacing="125%" font-family="sans-serif" fill="#ffffff" word-spacing="0" line-height="125%" letter-spacing="-0.3" font-size="7.25"><tspan sodipodi:role="line" id="tspan3371" x="-0.018" y="22.762">FLOOD</tspan>
 </text>
</svg>
