<?xml version="1.0" encoding="UTF-8" standalone="no"?>
<svg xmlns="http://www.w3.org/2000/svg" xmlns:sodipodi="http://sodipodi.sourceforge.net/DTD/sodipodi-0.dtd" xmlns:inkscape="http://www.inkscape.org/namespaces/inkscape" version="1.1" viewBox="0 0 24 24" width="24" height="24">
 <path inkscape:connector-curvature="0" d="M 11.926935,5.4192426 20.327446,19.51052 3.6845254,19.564516 11.926935,5.4192426 Z" id="white_bg" fill="#ffff00"/>
 <path inkscape:connector-curvature="0" d="M 11.977044,2.0093618 C 11.566241,1.9828259 11.146799,2.1767499 10.883729,2.5250469 L 0.0572775,20.713555 c -0.07304604,0.274732 -0.07581064,0.44968 -0.01066964,0.70843 0.0623332,0.247518 0.3058344,0.502812 0.53862277,0.564584 l 22.54621637,0.0065 c 0.140822,-0.02549 0.335208,-0.09158 0.430673,-0.146869 0.347304,-0.201298 0.582295,-0.737372 0.336073,-1.144719 L 12.938262,2.5587406 C 12.778002,2.2935977 12.455321,2.1025808 12.15251,2.034848 12.095058,2.0218889 12.035878,2.0129903 11.97713,2.009189 Z m -0.05011,3.4098808 8.400511,14.0912774 -16.6429206,0.054 8.2424096,-14.1452734 z" id="foo"/>
 <path inkscape:connector-curvature="0" id="path8" d="m 11.627581,18.593621 c -0.380134,-0.181859 -0.669553,-0.619876 -0.669553,-1.012968 0,-0.731325 0.764154,-1.282518 1.487271,-1.072149 0.487693,0.141686 0.819014,0.581863 0.815126,1.082516 -0.0035,0.42549 -0.187474,0.738668 -0.563288,0.958972 -0.28726,0.168468 -0.768474,0.187907 -1.069556,0.04363 z m 0.08639,-2.88858 C 11.666458,15.679123 11.554578,15.587977 11.46516,15.502879 11.15371,15.206116 11.15371,15.208708 10.950684,12.029413 10.770121,9.2034682 10.768393,9.1594073 10.846148,8.9563817 11.020231,8.4997899 11.409004,8.299788 12.056094,8.3334816 c 0.411235,0.021598 0.728301,0.1663083 0.933918,0.4263539 0.176244,0.2220324 0.214257,0.3477355 0.214257,0.7023824 -4.32e-4,0.3853168 -0.246654,5.1132231 -0.281644,5.4030741 -0.04579,0.37927 -0.266957,0.687264 -0.591798,0.822902 -0.185315,0.07732 -0.491581,0.08596 -0.616853,0.01685 z"/>
 <metadata id="metadata10"/>
</svg>
