<?xml version="1.0" encoding="UTF-8" standalone="no"?>
<svg width="24" height="24" viewBox="0 0 24 24" xmlns="http://www.w3.org/2000/svg">
  <path d="m23.993 17.993-8.046-.076L12 23.987l-3.948-6.07-8.046.076L4.106 12l-4.1-5.994 8.046.077L12 .013l3.947 6.07 8.046-.077-4.1 5.994Z" fill="green"/>
  <path d="M6.803 12a5.197 5.197 0 0 1 5.196-5.197 5.197 5.197 0 0 1 5.198 5.195 5.197 5.197 0 0 1-5.193 5.199 5.197 5.197 0 0 1-5.201-5.192" fill="#f9f9f9"/>
  <text x="12" y="14.5" word-spacing="0" font-weight="bold" letter-spacing="0" font-size="7.5" style="font-weight:700;font-size:7.5px;line-height:0%;font-family:sans-serif;text-align:center;letter-spacing:0;word-spacing:0;text-anchor:middle;fill:#000" transform="translate(.052 .234)"><tspan x="12" y="14.5">D</tspan></text>
</svg>
