<?xml version="1.0" encoding="UTF-8" standalone="no"?>
<svg xmlns="http://www.w3.org/2000/svg" xmlns:sodipodi="http://sodipodi.sourceforge.net/DTD/sodipodi-0.dtd" xmlns:inkscape="http://www.inkscape.org/namespaces/inkscape" version="1.1" width="24" height="24" viewBox="0 0 24 24">
 <metadata id="metadata4363"/>
 <g inkscape:groupmode="layer" id="layer4" inkscape:label="Layer 1">
  <rect id="rect4368" width="24" height="24" y="0.013" rx="3" fill="#0000cc" stroke-linejoin="round" stroke-width="1.124"/>
 </g>
 <g inkscape:groupmode="layer" id="layer2" inkscape:label="Lager 3">
  <path d="m 2.5688082,17.036813 c 0.01627,0.36089 0.04177,0.71077 0.07367,1.07539 0.152993,0.75716 0.4477841,1.50192 0.8625371,2.15964 0.693847,0.87314 1.596347,1.56473 2.626656,2.0257 0.662705,0.28393 1.398155,0.29103 2.052647,0.0143 6.6681927,-2.75725 11.5729997,-8.5802 13.1773497,-15.6146809 0.17485,-0.80116 0.0185,-1.65498 -0.45328,-2.32302 -0.35456,-0.49458 -0.736833,-0.95613 -1.173679,-1.34146 -1.032497,-0.89456 -2.302869,-1.4161599 -3.640831,-1.5440499 -0.16011,-0.0217 -0.337085,0.055 -0.447991,0.18718 -0.05547,0.0661 -0.09261,0.1663 -0.100274,0.2537199 l -0.847367,5.30468 c -0.04786,0.26954 0.133502,0.53433 0.408548,0.58682 l 1.656695,0.32963 c 0.09842,0.0169 0.173763,0.0613 0.23985,0.1168 0.225798,0.18946 0.244029,0.51446 0.05456,0.74026 l 0,0 -7.1027073,8.4646709 c -0.189462,0.22579 -0.5126894,0.26428 -0.7384874,0.0748 -0.0771,-0.0647 -0.131063,-0.15697 -0.164818,-0.25096 l -0.273771,-0.97113 c -0.08292,-0.2479 -0.315305,-0.39596 -0.558393,-0.37469 l -5.181511,0.56049 c -0.130783,0.0216 -0.2478891,0.0829 -0.3356941,0.18756 -0.07855,0.0936 -0.118561,0.2196 -0.133697,0.33829 z" id="path4" inkscape:connector-curvature="0" fill="none" stroke="#ffffff" stroke-width="1.2"/>
 </g>
</svg>
