<?xml version="1.0" encoding="UTF-8" standalone="no"?>
<svg xmlns="http://www.w3.org/2000/svg" xmlns:sodipodi="http://sodipodi.sourceforge.net/DTD/sodipodi-0.dtd" xmlns:inkscape="http://www.inkscape.org/namespaces/inkscape" version="1.1" width="24" height="24" viewBox="0 0 24 24">
 <metadata id="metadata4457"/>
 <g inkscape:groupmode="layer" id="layer7" inkscape:label="Layer 2">
  <rect id="rect4137" width="24" height="24" rx="3" fill="#008000" stroke-linejoin="round" stroke-linecap="round" stroke-width="0.3"/>
  <g transform="matrix(0.00379319,0,0,-0.00362069,0.62155767,22.86207)" id="g4" fill="#ffffff">
   <path inkscape:connector-curvature="0" d="m 2568,5643 -3,-258 -27,-3 c -16,-2 -28,-7 -28,-11 0,-4 -45,-16 -100,-26 -55,-10 -100,-22 -100,-27 0,-4 -7,-8 -17,-8 -20,0 -126,-32 -133,-40 -3,-4 -32,-15 -65,-25 -33,-10 -62,-21 -65,-24 -3,-4 -25,-15 -50,-26 -25,-11 -51,-25 -58,-32 -7,-7 -19,-13 -26,-13 -7,0 -21,-8 -32,-18 -10,-10 -34,-27 -53,-38 -19,-10 -53,-38 -76,-61 -23,-24 -46,-43 -51,-43 -5,0 -31,-26 -59,-56 -27,-31 -64,-71 -82,-89 -17,-19 -34,-43 -38,-55 -4,-11 -17,-32 -31,-47 -13,-14 -24,-34 -24,-44 0,-11 -4,-19 -8,-19 -5,0 -17,-25 -27,-55 -11,-30 -22,-55 -25,-55 -4,0 -15,-26 -26,-57 -10,-32 -22,-61 -27,-64 -9,-7 -37,-134 -37,-171 0,-16 -4,-28 -9,-28 -15,0 -27,-260 -17,-407 5,-79 13,-143 17,-143 4,0 16,-36 25,-80 10,-44 21,-80 25,-80 4,0 10,-12 13,-27 10,-40 30,-83 38,-83 4,0 14,-16 22,-35 8,-19 19,-35 23,-35 5,0 17,-17 28,-37 11,-21 28,-44 37,-51 10,-7 18,-19 18,-27 0,-8 9,-19 20,-25 11,-6 20,-16 20,-22 0,-14 72,-88 85,-88 6,0 16,-9 23,-20 7,-11 19,-20 27,-20 8,0 19,-9 25,-20 6,-11 17,-20 25,-20 8,0 20,-8 27,-17 15,-20 44,-41 71,-49 9,-4 17,-10 17,-15 0,-4 16,-16 35,-25 19,-9 35,-20 35,-24 0,-5 20,-16 45,-26 25,-9 45,-20 45,-23 0,-4 20,-15 45,-26 25,-11 45,-23 45,-26 0,-4 23,-15 50,-25 28,-10 50,-21 50,-25 0,-4 23,-15 50,-25 28,-10 50,-21 50,-25 0,-3 21,-14 47,-24 27,-10 53,-24 59,-30 7,-6 37,-17 68,-24 31,-7 56,-17 56,-22 0,-5 7,-9 15,-9 13,0 15,-103 15,-865 l 0,-866 -62,7 c -35,4 -65,10 -68,14 -3,4 -30,10 -60,14 -74,9 -150,28 -150,38 0,4 -13,8 -28,8 -29,0 -123,28 -132,40 -3,3 -25,12 -49,20 -24,8 -49,19 -55,25 -6,6 -32,20 -59,30 -26,10 -47,22 -47,26 0,5 -6,9 -12,9 -15,0 -98,82 -98,96 0,5 -9,15 -20,22 -11,7 -20,19 -20,27 0,8 -6,15 -14,15 -13,0 -34,38 -24,44 1,1 30,7 62,14 34,7 67,20 78,32 10,11 24,20 31,20 16,0 117,107 117,124 0,7 8,21 18,32 29,30 42,103 42,226 0,111 -12,188 -30,188 -5,0 -14,17 -21,37 -13,40 -96,129 -141,152 -16,8 -28,18 -28,23 0,4 -6,8 -14,8 -7,0 -27,7 -42,15 -16,8 -48,15 -71,15 -24,0 -43,5 -43,10 0,6 -25,10 -55,10 -30,0 -55,-4 -55,-8 0,-4 -34,-16 -74,-25 -86,-20 -119,-44 -211,-151 -16,-19 -37,-43 -46,-53 -9,-10 -23,-36 -30,-58 -8,-22 -16,-42 -19,-45 -19,-18 -30,-72 -30,-142 0,-77 18,-207 29,-218 4,-3 15,-31 25,-62 11,-32 22,-58 26,-58 4,0 15,-16 26,-35 10,-19 22,-35 26,-35 4,0 14,-16 22,-35 8,-19 19,-35 25,-35 5,0 12,-8 15,-18 9,-27 119,-152 135,-152 4,0 19,-13 33,-29 15,-16 42,-34 62,-41 20,-6 36,-15 36,-20 0,-5 17,-17 38,-27 20,-9 43,-25 50,-35 7,-10 22,-18 32,-18 10,0 25,-6 33,-14 8,-8 39,-23 68,-32 30,-10 56,-21 59,-25 3,-4 32,-15 65,-24 33,-10 62,-21 65,-24 3,-4 34,-16 70,-26 36,-10 67,-22 70,-26 6,-8 148,-39 179,-39 11,0 21,-4 23,-10 2,-5 57,-16 123,-22 l 120,-13 3,-273 2,-272 270,0 0,520 320,0 0,-520 270,0 0,546 132,12 c 72,6 134,15 137,20 3,4 53,15 111,25 57,9 106,21 110,25 3,4 39,16 80,26 41,11 77,22 80,25 3,4 31,15 63,24 31,10 57,22 57,26 0,4 18,14 40,21 23,8 44,18 48,24 4,6 23,20 42,30 19,11 44,28 54,38 11,10 26,18 33,18 7,0 17,9 23,20 6,11 16,20 23,20 17,0 173,162 181,188 4,12 11,22 16,22 5,0 17,16 26,35 9,19 20,35 24,35 5,0 16,20 26,45 9,25 20,45 24,45 8,0 40,94 40,116 0,8 4,14 9,14 5,0 17,35 26,78 10,42 21,80 27,83 38,24 36,799 -3,799 -4,0 -13,25 -20,56 -7,31 -18,61 -24,68 -6,6 -20,32 -30,59 -10,26 -21,47 -24,47 -4,0 -15,17 -26,38 -11,20 -28,43 -37,50 -10,7 -18,18 -18,23 0,6 -36,46 -79,90 -44,43 -84,79 -90,79 -5,0 -16,8 -23,18 -7,9 -29,26 -48,36 -19,11 -44,28 -54,38 -11,10 -25,18 -32,18 -7,0 -17,6 -21,13 -4,7 -25,21 -45,32 -21,11 -38,23 -38,26 0,4 -22,15 -50,25 -27,10 -50,21 -50,25 0,4 -22,15 -50,25 -27,10 -50,21 -50,25 0,4 -22,15 -50,25 -27,10 -50,21 -50,25 0,3 -27,14 -60,23 -33,9 -60,21 -60,25 0,4 -28,16 -62,27 -35,10 -68,23 -74,29 -7,6 -37,17 -68,25 -31,7 -56,16 -56,20 0,3 -22,14 -50,24 -27,10 -50,22 -50,27 0,5 -9,9 -20,9 -20,0 -20,7 -20,810 l 0,810 50,0 c 28,0 50,-4 50,-10 0,-5 17,-10 37,-10 43,0 196,-31 203,-41 3,-3 31,-14 63,-23 31,-9 57,-21 57,-26 0,-6 8,-10 19,-10 10,0 24,-7 31,-15 7,-8 16,-15 21,-15 4,0 19,-10 33,-22 13,-13 31,-29 40,-36 9,-7 16,-28 16,-47 0,-31 -3,-35 -35,-41 -19,-3 -35,-10 -35,-15 0,-5 -7,-9 -15,-9 -9,0 -29,-7 -46,-15 -42,-22 -139,-117 -139,-136 0,-9 -9,-26 -20,-39 -18,-21 -40,-79 -40,-107 0,-7 -4,-13 -10,-13 -6,0 -10,-42 -10,-105 0,-58 3,-105 8,-105 4,0 16,-27 26,-60 11,-33 23,-60 27,-60 4,0 10,-8 14,-19 9,-28 88,-106 124,-122 17,-8 31,-17 31,-21 0,-8 59,-38 76,-38 7,0 14,-6 16,-12 6,-17 266,-18 276,-1 4,6 21,13 37,17 17,4 44,18 59,31 16,14 32,25 36,25 11,0 70,62 70,73 0,5 11,18 25,29 14,11 25,25 25,33 0,7 6,15 14,18 8,3 20,32 26,64 22,105 -2,473 -31,473 -4,0 -15,20 -25,45 -9,25 -20,45 -23,45 -4,0 -13,17 -20,37 -9,25 -53,76 -130,151 -134,131 -136,133 -176,152 -16,8 -32,18 -35,21 -3,3 -22,14 -42,24 -21,9 -38,21 -38,25 0,3 -26,15 -57,26 -32,10 -60,22 -63,25 -3,4 -33,15 -67,24 -35,10 -63,21 -63,25 0,9 -88,28 -167,36 -35,4 -63,10 -63,15 0,4 -36,11 -80,15 l -80,7 0,507 -270,0 0,-490 -102,0 c -57,0 -120,-3 -140,-6 l -38,-7 0,503 -310,0 -2,-257 z m 592,-1243 c 0,-461 -4,-760 -9,-760 -5,0 -16,7 -25,15 -8,8 -19,15 -25,15 -16,0 -105,32 -111,39 -3,4 -27,15 -55,26 -27,10 -56,24 -62,31 -10,10 -13,162 -13,693 l 0,680 33,6 c 29,5 60,6 220,13 l 47,2 0,-760 z m -590,95 c 0,-571 -1,-604 -17,-598 -10,4 -24,13 -31,20 -7,7 -20,13 -27,13 -8,0 -20,8 -27,18 -13,17 -39,36 -68,49 -8,4 -21,15 -28,25 -7,10 -18,18 -23,18 -18,0 -165,157 -179,191 -7,19 -18,39 -25,44 -19,16 -32,47 -40,95 -4,25 -12,48 -18,52 -13,8 -11,162 3,166 5,2 10,17 10,33 0,33 30,151 41,159 3,3 9,14 13,25 3,11 19,36 36,55 17,19 33,43 36,53 3,9 9,17 14,17 5,0 16,13 24,29 8,15 30,34 48,42 18,7 42,21 52,31 11,10 25,18 32,18 7,0 19,6 27,14 14,14 81,33 125,35 l 22,1 0,-605 z m 365,-2038 c 11,-14 147,-47 195,-47 l 30,0 0,-1590 -73,0 c -41,0 -108,-3 -150,-6 l -77,-7 0,1682 33,-10 c 17,-5 37,-15 42,-22 z m 542,-199 c 15,-7 37,-21 47,-30 11,-10 26,-18 33,-18 7,0 17,-9 23,-20 6,-11 17,-20 25,-20 8,0 20,-8 27,-18 7,-10 20,-21 28,-25 53,-24 166,-139 180,-183 7,-19 15,-34 19,-34 4,0 14,-19 21,-41 8,-23 20,-48 27,-55 22,-21 33,-108 33,-251 0,-129 -15,-273 -29,-283 -4,-3 -15,-27 -26,-55 -10,-27 -29,-58 -42,-68 -13,-10 -23,-25 -23,-33 0,-8 -4,-14 -8,-14 -5,0 -14,-11 -20,-25 -7,-14 -20,-28 -29,-32 -10,-4 -34,-23 -54,-43 -19,-20 -49,-42 -67,-49 -17,-7 -41,-21 -52,-31 -11,-10 -41,-24 -65,-31 -25,-7 -45,-16 -45,-20 0,-4 -11,-9 -25,-11 l -25,-5 0,703 c 0,440 4,704 10,704 5,0 22,-6 37,-12 z" id="path6"/>
  </g>
 </g>
</svg>
