<?xml version="1.0" encoding="UTF-8" standalone="no"?>
<svg xmlns="http://www.w3.org/2000/svg" xmlns:sodipodi="http://sodipodi.sourceforge.net/DTD/sodipodi-0.dtd" xmlns:inkscape="http://www.inkscape.org/namespaces/inkscape" version="1.1" viewBox="0 0 24 24" width="24" height="24">
 <path inkscape:connector-curvature="0" d="M 11.926935,5.4192426 20.327446,19.51052 3.6845254,19.564516 11.926935,5.4192426 Z" id="white_bg" fill="#ffff00"/>
 <path inkscape:connector-curvature="0" d="M 11.977044,2.0093618 C 11.566241,1.9828259 11.146799,2.1767499 10.883729,2.5250469 L 0.0572775,20.713555 c -0.07304604,0.274732 -0.07581064,0.44968 -0.01066964,0.70843 0.0623332,0.247518 0.3058344,0.502812 0.53862277,0.564584 l 22.54621637,0.0065 c 0.140822,-0.02549 0.335208,-0.09158 0.430673,-0.146869 0.347304,-0.201298 0.582295,-0.737372 0.336073,-1.144719 L 12.938262,2.5587406 C 12.778002,2.2935977 12.455321,2.1025808 12.15251,2.034848 12.095058,2.0218889 12.035878,2.0129903 11.97713,2.009189 Z m -0.05011,3.4098808 8.400511,14.0912774 -16.6429206,0.054 8.2424096,-14.1452734 z" id="foo"/>
 <metadata id="metadata10"/>
 <path d="m 15.351913,18.201835 -2.342899,-1.117795 -0.337372,2.000901 -1.7871,-1.825512 -2.3108271,1.262611 1.2808018,-2.461453 -1.6007975,-0.455922 1.4995009,-1.060977 -1.4848918,-1.584709 2.3132657,0.584318 0.781932,-1.719343 1.194351,1.469863 2.755388,-1.144062 -1.265982,2.046527 2.119454,0.781933 -2.062616,0.838701 1.247792,2.384919 z" id="path2816" sodipodi:nodetypes="ccccccccccccccccc" inkscape:connector-curvature="0" fill-rule="evenodd" stroke="#000000" stroke-width="0.104" stroke-miterlimit="8.8"/>
</svg>
