<?xml version="1.0" encoding="UTF-8" standalone="no"?>
<svg xmlns="http://www.w3.org/2000/svg" xmlns:sodipodi="http://sodipodi.sourceforge.net/DTD/sodipodi-0.dtd" xmlns:inkscape="http://www.inkscape.org/namespaces/inkscape" width="24" height="24" version="1.0">
 <metadata id="metadata7"/>
 <g inkscape:label="Layer 1" inkscape:groupmode="layer" id="layer1" transform="translate(0,-427)">
  <path d="m 2.02217,427.02661 19.95566,0 c 1.10554,0 1.99556,0.89002 1.99556,1.99556 l 0,19.95566 c 0,1.10554 -0.89002,1.99556 -1.99556,1.99556 l -19.95566,0 c -1.10554,0 -1.99556,-0.89002 -1.99556,-1.99556 l 0,-19.95566 c 0,-1.10554 0.89002,-1.99556 1.99556,-1.99556 z" id="rect1872" inkscape:connector-curvature="0" fill="#ffffff" stroke="#000000" color="#000000" stroke-width="0.053"/>
  <path d="m 2.02217,427.6918 19.95566,0 c 0.73703,0 1.33037,0.59334 1.33037,1.33037 l 0,19.95566 c 0,0.73703 -0.59334,1.33037 -1.33037,1.33037 l -19.95566,0 c -0.73703,0 -1.33037,-0.59334 -1.33037,-1.33037 l 0,-19.95566 c 0,-0.73703 0.59334,-1.33037 1.33037,-1.33037 z" id="rect2760" inkscape:connector-curvature="0" fill="#003f87" color="#000000" stroke-width="0.874"/>
  <path d="m 9.3994964,448.96892 c -0.55432,-0.0491 -1.0531,-0.15264 -1.54365,-0.32051 -2.24285,-0.76753 -3.90777,-2.75864 -4.29589,-5.13754 -0.0227,-0.1391 -0.0497,-0.33168 -0.0601,-0.42796 -0.0254,-0.23544 -0.0253,-1.06434 1.6e-4,-1.2983 0.0844,-0.7763 0.28718,-1.49841 0.61462,-2.18815 0.62044,-1.30697 1.64696,-2.3749 2.90333,-3.02041 l 0.1815,-0.0933 0.008,0.0762 c 0.009,0.0799 0.13589,1.79645 0.13589,1.83443 0,0.012 -0.0528,0.0579 -0.11737,0.1019 -0.27345,0.18636 -0.60334,0.48288 -0.82746,0.74375 -0.6264,0.72911 -1.00129,1.55758 -1.14858,2.53826 -0.0272,0.18088 -0.0319,0.27279 -0.0327,0.63456 -9.1e-4,0.43481 0.0101,0.58496 0.065,0.88255 0.17981,0.97628 0.61247,1.81457 1.29901,2.51689 0.2386,0.24407 0.43905,0.41171 0.72347,0.60501 1.09616,0.74502 2.45454,0.97295 3.7336096,0.62648 0.31166,-0.0844 0.55719,-0.18331 0.92177,-0.37126 0.97597,-0.50315 1.78791,-1.40988 2.20111,-2.4581 0.12308,-0.31223 0.23107,-0.70745 0.27735,-1.01506 0.0138,-0.0916 0.0284,-0.16647 0.0324,-0.16638 0.004,9e-5 0.25818,0.52688 0.56475,1.17066 l 0.55741,1.1705 -0.0722,0.1379 c -0.74906,1.4311 -2.04845,2.56179 -3.56796,3.10474 -0.47439,0.16951 -0.88808,0.26665 -1.41561,0.33241 -0.21605,0.0269 -0.9226896,0.0398 -1.1381796,0.0207 z m 7.6796396,-2.17573 c -0.0148,-0.0349 -0.60256,-1.44683 -1.30615,-3.13772 l -1.27925,-3.07434 -3.18379,0 c -1.7510796,0 -3.1843596,-0.002 -3.1850696,-0.004 -7.1e-4,-0.002 -0.14103,-2.00908 -0.31182,-4.46017 l -0.31052,-4.45653 -0.05,-0.11157 c -0.10052,-0.22448 -0.15059,-0.43902 -0.1612,-0.69074 -0.0366,-0.86881 0.5664,-1.64103 1.41419,-1.81093 0.18205,-0.0365 0.46676,-0.0329 0.65837,0.008 0.51817,0.11126 0.9531896,0.45123 1.1925796,0.93199 0.134,0.26912 0.19062,0.50783 0.19095,0.80508 6.4e-4,0.56696 -0.25428,1.08325 -0.70774,1.43339 -0.2076796,0.16036 -0.5416896,0.30223 -0.7673996,0.32594 l -0.0909,0.01 0.006,0.0747 c 0.008,0.0899 0.19028,3.43538 0.19028,3.48791 l 0,0.0368 2.2265596,0 2.22656,0 0,0.8315 0,0.83149 -2.14328,0 -2.1432796,0 0.008,0.10576 c 0.005,0.0582 0.0228,0.31436 0.0405,0.56932 l 0.0323,0.46355 0.5910996,-0.008 c 1.33284,-0.0181 5.32569,-0.0381 5.33571,-0.0268 0.006,0.007 0.5766,1.35289 1.26814,2.99154 0.69154,1.63865 1.26241,2.97944 1.2686,2.97953 0.006,8e-5 0.43764,-0.15757 0.95876,-0.35035 0.52113,-0.19277 0.95082,-0.3471 0.95488,-0.34293 0.0188,0.0193 0.52465,1.27073 0.51683,1.27867 -0.009,0.009 -3.34455,1.35253 -3.39014,1.36552 -0.017,0.005 -0.0311,-0.011 -0.0506,-0.0566 z" id="path1938" inkscape:connector-curvature="0" fill="#ffffff"/>
 </g>
</svg>
