<?xml version="1.0" encoding="UTF-8" standalone="no"?>
<svg xmlns="http://www.w3.org/2000/svg" xmlns:sodipodi="http://sodipodi.sourceforge.net/DTD/sodipodi-0.dtd" xmlns:inkscape="http://www.inkscape.org/namespaces/inkscape" version="1.1" width="24" height="24" viewBox="-0.258 -0.548 24.000001 24">
 <metadata id="metadata6439"/>
 <g id="g6421" transform="matrix(0.20244323,0,0,0.20244323,-0.93762632,-0.95857977)">
  <path d="m 45.91646,26.082576 c 5.296144,0 9.570144,-4.273999 9.570144,-9.596798 0,-5.260218 -4.274,-9.5608715 -9.570144,-9.5608715 -5.286872,0 -9.570142,4.3006535 -9.570142,9.5608715 0,5.322799 4.28327,9.596798 9.570142,9.596798 z" id="path6427" inkscape:connector-curvature="0" fill="#231f20"/>
  <path d="m 57.189018,103.42945 h 45.550312 c 0,0 2.94243,0.19933 8.80064,-4.490712 l 9.98618,-7.61393 v 8.601312 l -10.18551,7.61393 c 0,0 -3.02355,2.46265 -8.12153,3.02355 H 53.368146 l 3.820872,-7.13415 z" id="path6429" inkscape:connector-curvature="0" fill="#1a1a1a" stroke="#1a1a1a" stroke-linejoin="round" stroke-width="1.156"/>
  <polygon points="50.359,97.504 11.039,97.504 7.758,103.66 8.086,103.66 47.406,103.66 50.688,97.504 " id="polygon6431" transform="matrix(0.92339056,0,0,1.1777069,-3.0934674,-11.459588)" fill="#1a1a1a" stroke="#1a1a1a" stroke-linejoin="round" stroke-width="0.998"/>
  <path d="m 50.841758,37.734093 c 0,-5.286874 -4.282112,-9.587527 -9.587527,-9.587527 -5.296143,0 -9.596797,4.300653 -9.596797,9.587527 l 0,23.458323 c 0,2.969086 1.457887,5.74 3.594888,7.496883 11.151042,0 26.275536,0.0012 31.189303,0.0012 l -15.599867,-5.93933 0,-5.830393 12.313245,0 c 0.597989,0.02665 1.222632,-0.05447 1.810192,-0.308266 2.353712,-0.878441 3.512605,-3.512607 2.60751,-5.830393 -0.679113,-1.810192 -2.381527,-2.887964 -4.165064,-2.915776 l -12.576314,-0.02665 0.01047,-10.105551" id="path6433" inkscape:connector-curvature="0" sodipodi:nodetypes="cssscccccccccc" fill="#1a1a1a"/>
  <path d="m 39.820287,68.439774 -21.459232,0 -11.5970425,21.050138 c -0.253798,0.479794 -0.370846,1.014032 -0.370846,1.584207 0,1.928411 1.566824,3.503336 3.495223,3.503336 l 79.1130345,0 c 0,0 3.395546,0.543556 8.520178,-3.476681 L 118.0653,75.989967 110.30651,62.436707 c 0,0 -1.74761,-3.277351 -8.31158,-4.264728 L 86.485455,55.564468 78.162282,41.677447 78.081159,41.532585 c -1.213362,-1.384876 -3.313277,-1.529738 -4.699314,-0.334921 l 0,0.02667 c -0.987377,0.905075 -1.358223,2.372233 -0.814702,3.675989 l 6.193128,10.294451 0,0.0904 -7.750669,13.155757" id="path6433-2" inkscape:connector-curvature="0" sodipodi:nodetypes="cccsscccccccccccccc" fill="#aa0000"/>
 </g>
</svg>
