<?xml version="1.0" encoding="UTF-8" standalone="no"?>
<svg xmlns="http://www.w3.org/2000/svg" xmlns:sodipodi="http://sodipodi.sourceforge.net/DTD/sodipodi-0.dtd" xmlns:inkscape="http://www.inkscape.org/namespaces/inkscape" version="1.0" width="24" height="24">
 <metadata id="metadata4746"/>
 <path d="m 10.85495,-4.55e-4 0,2.98997 -2.24649,-1.29879 -1.14046,1.96884 3.38695,1.96195 0,4.41268 -3.80458,-2.19831 -0.007,-3.93079 -2.27632,0.005 0.005,2.61135 -2.59759,-1.50073 -1.13816,1.97114 2.5907,1.49613 -2.24879,1.2942 1.13357,1.97343 3.39384,-1.95277 3.81835,2.20519 -3.80458,2.19601 -3.40761,-1.95966 -1.13357,1.97343 2.26256,1.30338 -2.59759,1.49843 1.13817,1.97113 2.5907,-1.49613 -0.005,2.59528 2.27632,0.005 0.007,-3.91473 3.81835,-2.20289 0,4.39202 -3.40072,1.97113 1.14046,1.96884 2.26026,-1.30797 0,2.99915 2.27633,0 0,-2.98997 2.24649,1.29879 1.14046,-1.96884 -3.38695,-1.96195 0,-4.41268 3.80458,2.19831 0.007,3.93079 2.27632,-0.005 -0.005,-2.61135 2.59759,1.50073 1.13816,-1.97114 -2.5907,-1.49613 2.24879,-1.2942 -1.13357,-1.97343 -3.39154,1.95277 -3.82065,-2.20519 3.80688,-2.1983 3.40531,1.96195 1.13357,-1.97343 -2.26256,-1.30338 2.59759,-1.49843 -1.13817,-1.97113 -2.5907,1.49613 0.005,-2.59528 -2.27632,-0.005 -0.007,3.91473 -3.81835,2.20289 0,-4.39202 3.40072,-1.97113 -1.14046,-1.96884 -2.26026,1.30797 0,-2.99915 -2.27633,0 z" id="rect2991" inkscape:connector-curvature="0" fill="#3d7dab"/>
</svg>
