<?xml version="1.0" encoding="UTF-8" standalone="no"?>
<svg xmlns="http://www.w3.org/2000/svg" xmlns:sodipodi="http://sodipodi.sourceforge.net/DTD/sodipodi-0.dtd" xmlns:inkscape="http://www.inkscape.org/namespaces/inkscape" width="24" height="24" version="1.1">
 <metadata id="metadata3204"/>
 <g inkscape:label="Layer 1" inkscape:groupmode="layer" id="layer1" transform="translate(0,-1028.3622)">
  <g id="g4148">
   <path id="path26" d="m 17.032497,1049.0732 c -1.35161,-0.044 -2.33959,-2.0678 -2.6015,-3.4568 l 1.54127,-0.3248 c 0.29019,1.1075 1.03171,1.7138 1.61281,1.8612 0.58133,0.1478 0.93023,0 1.32261,-0.1922 0.14546,1.0044 -0.5521,1.9794 -1.87519,2.1126" inkscape:connector-curvature="0" fill="#ff0000" fill-rule="evenodd"/>
   <path sodipodi:nodetypes="cccccccccccc" id="path28" d="m 20.241957,1043.2306 c 0.2486,-0.657 0.29827,-1.651 -0.72988,-2.2415 -0.62982,-0.337 -1.37585,-0.3027 -1.95671,0.085 -0.66309,0.5392 -1.04431,1.2978 -1.29338,2.0897 l -1.72522,-0.017 c 0,-0.4546 0.0829,-0.9434 0.14949,-1.281 0.16613,-1.0112 0.99535,-3.1849 1.55885,-3.9771 0.61414,-0.8934 1.29362,-1.8879 3.2173,-2.1238 1.12749,-0.1343 2.75313,0.2866 3.48229,1.2477 0.74652,1.0111 0.99535,1.9884 0.84586,3.3364 -0.33154,1.3656 -1.75826,3.2022 -3.5486,2.8817 z" inkscape:connector-curvature="0" fill="#ff0000" fill-rule="evenodd"/>
   <path id="path102" d="m 11.786527,1052.3619 c 1.33707,-0.8274 2.55796,-1.6106 3.42972,-2.9844 -0.61009,-0.724 -1.2929,-3.6336 -1.32214,-3.8697 l -1.46783,0.088 -0.4513,4.21 c -0.0289,0.029 -0.13034,0.015 -0.17416,0.015 l -0.26125,-4.3129 -1.52608,-0.059 c -0.3200194,1.4922 -1.1051494,3.2203 -1.4240494,3.7961 0.24629,0.6058 1.4240494,1.9357 3.1970894,3.1175" inkscape:connector-curvature="0" fill="#ff0000" fill-rule="evenodd"/>
   <path id="path112" d="m 6.8843676,1048.8709 c 1.3521801,-0.044 2.3399001,-2.068 2.60188,-3.4569 l -1.54084,-0.3246 c -0.29067,1.1077 -1.03197,1.7135 -1.61288,1.8613 -0.5817096,0.1479 -0.9303196,0 -1.3233996,-0.1921 -0.14512,1.0047 0.55229,1.9794 1.8752396,2.1123" inkscape:connector-curvature="0" fill="#ff0000" fill-rule="evenodd"/>
   <path id="path128" d="m 13.857277,1043.1636 c 0.029,0 0.11645,0 0.13119,-0.045 0.0582,-0.3696 0.0582,-0.7977 0.20344,-1.1961 0.029,-0.2809 0.14474,-0.591 0.18871,-0.8418 0.26143,-0.7539 0.43612,-1.3295 0.72631,-2.0384 0.97443,-2.0685 1.73021,-3.7968 1.11988,-6.0567 -0.30564,-1.0931 -1.55553,-2.4371 -1.99069,-2.7332 -0.4221,-0.2797 -1.8466,-1.3143 -2.00601,-1.8754 -0.0587,-0.015 -0.14557,-0.015 -0.18977,-0.015 -0.36309,0.7831 -1.42415,1.3886 -1.91833,1.8317 -0.4797793,0.4137 -1.3520893,1.078 -1.9625993,2.7621 -0.59603,1.6544 0.0728,4.4316 0.77037,6.0864 0.34899,0.8563 0.71245,1.7573 0.88709,2.6733 0.0725,0.4873 0.1883493,0.9599 0.2332893,1.4625 l 1.43808,0.029 0.63937,-11.5212 0.17454,0.014 0.11596,11.4782 1.43917,-0.015" inkscape:connector-curvature="0" fill="#ff0000" fill-rule="evenodd"/>
   <path sodipodi:nodetypes="cccccccccccc" id="path182" d="m 3.7584081,1043.2478 c -0.24919,-0.6573 -0.2982901,-1.6518 0.7295199,-2.242 0.63046,-0.3365 1.37604,-0.3028 1.9571096,0.085 0.66307,0.5393 1.04417,1.2979 1.29334,2.0906 l 1.7243901,-0.017 c 0,-0.4716 -0.0825,-0.9439 -0.14937,-1.2806 -0.14909,-1.0117 -0.97814,-3.1857 -1.55867,-3.9778 -0.6304601,-0.8597 -1.29333,-1.8876 -3.2169596,-2.1238 -1.12733,-0.134 -2.75275,0.2869 -3.48291,1.2473 -0.74578007,1.011 -0.99469007,1.9885 -0.84560007,3.3373 0.33209,1.3649 1.75810007,3.2021 3.54915007,2.8818 z" inkscape:connector-curvature="0" fill="#ff0000" fill-rule="evenodd"/>
   <path id="path184" d="m 11.900347,1043.5337 c 1.27696,0 2.45412,0.1019 3.28382,0.2195 0.84514,0.1348 1.40936,0.169 1.37609,0.5398 -0.0328,0.3703 -0.53095,0.3878 -1.37609,0.5225 -0.8297,0.1344 -2.00686,0.2362 -3.28382,0.2362 -1.19373,0 -2.3214293,-0.1018 -3.1343193,-0.2026 -0.92859,-0.1185 -1.44255,-0.1683 -1.54196,-0.5561 -0.0998,-0.3878 0.59676,-0.4552 1.54196,-0.5732 0.79654,-0.1014 1.9405893,-0.1861 3.1343193,-0.1861 z m 0,0.3209 c 1.09503,0 2.12282,0.051 2.83582,0.1179 0.74627,0.068 1.22731,0.1015 1.19404,0.3205 -0.0164,0.2183 -0.44777,0.2356 -1.19404,0.3201 -0.713,0.084 -1.74079,0.1344 -2.83582,0.1344 -1.04426,0 -2.0223993,-0.05 -2.7193293,-0.1344 -0.81216,-0.067 -1.2604,-0.085 -1.34358,-0.3201 -0.0827,-0.2365 0.51433,-0.2527 1.34358,-0.3375 0.67975,-0.068 1.6750693,-0.1009 2.7193293,-0.1009" inkscape:connector-curvature="0" fill="#ff0000" fill-rule="evenodd"/>
  </g>
 </g>
</svg>
