<?xml version="1.0" encoding="UTF-8" standalone="no"?>
<svg xmlns="http://www.w3.org/2000/svg" version="1.1" width="24" height="24">
 <metadata id="metadata3031"/>
 <g transform="translate(0,-1028.3622)" id="layer1">
  <g transform="translate(-922.28571,-6.2856999)" id="g3047">
   <path d="m 942.53375,1050.0898 -8.24601,-7.3025 -8.25007,7.3055 0,6.86 c 0,0.27 0.21777,0.4862 0.4872,0.4862 l 5.90963,0 0,-4.5773 c 0,-0.2694 0.21625,-0.4872 0.48619,-0.4872 l 2.72953,0 c 0.26994,0 0.4862,0.2178 0.4862,0.4872 l 0,4.5773 5.91114,0 c 0.26943,0 0.48619,-0.2162 0.48619,-0.4862 z" id="rect2391" fill="#ffff00" stroke="#000000" stroke-width="2.026"/>
   <path d="m 934.24043,1037.3781 -11.70152,10.3615 1.2326,1.3902 10.51643,-9.3126 10.51441,9.3126 1.23016,-1.3902 -11.69899,-10.3615 -0.0456,0.053 -0.0476,-0.053 z" id="path2399" stroke="#000000" stroke-linejoin="round" stroke-width="0.506"/>
   <path d="m 926.03797,1038.8696 2.96628,0 -0.0258,1.7569 -2.94045,2.6563 0,-4.4132 z" id="rect2404"/>
   <path d="m 940.37148,1034.8439 -0.95272,0 0.008,5.9798 0.94442,0.8579 z" id="rect2404-4"/>
  </g>
 </g>
</svg>
