<?xml version="1.0" encoding="UTF-8" standalone="no"?>
<svg xmlns="http://www.w3.org/2000/svg" xmlns:sodipodi="http://sodipodi.sourceforge.net/DTD/sodipodi-0.dtd" xmlns:inkscape="http://www.inkscape.org/namespaces/inkscape" width="24" height="24" version="1.1">
 <metadata id="metadata3010"/>
 <g inkscape:label="Layer 1" inkscape:groupmode="layer" id="layer1" transform="translate(0,-1028.3622)">
  <g id="g3032" transform="translate(469.14286,673.7143)">
   <path sodipodi:nodetypes="cccsscsssscssc" id="rect2391" d="m -448.83166,372.26523 -8.30915,-5.39133 -8.31324,5.39358 0,5.06465 c 0,0.19929 0.21944,0.35894 0.49093,0.35894 l 5.95488,0 0,-3.37934 c 0,-0.19892 0.2179,-0.3597 0.48991,-0.3597 l 2.75043,0 c 0.27201,0 0.48992,0.16078 0.48992,0.3597 l 0,3.37934 5.9564,0 c 0.2715,0 0.48992,-0.15965 0.48992,-0.35894 z" inkscape:connector-curvature="0" fill="#00ffff" stroke="#000000" stroke-width="1.747"/>
   <path id="path2399" d="m -457.18848,362.88042 -11.79112,7.64972 1.24204,1.02636 10.59695,-6.87536 10.59492,6.87536 1.23958,-1.02636 -11.78857,-7.64972 -0.046,0.0389 -0.048,-0.0389 z" inkscape:connector-curvature="0" stroke="#000000" stroke-linejoin="round" stroke-width="0.437"/>
   <path id="rect2404" d="m -465.45375,363.98157 h 2.98899 l -0.026,1.29708 -2.96297,1.96113 v -3.25821 z" inkscape:connector-curvature="0"/>
   <path sodipodi:nodetypes="cccccc" id="rect2404-6" d="m -454.94958,359.09746 -1.74869,-0.0219 0.0221,3.249 1.65285,1.02305 0.0247,-4.2361 z" inkscape:connector-curvature="0"/>
   <path inkscape:connector-curvature="0" id="path5724" d="m -461.04865,358.36317 c 11.01724,-0.0285 11.01724,-0.0285 11.01724,-0.0285 l 0,0" fill="none" stroke="#000000" stroke-width="1.021"/>
   <path inkscape:connector-curvature="0" id="path5744" d="m -458.37699,355.42708 c -5.53612,5.61787 -5.56503,5.64721 -5.56503,5.64721" fill="none" stroke="#000000" stroke-linecap="round" stroke-width="1.392"/>
   <path inkscape:connector-curvature="0" id="path5744-7" d="m -447.04557,355.42708 c -5.53612,5.61787 -5.56503,5.64721 -5.56503,5.64721" fill="none" stroke="#000000" stroke-linecap="round" stroke-width="1.392"/>
  </g>
 </g>
</svg>
