<?xml version="1.0" encoding="UTF-8" standalone="no"?>
<svg xmlns="http://www.w3.org/2000/svg" xmlns:sodipodi="http://sodipodi.sourceforge.net/DTD/sodipodi-0.dtd" xmlns:inkscape="http://www.inkscape.org/namespaces/inkscape" version="1.1" width="24" height="24" viewBox="-0.258 -0.548 24.000001 24">
 <metadata id="metadata7316"/>
 <path inkscape:connector-curvature="0" id="path7310" d="m 11.279486,6.517982 c 0,0.315832 -0.249759,0.561627 -0.567706,0.561627 H 4.7712145 c -0.320062,0 -0.567707,-0.245795 -0.567707,-0.561627 V 1.508528 c 0,-0.315833 0.247909,-0.561628 0.567707,-0.561628 H 10.71178 c 0.317947,0 0.567706,0.245795 0.567706,0.561628 v 5.009454 z m 6.925331,0.639859 C 17.453161,6.992656 17.180672,6.60652 17.180672,6.251308 V 4.956789 c 0,0 0.499783,0.111533 0.619509,0.142455 0.24368,0.06396 0.398557,0.437673 0.404636,0.764078 0.0082,0.32614 0,1.294519 0,1.294519 z m 1.513355,7.8649 c 0,-0.01242 -0.208529,-1.590001 -0.208529,-1.590001 V 6.148232 c 0,-0.780464 -0.256102,-1.414508 -0.784693,-1.947063 L 15.35122,0.843825 c -0.233373,0 -0.87746,0.642238 -0.87746,0.642238 0,0.233372 1.674575,1.895526 1.674575,1.895526 l -0.04969,2.826638 c 0,1.00353 0.815616,1.817031 1.82311,1.817031 l 0.452209,0.0061 -0.160956,5.401668 0.22518,1.852181 1.013837,5.465628 c 0.03727,0.887768 -0.774386,1.416359 -1.414509,1.416359 -0.59255,0 -1.280247,-0.489475 -1.280247,-1.121141 l 0.01242,-9.578592 c 0,-1.164485 -0.945649,-2.110134 -2.110134,-2.110134 0,0 -2.025559,0 -2.035867,0 0.142455,-0.0082 0.148534,-6.272785 0.148534,-7.602719 0,-0.156992 0,-0.245795 0,-0.245795 0,-1.133563 -0.925033,-2.056482 -2.060711,-2.056482 H 4.7712105 c -1.135678,0 -2.060711,0.922919 -2.060711,2.056482 v 21.711333 l 10.0617225,0.167299 0.01031,-12.684062 h 1.899755 c 0.435558,0 0.790771,0.355213 0.790771,0.790772 v 9.551898 c 0,1.282361 1.197522,2.405616 2.564458,2.405616 1.290554,0 2.735985,-1.026259 2.735985,-2.405616 -0.02273,-0.318212 -1.055331,-6.023291 -1.055331,-6.023291 z" fill="#000080"/>
</svg>
