<?xml version="1.0" encoding="UTF-8" standalone="no"?>
<svg xmlns="http://www.w3.org/2000/svg" xmlns:xlink="http://www.w3.org/1999/xlink" xmlns:sodipodi="http://sodipodi.sourceforge.net/DTD/sodipodi-0.dtd" xmlns:inkscape="http://www.inkscape.org/namespaces/inkscape" height="24" width="24" version="1.1">
 <metadata id="metadata3"/>
 <defs id="defs3">
  <linearGradient id="linearGradient19763">
   <stop id="stop19764" stop-opacity="0.741"/>
   <stop id="stop19765" offset="1" stop-color="#ffffff" stop-opacity="0"/>
  </linearGradient>
  <linearGradient id="linearGradient29186">
   <stop id="stop29187" stop-color="#ffffff"/>
   <stop id="stop29188" offset="1" stop-color="#ffffff" stop-opacity="0"/>
  </linearGradient>
  <linearGradient gradientTransform="matrix(-0.345461,-1.103135,0.825546,-0.25853,-265.0855,1483.115)" gradientUnits="userSpaceOnUse" id="linearGradient30536" inkscape:collect="always" x1="78.65" x2="122.42" xlink:href="#linearGradient29186" y1="743.14" y2="713.55"/>
  <linearGradient gradientTransform="matrix(1.100206,-1.253837,0.450605,0.395393,-311.0192,864.0529)" gradientUnits="userSpaceOnUse" id="linearGradient30535" inkscape:collect="always" x1="82.56" x2="94.62" xlink:href="#linearGradient29186" y1="1126.68" y2="1102.49"/>
  <linearGradient id="linearGradient17250">
   <stop id="stop17251" stop-color="#dc0000"/>
   <stop id="stop17252" offset="1" stop-color="#ffb200"/>
  </linearGradient>
  <linearGradient id="linearGradient26051">
   <stop id="stop26052" stop-color="#ffffff" stop-opacity="0.449"/>
   <stop id="stop26053" offset="1" stop-color="#ffffff" stop-opacity="0"/>
  </linearGradient>
  <linearGradient inkscape:collect="always" xlink:href="#linearGradient29186" id="linearGradient4463" gradientUnits="userSpaceOnUse" gradientTransform="matrix(0.04580023,0,0,0.07975769,-1.6635904,480.27262)" x1="198.88" y1="246.21" x2="342.54" y2="403.09"/>
  <linearGradient inkscape:collect="always" xlink:href="#linearGradient26051" id="linearGradient4466" gradientUnits="userSpaceOnUse" gradientTransform="matrix(0.03648159,0,0,0.10013055,-3.162027,482.08065)" x1="349.43" x2="390.32"/>
  <linearGradient inkscape:collect="always" xlink:href="#linearGradient17250" id="linearGradient4470" gradientUnits="userSpaceOnUse" gradientTransform="matrix(0.0533835,0,0,0.09296341,72.273472,478.53617)" x1="-1131.03" y1="404.58" x2="-1102.73" y2="306.76"/>
  <linearGradient inkscape:collect="always" xlink:href="#linearGradient26051" id="linearGradient4473" gradientUnits="userSpaceOnUse" gradientTransform="matrix(0.04039753,0,0,0.09042433,-3.162027,481.96995)" x1="533.78" x2="572.41"/>
  <linearGradient inkscape:collect="always" xlink:href="#linearGradient29186" id="linearGradient4476" gradientUnits="userSpaceOnUse" gradientTransform="matrix(0.05330894,0,0,0.06852355,-1.5727754,480.53091)" x1="501.4" y1="384.4" x2="317.14" y2="485.78"/>
  <linearGradient inkscape:collect="always" xlink:href="#linearGradient17250" id="linearGradient4479" gradientUnits="userSpaceOnUse" gradientTransform="matrix(0.06213546,0,0,0.07986921,72.273472,478.53617)" x1="-916.9" y1="438.47" x2="-857.96" y2="362.16"/>
  <linearGradient inkscape:collect="always" xlink:href="#linearGradient29186" id="linearGradient4498" gradientUnits="userSpaceOnUse" gradientTransform="matrix(0.05403741,0,0,0.06759984,-1.9814393,481.34268)" x1="9.655" y1="256.78" x2="323.1" y2="500.8"/>
  <linearGradient inkscape:collect="always" xlink:href="#linearGradient26051" id="linearGradient4501" gradientUnits="userSpaceOnUse" gradientTransform="matrix(0.04069374,0,0,0.08976607,-3.162027,482.08065)" x1="468.41" x2="502.45"/>
  <linearGradient inkscape:collect="always" xlink:href="#linearGradient29186" id="linearGradient4504" gradientUnits="userSpaceOnUse" gradientTransform="matrix(0.0403567,0,0,0.09051581,-1.4250417,481.04359)" x1="110.45" y1="244.05" x2="239.46" y2="376.9"/>
  <linearGradient inkscape:collect="always" xlink:href="#linearGradient17250" id="linearGradient4512" gradientUnits="userSpaceOnUse" gradientTransform="matrix(0.04703865,0,0,0.10550269,72.273472,478.53617)" x1="-1308.2" y1="330.2" x2="-1335.04" y2="272.82"/>
  <linearGradient inkscape:collect="always" xlink:href="#linearGradient17250" id="linearGradient4515" gradientUnits="userSpaceOnUse" gradientTransform="matrix(0.06298454,0,0,0.07879257,72.273472,478.53617)" x1="-1006.61" y1="448.68" x2="-953.88" y2="299.89"/>
  <linearGradient inkscape:collect="always" xlink:href="#linearGradient26051" id="linearGradient3037" gradientUnits="userSpaceOnUse" gradientTransform="matrix(0.0547431,0,0,0.13541198,-47.754626,481.62834)" x1="349.43" x2="390.32"/>
  <linearGradient inkscape:collect="always" xlink:href="#linearGradient17250" id="linearGradient3041" gradientUnits="userSpaceOnUse" gradientTransform="matrix(0.08010556,0,0,0.12571947,65.441451,476.83495)" x1="-1131.03" y1="404.58" x2="-1102.73" y2="306.76"/>
  <linearGradient inkscape:collect="always" xlink:href="#linearGradient26051" id="linearGradient3044" gradientUnits="userSpaceOnUse" gradientTransform="matrix(0.06061923,0,0,0.12228573,-47.754626,481.47863)" x1="533.78" x2="572.41"/>
  <linearGradient inkscape:collect="always" xlink:href="#linearGradient17250" id="linearGradient3050" gradientUnits="userSpaceOnUse" gradientTransform="matrix(0.09323846,0,0,0.10801147,65.441451,476.83495)" x1="-916.9" y1="438.47" x2="-857.96" y2="362.16"/>
  <linearGradient inkscape:collect="always" xlink:href="#linearGradient26051" id="linearGradient3054" gradientUnits="userSpaceOnUse" gradientTransform="matrix(0.06106371,0,0,0.12139553,-47.754626,481.62834)" x1="468.41" x2="502.45"/>
  <linearGradient inkscape:collect="always" xlink:href="#linearGradient17250" id="linearGradient3058" gradientUnits="userSpaceOnUse" gradientTransform="matrix(0.07058468,0,0,0.14267702,65.441451,476.83495)" x1="-1308.2" y1="330.2" x2="-1335.04" y2="272.82"/>
  <linearGradient inkscape:collect="always" xlink:href="#linearGradient17250" id="linearGradient3064" gradientUnits="userSpaceOnUse" gradientTransform="matrix(0.09451257,0,0,0.10655547,100.83342,471.1867)" x1="-1006.61" y1="448.68" x2="-953.88" y2="299.89"/>
  <linearGradient y2="299.89" x2="-953.88" y1="448.68" x1="-1006.61" gradientTransform="matrix(0.09451257,0,0,0.10655547,65.441451,476.83495)" gradientUnits="userSpaceOnUse" id="linearGradient3129" xlink:href="#linearGradient17250" inkscape:collect="always"/>
  <linearGradient inkscape:collect="always" xlink:href="#linearGradient26051" id="linearGradient3037-6" gradientUnits="userSpaceOnUse" gradientTransform="matrix(0.0547431,0,0,0.13541198,-74.716956,479.69588)" x1="349.43" x2="390.32"/>
  <linearGradient inkscape:collect="always" xlink:href="#linearGradient17250" id="linearGradient3041-8" gradientUnits="userSpaceOnUse" gradientTransform="matrix(0.08010556,0,0,0.12571947,38.479121,474.90249)" x1="-1131.03" y1="404.58" x2="-1102.73" y2="306.76"/>
  <linearGradient inkscape:collect="always" xlink:href="#linearGradient26051" id="linearGradient3044-9" gradientUnits="userSpaceOnUse" gradientTransform="matrix(0.06061923,0,0,0.12228573,-74.716956,479.54617)" x1="533.78" x2="572.41"/>
  <linearGradient inkscape:collect="always" xlink:href="#linearGradient17250" id="linearGradient3050-1" gradientUnits="userSpaceOnUse" gradientTransform="matrix(0.09323846,0,0,0.10801147,38.479121,474.90249)" x1="-916.9" y1="438.47" x2="-857.96" y2="362.16"/>
  <linearGradient inkscape:collect="always" xlink:href="#linearGradient26051" id="linearGradient3054-3" gradientUnits="userSpaceOnUse" gradientTransform="matrix(0.06106371,0,0,0.12139553,-74.716956,479.69588)" x1="468.41" x2="502.45"/>
  <linearGradient inkscape:collect="always" xlink:href="#linearGradient17250" id="linearGradient3058-8" gradientUnits="userSpaceOnUse" gradientTransform="matrix(0.07058468,0,0,0.14267702,38.479121,474.90249)" x1="-1308.2" y1="330.2" x2="-1335.04" y2="272.82"/>
  <linearGradient y2="299.89" x2="-953.88" y1="448.68" x1="-1006.61" gradientTransform="matrix(0.09451257,0,0,0.10655547,38.479121,474.90249)" gradientUnits="userSpaceOnUse" id="linearGradient3129-0" xlink:href="#linearGradient17250" inkscape:collect="always"/>
 </defs>
 <g id="layer1" inkscape:groupmode="layer" inkscape:label="Layer 1" transform="translate(0,-497.11258)">
  <g id="g4065" transform="translate(62.335816,-3.7180513)">
   <path d="m -61.143517,517.67383 c 1.946549,4.21283 5.026163,6.4469 10.546224,6.70223 6.07207,1.42555 11.708343,-1.48938 10.110431,-6.06392 -0.726325,0.97874 -1.19117,1.51066 -2.44045,1.78726 0.493901,-2.53196 -2.672871,-2.95749 -1.133064,-5.68094 1.074961,-1.68087 1.714124,-3.74474 -0.174318,-5.42561 -0.784429,1.91492 -1.743176,3.19154 -3.660672,4.59581 0.20337,-2.34046 1.88844,-4.23411 0.871588,-6.4469 0.14527,-1.48939 -3.195826,-1.44683 -3.224879,-6.0001 -2.120865,1.95748 -3.021507,3.46814 -2.701925,6.44691 -0.784431,2.40429 -2.701924,3.27666 -2.353289,5.87243 -0.290529,-1.44683 -0.4939,-2.70216 -0.08716,-3.76601 -0.232423,-1.31916 -0.464847,-2.44685 -2.26613,-3.38303 0.552007,1.63832 1.191172,4.10645 -0.697271,4.72347 -0.522953,0.78725 -3.13772,3.48942 -0.261477,7.72353 -0.842535,-0.36172 -1.685073,-0.46811 -2.527608,-1.08513 z" id="path15991-0" inkscape:connector-curvature="0" stroke-opacity="0.504" fill="url(#linearGradient3129-0)" fill-rule="evenodd" stroke="#ffff00" stroke-width="0.186"/>
   <path d="m -51.207404,523.73776 c -4.619421,-3.57453 -5.403851,-6.06393 -2.35329,-8.42567 3.428249,-4.46815 2.585713,-7.27671 0.08715,-9.9576 2.35329,5.93627 -2.789085,9.76611 -4.445103,11.48953 -0.987799,-2.23407 -0.145265,-3.19152 1.220225,-5.93625 -2.672873,2.12769 -4.299839,4.7022 -3.312038,7.14905 1.801284,3.6809 6.043015,4.48942 8.803047,5.68094 z" id="path15990-3" inkscape:connector-curvature="0" stroke-opacity="0.504" fill="url(#linearGradient3058-8)" fill-rule="evenodd" stroke="#ffff00" stroke-width="0.186"/>
   <path d="m -45.601295,510.23227 c -0.619226,-1.31895 -0.113908,-1.6014 0.428512,-2.17763 0.559547,-0.15959 0.388044,-0.71607 0.693378,-1.95535 0.462312,1.38324 1.703436,2.01216 -1.12189,4.13298 z" id="path15994-8" inkscape:connector-curvature="0" stroke-opacity="0.504" fill="#ffd700" fill-rule="evenodd" stroke="#ffff00" stroke-width="0.186"/>
   <path d="m -44.905453,505.88237 c -0.18828,0.58799 -0.103164,1.236 -0.452738,1.78444 -0.819061,0.45825 -1.17621,1.30976 -0.817056,2.03238 0.111507,0.60563 0.370172,0.71013 0.828717,0.15707 0.979108,-0.73786 1.895208,-1.79505 1.337706,-2.85229 -0.251547,-0.53926 -0.471814,-1.08672 -0.752006,-1.61894 -0.04821,0.16578 -0.09641,0.33155 -0.144625,0.49734 z" id="path28563-9" inkscape:connector-curvature="0" fill="url(#linearGradient3054-3)" fill-rule="evenodd"/>
   <path d="m -41.619927,518.31214 c 1.597912,-1.12767 1.27833,-1.61705 1.133065,-2.42557 -0.464848,-0.38299 0.116219,-0.89363 0.69727,-2.29791 -1.481701,1.25534 -3.224879,1.42556 -1.830335,4.72348 z" id="path15993-42" inkscape:connector-curvature="0" stroke-opacity="0.504" fill="#ffd700" fill-rule="evenodd" stroke="#ffff00" stroke-width="0.186"/>
   <path d="m -49.115592,523.73776 c 1.801283,-0.7447 2.295183,-3.08517 2.527609,-5.68094 0.435793,-2.51068 1.307383,-5.02136 7.059868,-5.42562 -2.353291,1.38301 -4.270784,3.08515 -3.399197,6.25542 -0.232423,4.61709 -4.909949,4.44687 -6.18828,4.85114 z" id="path15992-7" inkscape:connector-curvature="0" stroke-opacity="0.504" fill="url(#linearGradient3050-1)" fill-rule="evenodd" stroke="#ffff00" stroke-width="0.186"/>
   <path d="m -40.161143,513.13986 c -0.988473,0.76628 -2.422497,1.48341 -2.3879,2.66159 -0.07306,0.84412 0.337391,1.64894 0.59267,2.45919 0.858055,-0.59964 1.833394,-1.38076 1.519084,-2.32643 -0.0023,-0.41668 -0.431066,-0.7812 -0.09442,-1.1872 0.323344,-0.6429 0.661588,-1.28263 0.886172,-1.95023 -0.171872,0.11441 -0.343745,0.22872 -0.515618,0.34308 z" id="path28562-2" inkscape:connector-curvature="0" fill="url(#linearGradient3044-9)" fill-rule="evenodd"/>
   <path d="m -52.25331,522.01432 c -0.232425,-2.04258 -0.552007,-3.51069 2.963402,-5.36178 5.955855,-3.0426 3.021507,-4.80859 -0.697272,-7.97884 1.104013,3.14898 -0.668218,5.65965 -2.178973,7.34053 -0.9878,1.04257 -4.416048,3.17026 -0.08715,6.00009 z" id="path15989-6" inkscape:connector-curvature="0" stroke-opacity="0.504" fill="url(#linearGradient3041-8)" fill-rule="evenodd" stroke="#ffff00" stroke-width="0.186"/>
   <path d="m -54.525194,507.0314 c 1.60857,-1.35648 1.195445,-1.91484 0.932717,-2.84879 -0.558868,-0.43055 0.0132,-1.04054 0.471015,-2.68762 -1.464775,1.50117 -3.355122,1.75087 -1.403732,5.53641 z" id="path15995-9" inkscape:connector-curvature="0" stroke-opacity="0.504" fill="#ffd700" fill-rule="evenodd" stroke="#ffff00" stroke-width="0.186"/>
   <path d="m -53.507465,501.20597 c -0.936634,0.897 -2.356998,1.72471 -2.282552,2.96793 -0.01008,1.0337 0.546212,1.9981 0.962067,2.96794 0.849161,-0.70989 1.752609,-1.61138 1.37467,-2.61168 0.0025,-0.39578 -0.375973,-0.70305 -0.386884,-1.07686 0.206939,-0.88235 0.635105,-1.73465 0.8043,-2.62495 -0.157201,0.1259 -0.314402,0.25174 -0.471601,0.37762 z" id="path28564-1" inkscape:connector-curvature="0" fill="url(#linearGradient3037-6)" fill-rule="evenodd"/>
  </g>
 </g>
</svg>
