<?xml version="1.0" encoding="UTF-8" standalone="no"?>
<svg xmlns="http://www.w3.org/2000/svg" xmlns:sodipodi="http://sodipodi.sourceforge.net/DTD/sodipodi-0.dtd" xmlns:inkscape="http://www.inkscape.org/namespaces/inkscape" version="1.0" width="24" height="24" viewBox="0 0 24 23.999999" enable-background="new 0 0 100 73.649">
 <metadata id="metadata4391"/>
 <rect id="rect4140" width="23.04" height="23.04" x="0.479" y="0.479" rx="2.874" fill="#cccccc" stroke="#000000" stroke-linejoin="round" stroke-linecap="round" stroke-width="0.958"/>
 <g id="g4145" transform="matrix(0.85275463,0,0,0.85275463,1.7669445,1.7669443)">
  <g id="g4139">
   <g id="g4375" transform="matrix(0.24000326,0,0,0.24000326,-1.62e-4,3.161999)" stroke-width="1.25">
    <rect x="19.818" width="61.23" height="7" id="rect4377"/>
    <path d="M 50.438,3.489" id="path4379" inkscape:connector-curvature="0"/>
   </g>
   <polygon points="24.877,73.649 34.42,41.002 66.563,41.002 76.106,73.649 86.308,73.649 76.765,41.002 100,41.002 100,34.648 74.907,34.648 67.677,9.903 57.463,9.903 64.705,34.648 36.279,34.648 43.508,9.903 33.305,9.903 26.076,34.648 0,34.648 0,41.002 24.218,41.002 14.674,73.649 " id="polygon4381" transform="matrix(0.24000326,0,0,0.24000326,-1.62e-4,3.161999)" stroke-width="1.25"/>
  </g>
  <rect id="rect4383" height="1.338" width="4.44" y="8.946" stroke-width="0.3"/>
  <rect id="rect4385" height="1.338" width="4.443" y="8.946" x="19.557" stroke-width="0.3"/>
 </g>
</svg>
