<?xml version="1.0" encoding="UTF-8" standalone="no"?>
<svg xmlns="http://www.w3.org/2000/svg" xmlns:sodipodi="http://sodipodi.sourceforge.net/DTD/sodipodi-0.dtd" xmlns:inkscape="http://www.inkscape.org/namespaces/inkscape" version="1.0" width="24" height="24">
 <metadata id="metadata4204"/>
 <path d="m 22.510718,21.63724 1.46589,-0.0155 0.0193,-0.34619 c 0.0216,-0.38726 -0.0381,-0.48381 -0.26398,-0.42712 -0.21942,0.0551 -3.20443,0.0481 -3.25999,-0.007 -0.0274,-0.0274 0.0996,-0.11729 0.28817,-0.20385 0.41002,-0.1882 0.74555,-0.55019 0.89456,-0.96509 l 0.10746,-0.29923 0.68084,-0.0161 c 0.45689,-0.0108 0.69533,-0.0389 0.72488,-0.0855 0.0242,-0.0381 0.0444,-0.39614 0.0449,-0.79563 l 8.7e-4,-0.72632 -0.96592,0 -0.96593,0 -0.23823,-0.40792 c -0.34156,-0.58483 -0.34121,-0.58583 0.21819,-0.60554 0.54303,-0.0191 0.53728,-0.0137 0.70665,-0.66605 0.20711,-0.79771 0.19344,-1.93002 -0.0311,-2.57945 l -0.0736,-0.21295 -2.09649,-0.057 -0.0285,-0.65512 c -0.0264,-0.60729 -0.0368,-0.65518 -0.14242,-0.65594 -0.10492,-7.5e-4 -0.11242,-0.0326 -0.0948,-0.40302 0.0225,-0.47303 -0.0489,-0.78033 -0.24221,-1.04233 -0.13324,-0.18059 -0.13855,-0.21823 -0.10824,-0.7675503 0.0367,-0.66458 -0.012,-0.89871 -0.27949,-1.34473 -0.35742,-0.59596 -0.9847,-0.93219 -1.73944,-0.93235 l -0.41337,-1.1e-4 -0.0625,-0.23229 c -0.13802,-0.51256 -0.48689,-0.95659 -0.93365,-1.18831 -0.34616,-0.17954 -1.04631,-0.20268 -1.45129,-0.048 l -0.31195,0.11918 -0.26381,-0.25984 -0.26381,-0.25984 0.0279,-0.53383 c 0.047,-0.8981 -0.17119,-1.46326 -0.79028,-2.04728 -0.46814,-0.44162 -0.85054,-0.60511 -1.50591,-0.64382 -0.83481,-0.0493 -1.5062997,0.21659 -2.0885697,0.82704 -0.54262,0.56888 -0.74733,1.11194 -0.74429,1.97452 l 0.002,0.57094 -0.22946,0.25785 c -0.1262,0.14181 -0.29596,0.39884 -0.37725,0.57116 -0.19855,0.42093 -0.21119,1.19615 -0.0261,1.60205 0.16421,0.36015 0.49589,0.71251 0.84137,0.89384 0.25293,0.13274 0.3551,0.15149 0.82964,0.15223 0.47916,7.5e-4 0.57864,-0.0175 0.8679997,-0.15964 0.32103,-0.15765 0.44224,-0.16182 0.44224,-0.0153 0,0.14395 0.40534,0.60205 0.67076,0.75807 0.23728,0.13948 0.32659,0.15824 0.75341,0.15824 0.48164,0 0.61286,-0.0369 0.97211,-0.27338 0.14053,-0.0925 0.15351,-0.0907 0.34031,0.0471 0.27709,0.20444 0.58857,0.2731 1.05171,0.23184 l 0.39877,-0.0355 0.10565,0.2578503 c 0.26986,0.65862 1.15817,0.90259 1.75054,0.48079 0.0854,-0.0608 0.18111,-0.11054 0.21273,-0.11054 0.0668,0 1.03577,1.22587 1.03577,1.31042 0,0.0538 -0.0839,0.0808 -0.19113,0.0615 -0.1589,-0.0285 -0.20763,0.13956 -0.20763,0.7161 0,0.42441 -0.0203,0.59936 -0.0712,0.61545 -0.10983,0.0347 -3.08059,0.079 -3.16497,0.0473 -0.041,-0.0154 -0.13393,-0.1624 -0.20655,-0.32661 -0.21226,-0.47995 -0.63416,-0.68266 -1.19992,-0.57652 -0.2599,0.0488 -0.62844,0.37649 -0.71363,0.63461 -0.0356,0.10784 -0.11224,0.22151 -0.17033,0.2526 -0.1525,0.0816 -3.9111197,0.076 -3.9617497,-0.006 -0.0212,-0.0343 -0.0343,-0.32945 -0.0291,-0.65585 0.007,-0.4411 -0.01,-0.60068 -0.0645,-0.62163 l -6.04654,0.0581 -0.0162,0.58391 -0.0162,0.58391 1.07978,0 c 0.12007,0 0.23113,0.0539 0.34418,0.16691 l 0.1669,0.1669 -0.0322,0.81578 c -0.0177,0.44867 -0.0529,1.39988 -0.0784,2.11379 -0.0254,0.71391 -0.0645,1.31633 -0.0868,1.33872 -0.0223,0.0224 -0.58324,0.0535 -1.24651,0.0692 l -1.20593995,0.0285 0,1.5338 1.28695995,-0.0171 c 1.13724,-0.0151 1.29795,-0.006 1.38145,0.0774 0.052,0.052 0.0945,0.13213 0.0945,0.17814 0,0.29978 0.49195,0.88045 0.89818,1.06014 0.14938,0.0661 0.23231,0.13298 0.20218,0.16311 -0.0284,0.0283 -1.30518,0.0577 -2.86864,0.0659 l -1.81477995,0.0148 -0.017,0.35604 L -3.165134e-5,21.68015 9.5530283,21.66655 c 5.8057197,-0.007 11.6366697,-0.0206 12.9576697,-0.0291 z m -12.03256,-0.76773 c -0.0228,-0.0228 0.007,-0.0579 0.0664,-0.0781 0.53186,-0.18093 1.03368,-0.62708 1.16539,-1.03609 0.1147,-0.35619 0.10889,-0.35407 0.97298,-0.35407 l 0.79178,0 0.0618,0.15666 c 0.16732,0.4244 0.23202,0.53921 0.42295,0.75055 0.1136,0.12575 0.34907,0.29605 0.52326,0.37846 0.17419,0.0824 0.28947,0.1665 0.25617,0.18689 -0.0836,0.0512 -4.20925,0.047 -4.26067,-0.004 z m -4.8938197,0.0162 c -0.0182,-0.0295 0.0892,-0.10782 0.23875,-0.17396 0.14957,-0.0661 0.34588,-0.18937 0.43626,-0.27385 0.20979,-0.19612 0.4908,-0.63059 0.4908,-0.75884 0,-0.23615 0.14037,-0.27775 0.93705,-0.27775 0.82655,0 0.82501,-5.8e-4 0.93845,0.3518 0.12063,0.37469 0.42651,0.70687 0.83697,0.90894 0.30209,0.14872 0.35601,0.19403 0.27078,0.22753 -0.16079,0.0632 -4.10988,0.0595 -4.14906,-0.004 z m 9.9387197,-0.0525 c 0,-0.0271 0.11507,-0.0932 0.25572,-0.14689 0.33234,-0.12692 0.71099,-0.49929 0.87225,-0.85777 0.0705,-0.15666 0.14741,-0.31996 0.17098,-0.36288 0.0332,-0.0604 0.21498,-0.077 0.80515,-0.0736 0.41927,0.002 0.77964,0.0248 0.80083,0.0496 0.0212,0.0248 0.0819,0.163 0.13482,0.3071 0.13505,0.36745 0.44132,0.70164 0.80698,0.88054 0.17152,0.0839 0.31185,0.1752 0.31185,0.20286 0,0.0281 -0.91537,0.0503 -2.07929,0.0503 -1.14361,0 -2.07929,-0.0222 -2.07929,-0.0492 z" id="path2371" inkscape:connector-curvature="0"/>
</svg>
