<?xml version="1.0" encoding="UTF-8" standalone="no"?>
<svg
   xmlns:dc="http://purl.org/dc/elements/1.1/"
   xmlns:cc="http://creativecommons.org/ns#"
   xmlns:rdf="http://www.w3.org/1999/02/22-rdf-syntax-ns#"
   xmlns:svg="http://www.w3.org/2000/svg"
   xmlns="http://www.w3.org/2000/svg"
   xmlns:sodipodi="http://sodipodi.sourceforge.net/DTD/sodipodi-0.dtd"
   xmlns:inkscape="http://www.inkscape.org/namespaces/inkscape"
   version="1.1"
   width="24"
   height="24"
   viewBox="0 0 24 24"
   id="svg3445"
   inkscape:version="0.91 r13725"
   sodipodi:docname="62-1.svg">
  <defs
     id="defs3458" />
  <sodipodi:namedview
     pagecolor="#ffffff"
     bordercolor="#666666"
     borderopacity="1"
     objecttolerance="10"
     gridtolerance="10"
     guidetolerance="10"
     inkscape:pageopacity="0"
     inkscape:pageshadow="2"
     inkscape:window-width="1875"
     inkscape:window-height="1056"
     id="namedview3456"
     showgrid="false"
     inkscape:zoom="22.553862"
     inkscape:cx="7.665445"
     inkscape:cy="12.118826"
     inkscape:window-x="45"
     inkscape:window-y="24"
     inkscape:window-maximized="1"
     inkscape:current-layer="svg3445" />
  <metadata
     id="metadata4277">
    <rdf:RDF>
      <cc:Work
         rdf:about="">
        <dc:format>image/svg+xml</dc:format>
        <dc:type
           rdf:resource="http://purl.org/dc/dcmitype/StillImage" />
      </cc:Work>
    </rdf:RDF>
  </metadata>
  <path
     style="fill:#e6e6e6;fill-rule:evenodd;stroke:none;stroke-width:1px;stroke-linecap:butt;stroke-linejoin:miter;stroke-opacity:1"
     d="M 4.9215517,6.1316637 12.725093,5.9543105 17.690983,10.521156 3.5914026,9.6343896 Z"
     id="path4754"
     inkscape:connector-curvature="0" />
  <path
     d="m 23.726107,14.727561 c 0.150421,-0.941042 -0.0056,-1.022202 -0.62861,-2.409677 C 22.928341,11.941172 22.48121,11.711872 22.119643,11.514631 20.229872,10.483816 18.231174,9.844738 17.924536,9.8383252 16.963911,8.8816782 15.391324,7.0824936 13.28079,5.6432931 12.887083,5.3748215 11.498678,5.333218 11.498678,5.333218 c 0,0 -3.6458442,-0.4365462 -6.3620422,0.2095624 C 4.9023115,5.5984832 4.739452,5.579053 4.5429462,5.6824629 4.5109246,5.6993053 3.9463606,6.2825644 3.914337,6.3459932 3.8830464,6.4079542 3.6981688,6.6097907 3.6349722,6.6952379 3.2158089,7.2618097 2.7020042,7.8211575 2.3427939,8.4413853 2.1850705,8.713797 2.1119849,8.973036 1.9586281,9.2446365 1.8110258,9.5060769 1.274005,9.7072179 1.1903351,10.187532 c -0.04018,0.23046 -0.30227278,0.144318 -0.31432481,0.488927 0.11971043,0.03696 0.13415861,0.0807 0.27936381,0.104764 -0.20998609,0.76358 -0.33885259,2.126644 -0.34997815,2.270266 2.7162e-4,-7.8e-5 5.0275e-4,-1.93e-4 7.7338e-4,-2.71e-4 -0.001778,0.01742 -0.001975,0.01645 -7.7338e-4,2.71e-4 -0.65703938,0.206279 -0.59604534,1.386859 -0.65742557,1.172931 0.078997,0.314208 0.29663197,0.723481 0.3787956,1.061873 0.0703743,0.28991 -0.16332375,0.413561 -0.17464191,0.698451 0.0509954,0.02978 0.10011821,0.342638 0.13968291,0.384126 0.16610513,0.457213 1.46593122,0.871007 1.46593122,0.871007 l 0.1287895,1.55e-4 C 1.9758558,16.9118 1.9158257,16.560199 1.9158257,16.194614 c 0,-1.806061 1.4640793,-3.270137 3.2701393,-3.270137 1.806059,0 3.2701383,1.464076 3.2701383,3.270137 0,0.368444 -0.061001,0.722671 -0.1733292,1.053144 l 6.6407479,0.02127 C 14.768079,16.88803 14.682169,16.4713 14.682169,16.034366 c 0,-1.80602 1.464077,-3.270099 3.270099,-3.270099 1.806061,0 3.270139,1.464079 3.270139,3.270099 0,0.439794 -0.08704,0.859149 -0.244445,1.242156 l 0.26855,3.47e-4 c 0,0 2.007472,0.186616 2.270032,-0.454006 0.107774,-0.120252 0.147717,-0.728581 0.139682,-1.082578 0.0039,-0.364155 0.07741,-0.29389 0.174642,-0.523887 0.09445,-0.223353 -0.139567,-0.386754 -0.104761,-0.488837 z M 8.9525711,9.5012486 C 8.8885181,9.546138 8.8927751,9.5699764 8.8128506,9.6060454 8.5584788,9.7988041 8.4759197,9.5361679 5.1017144,9.5361679 5.15912,9.6180629 4.7067332,9.547408 5.0667889,8.7678372 5.5562179,7.7082043 6.302647,6.7440635 6.2615445,6.7291526 7.2087364,6.4470299 7.5095409,6.357357 8.9526047,6.3942863 8.923329,7.232459 8.9352605,8.1741482 8.9525711,9.5012486 Z m 1.4893799,0.232315 c -0.144666,-2.7488012 -0.274419,-2.8388454 0.03493,-3.2827313 2.779918,0 1.837221,0.00942 1.837221,0.00942 1.271994,0.026081 3.482374,2.7540307 4.141432,3.6575177 -1.85567,-0.1400531 -2.978847,-0.2327805 -6.013583,-0.3842064 z"
     id="path6-9"
     inkscape:connector-curvature="0"
     style="fill:#aa0000;stroke:none;stroke-width:0.29631296;stroke-linecap:square;stroke-linejoin:round;stroke-miterlimit:4;stroke-dasharray:none;stroke-opacity:1"
     sodipodi:nodetypes="ccccscccccccccccccccccccsssccssscccccccccccccccccc" />
  <path
     style="fill:#666666;stroke:#000000;stroke-width:1.85782993;stroke-miterlimit:4;stroke-dasharray:none"
     id="path3514-1-1"
     sodipodi:type="arc"
     sodipodi:cx="5.1689858"
     sodipodi:cy="16.184412"
     sodipodi:rx="1.8473057"
     sodipodi:ry="1.8473057"
     sodipodi:start="3.1415927"
     sodipodi:end="3.1406327"
     d="M 3.3216802,16.184412 A 1.8473057,1.8473057 0 0 1 5.1685426,14.337106 1.8473057,1.8473057 0 0 1 7.0162913,16.183525 1.8473057,1.8473057 0 0 1 5.1703158,18.031717 1.8473057,1.8473057 0 0 1 3.321681,16.186185"
     sodipodi:open="true" />
  <path
     style="fill:#666666;stroke:#000000;stroke-width:1.85782993;stroke-miterlimit:4;stroke-dasharray:none"
     id="path3514-1-1-1"
     sodipodi:type="arc"
     sodipodi:cx="17.957012"
     sodipodi:cy="16.063444"
     sodipodi:rx="1.8473057"
     sodipodi:ry="1.8473057"
     sodipodi:start="3.1415927"
     sodipodi:end="3.1406327"
     d="m 16.109707,16.063444 a 1.8473057,1.8473057 0 0 1 1.846862,-1.847305 1.8473057,1.8473057 0 0 1 1.847749,1.846419 1.8473057,1.8473057 0 0 1 -1.845976,1.848191 1.8473057,1.8473057 0 0 1 -1.848635,-1.845532"
     sodipodi:open="true" />
</svg>
