<?xml version="1.0" encoding="UTF-8" standalone="no"?>
<svg xmlns="http://www.w3.org/2000/svg" xmlns:xlink="http://www.w3.org/1999/xlink" xmlns:sodipodi="http://sodipodi.sourceforge.net/DTD/sodipodi-0.dtd" xmlns:inkscape="http://www.inkscape.org/namespaces/inkscape" viewBox="0 0 24 24" version="1.1" width="24" height="24">
 <defs id="defs4">
  <linearGradient id="linearGradient3759">
   <stop id="stop3761" stop-color="#1a1a1a"/>
   <stop id="stop3763" stop-color="#f30000" stop-opacity="0" offset="1"/>
  </linearGradient>
  <linearGradient id="linearGradient4149" y2="834.68" xlink:href="#linearGradient3759" gradientUnits="userSpaceOnUse" x2="848.16" gradientTransform="translate(8.3085,-2.6518)" y1="842.3" x1="871.33"/>
  <linearGradient id="linearGradient4153" y2="533.5" xlink:href="#linearGradient3759" gradientUnits="userSpaceOnUse" x2="812.14" gradientTransform="matrix(0.89332,0,0,0.89332,80.349,365.15)" y1="537.5" x1="879.9"/>
  <linearGradient id="linearGradient4155" y2="531.91" xlink:href="#linearGradient3759" gradientUnits="userSpaceOnUse" x2="815.82" gradientTransform="translate(27.625,296.49)" y1="537.5" x1="879.9"/>
  <linearGradient id="linearGradient4185" y2="834.68" xlink:href="#linearGradient3759" gradientUnits="userSpaceOnUse" x2="848.16" gradientTransform="matrix(1,0,0,-1,8.3085,1452)" y1="842.3" x1="871.33"/>
  <linearGradient id="linearGradient4187" y2="528.42" xlink:href="#linearGradient3759" gradientUnits="userSpaceOnUse" x2="876.14" gradientTransform="matrix(1,0,0,-1,21.438,1151.5)" y1="528.36" x1="887.9"/>
  <linearGradient id="linearGradient4189" y2="531.91" xlink:href="#linearGradient3759" gradientUnits="userSpaceOnUse" x2="815.82" gradientTransform="matrix(1,0,0,-1,27.625,1152.9)" y1="537.5" x1="879.9"/>
  <linearGradient id="linearGradient4191" y2="535.37" xlink:href="#linearGradient3759" gradientUnits="userSpaceOnUse" x2="883.76" gradientTransform="matrix(1,0,0,-1,21.438,1151.5)" y1="542.4" x1="897.22"/>
  <linearGradient id="linearGradient4193" y2="501.08" xlink:href="#linearGradient3759" gradientUnits="userSpaceOnUse" x2="835.99" gradientTransform="matrix(1,0,0,-1,21.438,1151.5)" y1="552.05" x1="880.71"/>
  <linearGradient id="linearGradient4195" y2="529.61" xlink:href="#linearGradient3759" gradientUnits="userSpaceOnUse" x2="805.29" gradientTransform="matrix(0.89332,0,0,-0.89332,94.156,1087.8)" y1="528.36" x1="887.9"/>
  <linearGradient id="linearGradient4197" y2="533.5" xlink:href="#linearGradient3759" gradientUnits="userSpaceOnUse" x2="812.14" gradientTransform="matrix(0.89332,0,0,-0.89332,80.349,1084.2)" y1="537.5" x1="879.9"/>
  <linearGradient id="linearGradient4199" y2="867.68" xlink:href="#linearGradient3759" gradientUnits="userSpaceOnUse" x2="205.59" gradientTransform="matrix(0.99043,-0.13799,-0.13799,-0.99043,146.05,1483.3)" y1="873.14" x1="229.7"/>
  <linearGradient id="linearGradient4201" y2="872.65" xlink:href="#linearGradient3759" gradientUnits="userSpaceOnUse" x2="216.56" gradientTransform="matrix(0.99043,-0.13799,-0.13799,-0.99043,156.31,1482)" y1="873.06" x1="238.83"/>
  <linearGradient id="linearGradient4203" y2="528.42" xlink:href="#linearGradient3759" gradientUnits="userSpaceOnUse" x2="876.14" gradientTransform="translate(21.438,297.91)" y1="528.36" x1="887.9"/>
  <linearGradient id="linearGradient4205" y2="535.37" xlink:href="#linearGradient3759" gradientUnits="userSpaceOnUse" x2="883.76" gradientTransform="translate(21.438,297.91)" y1="542.4" x1="897.22"/>
  <linearGradient id="linearGradient4207" y2="501.08" xlink:href="#linearGradient3759" gradientUnits="userSpaceOnUse" x2="835.99" gradientTransform="translate(21.438,297.91)" y1="552.05" x1="880.71"/>
  <linearGradient id="linearGradient4209" y2="529.61" xlink:href="#linearGradient3759" gradientUnits="userSpaceOnUse" x2="805.29" gradientTransform="matrix(0.89332,0,0,0.89332,94.156,361.57)" y1="528.36" x1="887.9"/>
  <linearGradient id="linearGradient4211" y2="867.68" xlink:href="#linearGradient3759" gradientUnits="userSpaceOnUse" x2="205.59" gradientTransform="matrix(0.99043,0.13799,-0.13799,0.99043,146.05,-33.885)" y1="873.14" x1="229.7"/>
  <linearGradient id="linearGradient4213" y2="872.65" xlink:href="#linearGradient3759" gradientUnits="userSpaceOnUse" x2="216.56" gradientTransform="matrix(0.99043,0.13799,-0.13799,0.99043,156.31,-32.603)" y1="873.06" x1="238.83"/>
 </defs>
 <metadata id="metadata60"/>
 <rect id="rect4814" width="2.207" height="4.682" x="2.903" y="3.318" rx="0.943" fill="#1a1a1a" stroke-linejoin="round" stroke-linecap="round" stroke-width="0.3"/>
 <rect id="rect4814-1" width="2.207" height="4.682" x="18.829" y="3.318" rx="0.943" fill="#1a1a1a" stroke-linejoin="round" stroke-linecap="round" stroke-width="0.3"/>
 <rect id="rect4814-2" width="2.207" height="4.682" x="2.85" y="16.818" rx="0.943" fill="#1a1a1a" stroke-linejoin="round" stroke-linecap="round" stroke-width="0.3"/>
 <rect id="rect4814-7" width="2.207" height="4.682" x="18.918" y="16.818" rx="0.943" fill="#1a1a1a" stroke-linejoin="round" stroke-linecap="round" stroke-width="0.3"/>
 <g id="g4179" transform="matrix(1.0127361,0,0,1,-0.15244214,0)">
  <path inkscape:connector-curvature="0" d="m 2.9101531,10.06761 c 3.542e-4,0.03757 0.011999,0.117586 0.036894,0.161112 l 0.05903,0.08717 1.4142901,-0.215595 0.011068,3.108568 c 1.968e-4,0.06068 -5.51e-4,0.121732 -0.00123,0.182905 -0.00135,0.12234 -0.00411,0.245699 -0.00861,0.36971 -0.00658,0.181633 -0.016248,0.365352 -0.028285,0.549485 -6.454e-4,0.0099 -0.0018,0.01971 -0.00246,0.02958 -0.0248,0.371902 -0.058704,0.747366 -0.095924,1.12156 -0.050479,0.506247 -0.1065459,1.009207 -0.1524952,1.497472 -0.034053,0.36184 -0.062163,0.715611 -0.078707,1.055409 -0.011363,0.233353 -0.017967,0.459872 -0.015987,0.678699 9.72e-4,0.107491 0.00367,0.213393 0.00861,0.316785 0.00494,0.103381 0.013982,0.208718 0.025826,0.315215 0.00592,0.05325 0.012209,0.106545 0.019677,0.160333 0.022369,0.161117 0.052002,0.324904 0.086086,0.488016 3.93e-5,2.51e-4 -3.94e-5,5.25e-4 0,7.77e-4 0.022769,0.108903 0.048228,0.217146 0.075016,0.325327 0.026789,0.108191 0.055009,0.216023 0.084854,0.322214 0.029776,0.105945 0.061604,0.210967 0.093465,0.313672 7.87e-5,2.49e-4 -7.87e-5,5.28e-4 0,7.77e-4 0.015972,0.05147 0.031647,0.101361 0.047964,0.151772 0.048861,0.150967 0.099014,0.297233 0.1488039,0.435862 7.87e-5,2.51e-4 -7.87e-5,5.25e-4 0,7.77e-4 0.03325,0.09256 0.065925,0.181498 0.098384,0.266972 0.06487,0.170952 0.1272932,0.326647 0.1832383,0.46154 0.083922,0.20233 0.1545495,0.358204 0.196768,0.450656 0.028169,0.06161 0.044273,0.09496 0.044273,0.09496 l 0.1475761,0.340894 c 0.00979,0.02248 0.027268,0.04429 0.051652,0.06538 0.00828,0.0072 0.017155,0.01401 0.027056,0.02102 0.038551,0.02739 0.08936,0.05357 0.1512674,0.07861 2.755e-4,1.25e-4 9.563e-4,-1.24e-4 0.00123,0 0.030882,0.01246 0.06456,0.02547 0.1008437,0.03736 3.148e-4,10e-5 9.13e-4,-10e-5 0.00123,0 0.036351,0.01189 0.075331,0.02369 0.116833,0.03502 3.542e-4,10e-5 8.736e-4,-9.9e-5 0.00123,0 0.3348796,0.09133 0.8315812,0.164881 1.4253484,0.222599 3.936e-4,2.5e-5 8.343e-4,-2.5e-5 0.00123,0 0.00921,8.94e-4 0.019024,0.0014 0.028285,0.0023 0.1311065,0.01257 0.2675337,0.02471 0.4070737,0.0358 0.00955,7.6e-4 0.0187,0.0016 0.028285,0.0023 0.1591145,0.01249 0.322798,0.02358 0.4907002,0.03425 3.935e-4,2.4e-5 8.303e-4,-2.5e-5 0.00123,0 0.08376,0.0053 0.1690159,0.01069 0.2545706,0.01557 3.936e-4,2.3e-5 8.225e-4,-2.3e-5 0.00123,0 0.085567,0.0049 0.1711567,0.0096 0.258258,0.01401 3.936e-4,2.1e-5 8.225e-4,-2e-5 0.00123,0 0.1746355,0.0089 0.3520495,0.01689 0.5312737,0.02413 3.975e-4,1.7e-5 8.225e-4,-1.6e-5 0.00123,0 0.5385148,0.02173 1.093597,0.03635 1.635615,0.04436 4.09e-4,7e-6 8.14e-4,-5e-6 0.0012,0 0.361636,0.0053 0.716747,0.0078 1.058887,0.0078 0.03808,0 0.07725,-6.85e-4 0.115601,-7.77e-4 0.03835,10e-5 0.07752,7.77e-4 0.115602,7.77e-4 0.342108,0 0.697227,-0.0024 1.058848,-0.0078 4.13e-4,-6e-6 8.18e-4,6e-6 0.0012,0 0.542056,-0.008 1.0971,-0.02263 1.635614,-0.04436 4.06e-4,-1.7e-5 8.31e-4,1.6e-5 0.0012,0 0.179224,-0.0072 0.356638,-0.01522 0.531274,-0.02413 4.05e-4,-2.1e-5 8.3e-4,2.1e-5 0.0012,0 0.0871,-0.0044 0.172691,-0.0091 0.258258,-0.01401 4.05e-4,-2.3e-5 8.3e-4,2.3e-5 0.0012,0 0.08555,-0.0049 0.17081,-0.01025 0.25457,-0.01557 4.02e-4,-2.5e-5 8.31e-4,2.5e-5 0.0012,0 0.167894,-0.01067 0.331578,-0.02175 0.4907,-0.03425 0.0096,-7.52e-4 0.01874,-0.0016 0.02829,-0.0023 0.139532,-0.0111 0.275959,-0.02323 0.407073,-0.0358 0.0093,-8.87e-4 0.01907,-0.0014 0.02829,-0.0023 3.93e-4,-2.5e-5 8.46e-4,5e-5 0.0012,0 0.593728,-0.05772 1.090449,-0.131266 1.425348,-0.222598 3.54e-4,-10e-5 8.89e-4,9.9e-5 0.0012,0 0.0415,-0.01133 0.08048,-0.02313 0.116833,-0.03502 3.15e-4,-9.9e-5 9.09e-4,10e-5 0.0012,0 0.03628,-0.01189 0.06996,-0.0249 0.100843,-0.03736 2.76e-4,-1.25e-4 9.53e-4,1.24e-4 0.0012,0 0.06191,-0.02504 0.112717,-0.05122 0.151268,-0.07861 0.0099,-0.007 0.01877,-0.01385 0.02706,-0.02101 0.02438,-0.02109 0.04187,-0.0429 0.05165,-0.06538 l 0.147576,-0.340893 c 0,0 0.0161,-0.03335 0.04427,-0.09496 0.04222,-0.09243 0.112846,-0.248317 0.196768,-0.450656 0.05595,-0.134886 0.118368,-0.290583 0.183238,-0.461541 0.03246,-0.08546 0.06513,-0.1744 0.09838,-0.266972 7.9e-5,-2.54e-4 -7.9e-5,-5.25e-4 0,-7.77e-4 0.04979,-0.138631 0.09994,-0.284879 0.148804,-0.435862 0.01631,-0.05041 0.03199,-0.100305 0.04796,-0.151772 7.9e-5,-2.51e-4 -7.9e-5,-5.28e-4 0,-7.77e-4 0.03186,-0.102694 0.06369,-0.207717 0.09347,-0.313671 0.02985,-0.106201 0.05807,-0.214033 0.08485,-0.322214 0.02679,-0.108191 0.05225,-0.216432 0.07502,-0.325328 3.9e-5,-2.54e-4 -3.9e-5,-5.25e-4 0,-7.77e-4 0.03409,-0.163102 0.06372,-0.326896 0.08609,-0.488016 0.0075,-0.05379 0.01375,-0.107082 0.01968,-0.160332 0.01184,-0.1065 0.02089,-0.211837 0.02583,-0.315216 0.0049,-0.103381 0.0076,-0.209283 0.0086,-0.316784 0.002,-0.218825 -0.0046,-0.445351 -0.01599,-0.6787 -0.01655,-0.339773 -0.04465,-0.693568 -0.07871,-1.055408 -0.04595,-0.488265 -0.102017,-0.991225 -0.152496,-1.497473 -0.03722,-0.374193 -0.07112,-0.749632 -0.09592,-1.12156 -6.61e-4,-0.0099 -0.0018,-0.01972 -0.0025,-0.02958 -0.01204,-0.184143 -0.0217,-0.367868 -0.02829,-0.549485 -0.0045,-0.124002 -0.0073,-0.24736 -0.0086,-0.369711 -6.77e-4,-0.06117 -0.0014,-0.122223 -0.0012,-0.182905 l 0.01107,-3.108568 1.41429,0.215595 0.05903,-0.08717 c 0.0249,-0.04353 0.03654,-0.123538 0.03689,-0.161112 1.97e-4,-0.02114 -0.0029,-0.04371 -0.0098,-0.06694 -0.0023,-0.00774 -0.0056,-0.01553 -0.0086,-0.02335 -0.003,-0.00759 -0.0062,-0.015755 -0.0098,-0.02335 -0.0076,-0.015652 -0.01659,-0.031469 -0.02706,-0.0467 -0.03123,-0.045367 -0.07601,-0.088024 -0.130359,-0.1190825 -4.21e-4,-2.49e-4 -8.1e-4,-5.404e-4 -0.0012,-7.77e-4 -0.02746,-0.015562 -0.05711,-0.027703 -0.08977,-0.03658 l -1.23224,-0.3027622 0.0098,-2.7382096 c 0.01471,-0.018603 0.02932,-0.036764 0.04304,-0.05526 0.05508,-0.074201 0.102202,-0.1472217 0.142657,-0.2202622 0.02017,-0.036421 0.03839,-0.072672 0.05534,-0.1089655 0.05933,-0.1270227 0.100411,-0.2537464 0.127899,-0.3821638 0.01572,-0.073379 0.02731,-0.1475929 0.03567,-0.2225985 0.0042,-0.037502 0.0071,-0.075566 0.0098,-0.113633 0.0055,-0.076139 0.0084,-0.1528904 0.0098,-0.2319383 0.0029,-0.1580934 0,-0.3232602 0,-0.498128 0,-0.2592756 -0.02091,-0.5061479 -0.06149,-0.7417375 -0.01623,-0.094233 -0.03532,-0.1865764 -0.0578,-0.2770837 -0.04496,-0.1810098 -0.103063,-0.3543683 -0.172172,-0.5206932 -0.01728,-0.041579 -0.03537,-0.08308 -0.05411,-0.1237525 -0.05623,-0.1220164 -0.11906,-0.2394202 -0.188157,-0.353347 -0.02303,-0.037977 -0.04567,-0.075765 -0.0701,-0.1128559 -0.04885,-0.074179 -0.100627,-0.1464995 -0.154955,-0.217149 -0.02716,-0.035325 -0.05512,-0.070622 -0.08363,-0.1050726 -0.05701,-0.068901 -0.117274,-0.1361583 -0.179551,-0.2015849 -0.03114,-0.032715 -0.0635,-0.064659 -0.09592,-0.096512 -0.162141,-0.159259 -0.339445,-0.3079178 -0.532494,-0.445974 -0.154246,-0.1103005 -0.317969,-0.2142324 -0.4907,-0.31133 -2.36e-4,-1.246e-4 -0.001,1.245e-4 -0.0012,0 -0.04301,-0.02417 -0.08625,-0.048244 -0.130359,-0.071606 -2.36e-4,-1.246e-4 -9.88e-4,1.245e-4 -0.0012,0 -0.04411,-0.023355 -0.08885,-0.046717 -0.134046,-0.06927 -2.36e-4,-1.245e-4 -9.8e-4,1.245e-4 -0.0012,0 C 17.4713,1.1610661 17.331173,1.0966184 17.185561,1.035929 c -2.75e-4,-1.245e-4 -9.44e-4,1.245e-4 -0.0012,0 -0.04835,-0.020145 -0.09698,-0.04057 -0.146348,-0.0599298 -3.15e-4,-1.2453e-4 -9.37e-4,1.2453e-4 -0.0012,0 -0.148682,-0.0582934 -0.301153,-0.11374255 -0.458706,-0.16500241 -3.14e-4,-9.963e-5 -9.09e-4,9.962e-5 -0.0012,0 -0.05231,-0.0170108 -0.105393,-0.0335664 -0.158643,-0.0498128 -3.14e-4,-9.963e-5 -9.01e-4,9.962e-5 -0.0012,0 -0.05326,-0.01624 -0.10692,-0.0327768 -0.161106,-0.0482561 -3.54e-4,-9.963e-5 -8.94e-4,9.962e-5 -0.0012,0 -0.108714,-0.0310433 -0.21848,-0.0607218 -0.330814,-0.0887291 -3.55e-4,-9.963e-5 -8.82e-4,9.962e-5 -0.0012,0 -0.056,-0.0139533 -0.112843,-0.0272675 -0.169713,-0.0404729 -3.54e-4,-7.472e-5 -8.73e-4,7.472e-5 -0.0012,0 -0.05687,-0.0132009 -0.11444,-0.0264581 -0.172172,-0.0389162 -0.05774,-0.012453 -0.116053,-0.0248671 -0.174631,-0.03658 -3.54e-4,-7.472e-5 -8.66e-4,7.472e-5 -0.0012,0 -0.05858,-0.0117092 -0.117687,-0.0232713 -0.177091,-0.0342463 -3.94e-4,-7.472e-5 -8.54e-4,7.472e-5 -0.0012,0 -0.05941,-0.01097 -0.119336,-0.0216708 -0.179551,-0.0319101 -3.94e-4,-7.472e-5 -8.54e-4,7.472e-5 -0.0012,0 -0.181424,-0.0308366 -0.366225,-0.0589883 -0.55465,-0.08328 l -0.0012,0 c -0.06255,-0.00806 -0.126105,-0.0152228 -0.18939,-0.0225727 l -0.0012,0 c -0.445404,-0.0516733 -0.907572,-0.0862285 -1.385994,-0.10351598 -4.06e-4,-1.245e-5 -8.31e-4,1.494e-5 -0.0012,0 -0.068,-0.002441 -0.136782,-0.004451 -0.205379,-0.006227 -4.05e-4,-9.96e-6 -8.3e-4,9.96e-6 -0.0012,0 -0.137615,-0.003552 -0.275758,-0.006144 -0.415652,-0.007004 -4.06e-4,0 -8.31e-4,2.49e-6 -0.0012,0 -0.07017,-4.2341e-4 -0.140807,-2.4906e-4 -0.211526,0 -0.02502,0 -0.05003,5.4794e-4 -0.07502,7.721e-4 -0.02498,-2.4906e-4 -0.05,-7.721e-4 -0.07502,-7.721e-4 -0.07072,-2.4906e-4 -0.141358,-4.2341e-4 -0.211525,0 -4.02e-4,2.49e-6 -8.23e-4,0 -0.0012,0 -0.139914,8.4682e-4 -0.278057,0.003452 -0.415653,0.007004 -4.01e-4,9.96e-6 -8.22e-4,-9.96e-6 -0.0012,0 -0.0686,0.001768 -0.137375,0.003786 -0.205378,0.006227 -4.02e-4,1.494e-5 -8.23e-4,-1.245e-5 -0.0012,0 -0.478422,0.0172875 -0.940552,0.0518427 -1.3859949,0.10351598 l -0.00123,0 c -0.063284,0.00735 -0.1268406,0.014513 -0.1893892,0.0225727 l -0.00123,0 c -0.1884172,0.0242934 -0.3732139,0.0524434 -0.5546498,0.08328 -3.935e-4,7.472e-5 -8.382e-4,-7.472e-5 -0.00123,0 -0.060215,0.0102403 -0.1201427,0.0209411 -0.1795509,0.0319101 -3.935e-4,7.472e-5 -8.382e-4,-7.472e-5 -0.00123,0 -0.059404,0.0109745 -0.1185095,0.0225365 -0.1770913,0.0342463 -3.542e-4,7.472e-5 -8.776e-4,-7.472e-5 -0.00123,0 -0.058578,0.011714 -0.116896,0.0241281 -0.1746316,0.03658 -0.057732,0.0124574 -0.1152983,0.0257159 -0.1721721,0.0389162 -3.542e-4,7.472e-5 -8.776e-4,-7.472e-5 -0.00123,0 -0.05687,0.0132056 -0.1137162,0.0265203 -0.1697125,0.0404729 -3.541e-4,9.962e-5 -8.775e-4,-9.963e-5 -0.00123,0 -0.1123388,0.0280048 -0.2221039,0.0576857 -0.3308143,0.0887291 -3.148e-4,9.962e-5 -8.776e-4,-9.963e-5 -0.00123,0 -0.054182,0.0154788 -0.1078486,0.0320147 -0.1611059,0.0482561 -3.148e-4,9.962e-5 -9.169e-4,-9.963e-5 -0.00123,0 -0.053253,0.016245 -0.1063374,0.0328017 -0.1586423,0.0498128 -3.148e-4,9.962e-5 -9.169e-4,-9.963e-5 -0.00123,0 -0.157564,0.0512624 -0.3100356,0.10670898 -0.4587057,0.16500241 -2.754e-4,1.2453e-4 -9.169e-4,-1.2453e-4 -0.00123,0 -0.049361,0.0193605 -0.097998,0.0397855 -0.1463482,0.0599298 -2.755e-4,1.245e-4 -9.524e-4,-1.245e-4 -0.00123,0 -0.1456045,0.060689 -0.2857309,0.1251372 -0.4218314,0.1930221 -2.361e-4,1.245e-4 -9.956e-4,-1.245e-4 -0.00123,0 -0.045198,0.022552 -0.089935,0.045915 -0.1340463,0.06927 -2.361e-4,1.245e-4 -9.956e-4,-1.246e-4 -0.00123,0 -0.044111,0.023362 -0.087349,0.047434 -0.1303589,0.071606 -2.361e-4,1.245e-4 -9.956e-4,-1.246e-4 -0.00123,0 -0.172719,0.097093 -0.3364458,0.2010245 -0.4907001,0.31133 -0.193061,0.1380562 -0.3703647,0.2867225 -0.5324937,0.445974 -0.032428,0.031853 -0.064784,0.063798 -0.095925,0.096512 -0.062552,0.065425 -0.12281,0.1326822 -0.1798255,0.2015833 C 4.799052,2.4596769 4.7710988,2.4949743 4.743933,2.530299 4.6896014,2.600951 4.6378317,2.6732692 4.5889781,2.747448 4.5645509,2.7845386 4.5419112,2.8223266 4.5188815,2.8603039 4.4497844,2.9742407 4.3869485,3.091642 4.330724,3.2136509 4.3119814,3.2543231 4.2938902,3.2958246 4.2766128,3.3374034 4.2075039,3.5037208 4.1494022,3.6770769 4.1044407,3.8580966 4.0819596,3.9486015 4.0628755,4.0409444 4.0466382,4.1351803 4.0060016,4.37076 3.985097,4.6176422 3.985097,4.8769178 c 0,0.1748529 -0.00292,0.3400221 0,0.498128 0.00146,0.079048 0.00433,0.1557995 0.00984,0.2319383 0.00275,0.038069 0.00566,0.076134 0.00984,0.113633 0.00836,0.075006 0.01995,0.1492192 0.035664,0.2225985 0.027488,0.1284074 0.068574,0.2551411 0.1278992,0.3821638 0.016952,0.036294 0.035169,0.072545 0.055339,0.1089655 0.040456,0.073043 0.087581,0.1460635 0.1426568,0.2202622 0.01372,0.018497 0.028329,0.036657 0.043045,0.05526 l 0.00984,2.7382096 -1.2322402,0.3027622 c -0.032663,0.00888 -0.062313,0.021019 -0.089774,0.03658 -4.132e-4,2.49e-4 -8.107e-4,5.305e-4 -0.00123,7.77e-4 -0.054351,0.031058 -0.099132,0.073715 -0.1303589,0.1190825 -0.010466,0.015229 -0.019458,0.031046 -0.027056,0.0467 -0.00367,0.00759 -0.00686,0.015763 -0.00984,0.02335 -0.00306,0.00782 -0.00631,0.015613 -0.00861,0.023351 -0.00692,0.02322 -0.010035,0.0458 -0.00984,0.06694 z" id="path3855" stroke="#191919" fill-opacity="0.996" stroke-width="0.436"/>
  <path inkscape:connector-curvature="0" d="m 2.9101531,10.06761 c 3.542e-4,0.03757 0.012047,0.117586 0.036894,0.161112 l 0.05903,0.08717 1.4105908,-0.215595 0.011068,3.108568 c 0.00651,1.941777 -0.4527239,4.147413 -0.3738592,5.801447 0.078853,1.654084 1.101901,3.788762 1.101901,3.788762 l 0.1488039,0.340894 c 0.2084285,0.479473 3.8317429,0.640543 6.5633944,0.640543 0.0438,0 0.08867,-6.65e-4 0.132819,-7.77e-4 0.04415,1.24e-4 0.08902,7.77e-4 0.132818,7.77e-4 2.731692,0 6.354821,-0.161077 6.563395,-0.640543 l 0.148804,-0.340894 c 0,0 1.023037,-2.134752 1.101901,-3.788762 0.07885,-1.654083 -0.380368,-3.859744 -0.373859,-5.801447 l 0.01107,-3.108568 1.410591,0.215595 0.05903,-0.08717 c 0.02485,-0.04353 0.03654,-0.123535 0.03689,-0.161112 1.97e-4,-0.02114 -0.0029,-0.04371 -0.0098,-0.06694 -0.0023,-0.00774 -0.0056,-0.015529 -0.0086,-0.023349 -0.003,-0.00759 -0.0062,-0.015755 -0.0098,-0.02335 -0.0076,-0.015652 -0.01661,-0.031469 -0.02706,-0.046699 -0.03117,-0.045367 -0.07488,-0.088024 -0.129127,-0.1190824 -4.21e-4,-2.491e-4 -8.18e-4,-5.405e-4 -0.0012,-7.771e-4 -0.02741,-0.015562 -0.05717,-0.027703 -0.08977,-0.03658 l -1.2298,-0.3027622 0.0098,-2.7382096 c 0.469961,-0.5952629 0.421831,-1.1335151 0.421831,-1.8329367 0,-3.3187778 -3.407471,-4.67318829 -7.92503,-4.65749726 -0.0307,0 -0.06161,4.7322e-4 -0.09224,7.721e-4 -0.03062,-2.9888e-4 -0.06153,-7.721e-4 -0.09224,-7.721e-4 C 7.3909335,0.20378424 3.9833044,1.558125 3.9833044,4.8769277 c 0,0.6994216 -0.048153,1.2376738 0.4218314,1.8329367 l 0.00984,2.7382096 -1.2298003,0.3027622 c -0.032602,0.00888 -0.062364,0.021019 -0.089774,0.03658 -4.093e-4,2.49e-4 -8.107e-4,5.305e-4 -0.00123,7.771e-4 -0.054249,0.031058 -0.097959,0.073715 -0.1291271,0.1190824 -0.010446,0.01523 -0.019473,0.031046 -0.027056,0.046699 -0.00366,0.00759 -0.00687,0.015763 -0.00984,0.02335 -0.00305,0.00782 -0.00631,0.015611 -0.00861,0.023349 -0.00691,0.02322 -0.010035,0.0458 -0.00984,0.06694 z" id="path2853" fill="#ca0000" fill-opacity="0.996"/>
  <path inkscape:connector-curvature="0" d="m 16.046782,0.64053789 0.02337,0.12686573 C 16.169032,1.304012 17.092515,1.706076 18.21614,1.7457519 l 0.280394,0.00934 -0.190621,-0.1307561 C 17.728202,1.2285977 17.026645,0.91940962 16.23001,0.69268666 l -0.182994,-0.0520544 z" id="path3707" fill="#212121" stroke="#191919" color="#000000" stroke-width="0.156"/>
  <path inkscape:connector-curvature="0" d="M 7.9552859,0.64053789 7.9319197,0.76740362 C 7.8330359,1.304012 6.9095523,1.706076 5.785928,1.7457519 L 5.5055335,1.7550916 5.6961546,1.6243355 C 6.2738656,1.2285977 6.9754224,0.91940962 7.7720575,0.69268666 l 0.1832383,-0.0521465 z" id="path4161" fill="#212121" stroke="#191919" color="#000000" stroke-width="0.156"/>
 </g>
</svg>
