<?xml version="1.0" encoding="UTF-8" standalone="no"?>
<svg xmlns:i="http://ns.adobe.com/AdobeIllustrator/10.0/" xmlns="http://www.w3.org/2000/svg" xmlns:xlink="http://www.w3.org/1999/xlink" xmlns:sodipodi="http://sodipodi.sourceforge.net/DTD/sodipodi-0.dtd" xmlns:inkscape="http://www.inkscape.org/namespaces/inkscape" viewBox="0 0 24 24" version="1.1" width="24" height="24">
 <defs id="defs55">
  <linearGradient gradientTransform="matrix(0.07561054,0,0,0.07561054,418.95066,390.49482)" x2="0" y1="53.39" gradientUnits="userSpaceOnUse" y2="6.431" id="XMLID_3_">
   <stop id="stop4284" stop-color="#ffffff"/>
   <stop id="stop4286" offset="0.386" stop-color="#fdfdfe"/>
   <stop id="stop4288" offset="0.561" stop-color="#f6f8fb"/>
   <stop id="stop4290" offset="0.693" stop-color="#e9edf5"/>
   <stop id="stop4292" offset="0.804" stop-color="#d7dfee"/>
   <stop id="stop4294" offset="0.901" stop-color="#bfcee4"/>
   <stop id="stop4296" offset="0.988" stop-color="#a3bad9"/>
   <stop id="stop4298" offset="1" stop-color="#9eb6d7"/>
  </linearGradient>
  <linearGradient gradientTransform="matrix(0.07561054,0,0,0.07561054,418.95066,390.49482)" x2="0" y1="93.1" gradientUnits="userSpaceOnUse" y2="2.985" id="XMLID_2_">
   <stop id="stop4276" stop-color="#4041c5"/>
   <stop id="stop4278" offset="1" stop-color="#5f86a2"/>
  </linearGradient>
  <radialGradient id="XMLID_1_" gradientUnits="userSpaceOnUse" cy="126.75" cx="42.36" r="91.43" gradientTransform="matrix(-0.07561054,0,0,0.07561054,416.50935,390.49482)">
   <stop id="stop12" stop-color="#e3ebef"/>
   <stop offset="1" id="stop14"/>
  </radialGradient>
  <linearGradient id="linearGradient4280" y2="2.985" gradientUnits="userSpaceOnUse" y1="93.1" x2="0" gradientTransform="matrix(0.07561054,0,0,0.07561054,418.95066,390.49482)">
   <stop id="stop21" stop-color="#e3ebef"/>
   <stop offset="1" id="stop23" stop-color="#5f86a2"/>
  </linearGradient>
  <radialGradient id="radialGradient4205" gradientUnits="userSpaceOnUse" cy="126.75" cx="42.36" r="91.43">
   <stop id="stop4207" stop-color="#e3ebef"/>
   <stop offset="1" id="stop4209"/>
  </radialGradient>
  <linearGradient id="linearGradient4213" y2="2.985" gradientUnits="userSpaceOnUse" y1="93.1" x2="0">
   <stop id="stop4215" stop-color="#e3ebef"/>
   <stop offset="1" id="stop4217" stop-color="#5f86a2"/>
  </linearGradient>
  <linearGradient id="linearGradient4220" y2="6.431" gradientUnits="userSpaceOnUse" y1="53.39" x2="0">
   <stop id="stop4222" stop-color="#ffffff"/>
   <stop offset="0.386" id="stop4224" stop-color="#fdfdfe"/>
   <stop offset="0.561" id="stop4226" stop-color="#f6f8fb"/>
   <stop offset="0.693" id="stop4228" stop-color="#e9edf5"/>
   <stop offset="0.804" id="stop4230" stop-color="#d7dfee"/>
   <stop offset="0.901" id="stop4232" stop-color="#bfcee4"/>
   <stop offset="0.988" id="stop4234" stop-color="#a3bad9"/>
   <stop offset="1" id="stop4236" stop-color="#9eb6d7"/>
  </linearGradient>
  <linearGradient inkscape:collect="always" xlink:href="#XMLID_2_" id="linearGradient4358" gradientUnits="userSpaceOnUse" gradientTransform="matrix(-0.07561054,0,0,0.07561054,416.50935,390.49482)" y1="93.1" x2="0" y2="2.985"/>
 </defs>
 <g id="layer1" inkscape:label="Capa 1" inkscape:groupmode="layer" transform="translate(-405.73,-376.36)">
  <g id="g4374" transform="matrix(0.98735242,0,0,0.98735242,5.2338987,4.8592025)">
   <g transform="matrix(-0.0039657,0,0,0.0039657,435.9735,368.36892)" id="g14" fill="#c7c7c7" stroke-width="25.22">
    <path inkscape:connector-curvature="0" d="m 5903,2361 c 50,82 34,3995 -31,4149 -51,122 -1703,1495 -1789,1531 -1117,-7 -1870,-414 -1995,-629 -48,-270 -7,-4433 38,-4520 40,-76 2153,-833 2227,-851 67,-15 1493,229 1550,320 z" id="path16"/>
   </g>
   <g transform="matrix(-0.0039657,0,0,0.0039657,435.9735,368.36892)" id="g18" fill="#000000" stroke="#000000" stroke-width="50.43">
    <path inkscape:connector-curvature="0" d="m 5881,2374 2,-1 -2,2 c 0,-1 -1,-1 -1,-1 l 0,-2 7,-3 -2,2 -5,1 5,-1 -2,2 -2,1 z m 2,-1 2,-2 2,-2 5,-2 -5,4 5,-4 1,0 -6,3 0,1 0,-1 -4,3 z m 10,-6 -1,0 1,0 -1,0 11,-6 -10,5 0,1 z m 11,-4 -11,4 0,-1 11,-3 z m 20,-15 c -2,-3 -4,-6 -7,-9 -2,-3 -5,-5 -8,-7 -5,-4 -12,-8 -20,-12 -7,-4 -15,-7 -24,-11 -9,-4 -19,-7 -30,-11 -21,-8 -47,-16 -75,-24 -29,-8 -61,-16 -95,-25 -136,-34 -313,-72 -494,-106 -181,-35 -364,-66 -511,-90 -73,-11 -138,-21 -189,-27 -25,-3 -47,-6 -65,-8 -9,-1 -17,-1 -24,-2 -4,0 -7,0 -10,-1 l -9,0 c -3,0 -5,0 -7,1 l -4,0 c -2,0 -3,0 -4,1 -2,0 -4,1 -7,2 -2,0 -5,1 -8,2 -3,1 -7,2 -11,3 -4,2 -8,3 -13,5 -10,3 -22,7 -35,12 -13,4 -28,9 -44,15 -33,11 -71,25 -115,40 -43,15 -91,32 -144,51 -209,75 -481,173 -753,274 -271,101 -542,203 -747,285 -51,21 -98,40 -140,57 -43,18 -80,34 -111,48 -16,7 -30,14 -42,20 -13,6 -24,12 -33,17 -5,2 -9,5 -13,7 -4,3 -8,5 -10,7 -4,3 -7,5 -9,7 -5,4 -7,8 -9,11 -1,2 -2,5 -4,9 0,3 -1,6 -1,9 -1,3 -1,7 -2,11 -1,4 -1,8 -2,13 0,9 -1,20 -3,32 0,13 -1,27 -2,42 -2,31 -4,69 -6,111 -2,43 -4,91 -5,144 -7,213 -14,504 -19,835 -11,662 -19,1482 -19,2144 0,308 2,583 5,791 1,52 2,100 3,143 1,43 3,82 4,115 1,34 3,62 4,85 1,12 2,22 3,30 1,5 1,9 1,13 1,3 2,7 2,10 l 1,4 2,4 c 9,15 20,30 33,46 14,16 30,32 48,49 35,32 80,66 135,101 107,70 249,142 423,207 173,65 377,124 608,167 231,43 489,70 769,72 l 6,0 5,-2 8,-4 c 2,-2 5,-3 8,-6 3,-2 6,-4 10,-6 l 12,-9 c 9,-6 19,-13 30,-22 11,-8 23,-17 37,-28 27,-20 58,-45 93,-73 35,-28 74,-59 116,-93 169,-136 385,-315 600,-497 215,-181 430,-366 593,-512 41,-37 79,-71 113,-103 34,-31 64,-59 89,-84 13,-13 24,-24 34,-35 11,-11 20,-20 28,-29 8,-9 14,-17 19,-23 3,-4 5,-8 7,-10 2,-4 4,-8 6,-11 0,-2 1,-5 2,-8 1,-3 2,-5 3,-9 1,-6 2,-13 3,-22 2,-8 3,-17 4,-28 1,-11 2,-22 3,-35 2,-25 4,-55 7,-89 1,-34 3,-72 5,-113 8,-166 14,-391 19,-648 10,-516 16,-1164 16,-1743 0,-389 -3,-747 -8,-1012 -1,-66 -2,-127 -4,-181 -1,-53 -3,-100 -5,-139 -1,-20 -2,-38 -3,-53 -1,-16 -2,-30 -3,-41 -1,-6 -1,-11 -2,-16 -1,-5 -1,-10 -2,-13 -1,-4 -1,-8 -2,-11 -1,-2 -1,-4 -2,-5 -1,-3 -2,-5 -3,-6 z m -37,21 12,-12 -12,12 z m -6,9 c 1,3 1,7 2,11 0,4 1,9 1,15 1,11 3,24 4,39 0,15 1,33 2,52 2,39 4,86 6,139 1,53 2,114 4,180 5,264 7,622 7,1011 0,578 -5,1227 -15,1742 -6,257 -12,481 -19,646 -2,42 -4,79 -6,113 -2,33 -4,63 -6,88 -1,12 -2,24 -4,34 0,10 -2,18 -3,26 -1,7 -2,14 -3,18 0,3 -1,4 -1,6 0,1 -1,2 -1,2 0,1 -1,2 -2,4 -1,1 -3,4 -4,6 -5,6 -10,13 -17,21 -7,7 -16,17 -26,27 l -34,34 c -25,24 -54,52 -88,83 -33,31 -71,66 -112,102 -163,146 -377,330 -592,512 -215,181 -431,360 -598,495 -42,34 -81,65 -116,93 -35,28 -66,52 -93,73 -13,10 -26,20 -37,28 -10,8 -20,15 -28,21 -4,3 -8,6 -12,8 -3,2 -6,4 -8,6 -2,1 -4,2 -5,3 -276,-2 -528,-29 -755,-71 -228,-42 -429,-100 -600,-164 -169,-64 -308,-134 -413,-202 -51,-33 -94,-66 -128,-97 -17,-15 -31,-30 -43,-44 -10,-12 -19,-23 -26,-34 l 0,-4 c -1,-3 -1,-7 -1,-11 -1,-8 -2,-18 -3,-28 -2,-23 -3,-51 -5,-84 -1,-33 -2,-71 -3,-115 -1,-42 -2,-90 -3,-142 -3,-208 -5,-482 -5,-790 0,-662 7,-1481 18,-2143 6,-330 12,-622 19,-834 2,-53 4,-101 6,-144 2,-42 3,-79 5,-109 1,-16 2,-30 3,-42 1,-12 2,-22 3,-31 0,-4 1,-8 1,-11 1,-4 1,-6 2,-9 l 0,-2 c 0,-1 1,-1 2,-2 2,-1 4,-3 7,-5 4,-1 7,-4 11,-6 9,-5 19,-10 31,-16 12,-6 26,-12 41,-19 31,-14 67,-29 109,-47 42,-17 89,-37 140,-57 205,-82 475,-184 746,-284 271,-101 543,-200 752,-274 52,-19 101,-36 144,-51 43,-16 82,-29 114,-40 17,-6 31,-11 44,-16 13,-4 25,-8 35,-11 4,-2 9,-3 13,-4 4,-2 7,-3 10,-4 3,-1 5,-1 8,-2 l 3,-1 -2,-8 1,8 1,0 4,0 7,0 c 2,0 5,0 8,1 7,0 14,1 23,2 17,1 39,4 64,7 50,6 114,16 187,27 147,23 329,55 509,89 180,35 357,72 492,106 34,9 65,17 92,25 28,8 53,15 73,23 10,3 20,7 28,10 7,3 15,6 20,9 5,3 10,5 13,8 0,0 1,0 1,1 0,1 1,3 1,4 z M 4075,8017 c 1,0 1,-1 2,-1 l 6,0 0,14 -8,-13 8,13 0,11 -10,-23 c 0,0 1,-1 2,-1 z M 2110,7400 c 1,1 1,3 2,4 1,1 1,3 1,4 l -25,4 21,-11 1,-1 -1,1 1,-1 2,0 -2,0 z m 39,-4498 0,3 c -1,0 -1,1 -2,1 l -5,-6 -17,-4 17,4 -2,-1 4,2 5,1 z m -7,-2 2,1 -2,-1 z m -16,-8 14,7 -14,-7 z m 14,7 -10,-11 10,11 z m 2217,-841 -2,-17 2,17 z m -4,-17 4,17 0,1 -4,-18 z" id="path20"/>
   </g>
   <g transform="matrix(-0.0039657,0,0,0.0039657,435.9735,368.36892)" id="g22" stroke-opacity="0.541" fill="#ffffff" stroke="#ffffff" fill-opacity="0.541" stroke-width="25.22">
    <path inkscape:connector-curvature="0" d="m 5822,2442 -52,22 -52,23 -52,23 -53,25 -53,25 -53,26 -53,26 -54,27 -54,27 -54,28 -55,28 -54,29 -55,29 -55,29 -111,60 -112,60 -112,60 -113,61 -114,60 -114,60 -114,59 -57,29 -57,29 -58,28 -57,28 -27,-6 -28,-7 -56,-13 -58,-14 -59,-13 -60,-14 -61,-14 -61,-14 -63,-14 -62,-14 -63,-15 -127,-28 -127,-28 -64,-14 -63,-14 -62,-13 -62,-13 -61,-13 -60,-13 -60,-13 -58,-12 -57,-12 -28,-5 -28,-6 -27,-5 -27,-6 -27,-5 -26,-5 -26,-5 -25,-6 -25,-4 -24,-5 -24,-5 -24,-4 -23,-4 -22,-5 -22,-4 -21,-3 -21,-4 -20,-4 52,16 52,16 53,16 54,15 55,16 55,15 57,16 56,15 57,16 58,15 116,31 117,30 118,31 118,31 117,30 116,31 58,15 57,16 57,15 56,16 55,15 55,16 54,15 53,16 52,16 52,16 1,60 2,61 1,61 1,63 1,64 2,64 1,65 1,66 1,67 1,67 1,68 0,69 1,69 1,70 1,70 0,71 1,71 0,72 1,72 1,73 1,146 1,147 0,149 1,149 2,299 1,300 1,149 1,148 1,147 1,146 1,73 0,72 1,72 1,71 0,71 1,71 1,69 1,70 0,68 1,68 1,67 1,67 1,66 1,65 1,65 2,63 1,63 1,62 2,61 1,60 1,-61 1,-61 0,-63 1,-63 1,-64 1,-65 1,-66 1,-67 1,-67 1,-68 1,-69 2,-69 1,-70 1,-71 1,-71 1,-72 1,-72 2,-73 1,-73 1,-73 3,-148 3,-149 2,-151 3,-151 6,-303 5,-303 3,-151 3,-150 2,-149 3,-149 1,-73 2,-73 1,-73 1,-72 1,-71 1,-72 1,-70 2,-70 1,-70 1,-68 1,-68 1,-68 1,-66 1,-66 1,-65 1,-64 1,-64 0,-62 1,-62 1,-60 110,-59 109,-59 109,-57 109,-58 108,-57 107,-58 107,-57 107,-58 105,-58 105,-58 104,-60 103,-60 51,-30 50,-31 51,-31 50,-31 50,-31 50,-32 49,-32 50,-32 z" id="path24"/>
   </g>
   <g transform="matrix(-0.0039657,0,0,0.0039657,435.9735,368.36892)" id="g32" stroke-opacity="0.161" fill="#000000" stroke="#ffffff" fill-opacity="0.161" stroke-width="25.22">
    <path inkscape:connector-curvature="0" d="m 2420,6628 10,14 10,13 11,13 12,13 12,12 12,12 14,12 13,12 14,12 15,11 15,11 16,11 15,11 17,10 16,10 17,11 18,9 18,10 18,9 18,8 19,9 19,8 19,8 19,8 40,15 40,14 41,12 41,11 42,10 41,9 42,8 41,6 41,6 41,3 21,2 20,1 19,1 20,0 20,0 19,0 19,-1 19,-1 18,-1 19,-1 17,-2 18,-3 17,-2 17,-3 17,-4 16,-4 15,-4 15,-4 15,-5 15,-5 -2,-1 -1,0 -5,-2 -6,-1 -7,-2 -8,-2 -10,-3 -10,-3 -12,-3 -13,-4 -14,-3 -15,-4 -16,-5 -16,-4 -18,-5 -18,-5 -19,-5 -20,-6 -20,-5 -21,-6 -22,-6 -22,-6 -22,-6 -23,-7 -24,-6 -48,-13 -49,-14 -50,-14 -50,-13 -50,-15 -50,-13 -49,-14 -49,-13 -23,-7 -24,-6 -23,-7 -22,-6 -22,-6 -21,-6 -21,-6 -20,-5 -19,-6 -19,-5 -18,-5 -17,-5 -16,-4 -15,-5 -15,-4 -13,-4 -12,-3 -12,-3 -10,-3 -9,-3 -7,-2 -7,-2 -5,-2 -2,0 -2,-1 z" id="path34"/>
   </g>
   <g transform="matrix(-0.0039657,0,0,0.0039657,435.9735,368.36892)" id="g42" stroke-opacity="0.388" fill="#ffffff" stroke="#ffffff" fill-opacity="0.388" stroke-width="25.22">
    <path inkscape:connector-curvature="0" d="m 3454,6093 -936,-361 -9,4 -8,4 -8,4 -6,5 -6,6 -6,6 -5,7 -5,6 -4,7 -4,7 -3,7 -3,8 -3,8 -2,7 -3,15 -2,15 -2,14 0,6 0,7 0,5 0,6 0,5 0,4 0,4 1,4 0,2 0,2 0,1 0,1 146,51 1,1 1,1 1,1 1,2 2,2 1,3 3,3 2,3 3,4 3,4 3,4 4,5 4,4 4,6 5,4 10,12 10,11 13,12 13,12 14,13 15,12 17,13 17,12 19,12 19,11 21,11 22,10 11,4 11,5 12,4 12,4 13,3 12,3 13,3 13,3 13,2 13,1 14,2 14,1 14,0 15,0 15,0 15,-1 15,-2 15,-2 16,-2 16,-3 16,-4 16,-4 17,-5 17,-6 1,0 2,1 3,0 6,1 6,1 7,1 8,1 9,1 10,1 11,1 12,1 12,1 12,0 13,1 26,0 14,-1 13,-1 14,-1 13,-2 13,-2 12,-3 12,-3 12,-3 10,-5 11,-5 9,-6 8,-6 8,-8 3,-4 3,-4 3,-4 2,-4 2,-5 2,-5 z" id="path44"/>
   </g>
   <g transform="matrix(-0.0039657,0,0,0.0039657,435.9735,368.36892)" id="g52" fill="#606060" stroke-width="25.22">
    <path inkscape:connector-curvature="0" d="m 3446,5971 c -311,-81 -622,-161 -933,-242 -12,44 -13,107 6,140 47,23 142,41 189,64 136,131 255,142 472,124 84,17 168,31 251,48 26,-51 33,-72 15,-134 z" id="path54"/>
   </g>
   <g transform="matrix(-0.0039657,0,0,0.0039657,435.9735,368.36892)" id="g60" stroke-opacity="0.4" fill="#ffffff" stroke="#ffffff" fill-opacity="0.4" stroke-width="25.22">
    <path inkscape:connector-curvature="0" d="m 5856,2414 -1813,1017 7,4549 1775,-1494 31,-4072 z" id="path62"/>
   </g>
   <g transform="matrix(-0.0039657,0,0,0.0039657,435.9735,368.36892)" id="g70" stroke-opacity="0.161" fill="#000000" stroke="#ffffff" fill-opacity="0.161" stroke-width="25.22">
    <path inkscape:connector-curvature="0" d="m 2525,6916 10,13 11,12 10,13 11,11 11,12 11,11 12,11 12,10 12,10 12,10 13,10 12,9 13,9 13,8 27,17 28,15 28,14 28,13 29,11 29,11 30,9 30,8 29,8 30,6 30,5 30,4 30,3 30,2 29,2 29,0 29,-1 27,-2 28,-2 27,-3 26,-5 25,-5 24,-6 24,-6 22,-8 -2,-1 -4,0 -4,-2 -5,-1 -6,-2 -8,-2 -8,-2 -9,-2 -10,-3 -10,-3 -11,-3 -12,-3 -13,-4 -13,-3 -14,-4 -15,-4 -15,-4 -15,-5 -16,-4 -16,-5 -17,-4 -18,-5 -35,-10 -36,-10 -38,-10 -38,-10 -38,-11 -76,-21 -37,-10 -37,-11 -36,-10 -17,-4 -17,-5 -17,-5 -16,-4 -16,-5 -15,-4 -15,-4 -14,-4 -14,-4 -13,-4 -12,-3 -11,-3 -12,-3 -10,-3 -9,-3 -8,-2 -8,-3 -7,-1 -6,-2 -5,-2 -4,-1 -3,-1 z" id="path72"/>
   </g>
   <g transform="matrix(-0.0039657,0,0,0.0039657,435.9735,368.36892)" id="g80" stroke-opacity="0.161" fill="#000000" stroke="#ffffff" fill-opacity="0.161" stroke-width="25.22">
    <path inkscape:connector-curvature="0" d="m 2680,7199 12,15 12,14 13,14 14,12 14,13 14,11 15,11 16,11 15,9 17,9 16,9 17,7 18,7 17,7 18,5 18,5 18,5 19,3 18,4 19,2 18,2 19,1 19,0 19,0 18,-1 19,-2 18,-2 19,-3 18,-4 18,-4 18,-5 17,-6 -1,0 -2,-1 -3,0 -4,-1 -3,-1 -5,-2 -5,-1 -6,-2 -6,-1 -6,-2 -7,-2 -8,-2 -8,-2 -8,-3 -9,-2 -9,-2 -19,-6 -20,-5 -22,-6 -22,-6 -23,-6 -23,-7 -48,-13 -48,-13 -23,-7 -23,-6 -23,-6 -21,-6 -21,-6 -19,-6 -9,-2 -9,-3 -9,-2 -8,-2 -8,-2 -7,-2 -7,-2 -6,-2 -6,-2 -5,-2 -5,-1 -5,-1 -3,-1 -3,-1 -3,-1 -2,0 z" id="path82"/>
   </g>
   <g transform="matrix(-0.0039657,0,0,0.0039657,435.9735,368.36892)" id="g90" stroke-opacity="0.439" fill="#fcfcfc" stroke="#ffffff" fill-opacity="0.439" stroke-width="25.22">
    <path inkscape:connector-curvature="0" d="m 2356,3259 -92,13 -17,2173 1425,399 35,-116 -1369,-365 18,-2104 z" id="path92"/>
   </g>
   <g transform="matrix(-0.0039657,0,0,0.0039657,435.9735,368.36892)" id="g100" stroke-opacity="0.231" fill="#000000" stroke="#ffffff" fill-opacity="0.231" stroke-width="25.22">
    <path inkscape:connector-curvature="0" d="m 3700,4065 -2,61 -1340,-386 1342,325 z" id="path102"/>
   </g>
   <g transform="matrix(-0.0039657,0,0,0.0039657,435.9735,368.36892)" id="g106" stroke-opacity="0.231" fill="#000000" stroke="#ffffff" fill-opacity="0.231" stroke-width="25.22">
    <path inkscape:connector-curvature="0" d="m 3720,4507 -3,61 -1339,-386 1342,325 z" id="path108"/>
   </g>
   <g transform="matrix(-0.0039657,0,0,0.0039657,435.9735,368.36892)" id="g112" stroke-opacity="0.231" fill="#000000" stroke="#ffffff" fill-opacity="0.231" stroke-width="25.22">
    <path inkscape:connector-curvature="0" d="m 3700,4916 -2,61 -1340,-386 1342,325 z" id="path114"/>
   </g>
   <g transform="matrix(-0.0039657,0,0,0.0039657,435.9735,368.36892)" id="g118" stroke-opacity="0.231" fill="#000000" stroke="#ffffff" fill-opacity="0.231" stroke-width="25.22">
    <path inkscape:connector-curvature="0" d="m 3700,5318 -2,61 -1340,-387 1342,326 z" id="path120"/>
   </g>
   <g transform="matrix(-0.0039657,0,0,0.0039657,435.9735,368.36892)" id="g124" fill="#9e9e9e" stroke-width="25.22">
    <path inkscape:connector-curvature="0" d="m 2361,3309 1332,333 -11,2197 11,0 11,0 11,-2205 0,-9 -8,-2 -1341,-335 -2,11 -3,10 z m 1340,335 -8,-2 0,-8 11,0 -3,10 z" id="path126"/>
   </g>
   <path id="path16-1" d="m 408.34342,399.31706 c 0,0.39 1.56241,0.7062 3.48972,0.7062 1.92732,0 3.48973,-0.3162 3.48973,-0.7062 0,-0.39008 -1.56241,-0.70628 -3.48973,-0.70628 -1.92731,0 -3.48972,0.31605 -3.48972,0.7062 z" i:knockout="Off" inkscape:connector-curvature="0" fill="url(#XMLID_1_)" stroke="#333333" stroke-width="0.227"/>
   <path id="path18" i:knockout="Off" d="m 411.39528,399.24749 0.99708,0 0,-3.15696 -0.99708,0 0,3.15696 z" inkscape:connector-curvature="0" fill="#333333" stroke="#333333" stroke-width="0.227"/>
   <path id="path25" d="m 407.80734,396.62646 c 0,0.50107 0.40625,0.90732 0.90732,0.90732 l 6.66054,0 c 0.50107,0 0.90732,-0.40625 0.90732,-0.90732 l 0,-4.99862 c 0,-0.50107 -0.40625,-0.90732 -0.90732,-0.90732 l -6.66039,0 c -0.50107,0 -0.90732,0.40625 -0.90732,0.90732 l 0,4.99862 z" i:knockout="Off" inkscape:connector-curvature="0" fill="url(#linearGradient4358)" stroke="#333333" stroke-width="0.454"/>
  </g>
 </g>
 <metadata id="metadata53"/>
</svg>
