<?xml version="1.0" encoding="UTF-8" standalone="no"?>
<svg xmlns="http://www.w3.org/2000/svg" xmlns:sodipodi="http://sodipodi.sourceforge.net/DTD/sodipodi-0.dtd" xmlns:inkscape="http://www.inkscape.org/namespaces/inkscape" width="24" height="24" version="1.1">
 <metadata id="metadata13"/>
 <g id="g3197" transform="matrix(0.04229602,0,0,0.04229602,-2.7000875,-7.7034529)">
  <path d="m 377.53,372.82 c 20.564,0 37.18,-16.714 37.18,-37.278 0,-20.564 -16.617,-37.229 -37.18,-37.229 -20.564,0 -37.229,16.665 -37.229,37.229 0,20.564 16.665,37.278 37.229,37.278" id="path7088" inkscape:connector-curvature="0"/>
  <path d="m 240.16,576.32 c 8.723,0 17.104,-1.998 24.609,-5.36 7.699,-3.557 16.421,-5.653 25.485,-5.653 9.015,0 17.737,2.096 25.388,5.653 7.553,3.362 15.983,5.311 24.803,5.311 8.771,0 17.152,-1.949 24.705,-5.311 7.651,-3.557 16.373,-5.653 25.437,-5.653 9.063,0 17.688,2.096 25.485,5.653 7.456,3.362 15.934,5.311 24.657,5.311 8.771,0 17.25,-1.949 24.706,-5.311 7.748,-3.557 16.421,-5.653 25.534,-5.653 9.014,0 17.688,2.096 25.387,5.653 7.553,3.362 15.984,5.311 24.755,5.311 8.82,0 17.201,-1.949 24.754,-5.311 7.651,-3.557 16.373,-5.653 25.388,-5.653 7.748,0 15.301,1.462 22.074,4.142 11.062,-12.084 17.932,-28.165 17.932,-45.805 0,-37.473 -30.358,-67.831 -67.83,-67.831 l -7.602,0.78 c -8.333,33.867 -42.151,35.28 -42.151,35.28 l -154.86,-0.049 -12.962,-7.602 31.235,-52.383 34.159,19.735 c 20.466,13.254 31.138,-5.36 31.138,-5.36 l 34.256,-55.844 c 14.863,-24.267 -16.714,-43.71 -31.527,-19.345 l -23.975,39.129 -57.013,-31.527 c -39.471,-22.026 -56.233,14.472 -56.233,14.472 l -44.782,76.699 c -7.602,15.935 -0.82898,22.806 -0.82898,22.806 l -22.123,-0.049 v 83.765 z" id="path7090" inkscape:connector-curvature="0"/>
  <path d="m 620.45,633.38 c -12.136,0 -23.802,-1.949 -34.117,-5.311 -10.721,-3.606 -22.723,-5.702 -35.331,-5.702 -12.474,0 -24.542,2.096 -35.129,5.702 -10.451,3.362 -22.048,5.311 -34.252,5.311 -12.136,0 -23.802,-1.949 -34.253,-5.311 -10.653,-3.606 -22.655,-5.702 -35.128,-5.702 -12.609,0 -24.611,2.096 -35.331,5.702 -10.317,3.362 -22.049,5.311 -34.185,5.311 -12.07,0 -23.801,-1.949 -34.117,-5.311 -10.788,-3.606 -22.723,-5.702 -35.263,-5.702 -12.542,0 -24.61,2.096 -35.197,5.702 -10.451,3.362 -22.048,5.311 -34.184,5.311 -12.204,0 -23.868,-1.949 -34.319,-5.311 -10.586,-3.606 -22.655,-5.702 -35.129,-5.702 -12.542,0 -24.61,2.096 -35.263,5.702 -10.384,3.362 -22.049,5.311 -34.185,5.311 v -37.034 c 12.136,0 23.801,-1.998 34.185,-5.36 10.653,-3.557 22.721,-5.653 35.263,-5.653 12.474,0 24.542,2.096 35.129,5.653 10.451,3.362 22.115,5.36 34.319,5.36 12.136,0 23.733,-1.998 34.184,-5.36 10.586,-3.557 22.655,-5.653 35.197,-5.653 12.54,0 24.474,2.096 35.263,5.653 10.317,3.362 22.048,5.36 34.117,5.36 12.136,0 23.868,-1.998 34.185,-5.36 10.721,-3.557 22.721,-5.653 35.331,-5.653 12.472,0 24.474,2.096 35.128,5.653 10.451,3.362 22.117,5.36 34.253,5.36 12.204,0 23.801,-1.998 34.252,-5.36 10.586,-3.557 22.655,-5.653 35.129,-5.653 12.608,0 24.61,2.096 35.331,5.653 10.315,3.362 21.981,5.36 34.117,5.36 v 37.034 z" id="path7092" inkscape:connector-curvature="0" fill="#000080"/>
  <path d="m 430.75,575.73 c -8.1834,0 -16.046,-1.998 -23.087,-5.36 -7.2227,-3.557 -15.405,-5.653 -23.908,-5.653 -8.4573,0 -16.64,2.096 -23.817,5.653 -7.0857,3.362 -14.994,5.311 -23.269,5.311 -8.2284,0 -16.091,-1.949 -23.177,-5.311 -7.1776,-3.557 -15.36,-5.653 -23.863,-5.653 -8.5024,0 -16.594,2.096 -23.908,5.653 -6.9947,3.362 -14.948,5.311 -23.132,5.311 -8.2284,0 -16.183,-1.949 -23.178,-5.311 -7.2687,-3.557 -15.405,-5.653 -23.954,-5.653 -8.4563,0 -16.594,2.096 -23.816,5.653 -7.0857,3.362 -14.995,5.311 -23.224,5.311 -8.2744,0 -16.137,-1.949 -23.223,-5.311 -7.1777,-3.557 -15.36,-5.653 -23.817,-5.653 -7.2687,0 -14.354,1.462 -20.708,4.142 -10.378,-12.084 -16.823,-28.165 -16.823,-45.805 0,-37.473 28.48,-67.831 63.634,-67.831 l 7.1317,0.78 c 7.8174,33.867 39.543,35.28 39.543,35.28 l 145.28,-0.049 12.16,-7.602 -9.3026,41.617 -22.046,-44.265 c -19.2,13.254 54.788,53.64 4.7884,28.64 l 47.863,-8.844 c -21.944,-5.267 83.68,46.29 38.577,43.655 l -63.508,-15.871 -2.5141,10.473 c 37.029,-22.026 -1.2459,86.472 37.754,-18.528 l 46.012,-5.301 c 7.1317,15.935 0.77768,22.806 0.77768,22.806 l 20.754,-46.049 v 83.765 z" id="svg_1" inkscape:connector-curvature="0"/>
 </g>
</svg>
