<?xml version="1.0" encoding="UTF-8" standalone="no"?>
<svg xmlns="http://www.w3.org/2000/svg" viewBox="0 0 24 24" height="24" width="24" version="1.1">
 <metadata id="metadata57"/>
 <defs id="defs55">
  <filter filterUnits="objectBoundingBox" id="AI_Shadow_1">
   <feGaussianBlur id="feGaussianBlur6" stdDeviation="4" in="SourceAlpha" result="blur"/>
   <feOffset id="feOffset8" dx="4" in="blur" dy="4" result="offsetBlurredAlpha"/>
   <feMerge id="feMerge10">
    <feMergeNode id="feMergeNode12" in="offsetBlurredAlpha"/>
    <feMergeNode id="feMergeNode14" in="SourceGraphic"/>
   </feMerge>
  </filter>
  <filter id="AI_GaussianBlur_4">
   <feGaussianBlur id="feGaussianBlur17" stdDeviation="4"/>
  </filter>
  <linearGradient gradientTransform="translate(279.44081,-282.1023)" y2="456.16" x2="432.1" y1="44.829" x1="71.43" gradientUnits="userSpaceOnUse" id="SVGID_1_">
   <stop id="stop26" stop-color="#ffffff"/>
   <stop id="stop28" offset="1" stop-color="#e6e6e6"/>
  </linearGradient>
  <linearGradient y2="198.65" x2="250.74" y1="338.65" x1="251.45" gradientUnits="userSpaceOnUse" id="SVGID_2_">
   <stop id="stop35" stop-color="#ffffff"/>
   <stop id="stop37" offset="1" stop-color="#4279cb"/>
  </linearGradient>
 </defs>
 <g transform="matrix(0.08175062,0,0,0.08175062,-8.5298643,-6.8353428)" id="g4185">
  <path d="m 389.3,270.7 c 0,0 -62.5,86.1 -138.8,86.1 -76.3,0 -137.6,-86.1 -137.6,-86.1 0,0 61.3,-88.1 137.6,-88.1 76.3,0 138.8,88.1 138.8,88.1 z" id="path32" fill="#ffffff" stroke="#000000" stroke-width="14" stroke-miterlimit="10"/>
  <circle cx="251.1" cy="269.7" r="70" id="circle39" fill="url(#SVGID_2_)" stroke="#000000" stroke-width="8" stroke-miterlimit="10"/>
  <path d="m 251.1,298.7 c -16,0 -29,-13 -29,-29 0,-16 13,-29 29,-29 16,0 29,13 29,29 0,16 -13,29 -29,29 z" id="path41"/>
  <g id="g43" filter="url(#AI_GaussianBlur_4)">
   <circle cx="225.3" cy="248.3" r="24.7" id="circle45" fill="#ffffff"/>
  </g>
  <line x1="250" y1="97" x2="250" y2="171" id="line47" fill="none" stroke="#000000" stroke-width="14" stroke-miterlimit="10"/>
  <line x1="363.9" y1="130.6" x2="320.4" y2="190.5" id="line49" fill="none" stroke="#000000" stroke-width="14" stroke-miterlimit="10"/>
  <line x1="136.6" y1="132" x2="180.1" y2="191.9" id="line51" fill="none" stroke="#000000" stroke-width="14" stroke-miterlimit="10"/>
 </g>
</svg>
