<?xml version="1.0" encoding="UTF-8" standalone="no"?>
<svg xmlns="http://www.w3.org/2000/svg" xmlns:sodipodi="http://sodipodi.sourceforge.net/DTD/sodipodi-0.dtd" xmlns:inkscape="http://www.inkscape.org/namespaces/inkscape" version="1.0" width="24" height="24">
 <metadata id="metadata18"/>
 <path d="m 1.2088042,11.331373 -0.136115,0.168782 -0.13067037,0.179672 -0.11978117,0.179672 -0.11978116,0.185116 -0.1034474,0.190561 -0.10344739,0.196006 -0.0871136,0.20145 -0.0871136,0.20145 -0.0707798,0.212339 -0.0653352,0.21234 -0.054446,0.217784 -0.04900139,0.217784 -0.01633382,0.114336 -0.01633381,0.114337 -0.0163338,0.108892 -0.0108892,0.114336 -0.0108892,0.114337 -0.00544459,0.119781 -0.005444604,0.114337 0,0.114336 c 0,2.803969 2.286731704,5.090701 5.079811304,5.090701 2.2812869,0 4.2195644,-1.513599 4.8565822,-3.593436 l 0,0 0,0 5.9346134,0 0,0 0,0 c 0.234118,2.030836 1.960056,3.615214 4.050782,3.615214 2.24862,0 4.078005,-1.83483 4.078005,-4.083449 0,-1.056252 -0.397456,-2.019947 -1.061697,-2.749523 C 22.878309,12.556407 22.73675,12.022837 22.410074,11.63627 21.898282,11.021031 20.716803,10.68891 19.704108,10.3459 18.881973,10.068226 16.295789,9.5019872 14.466403,9.2515358 14.43918,8.8377462 14.341178,7.6344898 13.878387,6.5129023 13.36115,5.2660891 13.078031,4.9503024 13.197812,4.5855143 13.312148,4.220726 12.931026,4.3840642 12.843913,4.4820667 12.762244,4.5855143 12.566238,4.8522996 12.811245,5.3477581 13.050808,5.8268828 13.83483,7.5691546 13.938277,9.1862006 13.758605,9.1698667 13.600712,9.1535328 13.453708,9.1480882 13.399262,8.8377462 13.328482,8.5001811 13.301259,8.3477323 13.252258,8.0918361 12.707798,6.4257888 12.397456,5.7234354 12.092558,5.0265267 12.13067,5.1245295 12.13067,5.1245295 c 0,0 -0.163337,-0.6315735 -0.969139,-0.6696855 C 10.355731,4.4221762 9.1415853,4.3132844 8.3248954,4.2860612 7.5136501,4.258838 5.6951541,4.3078397 4.8675749,4.3895088 4.0508851,4.4820667 4.0889972,4.4439547 3.9365484,4.71074 3.7786551,4.9666361 3.7786551,4.9666361 3.7786551,4.9666361 c 0,0 -0.4410126,1.0671415 -0.6860196,1.83483 C 2.8530732,7.5691546 2.5753986,8.7669664 2.5481756,8.9684166 2.5155082,9.1589774 2.5862876,9.2950924 2.4229499,9.3658722 2.2541673,9.4420967 1.3666976,9.7959957 0.82768225,10.198896 0.29411153,10.596352 0.24511014,10.61813 0.23422094,10.667132 c -0.0217784,0.049 -0.0707798,0.098 0.12522578,0.179672 0.1796718,0.07078 0.52268153,0.245006 0.84935748,0.484569 l 0,0 0,0 0,0 0,0 z" id="path18" inkscape:connector-curvature="0" stroke-width="0" stroke-miterlimit="10.433"/>
 <path d="m 14.482737,12.12084 0,-0.05445 0,-0.05989 0,-0.06534 0,-0.07078 0,-0.07622 0,-0.08167 0.0054,-0.08711 0,-0.08711 0,-0.098 0,-0.09256 0,-0.103447 0,-0.098 0,-0.206895 0,-0.212339 0,-0.206895 0,-0.103447 0,-0.098 0,-0.098 0,-0.098 0,-0.09256 -0.0054,-0.087114 0,-0.081669 0,-0.081669 0,-0.076224 0,-0.07078 0,-0.059891 0,-0.05989 -0.0054,-0.049001 0,-0.038112 c 1.252257,0.1633381 3.288537,0.4954586 5.194147,1.072586 0.914693,0.277675 1.70416,0.539015 2.166951,0.854802 0.653352,0.451902 0.827579,1.007251 0.892914,1.328483 -0.735021,-0.702354 -1.720493,-1.132477 -2.809413,-1.132477 -1.21959,0 -2.319399,0.539015 -3.070754,1.393817 l 0,0 0,0 -2.368401,-0.822134 0,0 0,0 z" id="path12" inkscape:connector-curvature="0" fill="#00ff00" stroke="#000000" stroke-width="0" stroke-miterlimit="10.433"/>
 <path d="m 13.938277,9.354983 0,0.00544 0.0054,0 0,0.00544 0,0 0,0.00544 0,0 0,0.00544 0,0 0,0.00544 0,0.00544 0,0 0,0.00544 0,0 0,0.00544 0,0.00544 0,0 c 0.02722,1.274036 -0.0054,2.16695 -0.02722,2.520849 l 0,0 0,0 -0.41379,-0.147004 0,0 0,0 c 0.0054,-0.381122 0.01089,-1.9056095 0.01089,-2.1397275 0,-0.076224 -0.01089,-0.1960055 -0.03267,-0.3321205 0.114337,0.010889 0.266785,0.027223 0.457346,0.049001 l 0,0 0,0 0,0 0,0 z" id="path14" inkscape:connector-curvature="0" fill="#00ff00" stroke="#000000" stroke-width="0" stroke-miterlimit="10.433"/>
 <path d="m 12.749933,10.66625 0,0 0,0 -0.02208,0.310468 -2.237731,0 0,0 0,0 C 9.4917681,9.7076835 7.6226321,9.0607444 6.3049492,8.8076023 l 0,0 0,0 0.8439126,-3.3275478 0,0 0,0 c 0,0 2.2159522,0.038643 3.1796462,0.098753 0.95825,0.055817 1.029029,0.055817 1.127032,0.077285 0.098,0.021468 0.223229,0.055817 0.326676,0.2447359 0.098,0.1846251 0.73725,1.5547825 0.971367,2.7398188 0,0 -0.01779,2.0293468 -0.0037,2.0256028 z" id="path16" inkscape:connector-curvature="0" sodipodi:nodetypes="ccccccccccccccscccc" fill="#b3b3b3" stroke="#000000" stroke-width="0" stroke-miterlimit="10.433"/>
 <path d="m 19.921892,17.875781 -0.114337,-0.0054 -0.114336,-0.0054 -0.108892,-0.01633 -0.108892,-0.02178 -0.108892,-0.02178 -0.108892,-0.03267 -0.103448,-0.03267 -0.098,-0.04356 -0.103447,-0.04356 -0.09256,-0.049 -0.09256,-0.05445 -0.09256,-0.05989 -0.08711,-0.05989 -0.08711,-0.06533 -0.08167,-0.07078 -0.07623,-0.07622 -0.07622,-0.07622 -0.06534,-0.08167 -0.07078,-0.08711 -0.05989,-0.08711 -0.05989,-0.09256 -0.05445,-0.09256 -0.049,-0.098 -0.04356,-0.098 -0.03811,-0.098 -0.03811,-0.108892 -0.02722,-0.103447 -0.02722,-0.108892 -0.02178,-0.108892 -0.01089,-0.114336 -0.01089,-0.108893 0,-0.114336 c 0,-1.235924 1.001806,-2.243175 2.232285,-2.243175 1.23048,0 2.237731,1.007251 2.237731,2.243175 0,1.230479 -1.007251,2.23773 -2.237731,2.23773 l 0,0 0,0 0,0 z" id="path20" inkscape:connector-curvature="0" stroke-width="0" stroke-miterlimit="10.433" fill="#ffff00" stroke="#000000"/>
 <path d="m 5.0799144,17.418435 -0.1415596,0 -0.1415597,-0.01089 -0.1415596,-0.02178 -0.136115,-0.02178 -0.1361149,-0.03267 -0.136115,-0.03811 -0.1306704,-0.04356 -0.1252258,-0.049 -0.1252257,-0.05989 -0.1197812,-0.05989 -0.1197812,-0.07078 -0.108892,-0.07078 -0.1143366,-0.07622 -0.1034474,-0.08711 -0.1034474,-0.08711 -0.098003,-0.09256 -0.092558,-0.098 -0.087114,-0.103447 -0.081669,-0.103447 -0.081669,-0.108892 -0.07078,-0.114337 -0.07078,-0.119781 -0.05989,-0.119782 -0.054446,-0.125225 -0.054446,-0.130671 -0.043557,-0.13067 -0.038112,-0.13067 -0.027223,-0.136115 -0.027223,-0.136115 -0.016334,-0.14156 -0.010889,-0.141559 -0.00544,-0.147005 c 0,-1.546266 1.2577024,-2.803968 2.8039689,-2.803968 1.546266,0 2.8094133,1.257702 2.8094133,2.803968 0,1.551711 -1.2631473,2.809414 -2.8094133,2.809414 l 0,0 0,0 0,0 z" id="path22" inkscape:connector-curvature="0" stroke-width="0" stroke-miterlimit="10.433" fill="#ffff00" stroke="#000000"/>
 <path d="m 9.0708055,11.026475 -0.00544,-0.0054 -0.010889,-0.01633 -0.016334,-0.02178 -0.027223,-0.03267 -0.038112,-0.03811 -0.038112,-0.049 -0.054445,-0.049 -0.054446,-0.05989 -0.065335,-0.06533 -0.07078,-0.06533 -0.081669,-0.07623 -0.092558,-0.07622 -0.092558,-0.07622 L 8.3194508,10.313232 8.2051143,10.231564 8.0853332,10.14445 7.9601075,10.062781 7.8239925,9.981112 7.6824329,9.8939987 7.529984,9.8123296 7.3720905,9.7361052 7.2033082,9.6598807 7.0290808,9.5836563 6.8439645,9.5128765 6.6534036,9.4529859 6.4573981,9.3876508 6.2505033,9.3332049 6.0381639,9.2896478 5.8149352,9.2460907 5.5808172,9.2134229 5.3412551,9.1861997 5.0962483,9.1698658 C 2.4175053,9.0391964 0.70790109,10.443903 0.46833871,10.705244 l 0,0 0,0 0.45190176,0.239562 0,0 0,0 C 0.942019,10.955695 2.1724983,9.5292104 4.7913505,9.4529859 6.8112967,9.39854 8.3357847,10.384012 8.9728029,11.021031 c 0.098003,0.103447 0.098003,0.0054 0.098003,0.0054 l 0,0 0,0 0,0 z" id="path24" inkscape:connector-curvature="0" fill="#00ff00" stroke="#000000" stroke-width="0" stroke-miterlimit="10.433"/>
 <path d="m 19.921892,16.460185 -0.04356,0 -0.04356,0 -0.03811,-0.0054 -0.04356,-0.01089 -0.03811,-0.0054 -0.03811,-0.01089 -0.03811,-0.01633 -0.03811,-0.01633 -0.03811,-0.01633 -0.03811,-0.01633 -0.03267,-0.02178 -0.03267,-0.02178 -0.03267,-0.02178 -0.03267,-0.02178 -0.03267,-0.02722 -0.02722,-0.02722 -0.02722,-0.03267 -0.02722,-0.02722 -0.02178,-0.03267 -0.02722,-0.03267 -0.01633,-0.03267 -0.02178,-0.03267 -0.02178,-0.03811 -0.01633,-0.03811 -0.01089,-0.03267 -0.01633,-0.04356 -0.01089,-0.03811 -0.0054,-0.03811 -0.01089,-0.04356 -0.0054,-0.03811 0,-0.04356 -0.0054,-0.03811 c 0,-0.46279 0.375677,-0.833023 0.833024,-0.833023 0.457346,0 0.827579,0.370233 0.827579,0.833023 0,0.451902 -0.370233,0.822135 -0.827579,0.822135 l 0,0 0,0 0,0 z" id="path28" inkscape:connector-curvature="0" stroke="#000000" stroke-width="0" stroke-miterlimit="10.433"/>
 <path d="m 5.0799144,15.442045 -0.043557,-0.0054 -0.038112,0 -0.043557,-0.0054 -0.038113,-0.01089 -0.043557,-0.0054 -0.038113,-0.01089 -0.038112,-0.01633 -0.038112,-0.01089 -0.038113,-0.01633 -0.032668,-0.02178 -0.032668,-0.01633 -0.038112,-0.02178 -0.032668,-0.02722 -0.027223,-0.02178 -0.032668,-0.02722 -0.027223,-0.02722 -0.027223,-0.02722 -0.027223,-0.03267 -0.021779,-0.03267 -0.027223,-0.03267 -0.021779,-0.03267 -0.016334,-0.03267 -0.021778,-0.03811 -0.016334,-0.03811 -0.010889,-0.03267 -0.016334,-0.03811 -0.010889,-0.04356 -0.010889,-0.03811 -0.00544,-0.04356 -0.00544,-0.03811 0,-0.04356 -0.00544,-0.04356 c 0,-0.457346 0.3702329,-0.827579 0.8275791,-0.827579 0.4627909,0 0.8330238,0.370233 0.8330238,0.827579 0,0.457347 -0.3702329,0.833024 -0.8330238,0.833024 l 0,0 0,0 0,0 z" id="path30" inkscape:connector-curvature="0" stroke="#000000" stroke-width="0" stroke-miterlimit="10.433"/>
 <path d="m 6.3669949,5.3998846 -0.8971328,3.4514683 0,0 0,0 c 0,0 -0.8205483,-0.087906 -2.1717178,0.064773 0,0 -0.1969315,0 -0.1586393,-0.2035717 0.038291,-0.203572 0.3282193,-1.9107996 1.0995347,-3.067458 0,0 0.043763,-0.1156657 0.3555709,-0.1526789 0.3063379,-0.02776 1.0885941,-0.078652 1.7723843,-0.092533 l 0,0 0,0 0,0 z" id="path26" inkscape:connector-curvature="0" fill="#b3b3b3" stroke="#000000" stroke-width="0.185" stroke-miterlimit="10.433"/>
</svg>
