<?xml version="1.0" encoding="UTF-8" standalone="no"?>
<svg xmlns="http://www.w3.org/2000/svg" xmlns:sodipodi="http://sodipodi.sourceforge.net/DTD/sodipodi-0.dtd" xmlns:inkscape="http://www.inkscape.org/namespaces/inkscape" width="24" height="24" version="1.1">
 <metadata id="metadata3212"/>
 <g inkscape:label="Layer 1" inkscape:groupmode="layer" id="layer1" transform="translate(0,-1028.3622)">
  <g id="g3612" transform="matrix(0.10386872,0,0,0.10386872,-31.118241,990.7961)" stroke="#d45500" stroke-width="6.657">
   <g id="g3620">
    <path inkscape:connector-curvature="0" d="m 480.641,428.896 c -0.08,0 -54.669,1.311 -54.669,1.311 l 43.71,-62.555 c 0.465,-0.676 1.057,-1.586 1.672,-2.652 l -79.879,0 -48.62,102.676 c -1.448,3.059 -1.251,6.643 0.524,9.525 1.776,2.881 4.89,4.67 8.273,4.75 l 42.475,1.021 -53.1,90.703 c -2.462,4.193 -1.66,9.635 1.91,12.945 1.936,1.793 4.455,2.779 7.092,2.779 2.898,-0.002 5.689,-1.221 7.649,-3.338 l 130.29,-140.363 c 2.735,-2.947 3.439,-7.246 1.788,-10.91 -1.617,-3.593 -5.19,-5.892 -9.115,-5.892 z" id="path3622" fill="#ffdc21"/>
   </g>
  </g>
 </g>
</svg>
