<?xml version="1.0" encoding="UTF-8" standalone="no"?>
<svg xmlns="http://www.w3.org/2000/svg" xmlns:sodipodi="http://sodipodi.sourceforge.net/DTD/sodipodi-0.dtd" xmlns:inkscape="http://www.inkscape.org/namespaces/inkscape" width="24" height="24" version="1.1">
 <metadata id="metadata3010"/>
 <g inkscape:label="Layer 1" inkscape:groupmode="layer" id="layer1" transform="translate(0,-1028.3622)">
  <g id="g3032" transform="translate(614.85714,1462.2857)">
   <path sodipodi:nodetypes="cccsscsssscssc" id="rect2391" d="m -594.6091,-422.9064 -8.24601,-6.1895 -8.25007,6.19208 0,11.62589 c 0,0.2288 0.21777,0.41209 0.4872,0.41209 l 4.63803,0 0,-3.87965 c 0,-0.22837 0.21625,-0.41296 0.48619,-0.41296 l 5.30971,0 c 0.26994,0 0.4862,0.18459 0.4862,0.41296 l 0,3.87965 4.60256,0 c 0.26943,0 0.48619,-0.18329 0.48619,-0.41209 z" inkscape:connector-curvature="0" fill="#ff0000" stroke="#000000" stroke-width="1.865"/>
   <path id="path2399-0" d="m -602.90242,-433.68061 -11.70152,8.78223 1.2326,1.17832 10.51643,-7.89324 10.51441,7.89324 1.23016,-1.17832 -11.69899,-8.78223 -0.0456,0.0447 -0.0476,-0.0447 z" inkscape:connector-curvature="0" stroke="#000000" stroke-linejoin="round" stroke-width="0.466"/>
   <path id="rect2404" d="m -611.10488,-432.41644 2.96628,0 -0.0258,1.4891 -2.94045,2.25147 0,-3.74057 z" inkscape:connector-curvature="0"/>
   <path transform="matrix(1.3354475,0,0,1.3354475,-572.93556,-438.8482)" d="m -19.929245,12.915094 c 0,1.367687 -1.108729,2.476416 -2.476416,2.476416 -1.367686,0 -2.476415,-1.108729 -2.476415,-2.476416 0,-1.367686 1.108729,-2.476415 2.476415,-2.476415 1.367687,0 2.476416,1.108729 2.476416,2.476415 z" sodipodi:ry="2.4764152" sodipodi:rx="2.4764152" sodipodi:cy="12.915094" sodipodi:cx="-22.405661" id="path3003" sodipodi:type="arc" fill="#ffffff" stroke="#000000" stroke-width="0.834"/>
   <path inkscape:connector-curvature="0" id="path3793" d="m -602.85714,-422.35748 0,-1.58471" fill="none" stroke="#000000" stroke-linecap="round" stroke-width="0.613"/>
   <path inkscape:connector-curvature="0" id="path3793-6" d="m -603.60832,-421.60077 -0.99519,0" fill="none" stroke="#000000" stroke-linecap="round" stroke-width="0.562"/>
   <path transform="matrix(16.977259,0,0,16.977259,51.188677,-608.51344)" d="m -38.480178,11.009591 c 0,0.02465 -0.01999,0.04464 -0.04464,0.04464 -0.02465,0 -0.04464,-0.01999 -0.04464,-0.04464 0,-0.02465 0.01999,-0.04464 0.04464,-0.04464 0.02465,0 0.04464,0.01999 0.04464,0.04464 z" sodipodi:ry="0.044640578" sodipodi:rx="0.044640578" sodipodi:cy="11.009591" sodipodi:cx="-38.524818" id="path3813" sodipodi:type="arc"/>
  </g>
 </g>
</svg>
