<?xml version="1.0" encoding="UTF-8" standalone="no"?>
<svg xmlns="http://www.w3.org/2000/svg" xmlns:xlink="http://www.w3.org/1999/xlink" xmlns:sodipodi="http://sodipodi.sourceforge.net/DTD/sodipodi-0.dtd" xmlns:inkscape="http://www.inkscape.org/namespaces/inkscape" width="24" height="24" version="1.1">
 <defs id="defs3">
  <linearGradient id="linearGradient2985" inkscape:collect="always">
   <stop id="stop2987" stop-color="#d8dfd6"/>
   <stop id="stop2989" offset="1" stop-color="#d8dfd6" stop-opacity="0"/>
  </linearGradient>
  <linearGradient id="linearGradient2752">
   <stop id="stop2754" stop-color="#9d9d9d"/>
   <stop id="stop2756" offset="1" stop-color="#b9b9b9"/>
  </linearGradient>
  <linearGradient id="linearGradient2711">
   <stop id="stop2713" stop-color="#909090"/>
   <stop id="stop2715" offset="1" stop-color="#bebebe" stop-opacity="0"/>
  </linearGradient>
  <linearGradient id="linearGradient2701">
   <stop id="stop2703" stop-color="#585956"/>
   <stop id="stop2705" offset="1" stop-color="#bbbeb8"/>
  </linearGradient>
  <linearGradient id="linearGradient2691">
   <stop id="stop2693" stop-color="#868686"/>
   <stop id="stop2695" offset="1" stop-color="#e9e9e9"/>
  </linearGradient>
  <linearGradient id="linearGradient2683" inkscape:collect="always">
   <stop id="stop2685"/>
   <stop id="stop2687" offset="1" stop-opacity="0"/>
  </linearGradient>
  <linearGradient id="linearGradient2675">
   <stop id="stop2677" stop-color="#5b5b97"/>
   <stop id="stop2679" offset="1" stop-color="#1b1b43"/>
  </linearGradient>
  <linearGradient id="linearGradient2667">
   <stop id="stop2669" stop-color="#ffffff"/>
   <stop id="stop2671" offset="1" stop-color="#fcfcff" stop-opacity="0"/>
  </linearGradient>
  <linearGradient id="linearGradient2635" inkscape:collect="always">
   <stop id="stop2637" stop-color="#f9fff5"/>
   <stop id="stop2639" offset="1" stop-color="#f9fff5" stop-opacity="0"/>
  </linearGradient>
  <linearGradient id="linearGradient2623">
   <stop id="stop2625" stop-color="#dfdfde"/>
   <stop id="stop2627" offset="1" stop-color="#9d9f9a"/>
  </linearGradient>
  <linearGradient inkscape:collect="always" id="linearGradient2415">
   <stop id="stop2417" stop-color="#ffffff"/>
   <stop offset="1" id="stop2419" stop-color="#ffffff" stop-opacity="0"/>
  </linearGradient>
  <linearGradient id="linearGradient2379">
   <stop id="stop2381" stop-color="#1a4876"/>
   <stop offset="1" id="stop2383" stop-color="#3f54a3" stop-opacity="0"/>
  </linearGradient>
  <linearGradient inkscape:collect="always" id="linearGradient2307">
   <stop id="stop2309" stop-color="#5a7aa4"/>
   <stop offset="1" id="stop2311" stop-color="#5a7aa4" stop-opacity="0"/>
  </linearGradient>
  <linearGradient id="linearGradient2253">
   <stop id="stop2255" stop-color="#8f8f8f"/>
   <stop offset="1" id="stop2257" stop-color="#494949"/>
  </linearGradient>
  <linearGradient id="linearGradient2245">
   <stop id="stop2247" stop-color="#dde1d9"/>
   <stop offset="1" id="stop2249" stop-color="#cacdc6"/>
  </linearGradient>
  <linearGradient inkscape:collect="always" xlink:href="#linearGradient2245" id="linearGradient2251" gradientTransform="matrix(0.59023401,0,0,0.46235188,10.909502,10.860705)" x1="8.612" y1="7.229" x2="34.784" y2="33.34" gradientUnits="userSpaceOnUse"/>
  <linearGradient inkscape:collect="always" xlink:href="#linearGradient2307" id="linearGradient2313" gradientTransform="matrix(1.208393,0,0,0.98441,-0.789284,-0.50338)" x1="16.852" y1="9.324" x2="24.419" y2="53.735" gradientUnits="userSpaceOnUse"/>
  <linearGradient inkscape:collect="always" xlink:href="#linearGradient2415" id="linearGradient2334" gradientTransform="matrix(1.289166,0,0,0.922731,-0.789284,-0.50338)" x1="16.12" y1="10.842" x2="27.29" y2="39.03" gradientUnits="userSpaceOnUse"/>
  <linearGradient inkscape:collect="always" xlink:href="#linearGradient2415" id="linearGradient2421" gradientTransform="matrix(0.57884895,0,0,0.47144572,12.280787,12.064496)" x1="17.698" y1="13" x2="34.975" y2="55.2" gradientUnits="userSpaceOnUse"/>
  <linearGradient inkscape:collect="always" xlink:href="#linearGradient2379" id="linearGradient2445" gradientUnits="userSpaceOnUse" gradientTransform="matrix(1.02787,0,0,0.822296,1.523986,1.001198)" x1="21.356" y1="30.08" x2="19.995" y2="-1.322"/>
  <radialGradient inkscape:collect="always" xlink:href="#linearGradient2683" id="radialGradient2460" gradientTransform="matrix(1.0060312,0,0,0.37133584,10.724808,4.4285903)" cx="12.576" cy="67.5" r="8.766" gradientUnits="userSpaceOnUse"/>
  <radialGradient inkscape:collect="always" xlink:href="#linearGradient2683" id="radialGradient2464" gradientUnits="userSpaceOnUse" gradientTransform="matrix(1.0060312,0,0,0.37133584,10.724808,1.6055035)" cx="12.576" cy="67.5" r="8.766"/>
  <linearGradient y2="92.57" x2="0" y1="84.03" gradientTransform="scale(1.983556,0.504145)" gradientUnits="userSpaceOnUse" id="linearGradient2653" xlink:href="#linearGradient2623" inkscape:collect="always"/>
  <linearGradient y2="74.1" x2="8.649" y1="101.28" x1="13.629" gradientTransform="scale(2.143634,0.466498)" gradientUnits="userSpaceOnUse" id="linearGradient2655" xlink:href="#linearGradient2635" inkscape:collect="always"/>
  <radialGradient r="8.766" cy="67.5" cx="12.576" gradientTransform="matrix(1.2720238,0,0,0.35026711,8.5110164,9.4523034)" gradientUnits="userSpaceOnUse" id="radialGradient2659" xlink:href="#linearGradient2683" inkscape:collect="always"/>
  <linearGradient gradientUnits="userSpaceOnUse" y2="26.729" x2="17.199" y1="1.654" x1="11.492" gradientTransform="matrix(0.64723455,0,0,0.4680418,12.066894,10.846521)" id="linearGradient2673" xlink:href="#linearGradient2667" inkscape:collect="always"/>
  <linearGradient gradientUnits="userSpaceOnUse" y2="8.867" x2="16.316" y1="32.622" x1="19.15" gradientTransform="matrix(0.61336354,0,0,0.49388778,12.13547,10.846521)" id="linearGradient2681" xlink:href="#linearGradient2675" inkscape:collect="always"/>
  <linearGradient gradientUnits="userSpaceOnUse" y2="162.45" x2="0" y1="171.29" gradientTransform="matrix(2.9803427,0,0,0.09156528,12.280787,11.187201)" id="linearGradient2689" xlink:href="#linearGradient2683" inkscape:collect="always"/>
  <linearGradient gradientUnits="userSpaceOnUse" y2="64.893" x2="12.13" y1="53.54" x1="12.207" gradientTransform="matrix(0.94884831,0,0,0.28760733,11.758393,11.542102)" id="linearGradient2707" xlink:href="#linearGradient2701" inkscape:collect="always"/>
  <linearGradient gradientUnits="userSpaceOnUse" y2="3.845" x2="35.521" y1="3.938" x1="34.3" id="linearGradient2717" xlink:href="#linearGradient2711" inkscape:collect="always" gradientTransform="matrix(0.69543065,0,0,0.34397002,6.3153941,13.032945)"/>
  <linearGradient y2="3.845" x2="35.521" y1="3.938" x1="34.3" gradientUnits="userSpaceOnUse" id="linearGradient2721" xlink:href="#linearGradient2711" inkscape:collect="always" gradientTransform="matrix(0.69543065,0,0,0.34397002,6.3747381,14.132995)"/>
  <linearGradient y2="3.845" x2="35.521" y1="3.938" x1="34.3" gradientUnits="userSpaceOnUse" id="linearGradient2725" xlink:href="#linearGradient2711" inkscape:collect="always" gradientTransform="matrix(0.69543065,0,0,0.34397002,6.4340821,15.177784)"/>
  <linearGradient y2="3.845" x2="35.521" y1="3.938" x1="34.3" gradientUnits="userSpaceOnUse" id="linearGradient2729" xlink:href="#linearGradient2711" inkscape:collect="always" gradientTransform="matrix(0.69543065,0,0,0.34397002,6.4934261,16.222572)"/>
  <linearGradient y2="3.845" x2="35.521" y1="3.938" x1="34.3" gradientUnits="userSpaceOnUse" id="linearGradient2733" xlink:href="#linearGradient2711" inkscape:collect="always" gradientTransform="matrix(0.69543065,0,0,0.34397002,6.5527701,17.267361)"/>
  <linearGradient y2="74.1" x2="8.649" y1="101.28" x1="13.629" gradientTransform="matrix(1.1198222,0,0,0.24369591,12.280787,11.276294)" gradientUnits="userSpaceOnUse" id="linearGradient2741" xlink:href="#linearGradient2635" inkscape:collect="always"/>
  <linearGradient gradientUnits="userSpaceOnUse" y2="100.2" x2="0" y1="88.51" gradientTransform="matrix(1.206653,0,0,0.22615913,11.758393,11.542102)" id="linearGradient2758" xlink:href="#linearGradient2752" inkscape:collect="always"/>
  <linearGradient gradientUnits="userSpaceOnUse" y2="31.25" x2="32.537" y1="5.382" x1="10.391" gradientTransform="matrix(0.57693072,0,0,0.47301291,11.758393,11.542102)" id="linearGradient2979" xlink:href="#linearGradient2253" inkscape:collect="always"/>
  <linearGradient y2="52.54" x2="18.18" y1="48.643" x1="18.317" gradientTransform="matrix(0.59023401,0,0,0.46235188,11.758393,11.542102)" gradientUnits="userSpaceOnUse" id="linearGradient2981" xlink:href="#linearGradient2245" inkscape:collect="always"/>
  <linearGradient gradientUnits="userSpaceOnUse" y2="44.879" x2="0" y1="49.953" gradientTransform="matrix(0.73329015,0,0,0.32902483,40.700924,13.381553)" id="linearGradient2991" xlink:href="#linearGradient2985" inkscape:collect="always"/>
  <linearGradient inkscape:collect="always" xlink:href="#linearGradient2752" id="linearGradient3096" gradientUnits="userSpaceOnUse" gradientTransform="matrix(1.206653,0,0,0.22615913,-0.861067,23.375509)" y1="88.51" x2="0" y2="100.2"/>
  <linearGradient inkscape:collect="always" xlink:href="#linearGradient2245" id="linearGradient3108" gradientUnits="userSpaceOnUse" gradientTransform="matrix(0.59023401,0,0,0.46235188,-0.861067,23.375509)" x1="18.317" y1="48.643" x2="18.18" y2="52.54"/>
  <linearGradient inkscape:collect="always" xlink:href="#linearGradient2667" id="linearGradient3112" gradientUnits="userSpaceOnUse" gradientTransform="matrix(0.64723455,0,0,0.4680418,-0.552566,22.679928)" x1="11.492" y1="1.654" x2="17.199" y2="26.729"/>
  <linearGradient inkscape:collect="always" xlink:href="#linearGradient2683" id="linearGradient3116" gradientUnits="userSpaceOnUse" gradientTransform="matrix(2.9803427,0,0,0.09156528,-0.338673,23.020608)" y1="171.29" x2="0" y2="162.45"/>
  <linearGradient inkscape:collect="always" xlink:href="#linearGradient2245" id="linearGradient3120" gradientUnits="userSpaceOnUse" gradientTransform="matrix(0.59023401,0,0,0.46235188,-1.709958,22.694112)" x1="8.612" y1="7.229" x2="34.784" y2="33.34"/>
  <linearGradient inkscape:collect="always" xlink:href="#linearGradient2701" id="linearGradient3123" gradientUnits="userSpaceOnUse" gradientTransform="matrix(0.94884831,0,0,0.28760733,-0.861067,23.375509)" x1="12.207" y1="53.54" x2="12.13" y2="64.893"/>
 </defs>
 <metadata id="metadata4"/>
 <g id="layer1" inkscape:label="Layer 1" inkscape:groupmode="layer" transform="translate(0,-24)">
  <ellipse id="path2452" cx="23.376" cy="29.494" rx="8.819" ry="3.255" transform="translate(-12.61946,11.833407)" fill="url(#radialGradient2460)" fill-rule="evenodd" color="#000000"/>
  <ellipse id="path2407" cx="23.19" cy="28.739" rx="4.908" ry="2.058" transform="translate(-12.61946,11.833407)" fill="#adb0aa" fill-rule="evenodd" stroke="#1a1a1a" color="#000000" stroke-width="0.522"/>
  <ellipse id="path1825" cx="23.19" cy="28.37" rx="4.614" ry="1.935" transform="translate(-12.61946,11.833407)" fill="none" stroke="#7b7f7a" color="#000000" stroke-width="0.491"/>
  <ellipse id="path2983" cx="23.19" cy="27.978" rx="4.614" ry="1.935" transform="translate(-12.61946,11.833407)" fill="none" stroke="url(#linearGradient2991)" color="#000000" stroke-width="0.334"/>
  <path sodipodi:nodetypes="ccccccccccccccccc" d="m 12.557937,38.402831 -0.03265,0.522394 c 0,0 2.25889,1.880184 4.701549,2.195366 1.22133,0.15759 2.483293,0.366936 3.526162,0.620343 1.042869,0.253407 1.874537,0.584876 2.154876,0.865216 0.162157,0.162157 0.235633,0.299665 0.261198,0.40812 0.02556,0.108455 0.01996,0.185354 -0.04897,0.293847 -0.137877,0.216987 -0.564111,0.505496 -1.289661,0.734617 -1.451099,0.458242 -4.033105,0.750942 -7.607367,0.750942 l 0,0.522394 c 3.60243,0 6.197511,-0.275652 7.754291,-0.767267 0.778389,-0.245807 1.319015,-0.530589 1.583507,-0.946839 0.132247,-0.208125 0.186663,-0.464121 0.130599,-0.701968 -0.05606,-0.237846 -0.200889,-0.462086 -0.408121,-0.669317 -0.458437,-0.458438 -1.325229,-0.734717 -2.399749,-0.995814 -1.074519,-0.261098 -2.358994,-0.477641 -3.59146,-0.636669 -2.464932,-0.318055 -4.734199,-2.195365 -4.734199,-2.195365 z" id="path2411" inkscape:connector-curvature="0" fill="#d0d0d0" fill-rule="evenodd" stroke="#1a1a1a" stroke-linejoin="round" stroke-width="0.209"/>
  <ellipse id="path2462" cx="23.376" cy="26.671" rx="8.819" ry="3.255" transform="translate(-12.61946,11.833407)" fill="url(#radialGradient2464)" fill-rule="evenodd" color="#000000"/>
  <rect y="39.41" x="8.266" height="1.431" width="4.722" id="rect2699" fill="url(#linearGradient3123)" fill-rule="evenodd" color="#000000" stroke-width="0.609"/>
  <path d="m 2.837956,24.261292 15.456705,0 c 0.47608,0 0.848445,0.304808 0.870702,0.732181 l 0.695852,13.361862 c 0.03041,0.583898 -0.470707,1.055395 -1.055396,1.055395 l -16.479021,0 c -0.584689,0 -1.085804,-0.471497 -1.055396,-1.055395 L 1.967254,24.993473 c 0.02104,-0.40409 0.286013,-0.732181 0.870702,-0.732181 z" id="rect2404" sodipodi:nodetypes="cssssssss" inkscape:connector-curvature="0" fill="url(#linearGradient3120)" fill-rule="evenodd" stroke="#1a1a1a" color="#000000" stroke-width="0.522"/>
  <path sodipodi:nodetypes="ccccc" id="path2377" d="m 4.1898777,26.200665 -0.5840244,10.364714 12.9999657,0 -0.627665,-10.320787 -11.7882763,-0.04393 z" inkscape:connector-curvature="0" fill="#008000" fill-rule="evenodd" stroke="#000000" stroke-linejoin="round" stroke-width="0.535"/>
  <path d="m 2.365989,38.386922 16.418058,0" id="path2393" inkscape:connector-curvature="0" stroke-opacity="0.248" fill="none" stroke="url(#linearGradient3116)" stroke-linecap="round" stroke-width="0.52"/>
  <path sodipodi:nodetypes="cssssssss" id="path2397" d="m 2.75108,24.789285 15.591121,-0.01975 c 0.148202,-1.88e-4 0.292176,0.123938 0.304088,0.340885 l 0.711445,12.957076 c 0.03032,0.552187 -0.281962,0.932929 -0.83498,0.932929 l -15.945548,0 c -0.553018,0 -0.832182,-0.380716 -0.80233,-0.932929 L 2.466573,25.271882 c 0.02021,-0.373946 0.08692,-0.48235 0.284507,-0.4826 z" inkscape:connector-curvature="0" stroke-opacity="0.701" fill="none" stroke="#333333" color="#000000" stroke-width="0.522"/>
  <path sodipodi:nodetypes="ccccc" d="m 3.68979,25.854982 -0.419237,9.335359 c 5.769656,-1.254076 5.966508,-5.481066 13.140324,-6.867788 l -0.08435,-2.43306 -12.636735,-0.03451 z" id="path2443" inkscape:connector-curvature="0" opacity="0.531" fill="url(#linearGradient3112)" fill-rule="evenodd"/>
  <ellipse id="path2657" cx="24.508" cy="33.1" rx="11.151" ry="3.071" transform="translate(-12.61946,11.833407)" fill="url(#radialGradient2659)" fill-rule="evenodd" color="#000000"/>
  <path sodipodi:nodetypes="cssssssss" id="path2409" d="m 2.514741,42.608736 16.195481,0 c 0.584689,0 0.510565,0.141798 0.570573,0.320148 l 1.480803,4.401073 c 0.06001,0.17835 0.01412,0.320147 -0.570573,0.320147 l -19.157087,0 c -0.584689,0 -0.630582,-0.141797 -0.570573,-0.320147 l 1.480803,-4.401073 c 0.06001,-0.17835 -0.01412,-0.320148 0.570573,-0.320148 z" inkscape:connector-curvature="0" fill="url(#linearGradient3108)" fill-rule="evenodd" stroke="#1a1a1a" color="#000000" stroke-width="0.522"/>
  <path sodipodi:nodetypes="ccccccccc" id="path2611" d="m 2.477915,43.659617 -0.923471,2.678067 2.862761,0 0.277042,-1.061992 7.757159,0 0.287149,1.084028 3.222042,0 -0.877297,-2.700103 -12.605385,0 z" inkscape:connector-curvature="0" fill="#7a7d77" fill-rule="evenodd"/>
  <path id="path2613" d="m 4.925114,45.460387 -0.230867,0.877298 7.710986,0 -0.230868,-0.923472 -7.249251,0.04617 z" inkscape:connector-curvature="0" fill="#777874" fill-rule="evenodd"/>
  <path d="m 18.777186,43.659617 0.877298,2.631894 -2.862762,-0.04617 -0.784951,-2.539546 2.770415,-0.04617 z" id="path2619" inkscape:connector-curvature="0" fill="#777a75" fill-rule="evenodd" color="#000000" stroke-width="0.313"/>
  <path id="path2615" d="m 18.777186,43.382577 0.877298,2.631894 -2.862762,-0.04617 -0.784951,-2.539547 2.770415,-0.04617 z" inkscape:connector-curvature="0" fill="url(#linearGradient3096)" fill-rule="evenodd" color="#000000" stroke-width="0.313"/>
  <path d="m 2.477915,43.336403 -0.923471,2.678068 2.862761,0 0.277042,-1.061993 7.757159,0 0.287149,1.084028 3.222042,0 -0.877297,-2.700103 -12.605385,0 z" id="path2617" sodipodi:nodetypes="ccccccccc" inkscape:connector-curvature="0" fill="url(#linearGradient3096)" fill-rule="evenodd"/>
  <path d="m 4.925114,45.183346 -0.230867,0.877299 7.710986,0 -0.230868,-0.923472 -7.249251,0.04617 z" id="path2621" inkscape:connector-curvature="0" fill="url(#linearGradient3096)" fill-rule="evenodd" color="#000000" stroke-width="0.313"/>
  <path d="m 2.340071,43.006103 16.625625,0 1.377647,4.227509 -19.464971,0 1.461699,-4.227509 z" id="path2631" sodipodi:nodetypes="ccccc" inkscape:connector-curvature="0" fill="none" stroke="#b3b3b3" stroke-linejoin="round" color="#000000" stroke-width="0.261"/>
  <ellipse id="path2709" cx="30.503" cy="14.388" rx="0.584" ry="0.289" transform="translate(-12.61946,11.833407)" fill="url(#linearGradient2717)" fill-rule="evenodd" color="#000000" stroke-width="0.5"/>
  <ellipse id="path2719" cx="30.562" cy="15.488" rx="0.584" ry="0.289" transform="translate(-12.61946,11.833407)" fill="url(#linearGradient2721)" fill-rule="evenodd" color="#000000" stroke-width="0.5"/>
  <ellipse id="path2723" cx="30.622" cy="16.532" rx="0.584" ry="0.289" transform="translate(-12.61946,11.833407)" fill="url(#linearGradient2725)" fill-rule="evenodd" color="#000000" stroke-width="0.5"/>
  <ellipse id="path2727" cx="30.681" cy="17.577" rx="0.584" ry="0.289" transform="translate(-12.61946,11.833407)" fill="url(#linearGradient2729)" fill-rule="evenodd" color="#000000" stroke-width="0.5"/>
  <ellipse id="path2731" cx="30.74" cy="18.622" rx="0.584" ry="0.289" transform="translate(-12.61946,11.833407)" fill="url(#linearGradient2733)" fill-rule="evenodd" color="#000000" stroke-width="0.5"/>
 </g>
</svg>
