<?xml version="1.0" encoding="UTF-8" standalone="no"?>
<svg xmlns="http://www.w3.org/2000/svg" xmlns:sodipodi="http://sodipodi.sourceforge.net/DTD/sodipodi-0.dtd" xmlns:inkscape="http://www.inkscape.org/namespaces/inkscape" version="1.0" width="24" height="24">
 <metadata id="metadata7"/>
 <path inkscape:connector-curvature="0" id="path6-9" d="m 1.6815843,20.853317 c 0.9502396,0.794117 1.9829631,1.409751 3.0796704,1.727888 1.8362904,0.636055 3.4796759,1.003464 5.3431013,1.17928 0.962716,0.09853 2.162599,0.122316 3.099463,0.104649 1.023669,0.03261 2.730414,0.135066 2.730414,0.135066 1.330419,-0.09803 2.691892,-0.126078 3.858106,-0.528673 1.037153,-0.504085 1.909223,-1.492041 2.658279,-2.5465 0.490411,-1.138307 -0.51139,-2.079014 -1.202219,-2.467056 -1.411688,-1.100026 -2.998531,-1.500455 -4.80136,-2.116441 -1.429824,-0.47595 -2.640232,-0.700866 -4.818916,-1.380938 -1.8601541,-0.248546 -3.5921275,0.271622 -4.7123163,0.664393 -1.7448241,0.784465 -1.2245414,0.703572 -3.2663106,1.716979 -0.9231758,0.594098 -2.0862461,1.325204 -2.2302008,2.84614 -0.00624,0.262978 0.086352,0.533494 0.262289,0.665219 z" sodipodi:nodetypes="cccccccccccccc" fill="#2a7fff" stroke-width="0.255"/>
 <path d="m 5.6033084,19.634505 2.9053805,-8.939635 11.0069271,3.631726 -1.8438,5.475528 -4.078708,-0.111751 -0.558728,1.31193 -1.049428,0.515859 L 10.787316,21.378056 10.017253,20.530164 9.73789,19.6345 Z" id="path4215" inkscape:connector-curvature="0" sodipodi:nodetypes="ccccccccccc" fill="#ff0000" fill-rule="evenodd"/>
 <circle id="path3337" cx="11.625" cy="19.626" r="1.918" fill="#ffffff"/>
 <path inkscape:connector-curvature="0" d="m 14.644279,8.2925329 -1.106472,3.4256831 -5.6136224,-1.7691029 -3.044358,9.1518289 -1.594068,0 0,1.131477 5.938686,0 c 0.2575161,1.106811 1.2469034,1.931634 2.4317364,1.931635 1.185227,0 2.174625,-0.824269 2.431736,-1.931635 l 5.969943,0 0,-1.131477 -1.537806,0 1.800358,-5.238547 -5.988696,-1.887878 1.106471,-3.4256833 -0.793908,-0.2563008 z m -5.7136424,3.3819241 9.4331354,3.19439 -1.444039,4.232095 -2.831816,0 c -0.257111,-1.107366 -1.246509,-1.931635 -2.431736,-1.931635 -1.184833,1e-6 -2.1742203,0.824824 -2.4317364,1.931635 l -2.744298,0 2.45049,-7.426485 z m 2.7255444,6.488798 c 0.828166,0 1.5003,0.672135 1.5003,1.5003 0,0.828166 -0.672134,1.500299 -1.5003,1.500299 -0.828165,0 -1.5003,-0.672133 -1.5003,-1.500299 0,-0.828165 0.672135,-1.5003 1.5003,-1.5003 z m 0.468844,-12.2174417 3.588217,-1.7878574 -1.787857,-3.58821749 0.895178,-0.45008993 1.855372,3.61322242 3.590717,-1.7928585 0.447589,0.90018 -3.65573,1.7678534 1.787857,3.5882177 -0.830166,0.4700941 -1.85537,-3.6132228 -3.588217,1.7903583 -0.44759,-0.8976798 z" id="path90440" fill="#000407" fill-rule="evenodd"/>
</svg>
