<?xml version="1.0" encoding="UTF-8" standalone="no"?>
<svg xmlns="http://www.w3.org/2000/svg" version="1.1" viewBox="0 0 24 24" height="24" width="24">
 <metadata id="metadata4411"/>
 <g transform="translate(0,-1028.3622)" id="layer1">
  <g id="g4221" transform="matrix(0.08983967,0,0,0.08983967,3.0740715,1050.2035)">
   <path id="path3" d="m 118.63,-26.848002 c 15.074,-19.321 30.347,-38.382 44.727,-58.238 7.056,-9.743 13.26,-19.966998 19.409,-30.290998 5.39,-9.048 11.323,-20.028 13.408,-30.449 5.933,-29.642 -2.521,-64.016 -33.229,-75.906 -15.567,53.601 -31.135,107.2 -46.702,160.799998 -3.625,12.479 -7.249,24.96 -10.874,37.439 4.41,-1.12 8.83,-2.24 13.25,-3.36" fill="#ff7021"/>
   <path id="path5" d="m 108.89,-24.498002 c 3.879,-19.206 7.882,-37.785 13.32,-56.565 9.576,-33.072998 19.152,-66.146998 28.729,-99.220998 4.001,-13.816 8.001,-27.633 12.002,-41.449 10.804,3.34 18.13,10.481 21.915,21.075 3.994,11.178 6.092,22.935 5.496,34.836 -1.217,24.32 -15.943,46.695 -27.798,67.213998 -7.764,13.438 -16.307,26.452 -24.586,39.575 -4.313,6.837 -8.61,13.686 -12.795,20.603 -2.252,3.724 -4.447,7.482 -6.67,11.223 -0.9,1.5 -8.2,2.77 -9.62,2.71" fill="#eb490c"/>
   <path id="path7" d="m 105.53,-23.658002 c 7.811,-10.503 15.621,-21.005 23.431,-31.508 4.405,-5.924 8.811,-11.848 13.216,-17.771 2.489,-3.347 4.872,-4.609 9.012,-1.751 4.482,3.095 0.207,6.056 -2.236,9.415 -3.515,4.831 -7.318,9.487 -11.03,14.168 -3.6,4.538 -7.176,9.107 -10.885,13.557 -2.604,3.123 -5.896,10.055 -9.91,11.084 -3.51,0.89 -8.3,2.85 -11.6,2.8" fill="#ff0000"/>
   <path id="path9" d="m 198.36,-160.465 c -2.91,-3.669 -6.505,-7.132 -11.985,-7.678 -2.199,-0.219 -1.919,0.025 -2.738,-2.018 -1.237,-3.083 -2.474,-6.166 -3.711,-9.248 -5.661,-14.108 -11.322,-28.217 -16.983,-42.326 12.712,5.262 20.685,13.15 27.757,24.833 6.51,10.776 7.26,24.235 7.65,36.437" fill="#ffd900"/>
   <path id="path11" d="m 148.5,-75.868002 c -5.722,9.441 -11.751,18.685 -17.573,28.063 -2.942,4.738 -5.979,9.447 -8.766,14.277 -0.686,1.189 -2.879,6.407 -4.013,6.711 l -9.264,2.481 c 1.02,-5.265 2.479,-7.181 5.683,-11.488 5.308,-7.137 10.614,-14.272 15.922,-21.408 4.322,-5.812 8.645,-11.623 12.967,-17.435 1.48,-1.99 3.27,-1.74 5.04,-1.2" fill="#bf0000"/>
   <path id="path13" d="m 178.55,-212.67 c 8.959,13.786 11.75,29.27 11.75,45.49 -1.117,-0.555 -5.741,-0.672 -6.039,-1.415 -2.179,-5.431 -4.358,-10.862 -6.538,-16.294 l -14.784,-36.846 c 5.51,1.704 12.06,5.581 15.61,9.065" fill="#ffa300"/>
   <path id="path15" d="m 114.93,-26.848002 c 12.064,-21.341 25.105,-42.117 37.716,-63.139 6.388,-10.647998 12.223,-21.590998 17.978,-32.590998 5.198,-9.936 10.331,-21.109 12.269,-32.208 4.255,-24.375 -2.2,-49.595 -19.481,-67.477 -2.74,-2.834 -20.133,-14.417 -21.46,-6.954 -1.583,8.899 -3.165,17.798 -4.748,26.697 -10.49,58.955 -20.98,117.909998 -31.46,176.869998 -0.128,0.72 -0.256,1.438 -0.384,2.158 3.18,-1.12 6.37,-2.24 9.56,-3.36" fill="#ff7021"/>
   <path id="path17" d="m 106.54,-25.508002 c 7.363,-54.338 18.51,-108.279998 28.072,-162.259998 l 6.426,-36.273 c 0.406,-2.293 0.813,-4.587 1.219,-6.88 0.434,-2.447 10.843,1.668 12.291,2.392 10.501,5.245 14.186,18.755 16.617,29.389 2.496,10.911 3.019,23.603 1.179,34.631 -4.021,24.107 -16.497,47.163 -26.669,69.158998 -10.192,22.042 -20.627,43.942 -30.337,66.207 -1.5,3.41 -5.11,3.91 -8.8,3.63" fill="#eb490c"/>
   <path id="path19" d="m 143.8,-105.908 c 3.767,-2.278 9.362,-1.846 13.094,0.336 3.905,2.283 3.182,3.741 1.424,7.136998 -4.831,9.329 -9.974,18.437 -15.523,27.357 -5.344,8.59 -11.085,16.934 -16.545,25.452 -2.781,4.339 -5.641,8.657 -8.164,13.153 -1.133,2.02 -2.012,5.224 -4.286,6.021 -2.813,0.987 -5.626,1.975 -8.438,2.962 1.514,-8.483 3.026,-16.967 4.54,-25.45 1.016,-5.692 6.324,-12.913 9.131,-17.989 3.896,-7.047 7.875,-14.04 11.909,-21.009 3.34,-5.75 7.55,-13.879998 12.87,-17.969998" fill="#ff0000"/>
   <path id="path21" d="m 150.18,-107.418 c -6.394,14.827998 -13.331,29.406998 -19.888,44.157998 -3.068,6.903 -6.078,13.835 -9.184,20.721 -1.83,4.06 -3.612,8.12 -5.33,12.228 -0.484,1.159 -0.826,3.511 -2.177,3.751 -2.299,0.408 -4.598,0.817 -6.896,1.226 0.613,-4.954 1.227,-9.907 1.84,-14.861 0.39,-3.144 0.329,-7.357 1.769,-10.129 4.222,-8.129 8.503,-16.213 12.936,-24.229 4.209,-7.613 8.617,-15.112 13.502,-22.313 3.67,-5.419998 6.4,-10.519998 13.43,-10.559998" fill="#bf0000"/>
   <path id="path23" d="m 184.09,-168.354 c -3.42,-4.807 -10.932,-5.508 -16.213,-4.447 -2.85,0.572 -6.052,-11.322 -7.052,-13.728 -6.178,-14.869 -12.354,-29.738 -18.532,-44.606 7.312,0.188 12.541,1.951 18.351,6.518 5.877,4.619 10.353,10 14.296,16.308 3.31,5.294 6.396,12.573 7.327,18.782 0.87,5.869 3.46,15.595 1.81,21.173" fill="#ffd900"/>
   <path id="path25" d="m 148.67,-230.967 c 11.84,2.759 17.198,13.519 20.516,24.214 1.832,5.908 2.765,11.81 3.549,17.932 0.365,2.857 1.717,14.308 -0.229,15.599 -1.279,0.849 -5.86,0.707 -6.343,-0.455 -2.428,-5.844 -4.856,-11.688 -7.284,-17.531 -5.499,-13.238 -10.999,-26.475 -16.499,-39.713 -0.029,-0.071 -0.06,-0.143 -0.089,-0.214 1.93,0.05 5.05,0.118 6.37,0.168" fill="#ffa300"/>
   <path id="path27" d="m 110.23,-26.848002 c 9.29,-22.388 19.429,-44.345 29.203,-66.518 5.021,-11.390998 10.175,-22.738998 14.773,-34.307998 4.339,-10.914 9.518,-22.341 11.217,-34.034 3.163,-21.763 0.569,-52.576 -17.426,-67.913 -4.104,-3.497 -9.334,-6.483 -14.771,-7.051 -1.786,-0.187 -8.86,0.024 -9.115,2.51 -0.768,7.469 -1.535,14.938 -2.302,22.408 -6.231,60.654 -12.462,121.309998 -18.693,181.959998 -0.146,1.429 -0.294,2.858 -0.44,4.287 2.53,-0.45 5.05,-0.89 7.56,-1.34" fill="#ff7021"/>
   <path id="path29" d="m 109.73,-26.848002 c -2.084,0.273 -4.674,-0.28 -6.881,-0.5 L 119.94,-193.558 c 1.181,-11.49 2.362,-22.98 3.544,-34.47 0.221,-2.145 0.441,-4.289 0.661,-6.434 0.276,-2.68 9.355,-2.349 11.016,-1.875 9.373,2.678 13.825,15.111 16.391,23.736 3.442,11.57 3.501,23.8 3.501,35.761 0,10.674 -3.781,22.104 -6.704,32.271 -3.565,12.4 -7.409,24.702 -11.337,36.991 -7.209,22.553998 -14.904,44.978998 -22.618,67.363998 -1.44,4.2 -2.97,9.89 -4.66,13.37" fill="#eb490c"/>
   <path id="path31" d="m 102.68,-25.508002 c 0.695,-6.738 1.391,-13.477 2.087,-20.216 0.556,-5.387 2.11,-9.155 4.173,-14.201 4.487,-10.973 8.973,-22.03 13.985,-32.776 1.975,-4.232 3.846,-12.095998 8.794,-13.379998 1.543,-0.4 13.289,0.132 12.02,3.18 -4.54,10.902998 -9.343,21.694998 -14.248,32.437998 -3.897,8.536 -7.712,17.108 -11.595,25.65 -1.793,3.946 -3.552,7.912 -5.192,11.924 -0.37,0.904 -1.739,5.906 -2.645,6.067 -2.44,0.45 -4.9,0.88 -7.36,1.32" fill="#ff0000"/>
   <path id="path33" d="m 109.73,-26.848002 c -2.084,0.273 -4.674,-0.28 -6.881,-0.5 0.438,-4.212 0.877,-8.424 1.315,-12.636 0.354,-3.404 -0.091,-8.529 1.271,-11.702 3.241,-7.557 6.24,-15.219 9.546,-22.747 3.35,-7.628 6.569,-15.317 10.092,-22.866 2.509,-5.378998 4.556,-10.521998 11.515,-8.942998 -4.268,13.105998 -8.819,26.116998 -13.178,39.192998 -2.442,7.329 -4.987,14.62 -7.385,21.964 -1.89,5.81 -3.89,13.23 -6.29,18.25" fill="#bf0000"/>
   <path id="path35" d="m 135.75,-236.17 c 26.932,8.57 30.719,39.412 30.719,63.62 -2.412,-2.985 -6.776,-3.854 -10.39,-4.153 -1.105,-0.092 -7.426,1.242 -7.558,0.925 -3.324,-8.037 -6.647,-16.073 -9.972,-24.11 -4.215,-10.19 -8.43,-20.381 -12.645,-30.571 -0.633,-1.529 -2.688,-4.057 -0.646,-4.871 3.4,-1.353 6.96,-1.927 10.5,-0.84" fill="#ffd900"/>
   <path id="path37" d="m 135.75,-236.17 c 3.534,0.334 6.646,4.67 8.646,7.47 3.595,5.032 5.656,10.714 7.404,16.59 1.553,5.219 2.481,11.038 2.783,16.469 0.159,2.867 0.472,5.767 0.472,8.638 0,1.857 1.146,8.993 0,10.257 -0.544,0.601 -6.468,1.126 -6.618,0.763 -2.209,-5.341 -4.418,-10.682 -6.627,-16.023 -5.767,-13.943 -11.533,-27.885 -17.301,-41.828 -1.32,-3.207 9.46,-2.885 11.25,-2.336" fill="#ffa300"/>
   <path id="path39" d="m 105.53,-26.848002 c 15.168,-46.276 32.349,-92.581998 42.231,-140.349998 2.383,-11.52 0.677,-24.06 -0.589,-35.607 -1.205,-10.985 -6.014,-23.88 -14.448,-31.26 -4.167,-3.646 -9.2,-5.915 -14.772,-6.127 -2.479,-0.095 -4.997,0.316 -7.218,1.428 -3.129,1.565 -2.593,4.958 -2.993,8.084 -1.631,12.71 -1.8,25.842 -2.615,38.622 -3.044,47.65 -5.808,95.386998 -7.836,143.089998 -0.222,5.217 -0.363,10.443 -0.67,15.655 -0.12,2.042 -1.434,5.344 0.949,5.599 2.457,0.25 6.127,0.59 7.967,0.86" fill="#ff7021"/>
   <path id="path41" d="m 98.986,-27.518002 c 1.78,-48.048 2.055,-96.081998 4.848,-144.099998 0.676,-11.61 1.494,-23.211 2.209,-34.818 0.367,-5.964 0.798,-11.92 1.222,-17.88 0.282,-3.961 -0.808,-13.319 4.06,-14.709 2.445,-0.699 4.364,-1.176 6.967,-1.176 2.564,0 5.06,3.894 6.45,5.71 3.482,4.55 5.336,10.411 6.447,15.97 2.37,11.86 2.849,23.946 2.493,36.024 -0.677,22.971 -4.314,46.571 -8.856,69.077 -4.899,24.282998 -10.216,48.465998 -16.679,72.385998 -1.088,4.025 -2.176,8.05 -3.263,12.075 -0.84,3.1 -2.84,1.71 -5.894,1.43" fill="#eb490c"/>
   <path id="path43" d="m 105.53,-26.848002 c -2.294,-0.224 -4.587,-0.446 -6.881,-0.67 1.614,-10.52 3.862,-21.046 6.922,-31.249 1.583,-5.276 3.035,-10.587 4.829,-15.795 0.532,-1.543 1.321,-5.354 2.937,-6 2.146,-0.858 4.378,-0.794 6.63,-0.419 5.059,0.842 0.928,7.06 -0.026,10.24 -1.454,4.845 -3.12,9.622 -4.674,14.435 -1.528,4.734 -3.144,9.435 -4.627,14.185 -1.45,4.66 -2.6,11.31 -5.11,15.28" fill="#ff0000"/>
   <path id="path45" d="m 104.19,-27.018002 c -1.735,-0.168 -3.47,-0.335 -5.205,-0.503 0.888,-4.311 1.16,-9.059 2.182,-13.526 1.386,-6.055 3.022,-12.049 4.603,-18.056 1.511,-5.743 3.144,-11.499 5.134,-17.098 1.543,-4.34 2.945,-5.035 7.219,-5.035 -2.084,8.923 -4.264,17.812 -6.421,26.715 -1.219,5.034 -2.593,10.021 -3.917,15.028 -0.94,3.57 -1.75,9.51 -3.59,12.48" fill="#bf0000"/>
   <path id="path47" d="m 120.3,-240.031 c 27.469,5.782 28.299,42.466 28.369,64.625 -5.033,-4.205 -15.783,-6.076 -21.484,-2.18 -4.461,-11.89 -8.241,-24.079 -11.796,-36.269 -1.845,-6.325 -3.712,-12.65 -5.632,-18.952 -1.123,-3.687 -1.499,-5.351 2.654,-6.721 2.46,-0.808 6.09,-0.705 7.89,-0.503" fill="#ffd900"/>
   <path id="path49" d="m 118.79,-240.199 c 12.12,7.795 13.899,25.745 14.602,38.857 0.34,6.331 0.338,12.632 0.338,18.971 0,2.308 0.081,2.285 -1.68,3.106 -1.582,0.738 -3.332,0.722 -4.865,1.679 -4.346,-11.582 -8.059,-23.453 -11.521,-35.327 -1.839,-6.306 -3.739,-12.594 -5.602,-18.894 -0.896,-3.033 -2.538,-5.242 0.67,-7.049 2.41,-1.353 5.39,-1.343 8.06,-1.343" fill="#ffa300"/>
   <path id="path51" d="m 70.955,-29.538002 c -14.217,-20.137 -28.029,-40.467 -41.22,-61.291 C 17.59,-109.999 4.002,-132.999 1.107,-155.828 c -3.657,-28.835 9.525,-60.545 38.625,-69.936 12.529,54.446 25.059,108.89 37.588,163.339998 2.857,12.418 5.715,24.835 8.573,37.253 -4.66,-1.3 -10.896,-2.07 -14.938,-4.36" fill="#eb490c"/>
   <path id="path53" d="m 49.636,-79.388002 c 6.009,9.279 12.018,18.558 18.027,27.837 3.949,6.098 7.898,12.195 11.847,18.293 1.75,2.702 3.318,6.613 6.383,8.087 -3.992,-1.121 -7.984,-2.243 -11.977,-3.364 -3.528,-0.991 -4.297,-2.748 -6.319,-5.784 -4.132,-6.203 -8.567,-12.249 -12.904,-18.315 -3.986,-5.577 -7.703,-11.336 -11.543,-17.011 -1.652,-2.441 -4.973,-4.959 -2.746,-7.729 1.967,-2.46 6.488,-2.46 9.232,-2.02" fill="#bf0000"/>
   <path id="path55" d="m 39.565,-225.763 c -4.618,12.587 -10.611,24.742 -16.601,36.728 -1.409,2.82 -6.089,15.812 -8.982,15.521 -6.49,-0.653 -10.922,3.812 -13.527,9.188 1.151,-27.288 12.235,-51.58 39.11,-61.437" fill="#ffa300"/>
   <path id="path57" d="m 74.982,-28.188002 c -10.59,-22.119 -22.398,-43.587 -33.458,-65.469 C 35.941,-104.704 30.649,-115.803 25.789,-127.185 c -4.454,-10.43 -8.899,-21.692 -10.139,-33.03 -2.656,-24.295 5.052,-49.185 23.373,-65.728 4.294,-3.877 9.798,-6.216 15.22,-7.959 2.641,-0.849 6.656,-1.018 7.011,1.959 1.049,8.805 2.098,17.61 3.147,26.416 7.078,59.392 14.155,118.779998 21.232,178.179998 0.086,0.728 0.173,1.454 0.26,2.182 -3.617,-1.02 -7.246,-2.24 -10.911,-3.02" fill="#eb490c"/>
   <path id="path59" d="m 83.375,-27.858002 c -10.473,-22.18 -22.399,-43.581 -33.458,-65.468 C 44.314,-104.415 39.06,-115.596 34.182,-127.02 c -4.426,-10.366 -8.905,-21.596 -10.138,-32.865 -2.658,-24.29 5.039,-49.34 23.373,-65.894 4.295,-3.878 9.745,-6.236 15.22,-7.801 2.702,-0.772 6.648,-1.241 7.011,1.801 1.049,8.805 2.098,17.61 3.147,26.416 7.077,59.392 14.154,118.779998 21.231,178.179998 0.086,0.728 0.173,1.454 0.26,2.182 -3.619,-0.97 -7.249,-2.12 -10.911,-2.86" fill="#ff7021"/>
   <path id="path61" d="m 36.544,-103.398 c -0.42,-4.696 13.913,-6.11 15.484,-2.546 3.796,8.612998 7.592,17.226998 11.389,25.839998 7.966,18.075 17.245,35.854 22.477,54.929 -1.924,-0.541 -10.063,-1.58 -10.84,-3.227 -1.921,-4.069 -3.923,-8.054 -6.02,-12.036 -3.735,-7.093 -7.438,-14.2 -11.209,-21.274 -3.544,-6.647 -7.124,-13.266 -10.548,-19.978 -3.465,-6.78 -6.212,-15.79 -10.733,-21.699998" fill="#bf0000"/>
   <path id="path63" d="m 85.223,-27.518002 c -3.368,0.189 -8.938,-15.129 -10.634,-18.373 -3.348,-6.405 -6.531,-12.9 -9.967,-19.261 -7.528,-13.937 -14.729,-28.044 -21.7,-42.267998 2.428,-0.655 5.319,-0.421 7.637,0.505 1.84,0.733 2.005,2.195 2.804,4.008 4.089,9.276998 8.179,18.555998 12.268,27.833998 4.603,10.443 9.206,20.887 13.808,31.329 2.055,4.65 5.84,11.71 5.784,16.22" fill="#ff0000"/>
   <path id="path65" d="m 54.503,-233.988 c 2.107,0.108 4.215,0.216 6.322,0.324 0.591,0.03 0.767,5.027 0.837,5.675 0.494,4.569 0.725,7.874 -0.334,12.375 -1.991,8.465 -3.988,16.89 -6.565,25.201 -1.193,3.846 -2.555,7.751 -3.532,11.652 -0.332,1.322 -12.082,1.458 -13.704,1.609 -7.858,0.734 -15.29,-1.414 -22.302,3.763 -1.207,-5.01 1.21,-13.271 2.267,-18.551 1.343,-6.711 4.311,-12.668 7.506,-18.659 6.083,-11.404 17.379,-19.657 29.505,-23.389" fill="#ffa300"/>
   <path id="path67" d="m 61.05,-233.316 c 0.431,3.875 0.861,7.749 1.292,11.624 0.352,3.167 -1.362,7.563 -2.088,10.649 -1.709,7.265 -3.574,14.451 -5.786,21.582 -1.016,3.277 -1.896,6.585 -2.979,9.843 -0.86,2.583 -7.363,1.851 -9.861,2.084 -6.005,0.562 -11.98,-0.362 -17.842,0.62 2.005,-12.03 4.574,-23.314 10.911,-33.908 3.225,-5.391 7.122,-9.99 11.874,-14.063 4.467,-3.831 9.791,-5.531 14.479,-8.431" fill="#ffd900"/>
   <path id="path69" d="m 79.683,-27.858002 c -7.629,-22.892 -16.476,-45.277 -24.663,-67.963 C 50.775,-107.584 46.327,-119.29 42.415,-131.167 c -3.695,-11.218 -7.82,-23.051 -8.915,-34.871 -2.038,-22.006 3.096,-52.358 21.842,-66.609 3.876,-2.947 10.683,-6.762 15.78,-6.126 1.958,0.244 8.155,0.708 8.254,3.375 0.297,7.906 0.594,15.813 0.891,23.719 2.277,60.676 4.554,121.349998 6.832,182.029998 0.046,1.213 0.091,2.425 0.137,3.638 -2.518,-0.62 -5.036,-1.23 -7.553,-1.85" fill="#eb490c"/>
   <path id="path71" d="m 86.732,-27.688002 c -7.646,-22.934 -16.439,-45.387 -24.716,-68.09 C 53.743,-118.471 42.709,-142.537 40.462,-166.813 c -1.116,-12.06 0.704,-24.749 4.053,-36.372 3.057,-10.608 8.46,-23.136 18.119,-29.45 4.686,-3.063 10.375,-6.339 16.209,-5.885 2.02,0.157 7.493,0.869 7.59,3.452 0.304,8.104 0.608,16.208 0.913,24.312 2.272,60.53 4.544,121.059998 6.816,181.589998 0.042,1.108 0.083,2.216 0.125,3.323 -2.519,-0.61 -5.037,-1.22 -7.555,-1.84" fill="#ff7021"/>
   <path id="path73" d="m 48.964,-112.458 c 7.533,-4.791 14.92,-1.439 20.982,3.526 2.248,1.841 3.741,2.542 4.258,5.313 0.88,4.716998 1.76,9.432998 2.641,14.148998 3.904,20.921 9.649,42.15 10.391,63.459 l -6.174,-1.509 c -2.139,-0.522 -2.014,-2.206 -2.716,-4.272 -1.447,-4.263 -2.957,-8.496 -4.481,-12.731 -2.768,-7.69 -5.67,-15.305 -8.649,-22.916 -2.947,-7.531 -5.914,-15.046 -8.753,-22.618 -2.669,-7.12 -4.395,-15.819998 -7.499,-22.399998" fill="#bf0000"/>
   <path id="path75" d="m 87.068,-27.518002 c -1.896,-2.246 -2.539,-6.688 -3.524,-9.568 -1.19,-3.476 -2.36,-6.961 -3.621,-10.411 -2.854,-7.809 -5.752,-15.598 -8.706,-23.368 -5.516,-14.51 -11.213,-28.895 -16.209,-43.602998 7.183,-1.362 11.464,2.673 16.617,6.966 4.838,4.031 4.47,14.020998 5.577,19.951998 2.446,13.107 4.892,26.216 7.338,39.323 1.169,6.26 3.71,14.51 2.528,20.71" fill="#ff0000"/>
   <path id="path77" d="m 67.765,-238.352 c 3.01,-0.919 7.438,-0.37 10.155,1.258 2.178,1.306 -1.97,8.585 -2.939,10.923 -3.285,7.923 -7.259,15.518 -10.958,23.25 -3.432,7.172 -7.193,14.371 -11.175,21.253 -0.507,0.875 -1.049,1.725 -1.448,2.654 -0.501,1.169 -0.791,0.023 -1.763,0.083 -1.809,0.113 -3.823,-0.572 -5.708,-0.503 -3.531,0.128 -7.891,0.829 -10.911,2.687 2.145,-23.286 7.508,-55.419 34.747,-61.605" fill="#ffa300"/>
   <path id="path79" d="m 74.814,-238.184 c 1.147,0.307 2.284,0.722 3.357,1.258 1.778,0.889 -0.928,5.296 -1.639,7.011 -3.083,7.436 -6.577,14.591 -10.048,21.846 -3.431,7.171 -7.213,14.115 -10.864,21.171 -0.907,1.753 -1.785,3.521 -2.774,5.229 -1.039,1.795 -1.041,3.205 -2.96,2.821 -3.271,-0.652 -6.349,-0.621 -9.652,-0.25 1.536,-12.453 3.259,-24.487 8.717,-35.921 2.593,-5.431 5.943,-10.602 10.403,-14.704 4.782,-4.398 10.067,-6.347 15.46,-8.461" fill="#ffd900"/>
   <path id="path81" d="M 84.215,-27.518002 C 72.5,-74.778002 58.023,-122.048 51.474,-170.378 c -1.589,-11.723 0.944,-23.916 2.843,-35.459 1.852,-11.264 7.931,-23.497 16.898,-30.592 4.083,-3.231 10.221,-5.523 15.519,-4.864 2.5,0.311 5.444,0.83 7.302,2.686 1.899,1.898 1.401,5.336 1.428,7.902 0.134,13.091 0.166,26.177 0.166,39.269 0,48.09 -0.523,96.244998 -1.558,144.319998 -0.109,5.077 -0.288,10.157 -0.288,15.236 0,2.995 0.909,3.983 -2.122,4.092 -2.483,0.1 -4.965,0.2 -7.447,0.27" fill="#eb490c"/>
   <path id="path83" d="m 88.914,-27.688002 c -5.965,-24.06 -11.926,-48.117 -17.618,-72.243 C 65.775,-123.337 60.354,-146.954 57.875,-170.897 c -1.14,-11.008 0.023,-23.996 2.879,-34.7 3.109,-11.657 6.734,-24.599 17.25,-31.915 3.776,-2.627 9.251,-4.5 13.598,-2.518 4.639,2.116 3.827,5.945 3.875,10.651 0.132,12.845 0.188,25.687 0.152,38.532 -0.138,48.846 -0.568,97.735998 -1.619,146.579998 -0.078,3.595 -0.227,7.196 -0.227,10.792 0,0.952 0.61,5.004 0,5.623 -0.56,0.57 -3.969,0.14 -4.869,0.17" fill="#ff7021"/>
   <path id="path85" d="m 91.938,-32.728002 c 0.154,0.626 1.247,3.912 1.006,4.366 -0.544,1.026 -3.065,0.619 -4.448,0.671 -2.471,0.094 -4.192,1.087 -4.883,-1.399 -2.242,-8.071 -4.201,-16.24 -6.194,-24.378 -3.876,-15.826 -7.833,-31.656 -12.005,-47.408998 1.658,-0.603 3.162,-1.773 5.204,-1.846 1.168,-0.041 3.527,0.213 4.533,0.839 1.598,0.993 1.484,2.252998 1.973,4.133998 1.849,7.126 3.627,14.291 5.292,21.462 1.796,7.735 3.676,15.452 5.502,23.181 1.387,5.88 4.668,14.69 4.02,20.39" fill="#bf0000"/>
   <path id="path87" d="m 92.943,-27.858002 c -0.646,0.028 -3.772,0.5 -3.918,-0.052 -0.521,-1.979 -1.042,-3.959 -1.563,-5.938 -0.76,-2.888 -1.364,-5.817 -2.103,-8.711 -1.862,-7.29 -3.606,-14.606 -5.362,-21.923 -3.061,-12.759 -6.111,-25.531 -9.379,-38.239998 1.62,0.158 3.366,0.255 4.868,1.007 1.972,0.985 2.385,6.859998 2.941,9.194998 1.943,8.16 3.949,16.306 5.917,24.46 3.22,13.32 6.032,26.83 8.599,40.19" fill="#ff0000"/>
   <path id="path89" d="m 83.375,-241.206 c 2.19,0.086 13.146,0.294 11.42,4.705 -2.343,5.988 -4.687,11.977 -7.03,17.966 -5.1,13.034 -10.201,26.068 -15.301,39.102 -5.71,-3.131 -16.424,-3.493 -21.486,1.008 0.259,-22.297 5.741,-58.334 32.397,-62.781" fill="#ffa300"/>
   <path id="path91" d="m 57.526,-181.281 c 1.234,-11.389 1.548,-24.762 6.275,-35.398 4.62,-10.395 10.566,-22.814 23.379,-24.241 2.304,-0.257 6.42,1.028 7.274,2.736 0.994,1.988 -1.006,5.125 -2.005,7.677 -3.02,7.717 -6.04,15.435 -9.06,23.152 -3.642,9.307 -7.284,18.615 -10.926,27.922 -4.086,-2.497 -10.31,-2.405 -14.937,-1.848" fill="#ffd900"/>
   <path id="path93" d="M 89.754,-27.188002 C 80.825,-75.345002 74.026,-123.247 72.469,-172.248 c -0.357,-11.231 0.404,-23.042 2.464,-34.077 2.238,-11.986 4.798,-24.591 14.424,-32.905 2.797,-2.416 12.048,-6.127 13.788,-0.91 1.794,5.376 1.549,11.233 1.549,16.84 0,12.122 -0.584,24.21 -1.176,36.313 -2.402,49.116 -5.198,98.219998 -7.869,147.319998 -0.263,4.829 -0.482,9.661 -0.692,14.493 -1.707,-0.68 -3.439,-1.49 -5.195,-2.01" fill="#eb490c"/>
   <path id="path95" d="m 78.509,-186.148 c 0.997,-12.302 2.127,-24.353 6.054,-36.126 1.953,-5.854 4.72,-10.628 8.685,-15.339 1.491,-1.771 4.127,-3.167 6.3,-3.892 3.001,-1 3.922,0.659 4.36,3.872 1.55,11.36 1.122,23.466 0.407,34.896 -0.795,12.708 -1.281,25.441 -1.895,38.16 -2.174,45.079 -4.84,90.143998 -7.294,135.209998 C 86.428,-77.047002 78.34,-125.237 78.34,-173.857 c 0,-4.101 0.047,-8.187 0.169,-12.29" fill="#ff7021"/>
   <path id="path97" d="m 94.622,-107.418 c 4.258,5.68 4.119,9.976998 3.81,16.992998 -0.335,7.637 -0.863,15.267 -1.232,22.903 -0.679,14.048 -2.305,28.298 -2.242,42.354 -0.842,-0.337 -4.906,-1.378 -5.066,-2.166 -0.566,-2.778 -1.132,-5.557 -1.699,-8.335 -0.853,-4.183 -1.636,-8.383 -2.364,-12.589 -1.634,-9.443 -3.119,-18.899 -4.727,-28.346 -1.521,-8.941 -2.586,-18.034 -3.686,-27.037998 -0.589,-4.828 0.878,-4.607 5.523,-5.537 3.499,-0.67 9.021,0.44 11.683,1.79" fill="#bf0000"/>
   <path id="path99" d="m 98.818,-99.198002 c -0.843,23.293 -2.633,46.548 -3.692,69.83 -3.269,-17.64 -6.383,-35.276 -9.082,-53.014 -0.441,-2.901 -4.251,-26.612998 -2.92,-26.803998 3.042,-0.435 9.112,-0.215 11.665,1.763 2.159,1.67 3.214,5.77 4.029,8.219998" fill="#ff0000"/>
   <path id="path101" d="m 72.634,-186.484 c 1.159,-11.986 2.486,-23.51 5.882,-35.098 2.729,-9.313 10.515,-23.456 22.402,-20.715 6.772,1.561 3.628,24.59 2.771,29.384 -2.004,11.21 -3.971,22.595 -6.715,33.648 -6.513,-2.87 -18.157,-4.043 -24.509,-0.169 -0.058,-2.307 0.228,-4.879 0.168,-7.05" fill="#ff0000"/>
   <path id="path103" d="m 101.84,-242.213 c 3.518,3.955 2.855,11.431 2.855,16.376 0,5.54 -0.078,11.069 -0.204,16.608 -0.226,9.932 -1.703,20.076 -1.308,29.964 -4.991,-0.834 -10.003,-1.506 -15.064,-1.738 -4.723,-0.216 -11.367,-0.663 -15.654,1.569 -0.068,-11.209 1.609,-22.64 3.82,-33.706 2.543,-12.764 10.161,-32 25.548,-29.073" fill="#ffa300"/>
   <path id="path105" d="m 78.509,-186.148 c 0.895,-11.037 1.506,-22.492 5.038,-33.081 1.83,-5.484 3.624,-11.164 7.414,-15.667 2.343,-2.784 8.992,-9.892 12.055,-5.639 2.714,3.769 1.68,12.071 1.68,16.45 0,5.655 -0.123,11.3 -0.252,16.953 -0.21,9.241 -1.628,18.664 -1.26,27.866 -7.795,-2.112 -16.852,-2.155 -24.843,-1.511 -0.007,-1.817 0.125,-3.578 0.162,-5.371" fill="#ffd900"/>
   <path id="path107" d="m 99.994,-26.848002 c 12.418,-47.117 22.991,-94.877998 26.847,-143.549998 0.902,-11.387 0.923,-22.938 -0.272,-34.301 -1.282,-12.193 -3.398,-24.607 -12.143,-33.789 -1.852,-1.943 -4.554,-2.828 -7.049,-3.616 -1.109,-0.35 -2.603,-0.362 -3.751,-0.186 -2.217,0.341 -1.793,1.476 -2.13,3.495 -0.887,5.316 -1.76,10.617 -2.371,15.975 -1.35,11.835 -1.988,23.762 -2.32,35.668 -1.375,49.221 -1.148,98.544998 -1.678,147.779998 -0.051,4.734 -0.169,9.467 -0.169,14.202 1.494,-0.49 4.147,-1.26 5.032,-1.68" fill="#eb490c"/>
   <path id="path109" d="m 99.658,-26.848002 c 1.116,-49.069 1.269,-98.173998 1.819,-147.249998 0.255,-22.663 0.776,-45.735 4.728,-68.109 11.416,1.792 17,15.047 18.669,25.252 2.062,12.608 2.854,25.17 2.488,37.946 -0.656,22.971 -4.316,46.267 -8.474,68.833 -2.567,13.936998 -5.243,27.849998 -8.444,41.654998 -1.558,6.718 -3.035,13.457 -4.751,20.137 -1.266,4.928 -2.53,9.855 -3.796,14.782 -0.43,1.63 -0.92,6.29 -2.252,6.76" fill="#ff7021"/>
   <path id="path111" d="m 119.97,-108.928 c -2.232,14.690998 -5.581,29.118998 -9.398,43.475998 -1.887,7.094 -3.867,14.161 -5.758,21.254 -1.043,3.911 -2.089,7.821 -3.14,11.729 -0.344,1.281 -0.583,4.644 -1.511,5.623 -0.883,0.933 -3.944,1.273 -5.204,1.68 0.146,-19.243 -0.503,-38.533 -0.503,-57.789 0,-4.44 -0.053,-8.884 10e-4,-13.324 0.029,-2.387 -1.246,-13.033998 0.768,-14.040998 8.398,-4.2 17.228,-2.05 24.748,1.39" fill="#bf0000"/>
   <path id="path113" d="m 119.97,-108.928 c -2.139,14.070998 -5.008,27.955998 -8.528,41.745998 -1.736,6.8 -3.486,13.61 -5.403,20.362 -0.921,3.246 -1.951,6.461 -2.892,9.701 -0.887,3.052 -1.372,8.077 -3.319,10.441 l 0,-52.726 c 0,-9.611 0.158,-19.219 0.288,-28.828998 0.039,-2.891 -0.597,-3.205 2.062,-4.053 1.983,-0.633 5.056,-0.45 7.114,-0.292 3.75,0.28 8.07,1.57 10.68,3.65" fill="#ff0000"/>
   <path id="path115" d="m 81.026,20.151998 c -1.015,4.249 7.103,2.604 9.681,2.706 2.136,0.084 14.052,2.581 13.315,-1.529 -4.019,-0.176 -8.036,-0.352 -12.055,-0.527 -3.288,-0.15 -8.021,0.32 -10.939,-0.65" fill="#84442f"/>
   <path id="path117" d="m 102.01,8.0619983 c 0.16,-3.537 0.32,-7.07400001 0.481,-10.611 0.225,-4.969 0.039,-4.172 -5.014,-4.496 -0.102,3.021 -0.203,6.04 -0.305,9.061 -0.061,1.805 1.023,6.7 -1.877,5.88 0.204,-4.802 0.408,-9.604 0.612,-14.405 0.125,-2.94 1.153,-2.201 4.255,-2.047 2.341,0.116 4.264,-0.541 4.163,1.807 -0.213,4.994 -0.425,9.987 -0.638,14.98 -0.51,-0.05 -1.19,0.02 -1.67,-0.17" fill="#c1d8f1"/>
   <path id="path119" d="m 102.01,8.0619983 c 0.16,-3.537 0.32,-7.07400001 0.481,-10.611 0.225,-4.969 0.039,-4.172 -5.014,-4.496 -0.102,3.021 -0.203,6.04 -0.305,9.061 -0.061,1.805 1.023,6.7 -1.877,5.88 0.204,-4.802 0.408,-9.604 0.612,-14.405 0.125,-2.94 1.153,-2.201 4.255,-2.047 2.341,0.116 4.264,-0.541 4.163,1.807 -0.213,4.994 -0.425,9.987 -0.638,14.98 -0.51,-0.05 -1.19,0.02 -1.67,-0.17" fill="none" stroke="#000000" stroke-linecap="square" stroke-width="1.1" stroke-miterlimit="10"/>
   <path id="path121" d="m 89.083,-2.0080017 c 0.259,1.98799999 0.717,3.045 1.343,4.197 0.438,0.806 0.999,1.229 1.343,2.518 0.162,0.606 0.711,3.093 0.336,3.691 -0.753,1.2 -7.042,1.7959997 -8.561,2.1839997 0.515,-2.5129997 2.794,-6.5989997 2.668,-8.8739997 -0.103,-1.86000001 -0.201,-5.5 2.871,-3.72" fill="#ffd900"/>
   <path id="path123" d="m 89.083,-2.0080017 c 0.259,1.98799999 0.717,3.045 1.343,4.197 0.438,0.806 0.999,1.229 1.343,2.518 0.162,0.606 0.711,3.093 0.336,3.691 -0.753,1.2 -7.042,1.7959997 -8.561,2.1839997 0.515,-2.5129997 2.794,-6.5989997 2.668,-8.8739997 -0.103,-1.86000001 -0.201,-5.5 2.871,-3.72" fill="none" stroke="#000000" stroke-linecap="square" stroke-width="0.9" stroke-miterlimit="10"/>
   <path id="path125" d="m 85.558,6.5519983 c -0.224,1.642 0.241,4.1589997 -2.014,4.0289997 0.351,-2.3419997 0.927,-4.8519997 1.847,-7.0509997 0.055,1.01 0.111,2.02 0.167,3.02"/>
   <path id="path127" d="m 86.229,-0.99800171 c 1.819,0.614 2.502,2.99800001 0.337,3.52400001 -0.112,-1.17 -0.224,-2.35000001 -0.337,-3.52000001"/>
   <path id="path129" d="m 87.571,0.17199829 c -0.571,-0.116 -0.623,0.245 -1.005,-0.169 -0.142,0.74 -0.012,1.02400001 0.166,1.84800001 1.06,-0.628 0.64,-0.534 0.672,-1.00800001 0.368,-0.3 0.315,-0.4 0.167,-0.67" fill="#ffb8bd"/>
   <path id="path131" d="m 89.754,2.3519983 c -0.422,1.436 -0.42,2.879 -0.503,4.365 0.448,-0.167 0.895,-0.335 1.343,-0.502 -0.882,1.442 -1.449,3.34 -3.358,3.523 0.336,-1.119 0.672,-2.237 1.009,-3.356 -0.867,0.051 -1.558,-0.468 -1.847,-0.505 2.439,0.75 2.632,-2.3 3.356,-3.52" fill="#ffa300"/>
   <path id="path133" d="m 90.426,7.5619983 c 0.161,-3.536 0.322,-7.07200001 0.483,-10.608 0.226,-4.97 0.038,-4.171 -5.016,-4.499 -0.102,3.021 -0.203,6.04 -0.305,9.061 -0.061,1.804 1.023,6.699 -1.876,5.88 0.212,-4.993 0.425,-9.986 0.638,-14.98 0.127,-2.9810003 4.516,-1.456 6.89,-1.337 2.377,0.119 1.477,2.313 1.377,4.65 -0.094,2.19 0.818,13.26 -2.191,11.84" fill="#c1d8f1"/>
   <path id="path135" d="m 90.426,7.5619983 c 0.161,-3.536 0.322,-7.07200001 0.483,-10.608 0.226,-4.97 0.038,-4.171 -5.016,-4.499 -0.102,3.021 -0.203,6.04 -0.305,9.061 -0.061,1.804 1.023,6.699 -1.876,5.88 0.205,-4.802 0.409,-9.604 0.613,-14.405 0.148,-3.4740003 2.952,-2.11 6.162,-1.95 2.851,0.144 2.292,0.856 2.167,3.794 -0.129,3.04 -0.259,6.08099999 -0.389,9.122 -0.073,1.7 0.707,4.507 -1.84,3.775" fill="none" stroke="#000000" stroke-linecap="square" stroke-width="1.1" stroke-miterlimit="10"/>
   <path id="path137" d="m 98.147,-2.3380017 c 1.864,1.098 0.72,2.04499999 1.006,3.526 0.165,0.854 0.768,0.979 0.988,2.082 0.611,3.057 2.16,4.816 -1.07,5.723 -2.758,0.772 -3.508,-0.352 -5.905,-1.949 -0.554,-0.369 0.38,-2.665 0.522,-3.258 0.381,-1.589 1.889,-0.779 2.276,-1.758 0.611,-1.54000001 -1.345,-5.18 2.184,-4.36" fill="#ff7f00"/>
   <path id="path139" d="m 98.147,-2.3380017 c 1.751,1.032 0.694,1.87099999 1.006,3.18899999 0.105,0.44300001 -0.378,0.48300001 -0.336,0.83900001 0.091,0.762 1.081,0.365 1.216,1.04 0.367,1.833 2.126,5.396 0.048,5.979 -3.306,0.928 -3.467,0.633 -6.339,-1.281 -1.85,-1.232 -0.039,-4.647 1.7,-5.226 1.211,-0.402 -1.087,-5.77 2.705,-4.371" fill="none" stroke="#000000" stroke-linecap="square" stroke-width="0.9" stroke-miterlimit="10"/>
   <path id="path141" d="m 99.322,-0.66800171 c -4.051,0.01 -0.901,5.39000001 0,0"/>
   <path id="path143" d="m 98.484,0.85199829 c 0.105,-0.304 0.522,-0.252 0.168,-0.84 -1.058,0.134 -1.271,0.663 -0.504,1.67900001 0.696,-0.2 0.34,-0.51 0.336,-0.84000001" fill="#ffb8bd"/>
   <path id="path145" d="m 89.083,5.7119983 c -0.144,4.3149997 -0.287,8.6299997 -0.431,12.9449997 -0.121,3.64 -0.689,2.831 -4.491,2.736 -3.372,-0.085 -3.18,0.113 -3.039,-3.046 0.191,-4.268 0.383,-8.5349997 0.574,-12.8029997 2.217,0.11 5.514,0.73 7.387,0.17" fill="#bf7242"/>
   <path id="path147" d="m 88.747,13.101998 c 0.056,-1.008 0.111,-2.016 0.167,-3.023 -1.93,-0.088 -3.86,-0.1749997 -5.79,-0.2629997 -2.335,-0.105 -1.647,0.9009997 -1.764,3.1179997 2.217,0.09 5.514,0.71 7.387,0.16" fill="#84442f"/>
   <path id="path149" d="m 88.914,7.0619983 c 0.056,-0.393 0.113,-0.784 0.169,-1.177 -1.815,-0.082 -7.816,-1.54 -7.554,1.009 2.138,0.09 6.012,0.61 7.385,0.17" fill="#84442f"/>
   <path id="path151" d="m 104.53,6.3919983 c -0.167,5.0029997 -0.334,10.0049997 -0.501,15.0079997 -0.056,1.695 -6.423,0.583 -7.779,0.537 -1.297,-0.044 -8.922,0.683 -8.838,-1.21 0.222,-5.002 0.444,-10.005 0.667,-15.0069997 4.31,0.21 13.16,2.12 16.45,0.67" fill="#ffc461"/>
   <path id="path153" d="m 104.19,13.771998 c 0.056,-1.063 0.112,-2.127 0.168,-3.19 -3.622,-0.147 -7.244,-0.296 -10.865,-0.443 -4.264,-0.1749997 -5.52,-1.4779997 -5.753,2.962 5.482,0.22 10.966,0.45 16.448,0.67" fill="#e3622d"/>
   <path id="path155" d="m 104.36,7.7319983 c 0.056,-0.447 0.112,-0.896 0.168,-1.343 l -16.452,-0.672 c -0.442,2.56 5.864,1.644 7.69,1.736 2.204,0.1 7.152,0.93 8.592,0.27" fill="#e3622d"/>
   <path id="path157" d="m 80.857,21.661998 c 0.59,-3.916 0.471,-8.002 0.65,-11.9509997 0.03,-0.649 -0.285,-3.673 0.189,-4.162 0.608,-0.628 5.177,0.136 6.16,0.161 3.732,0.098 7.467,0.372 11.196,0.56 4.183,0.212 5.701,-1.026 5.51,3.247 -0.161,3.5699997 0.556,8.5749997 -0.539,11.9789997 -0.737,2.293 -0.697,1.858 -3.368,1.753 -2.886,-0.114 -19.032,0.834 -19.628,-1.586" fill="none" stroke="#000000" stroke-linecap="square" stroke-width="1.3" stroke-miterlimit="10"/>
   <path id="path159" d="M 85.391,-7.2080017 C 81.329,-13.633002 77.267,-20.057002 73.205,-26.481002 c -0.485,-0.767 -6.296,-9.207 -3.089,-7.418 1.613,0.9 3.305,5.227 4.265,6.745 2.64,4.176 5.28,8.353 7.92,12.528 0.877,1.387 4.26,5.0500003 4.265,6.7450003 0.004,1.18 -0.529,1.13 -1.175,0.66"/>
   <path id="path161" d="m 90.594,-7.7080017 9.201,-20.8890003 c 0.354,-0.802 3.996,-10.144 4.564,-6.976 0.232,1.296 -2.438,5.422 -2.963,6.639 -1.962,4.542 -3.924,9.084 -5.886,13.627 -1.184,2.741 -2.368,5.4810003 -3.552,8.2230003 -0.594,1.36 -1.358,-0.42 -1.368,-0.62"/>
   <path id="path163" d="m 101.84,-242.213 c 15.437,-1.69 22.554,16.828 23.884,29.477 0.858,8.159 1.417,16.123 1.68,24.322 0.105,3.314 0.618,7.842 -0.214,10.828 -7.595,-5.089 -21.862,-5.328 -30.215,-1.679 -1.257,-8.376 0.089,-18.071 0.68,-26.546 0.441,-6.342 0.923,-12.656 1.713,-18.966 0.652,-5.213 3.222,-12.409 2.472,-17.436" fill="#ffa300"/>
   <path id="path165" d="m 101.67,-187.156 c 0.402,-18.308 1.342,-36.997 4.531,-55.057 14.667,2.302 17.913,20.627 19.878,32.648 1.155,7.063 1.174,14.354 1.354,21.489 0.081,3.215 0.557,7.605 -0.247,10.49 -6.164,-5.114 -18.132,-4.238 -25.516,-3.023 0.01,-2.182 0.01,-4.365 0.01,-6.547" fill="#ffd900"/>
   <path id="path167" d="m 70.955,-29.538002 c 2.408,2.393 6.544,3.047 9.73,3.783 2.397,0.555 9.896,3.255 8.566,-0.594 -1.539,-4.454 -18.068,-9.4 -18.296,-3.021" fill="none" stroke="#000000" stroke-linecap="square" stroke-width="2.7" stroke-miterlimit="10"/>
   <path id="path169" d="m 70.955,-29.538002 c 2.408,2.393 6.544,3.047 9.73,3.783 2.397,0.555 9.896,3.255 8.566,-0.594 -1.747,-5.05 -18.988,-8.28 -18.296,-3.19" fill="#bf0000"/>
   <path id="path171" d="m 70.955,-29.538002 c -14.217,-20.137 -28.029,-40.467 -41.22,-61.291 C 17.59,-109.999 4.002,-132.999 1.107,-155.828 c -3.032,-23.906 5.262,-49.519 25.358,-63.774 4.625,-3.281 10.063,-5.022 14.803,-8.039 4.097,-2.608 8.34,-5.489 13.235,-6.348 1.681,-0.295 2.138,-0.01 3.693,-0.671 1.173,-0.499 2.186,-1.322 3.357,-1.847 2.124,-0.951 4.314,-1.372 6.547,-1.93 1.274,-0.318 2.443,-0.252 3.692,-0.252 2.269,0 3.142,-0.345 5.371,-1.175 3.394,-1.263 6.729,-1.343 10.24,-1.343 2.167,0 2.651,0.53 4.7,0 2.565,-0.663 5.08,-1.804 7.805,-1.259 4.259,0.852 8.124,-0.386 12.183,2.148 1.992,1.245 6.815,0.006 9.472,0.538 1.983,0.396 3.65,0.946 5.455,1.846 2.2,1.098 2.809,0.923 5.035,1.091 3.705,0.279 7.091,1.617 10.408,3.273 1.216,0.607 2.178,1.399 3.273,2.182 1.119,0.799 2.502,0.193 3.776,0.672 2.464,0.926 4.63,1.904 6.882,3.273 2.328,1.416 4.427,2.987 6.547,4.7 2.297,1.855 4.84,2.612 7.334,4.191 22.305,14.126 28.289,37.483 27.92,62.491 -0.169,11.441 -6.459,23.51 -11.583,33.41 -5.69,10.993 -12.271,21.373 -19.184,31.627998 -11.658,17.295 -24.517,33.87 -37.637,50.076 -3.542,4.373 -7.022,8.784 -10.484,13.222 -1.684,2.158 -8.313,0.47 -10.791,0.339 -12.52,-0.66 -25.041,-1.321 -37.561,-1.982" fill="none" stroke="#000000" stroke-linecap="square" stroke-miterlimit="10"/>
   <path id="path173" d="m 118.79,-27.348002 c -4.174,5.347 -8.348,10.692 -12.521,16.039 -0.602,0.77 -2.824,4.6540003 -3.883,4.5860003 -4.394,-0.282 -4.672,0.002 -6.563,-3.7790003 -5.091,-10.178 -13.132,-18.44 -24.873,-18.862 3.848,-8.856 49.099,-6.413 48.007,2.017" fill="none" stroke="#000000" stroke-linecap="square" stroke-miterlimit="10"/>
   <path id="path175" d="m 118.79,-27.348002 c -7.265,-5.329 -20.801,-4.535 -29.375,-4.535 -4.961,0 -10.075,-0.169 -14.92,1.046 -2.479,0.621 -3.073,2.146 -4.633,-0.088 -1.707,-2.445 -3.415,-4.89 -5.122,-7.335 3.856,-2.594 9.683,-2.7 14.167,-2.914 5.469,-0.26 10.914,-0.389 16.384,-0.108 9.01,0.462 22.675,-0.034 30.215,5.708 -2.183,2.742 -4.364,5.484 -6.547,8.227" fill="none" stroke="#000000" stroke-linecap="square" stroke-miterlimit="10"/>
  </g>
 </g>
</svg>
