<?xml version="1.0" encoding="UTF-8" standalone="no"?>
<svg xmlns="http://www.w3.org/2000/svg" xmlns:sodipodi="http://sodipodi.sourceforge.net/DTD/sodipodi-0.dtd" xmlns:inkscape="http://www.inkscape.org/namespaces/inkscape" width="24" height="24" version="1.1">
 <metadata id="metadata7">image/svg+xml</metadata>
 <g id="g7" transform="matrix(0.1034433,-0.1034433,0.1034433,0.1034433,-1.4469352,12.187413)" fill="#4d4d4d">
  <g id="layer1">
   <path id="path3297" d="M 27.233047,80.190277 50.521446,102.74008 C 80.457618,77.648438 118.54006,55.793946 120.62015,7.044739 71.963279,10.694428 50.380767,48.797791 27.233047,80.190277 Z" inkscape:connector-curvature="0" fill-rule="evenodd" stroke="#000000" stroke-linejoin="round" stroke-width="6"/>
   <path d="M 105.79237,32.142879 A 7.099771,7.181993 0 1 1 95.534653,22.210502 7.099771,7.181993 0 1 1 105.79237,32.142879 Z" id="path3301" inkscape:connector-curvature="0" fill-rule="evenodd" stroke="#000000" stroke-linejoin="round" stroke-width="3.61"/>
   <path id="path3303" d="M 91.621361,46.777889 A 7.0997695,7.1819915 0 1 1 81.363648,36.845512 7.0997695,7.1819915 0 1 1 91.621361,46.777889 Z" inkscape:connector-curvature="0" fill-rule="evenodd" stroke="#000000" stroke-linejoin="round" stroke-width="3.61"/>
   <path d="M 77.256363,61.612881 A 7.0997695,7.1819915 0 1 1 66.99865,51.680504 7.0997695,7.1819915 0 1 1 77.256363,61.612881 Z" id="path3305" inkscape:connector-curvature="0" fill-rule="evenodd" stroke="#000000" stroke-linejoin="round" stroke-width="3.61"/>
   <path id="path3307" d="M 27.233047,80.190277 7.460029,87.048248 C 11.736541,74.369049 18.503852,57.978424 27.636146,52.378753 33.63639,48.699554 47.960906,51.440612 47.960906,51.440612 L 27.233047,80.190276 Z" inkscape:connector-curvature="0" fill-rule="evenodd" stroke="#000000" stroke-linejoin="round" stroke-width="6"/>
   <path d="m 51.231438,102.00681 -6.217346,19.9837 c 12.534836,-4.6828 28.698914,-11.97467 34.001465,-21.28266 3.483932,-6.115657 0.282806,-20.344416 0.282806,-20.344416 L 51.231438,102.00681 Z" id="path3309" inkscape:connector-curvature="0" fill-rule="evenodd" stroke="#000000" stroke-linejoin="round" stroke-width="6"/>
  </g>
 </g>
 <path inkscape:connector-curvature="0" d="m 12.663647,24.000053 -0.146243,-0.253609 c -0.281073,-0.491613 -0.365476,-0.855758 -0.360977,-1.556829 0.0037,-0.573683 0.02786,-0.720946 0.199926,-1.232875 0.174389,-0.51883 0.192684,-0.633696 0.168456,-1.066271 l -0.02592,-0.485006 0.118474,0.266569 c 0.135263,0.300825 0.148471,0.626473 0.07034,1.760457 l -0.04998,0.723805 0.183265,0.372084 c 0.187565,0.380772 0.658443,0.916001 0.581266,0.660865 -0.05557,-0.183695 0.101748,-0.591639 0.479451,-1.245833 0.469321,-0.812878 0.569167,-1.130555 0.536838,-1.679007 -0.0391,-0.66333 -0.372644,-1.268016 -0.953349,-1.727135 C 13.27539,18.387204 13.117825,18.309575 12.9987,18.309575 l -0.179563,0 0.249907,0.272121 c 0.345508,0.374833 0.544888,0.837375 0.581266,1.345796 0.02163,0.30224 0.01061,0.40267 -0.03887,0.372084 -0.0373,-0.02306 -0.06664,-0.09006 -0.06664,-0.148093 0,-0.168138 -0.331888,-0.785432 -0.573861,-1.068122 -0.121983,-0.142509 -0.379963,-0.375097 -0.57201,-0.516475 -0.333196,-0.245283 -0.366654,-0.257311 -0.760829,-0.257311 -0.227194,0 -0.403017,0.01999 -0.390595,0.04443 0.355079,0.698455 0.372338,0.755718 0.370233,1.229174 -0.0019,0.437648 -0.02464,0.519208 -0.279526,1.066271 -0.316737,0.679812 -0.395968,0.981433 -0.398,1.486484 -0.003,0.73232 0.345394,1.282872 1.016289,1.606811 0.205689,0.09932 0.448907,0.198953 0.54054,0.220288 l 0.166605,0.03702 z m -2.471305,-1.928913 0.04628,-0.266567 c 0.06547,-0.379236 0.146956,-0.559475 0.490559,-1.09589 0.166957,-0.260644 0.337697,-0.561507 0.38134,-0.66827 0.123544,-0.30223 0.05492,-0.920239 -0.148094,-1.330987 l -0.168455,-0.342466 -0.07405,0.255461 c -0.05696,0.195346 -0.184194,0.360983 -0.544242,0.703442 -0.5221647,0.496655 -0.5992159,0.658928 -0.5997775,1.269899 -4.096e-4,0.448141 0.1188643,0.797232 0.3998516,1.179191 L 10.19234,22.07114 Z" id="path2396" fill="#ff0000"/>
</svg>
