<?xml version="1.0" encoding="UTF-8" standalone="no"?>
<svg
   xmlns:dc="http://purl.org/dc/elements/1.1/"
   xmlns:cc="http://creativecommons.org/ns#"
   xmlns:rdf="http://www.w3.org/1999/02/22-rdf-syntax-ns#"
   xmlns:svg="http://www.w3.org/2000/svg"
   xmlns="http://www.w3.org/2000/svg"
   xmlns:sodipodi="http://sodipodi.sourceforge.net/DTD/sodipodi-0.dtd"
   xmlns:inkscape="http://www.inkscape.org/namespaces/inkscape"
   version="1.1"
   viewBox="0 0 24 24"
   height="24"
   width="24"
   id="svg2"
   inkscape:version="0.91 r13725"
   sodipodi:docname="79-3.svg">
  <defs
     id="defs96" />
  <sodipodi:namedview
     pagecolor="#ffffff"
     bordercolor="#666666"
     borderopacity="1"
     objecttolerance="10"
     gridtolerance="10"
     guidetolerance="10"
     inkscape:pageopacity="0"
     inkscape:pageshadow="2"
     inkscape:window-width="1875"
     inkscape:window-height="1056"
     id="namedview94"
     showgrid="false"
     inkscape:zoom="13.906433"
     inkscape:cx="-6.6869741"
     inkscape:cy="17.701382"
     inkscape:window-x="45"
     inkscape:window-y="24"
     inkscape:window-maximized="1"
     inkscape:current-layer="svg2" />
  <metadata
     id="metadata4411">
    <rdf:RDF>
      <cc:Work
         rdf:about="">
        <dc:format>image/svg+xml</dc:format>
        <dc:type
           rdf:resource="http://purl.org/dc/dcmitype/StillImage" />
        <dc:title></dc:title>
      </cc:Work>
    </rdf:RDF>
  </metadata>
  <path
     id="path3"
     d="m 13.731752,19.429284 c 1.354243,-1.735792 2.726364,-3.448226 4.018258,-5.232082 0.633909,-0.875308 1.191274,-1.793829 1.743699,-2.721334 0.484235,-0.812869 1.017254,-1.7993085 1.20457,-2.7355277 0.533019,-2.6630275 -0.226486,-5.7511763 -2.985282,-6.81937 -1.398535,4.8154961 -2.797159,9.6308127 -4.195693,14.4462187 -0.325669,1.121109 -0.651248,2.242398 -0.976916,3.363507 0.396193,-0.10062 0.793284,-0.20124 1.190375,-0.301861"
     inkscape:connector-curvature="0"
     style="fill:#ffd900;fill-opacity:1" />
  <path
     id="path5"
     d="m 12.856713,19.640408 c 0.348488,-1.725461 0.708116,-3.394592 1.196665,-5.081781 0.860304,-2.971268 1.720609,-5.9426248 2.581003,-8.9139821 0.359449,-1.2412248 0.718808,-2.4825396 1.078256,-3.7237644 0.970628,0.3000644 1.628793,0.9416095 1.968837,1.893371 0.358819,1.0042278 0.547303,2.0604728 0.493758,3.1296547 -0.109335,2.1849008 -1.432313,4.1950638 -2.497363,6.0384838 -0.697515,1.207265 -1.465015,2.376439 -2.208798,3.555405 -0.387478,0.614233 -0.773519,1.229545 -1.149498,1.850966 -0.202319,0.334563 -0.399517,0.672181 -0.599231,1.008271 -0.08086,0.134759 -0.736685,0.248856 -0.864258,0.243465"
     inkscape:connector-curvature="0"
     style="fill:#ffa300;fill-opacity:1" />
  <path
     id="path7"
     d="m 12.554852,19.715873 c 0.701738,-0.943586 1.403385,-1.887082 2.105033,-2.830668 0.395744,-0.532211 0.791578,-1.064421 1.187321,-1.596541 0.223611,-0.300694 0.437699,-0.414071 0.809635,-0.157309 0.402662,0.278053 0.0186,0.544069 -0.200881,0.84584 -0.315787,0.434015 -0.657447,0.852309 -0.990932,1.272848 -0.323423,0.407693 -0.644689,0.81817 -0.977905,1.217957 -0.233942,0.280569 -0.529694,0.903338 -0.890311,0.995783 -0.315337,0.07996 -0.745669,0.256043 -1.04214,0.251551"
     inkscape:connector-curvature="0"
     style="fill:#ffd900;fill-opacity:1" />
  <path
     id="path9"
     d="M 20.894668,7.4251774 C 20.633235,7.0955556 20.310261,6.7844408 19.81794,6.7353884 19.620383,6.7157135 19.645538,6.7376344 19.571959,6.5540919 19.460827,6.2771162 19.349696,6.0001405 19.238564,5.7232546 18.729982,4.4557966 18.221399,3.1882487 17.712817,1.9207008 c 1.142042,0.4727363 1.858333,1.1813916 2.49368,2.2309885 0.584856,0.9681123 0.652236,2.1772644 0.687273,3.2734881"
     inkscape:connector-curvature="0"
     style="fill:#ffd900" />
  <path
     id="path11"
     d="m 16.415262,15.025344 c -0.514062,0.848176 -1.055705,1.678654 -1.578752,2.52117 -0.264308,0.425661 -0.537151,0.848716 -0.787535,1.282641 -0.06163,0.10682 -0.258648,0.575603 -0.360526,0.602914 l -0.832275,0.222893 c 0.09164,-0.473006 0.222713,-0.645139 0.510559,-1.032079 0.476869,-0.641185 0.953558,-1.282191 1.430427,-1.923287 0.388287,-0.522148 0.776664,-1.044207 1.164951,-1.566355 0.132963,-0.178781 0.357335,-0.28344 0.516351,-0.234926"
     inkscape:connector-curvature="0"
     style="fill:#ffa300;fill-opacity:1"
     sodipodi:nodetypes="ccccccccc" />
  <path
     id="path13"
     d="M 19.114945,2.7350974 C 19.919818,3.9736271 20.170561,5.3647045 20.170561,6.821904 20.07021,6.772043 19.654791,6.7615317 19.628019,6.6947808 19.432258,6.2068616 19.236498,5.7189423 19.040647,5.2309333 l -1.32819,-3.3102325 c 0.495017,0.1530868 1.083467,0.5013952 1.402398,0.8143966"
     inkscape:connector-curvature="0"
     style="fill:#ffa300" />
  <path
     id="path15"
     d="m 13.399345,19.429284 c 1.083826,-1.917268 2.255425,-3.783777 3.388393,-5.672387 0.573896,-0.956612 1.09811,-1.939728 1.615137,-2.927964 C 18.869862,9.936286 19.331009,8.9325073 19.505118,7.9353768 19.887386,5.7455349 19.307471,3.4797784 17.754952,1.8732654 17.508791,1.6186598 15.94621,0.5780469 15.826992,1.2485204 15.684776,2.0480036 15.54265,2.8474868 15.400434,3.64697 c -0.942419,5.2964978 -1.884837,10.592995 -2.826356,15.889942 -0.0115,0.06469 -0.023,0.12919 -0.0345,0.193874 0.28569,-0.10062 0.572279,-0.201241 0.858867,-0.301861"
     inkscape:connector-curvature="0"
     style="fill:#ffd900;fill-opacity:1" />
  <path
     id="path17"
     d="m 12.64559,19.54967 c 0.661489,-4.881708 1.662932,-9.7278398 2.521979,-14.5773852 l 0.57731,-3.2587543 c 0.03648,-0.2060024 0.07304,-0.4120946 0.109514,-0.6180969 0.03899,-0.21983771 0.974132,0.1498525 1.10422,0.2148965 0.943406,0.471209 1.274465,1.684943 1.492866,2.640298 0.224239,0.9802407 0.271226,2.1204857 0.105921,3.1112376 -0.361246,2.165765 -1.482085,4.2371083 -2.395935,6.2132213 -0.915645,1.980246 -1.853122,3.947735 -2.725466,5.948015 -0.134759,0.306354 -0.45908,0.351273 -0.790589,0.326118"
     inkscape:connector-curvature="0"
     style="fill:#ffa300;fill-opacity:1" />
  <path
     id="path19"
     d="m 15.993016,12.32656 c 0.338426,-0.204655 0.841079,-0.165844 1.176361,0.03019 0.350824,0.205104 0.28587,0.336091 0.127931,0.641186 -0.434015,0.838114 -0.89606,1.656374 -1.394581,2.457744 -0.480103,0.771723 -0.995873,1.521345 -1.486397,2.286599 -0.249844,0.389814 -0.506786,0.777742 -0.733451,1.181661 -0.101789,0.181476 -0.180758,0.469323 -0.385053,0.540925 -0.252719,0.08867 -0.505438,0.177433 -0.758067,0.266105 0.136017,-0.76211 0.271855,-1.52431 0.407872,-2.28642 0.09128,-0.511367 0.568146,-1.160099 0.820326,-1.616125 0.350015,-0.633101 0.707487,-1.261349 1.069901,-1.887442 0.300064,-0.516578 0.678289,-1.246975 1.156236,-1.614419"
     inkscape:connector-curvature="0"
     style="fill:#ffd900;fill-opacity:1" />
  <path
     id="path21"
     d="m 16.6806,12.165478 c -0.574435,1.332143 -1.31206,2.667339 -1.901138,3.992564 -0.275628,0.620164 -0.546046,1.242932 -0.825088,1.861568 -0.164406,0.364749 -0.324501,0.729498 -0.478845,1.09856 -0.04348,0.104124 -0.07421,0.315427 -0.195581,0.336988 -0.206542,0.03665 -0.413083,0.0734 -0.619535,0.110144 0.05507,-0.445066 0.110234,-0.890042 0.165305,-1.335108 0.03504,-0.282456 0.02956,-0.66095 0.158927,-0.909986 0.379303,-0.730306 0.763907,-1.45657 1.162166,-2.176725 0.378135,-0.68395 0.774148,-1.357657 1.213015,-2.004593 0.329712,-0.48693 0.574974,-1.148503 1.206547,-1.152096"
     inkscape:connector-curvature="0"
     style="fill:#ffa300;fill-opacity:1"
     sodipodi:nodetypes="ccccccccccc" />
  <path
     id="path23"
     d="m 19.612656,6.7164322 c -0.307251,-0.4318593 -0.982127,-0.4948369 -1.45657,-0.399517 -0.256043,0.051388 -0.54371,-1.0171648 -0.63355,-1.233319 -0.555029,-1.3358261 -1.109879,-2.6716521 -1.664908,-4.0073883 0.656907,0.01689 1.126679,0.1752772 1.648647,0.5855749 0.527988,0.4149695 0.930111,0.8983967 1.284348,1.4651054 0.29737,0.4756112 0.574615,1.1295542 0.658256,1.6873687 0.07816,0.527269 0.310845,1.4010496 0.162609,1.9021753"
     inkscape:connector-curvature="0"
     style="fill:#ffd900" />
  <path
     id="path25"
     d="m 16.430535,1.0913009 c 1.063702,0.2478677 1.545063,1.2145425 1.843151,2.1753778 0.164586,0.5307728 0.248407,1.0610065 0.318841,1.611005 0.03279,0.2566719 0.154255,1.285426 -0.02057,1.401409 -0.114905,0.076274 -0.526461,0.063517 -0.569853,-0.040877 C 17.78397,5.7131926 17.565839,5.1881696 17.347708,4.6632364 16.85368,3.4739388 16.359562,2.2847311 15.865444,1.0954336 c -0.0026,-0.00638 -0.0054,-0.012847 -0.008,-0.019226 0.173391,0.00449 0.45369,0.010601 0.572279,0.015093"
     inkscape:connector-curvature="0"
     style="fill:#ffa300" />
  <path
     id="path27"
     d="m 12.977098,19.429284 c 0.834611,-2.01133 1.745495,-3.98394 2.623588,-5.975955 0.451085,-1.023363 0.914119,-2.042864 1.327202,-3.082219 0.389814,-0.9805102 0.855094,-2.0071081 1.007731,-3.0576034 0.284163,-1.9551807 0.05112,-4.7234104 -1.565546,-6.1012815 -0.368702,-0.31416929 -0.838563,-0.58243055 -1.327022,-0.63345948 -0.160453,-0.0168 -0.795979,0.002156 -0.818888,0.22549757 -0.069,0.67101251 -0.137904,1.34202501 -0.206811,2.01312731 -0.559791,5.4491354 -1.119582,10.8984505 -1.679373,16.3472265 -0.01312,0.128381 -0.02641,0.256761 -0.03953,0.385142 0.227295,-0.04043 0.453691,-0.07996 0.679188,-0.120385"
     inkscape:connector-curvature="0"
     style="fill:#ffd900;fill-opacity:1" />
  <path
     id="path29"
     d="m 12.932178,19.429284 c -0.187225,0.02453 -0.41991,-0.02515 -0.618186,-0.04492 l 1.53545,-14.9322518 c 0.1061,-1.0322579 0.212201,-2.0645157 0.318391,-3.0967735 0.01985,-0.1927061 0.03962,-0.38532232 0.05938,-0.57802841 0.0248,-0.24077031 0.84045,-0.21103338 0.989674,-0.16844938 0.842067,0.24059064 1.242034,1.35756729 1.472562,2.13243439 0.309228,1.039445 0.314529,2.1381842 0.314529,3.2127565 0,0.9589486 -0.339684,1.985816 -0.602285,2.8992159 -0.320279,1.114012 -0.665622,2.2192193 -1.018513,3.3232593 -0.647654,2.026244 -1.33897,4.040898 -2.031993,6.051959 -0.129369,0.377327 -0.266824,0.888515 -0.418653,1.201157"
     inkscape:connector-curvature="0"
     style="fill:#ffa300;fill-opacity:1" />
  <path
     id="path31"
     d="m 12.298809,19.54967 c 0.06244,-0.60534 0.124967,-1.21077 0.187495,-1.816199 0.04995,-0.483967 0.189562,-0.822482 0.374901,-1.275813 0.403111,-0.985811 0.806132,-1.979168 1.256408,-2.944585 0.177433,-0.380202 0.345523,-1.086701 0.79005,-1.202055 0.138623,-0.03594 1.193879,0.01186 1.079873,0.28569 -0.407872,0.979522 -0.839372,1.949072 -1.280036,2.914219 -0.350105,0.766872 -0.692843,1.536977 -1.041691,2.304388 -0.161082,0.354507 -0.31911,0.710811 -0.466447,1.071248 -0.03324,0.08122 -0.156232,0.530593 -0.237626,0.545057 -0.219209,0.04043 -0.440215,0.07906 -0.66122,0.118589"
     inkscape:connector-curvature="0"
     style="fill:#ffd900;fill-opacity:1" />
  <path
     id="path33"
     d="m 12.932178,19.429284 c -0.187225,0.02453 -0.41991,-0.02515 -0.618186,-0.04492 0.03935,-0.378405 0.07879,-0.75681 0.118139,-1.135215 0.0318,-0.305814 -0.0082,-0.766242 0.114186,-1.051303 0.29117,-0.678919 0.5606,-1.36727 0.85761,-2.043583 0.300962,-0.685297 0.590156,-1.376075 0.906662,-2.054274 0.225407,-0.483248 0.409309,-0.945293 1.034503,-0.803436 -0.383435,1.177438 -0.792296,2.346342 -1.183907,3.521086 -0.219388,0.658435 -0.44803,1.313456 -0.663466,1.973238 -0.169797,0.521969 -0.349476,1.188579 -0.565091,1.639574"
     inkscape:connector-curvature="0"
     style="fill:#ffa300;fill-opacity:1" />
  <path
     id="path35"
     d="M 15.269807,0.62386514 C 17.689369,1.3937911 18.029592,4.1646262 18.029592,6.3394649 17.812898,6.0712935 17.420838,5.9932229 17.096157,5.9663608 16.996885,5.9580955 16.429008,6.0779417 16.417149,6.0494625 16.118522,5.3274211 15.819985,4.6054695 15.521268,3.883428 15.142594,2.9679618 14.76392,2.0524057 14.385245,1.1369395 14.328377,0.99957464 14.143756,0.77245995 14.327209,0.69933046 14.632664,0.57777739 14.952493,0.52620941 15.270525,0.62386514"
     inkscape:connector-curvature="0"
     style="fill:#ffd900" />
  <path
     id="path37"
     d="m 15.269807,0.62386514 c 0.317493,0.0300064 0.597074,0.41955126 0.776753,0.67110236 0.322974,0.4520732 0.508134,0.9625422 0.665173,1.4904401 0.139521,0.4688732 0.222893,0.9916503 0.250024,1.4795695 0.01429,0.2575704 0.04241,0.5181054 0.04241,0.7760351 0,0.1668323 0.102956,0.8079281 0,0.9214855 -0.04887,0.053994 -0.581083,0.1011595 -0.594559,0.068548 C 16.211147,5.5512117 16.012691,5.071378 15.814235,4.5915443 15.29613,3.3389098 14.778114,2.0863651 14.259919,0.83373061 14.141331,0.54561478 15.109802,0.57454316 15.270615,0.62386514"
     inkscape:connector-curvature="0"
     style="fill:#ffa300" />
  <path
     id="path39"
     d="m 12.554852,19.429284 c 1.362688,-4.15742 2.906223,-8.317536 3.794019,-12.6089971 0.214088,-1.034953 0.06082,-2.1615425 -0.05292,-3.1989212 C 16.187699,2.634477 15.75566,1.4759944 14.997952,0.81297764 14.62359,0.4854222 14.171427,0.28157599 13.67084,0.26252998 c -0.222712,-0.008535 -0.448929,0.0283893 -0.648462,0.12829105 -0.281109,0.14059909 -0.232955,0.44542509 -0.268891,0.72626387 -0.146528,1.1418622 -0.161711,2.3216368 -0.23493,3.4697878 -0.273472,4.2808602 -0.521789,8.5695363 -0.703984,12.8551583 -0.01994,0.468693 -0.03261,0.938196 -0.06019,1.40644 -0.01078,0.183452 -0.12883,0.480103 0.08526,0.503012 0.220736,0.02246 0.550448,0.05301 0.715753,0.07726"
     inkscape:connector-curvature="0"
     style="fill:#ffd900;fill-opacity:1" />
  <path
     id="path41"
     d="m 11.966941,19.369092 c 0.159915,-4.316617 0.184621,-8.631975 0.435543,-12.9458965 0.06073,-1.0430386 0.13422,-2.0852686 0.198456,-3.1280376 0.03297,-0.5358038 0.07169,-1.0708889 0.109784,-1.6063333 0.02533,-0.3558549 -0.07259,-1.19657458 0.364749,-1.32145172 0.219658,-0.0627979 0.39206,-0.10565145 0.625913,-0.10565145 0.230349,0 0.454588,0.34983567 0.579466,0.51298451 0.312821,0.40877046 0.479384,0.93532076 0.579196,1.43473956 0.21292,1.0654985 0.255953,2.1513007 0.22397,3.2363842 -0.06082,2.0637071 -0.387568,4.1839233 -0.79562,6.2058553 -0.440124,2.181576 -0.917802,4.354169 -1.498436,6.503134 -0.09774,0.361604 -0.195491,0.723209 -0.293147,1.084814 -0.07546,0.278503 -0.255144,0.153626 -0.529515,0.128471"
     inkscape:connector-curvature="0"
     style="fill:#ffa300;fill-opacity:1" />
  <path
     id="path43"
     d="m 12.554852,19.429284 c -0.206092,-0.02012 -0.412095,-0.04007 -0.618187,-0.06019 0.145001,-0.945114 0.346961,-1.890766 0.62187,-2.8074 0.142216,-0.473994 0.272664,-0.951133 0.433836,-1.419018 0.04779,-0.138622 0.118678,-0.481001 0.263859,-0.539038 0.192796,-0.07708 0.393318,-0.07133 0.595637,-0.03764 0.454499,0.07564 0.08337,0.634268 -0.0023,0.919958 -0.130627,0.435273 -0.280299,0.864437 -0.41991,1.296835 -0.137275,0.425301 -0.282456,0.847638 -0.415688,1.274376 -0.130268,0.418653 -0.233584,1.016087 -0.459081,1.37275"
     inkscape:connector-curvature="0"
     style="fill:#ffd900;fill-opacity:1" />
  <path
     id="path45"
     d="m 12.434467,19.414012 c -0.155872,-0.01509 -0.311744,-0.0301 -0.467616,-0.04519 0.07978,-0.387299 0.104214,-0.813857 0.19603,-1.215171 0.124518,-0.543979 0.271496,-1.082478 0.413532,-1.622145 0.135748,-0.515949 0.282456,-1.033067 0.461237,-1.536079 0.138623,-0.389904 0.264578,-0.452343 0.648553,-0.452343 -0.187226,0.80164 -0.383077,1.600225 -0.576861,2.400067 -0.109514,0.452253 -0.232954,0.900284 -0.351902,1.350111 -0.08445,0.320727 -0.157219,0.854375 -0.322524,1.121199"
     inkscape:connector-curvature="0"
     style="fill:#ffa300;fill-opacity:1" />
  <path
     id="path47"
     d="M 13.881784,0.27699417 C 16.34959,0.79644714 16.424157,4.0921256 16.430445,6.0828828 15.978282,5.705107 15.012506,5.537017 14.50033,5.8870324 14.099555,4.8188387 13.759961,3.7237829 13.440581,2.6286374 13.274827,2.0604015 13.107096,1.4921655 12.934604,0.92599595 c -0.10089,-0.33123887 -0.13467,-0.48073208 0.238435,-0.60381243 0.221005,-0.0725905 0.547123,-0.063337 0.708835,-0.0451894"
     inkscape:connector-curvature="0"
     style="fill:#ffd900" />
  <path
     id="path49"
     d="m 13.746126,0.26190111 c 1.088857,0.70030022 1.248681,2.31292229 1.311839,3.49090009 0.03055,0.5687749 0.03037,1.1348547 0.03037,1.7043483 0,0.20735 0.0073,0.2052837 -0.150931,0.2790421 -0.142126,0.066302 -0.299346,0.064864 -0.43707,0.1508408 C 14.109887,4.8465093 13.776312,3.7800226 13.465287,2.7132663 13.300072,2.1467374 13.129377,1.5818255 12.962005,1.0158356 12.881509,0.7433519 12.733992,0.54489607 13.022198,0.38255578 13.238711,0.26100271 13.506434,0.26190111 13.746306,0.26190111"
     inkscape:connector-curvature="0"
     style="fill:#ffa300" />
  <path
     id="path51"
     d="M 9.4486453,19.187616 C 8.1713947,17.378514 6.9305292,15.552074 5.7454541,13.681252 4.6543513,11.959026 3.4336099,9.8927137 3.173524,7.8417639 2.8449803,5.251237 4.0292469,2.4024211 6.6435813,1.5587367 7.7691825,6.4501474 8.8948736,11.341378 10.020475,16.233148 c 0.256672,1.115629 0.513433,2.231168 0.770195,3.346797 -0.418653,-0.116791 -0.9788928,-0.185968 -1.3420247,-0.3917"
     inkscape:connector-curvature="0"
     style="fill:#ffa300;fill-opacity:1" />
  <path
     id="path53"
     d="m 7.5333534,14.709108 c 0.5398465,0.833622 1.0796931,1.667245 1.6195397,2.500867 0.3547768,0.547842 0.7095537,1.095595 1.0643309,1.643437 0.157219,0.242747 0.298088,0.59411 0.573446,0.726533 -0.35864,-0.10071 -0.71728,-0.20151 -1.0760095,-0.30222 C 9.3977062,19.188694 9.3286195,19.030845 9.1469637,18.758092 8.7757462,18.200817 8.3773072,17.657646 7.9876726,17.112679 7.6295716,16.611643 7.2956376,16.094256 6.9506533,15.584416 6.8022381,15.365117 6.5038806,15.138901 6.7039535,14.890045 6.8806682,14.66904 7.2868333,14.66904 7.5333534,14.708569"
     inkscape:connector-curvature="0"
     style="fill:#ffa300;fill-opacity:1" />
  <path
     id="path55"
     d="M 6.628578,1.5588266 C 6.2136984,2.6896385 5.6752893,3.7816397 5.1371497,4.858458 5.0105656,5.1118059 4.5901159,6.2790028 4.3302098,6.2528595 3.7471503,6.1941942 3.3489809,6.5953283 3.1149485,7.0783064 3.218354,4.6267615 4.2141369,2.4443762 6.628578,1.5588266"
     inkscape:connector-curvature="0"
     style="fill:#ffa300" />
  <path
     id="path57"
     d="M 9.8104296,19.308899 C 8.8590275,17.321736 7.7982007,15.393058 6.804574,13.427186 6.3029991,12.434727 5.8275675,11.437597 5.3909467,10.415042 4.9908009,9.4780138 4.5914635,8.4662394 4.4800623,7.4476373 4.2414482,5.2649825 4.9339323,3.0288731 6.5798849,1.5426554 6.9656565,1.194347 7.460134,0.98421205 7.9472447,0.82762151 8.1845113,0.75134763 8.5452176,0.73616472 8.5771106,1.0036174 8.6713525,1.7946557 8.7655943,2.585694 8.8598361,3.3768221 9.4957213,8.7125798 10.131517,14.047978 10.767312,19.384454 c 0.0077,0.0654 0.01554,0.130627 0.02336,0.196031 -0.32495,-0.09164 -0.650978,-0.201241 -0.9802404,-0.271316"
     inkscape:connector-curvature="0"
     style="fill:#ffa300;fill-opacity:1" />
  <path
     id="path59"
     d="M 10.564454,19.338546 C 9.6235631,17.345902 8.5521352,15.423244 7.5585983,13.456923 7.0552266,12.460691 6.583209,11.456194 6.1449711,10.429865 5.7473407,9.4985871 5.3449488,8.4896876 5.2341765,7.4772844 4.9953827,5.2950788 5.6868786,3.044595 7.3339991,1.5573891 7.7198605,1.2089909 8.2094867,0.99714896 8.7013589,0.85654988 8.9441057,0.78719366 9.298613,0.74505885 9.3312248,1.0183511 9.4254666,1.8093894 9.5197085,2.6004277 9.6139503,3.3915558 10.249746,8.7273135 10.885541,14.062712 11.521336,19.399188 c 0.0077,0.0654 0.01554,0.130627 0.02336,0.19603 -0.32513,-0.08714 -0.651248,-0.19046 -0.980241,-0.256941"
     inkscape:connector-curvature="0"
     style="fill:#ffd900;fill-opacity:1" />
  <path
     id="path61"
     d="m 6.3571724,12.552058 c -0.037733,-0.421887 1.2499393,-0.548921 1.3910775,-0.228732 0.3410313,0.773789 0.6820627,1.547668 1.023184,2.321457 0.7156628,1.623852 1.5492851,3.221111 2.0193261,4.934803 C 10.617909,19.530983 9.8867035,19.437639 9.8168981,19.289674 9.6443161,18.924116 9.4644571,18.566105 9.2760633,18.208363 8.9405121,17.57113 8.6078358,16.93264 8.2690504,16.297114 7.9506586,15.69995 7.6290326,15.105301 7.3214216,14.502297 7.0101271,13.893184 6.7633375,13.083729 6.3571724,12.552777"
     inkscape:connector-curvature="0"
     style="fill:#ffa300;fill-opacity:1" />
  <path
     id="path63"
     d="M 10.730478,19.369092 C 10.427898,19.386071 9.9274907,18.009907 9.7751226,17.718468 9.4743394,17.143044 9.1883798,16.559536 8.8796907,15.988066 8.2033776,14.73597 7.3859226,13.090066 6.7596502,11.812187 c 0.2181307,-0.05884 0.6214109,0.25083 0.8296593,0.33402 0.165305,0.06585 0.2070944,0.287084 0.2788763,0.449963 0.3673544,0.833443 0.7347987,1.667065 1.1021531,2.500597 0.413532,0.938196 0.827064,1.876481 1.2405061,2.814587 0.184621,0.417755 0.524664,1.052023 0.519633,1.4572"
     inkscape:connector-curvature="0"
     style="fill:#ffd900;fill-opacity:1"
     sodipodi:nodetypes="ccccccccc" />
  <path
     id="path65"
     d="m 7.970603,0.8198953 c 0.1892922,0.009703 0.3786742,0.0194054 0.5679664,0.0291081 0.053095,0.002695 0.068907,0.45162405 0.075196,0.50984015 C 8.658146,1.7693209 8.678899,2.066241 8.5837588,2.4706094 8.404888,3.2311022 8.2254782,3.9880014 7.9939613,4.7346589 7.8867826,5.0801823 7.764421,5.4310062 7.6766476,5.7814708 7.6468209,5.9002388 6.5912047,5.912457 6.4454848,5.9260228 5.7395247,5.9919651 5.0718362,5.7989895 4.4418805,6.2640895 4.333444,5.8139927 4.5505865,5.0718272 4.645547,4.5974737 4.7662017,3.9945597 5.0328458,3.4593848 5.3198836,2.9211553 5.8663783,1.8966237 6.8812072,1.1551769 7.970603,0.8198953"
     inkscape:connector-curvature="0"
     style="fill:#ffa300" />
  <path
     id="path67"
     d="M 8.5587834,0.88026755 C 8.5975043,1.2283963 8.6361353,1.5764352 8.6748562,1.9245639 8.7064798,2.2090861 8.5524946,2.6040213 8.487271,2.8812665 8.333735,3.5339517 8.166184,4.1795396 7.9674586,4.8201863 7.8761815,5.1145909 7.7971226,5.4117805 7.6998263,5.7044782 7.6225642,5.936534 7.0383368,6.099585 6.8139173,6.1205176 6.2744301,6.1710075 5.737638,5.8591821 5.2109979,5.9474046 5.3911264,4.8666334 5.6219245,3.8528826 6.1912385,2.9011211 6.4809715,2.4167954 6.8310767,2.0036228 7.2579948,1.6377058 7.6593086,1.29353 8.137615,1.1408026 8.5587834,0.88026755"
     inkscape:connector-curvature="0"
     style="fill:#ffd900"
     sodipodi:nodetypes="cccccccccc" />
  <path
     id="path69"
     d="M 10.232766,19.338546 C 9.5473791,17.281937 8.7525675,15.270876 8.0170501,13.232773 7.6356807,12.175989 7.2360739,11.124326 6.8846211,10.0573 6.5526635,9.0494786 6.1820749,7.9864058 6.0837004,6.9245009 5.9006072,4.9474891 6.3618441,2.2206754 8.0459785,0.94037029 c 0.3482186,-0.2647575 0.9597572,-0.60749585 1.41767,-0.55035781 0.1759061,0.0219209 0.7326425,0.0636065 0.7415365,0.30320888 0.02668,0.71027244 0.05336,1.42063474 0.08005,2.13090714 0.204565,5.4511118 0.40913,10.9020435 0.613785,16.3535145 0.0041,0.108976 0.0082,0.217862 0.01231,0.326837 -0.226216,-0.0557 -0.452433,-0.110503 -0.678559,-0.166203"
     inkscape:connector-curvature="0"
     style="fill:#ffa300;fill-opacity:1" />
  <path
     id="path71"
     d="M 10.866046,19.353819 C 10.179132,17.293436 9.3891714,15.276266 8.6455685,13.236636 7.9023249,11.197904 6.911034,9.035823 6.7091642,6.8548751 6.6089032,5.7714087 6.7724114,4.6314331 7.0732844,3.5872267 7.3479243,2.6342074 7.833328,1.508696 8.7010894,0.94144837 9.1220781,0.66626946 9.633176,0.3719547 10.157301,0.41274191 c 0.181476,0.0141048 0.673168,0.0780707 0.681883,0.31012654 0.02731,0.72806065 0.05462,1.45612135 0.08202,2.18418205 0.204116,5.4379952 0.408232,10.8759905 0.612348,16.3139855 0.0038,0.09954 0.0075,0.199085 0.01123,0.298537 -0.226306,-0.0548 -0.452522,-0.109604 -0.678738,-0.165305"
     inkscape:connector-curvature="0"
     style="fill:#ffd900;fill-opacity:1" />
  <path
     id="path73"
     d="m 7.4729811,11.73811 c 0.6767622,-0.430421 1.3404079,-0.129279 1.885016,0.316775 0.2019595,0.165395 0.3360902,0.228373 0.3825373,0.477318 0.079059,0.423774 0.1581178,0.847458 0.2372665,1.271142 0.3507341,1.879535 0.8668631,3.786742 0.9335241,5.701135 l -0.55467,-0.135568 C 10.164488,19.322016 10.175718,19.170726 10.11265,18.985117 9.9826523,18.602131 9.8469944,18.221839 9.7100787,17.841368 9.4614025,17.150501 9.2006878,16.466372 8.9330554,15.782602 8.6682979,15.10602 8.4017436,14.430875 8.1466888,13.750609 7.9069067,13.11095 7.7518434,12.329345 7.4729811,11.7382"
     inkscape:connector-curvature="0"
     style="fill:#ffa300;fill-opacity:1" />
  <path
     id="path75"
     d="M 10.896232,19.369092 C 10.725896,19.167312 10.668129,18.768244 10.579637,18.509506 10.472728,18.197223 10.367615,17.884132 10.254327,17.574185 9.997925,16.872627 9.7375697,16.172866 9.4721833,15.474812 8.9766277,14.171238 8.4139636,12.751775 7.9651246,11.430414 c 0.6453183,-0.122362 1.0807694,0.36726 1.5437133,0.752942 0.4346443,0.362144 0.4015833,1.259642 0.5010361,1.792481 0.219748,1.177528 0.439495,2.355237 0.659243,3.532765 0.105023,0.562396 0.333305,1.303574 0.227115,1.86058"
     inkscape:connector-curvature="0"
     style="fill:#ffd900;fill-opacity:1"
     sodipodi:nodetypes="ccccccccc" />
  <path
     id="path77"
     d="M 9.1620567,0.42783498 C 9.4324741,0.34527232 9.8302842,0.3945943 10.074379,0.54085328 10.270049,0.65818389 9.8973944,1.3121268 9.8103398,1.522172 9.5152165,2.2339717 9.1581936,2.916304 8.8258767,3.6109443 8.5175469,4.2552744 8.1796599,4.9020302 7.8219184,5.5203068 7.7763697,5.5989165 7.7276766,5.6752803 7.6918305,5.7587413 7.6468209,5.8637639 7.6207674,5.7608076 7.5334432,5.766198 7.3709232,5.7763499 7.1899861,5.7148097 7.0206384,5.7210087 6.7034145,5.7325081 6.3117135,5.7954857 6.0403977,5.9624078 6.2331038,3.8704013 6.714914,0.98358317 9.1620567,0.42783498"
     inkscape:connector-curvature="0"
     style="fill:#ffa300" />
  <path
     id="path79"
     d="M 9.7953366,0.44292804 C 9.8983827,0.47050882 10.00053,0.50779228 10.096928,0.55594635 10.256663,0.63581381 10.013557,1.0317372 9.9496811,1.1858123 9.6727054,1.8538601 9.3588056,2.4966629 9.0469721,3.1484497 8.7387322,3.79269 8.3989586,4.4165366 8.0709539,5.0504454 7.9894694,5.2079343 7.9105901,5.3667708 7.8217387,5.520217 7.7283953,5.6814792 7.7027919,5.9861192 7.5303896,5.9516208 7.236524,5.8930453 6.9854212,5.7178643 6.6886808,5.7511948 6.8266745,4.6324214 6.9814683,3.5512908 7.4718132,2.524064 7.7047675,2.0361447 8.0057303,1.5715838 8.4064153,1.2030615 8.8360286,0.80794662 9.3108312,0.6328491 9.7953366,0.44292804"
     inkscape:connector-curvature="0"
     style="fill:#ffd900"
     sodipodi:nodetypes="ccccccccccc" />
  <path
     id="path81"
     d="M 10.639919,19.369092 C 9.5874476,15.123269 8.2868387,10.876548 7.6984787,6.5345967 7.5557234,5.4814063 7.7832873,4.3859912 7.9538929,3.3489718 8.1202759,2.3370178 8.6664113,1.2380091 9.4720036,0.60059666 9.838819,0.31032469 10.390255,0.10441216 10.866225,0.16361651 c 0.2246,0.0279401 0.489088,0.0745669 0.65601,0.24130935 0.170605,0.17051569 0.125865,0.47938448 0.128291,0.70991304 0.01204,1.1760912 0.01491,2.3517331 0.01491,3.527914 0,4.3203898 -0.04699,8.6466191 -0.13997,12.9656611 -0.0098,0.456116 -0.02587,0.912501 -0.02587,1.368797 0,0.26907 0.08166,0.357832 -0.19064,0.367624 -0.223072,0.009 -0.446054,0.01797 -0.669036,0.02426"
     inkscape:connector-curvature="0"
     style="fill:#ffa300;fill-opacity:1" />
  <path
     id="path83"
     d="M 11.062076,19.353819 C 10.526182,17.192277 9.990648,15.031004 9.4792806,12.863532 8.9832758,10.760745 8.4962549,8.6390011 8.2735424,6.4879699 8.1711252,5.4990148 8.2756087,4.3321772 8.5321908,3.3705334 8.8115023,2.3232723 9.1371711,1.1605673 10.081925,0.5033003 c 0.339235,-0.23600881 0.831107,-0.40427852 1.22164,-0.22621629 0.416766,0.19010074 0.343816,0.53409684 0.348129,0.95688229 0.01186,1.1539906 0.01689,2.3077116 0.01365,3.4617022 -0.0124,4.3883085 -0.05103,8.7805695 -0.14545,13.1686985 -0.007,0.322974 -0.02039,0.646486 -0.02039,0.96955 0,0.08553 0.0548,0.449558 0,0.505168 -0.05031,0.05121 -0.356573,0.01258 -0.437429,0.01527"
     inkscape:connector-curvature="0"
     style="fill:#ffd900;fill-opacity:1" />
  <path
     id="path85"
     d="m 11.333751,18.901027 c 0.01384,0.05624 0.11203,0.351453 0.09038,0.39224 -0.04887,0.09218 -0.275359,0.05561 -0.399607,0.06028 -0.221994,0.0084 -0.376608,0.09766 -0.438687,-0.125686 C 10.384415,18.502768 10.208419,17.768868 10.029369,17.037752 9.6811504,15.61595 9.3256548,14.193788 8.9508437,12.778544 9.0997978,12.72437 9.2349167,12.619258 9.4183693,12.6127 c 0.1049328,-0.0037 0.3168645,0.01914 0.4072432,0.07537 0.1435638,0.08921 0.1333221,0.202409 0.1772535,0.371397 0.166114,0.640198 0.325849,1.283899 0.475432,1.928139 0.161352,0.69491 0.33025,1.388203 0.494298,2.082573 0.124607,0.528258 0.419371,1.319745 0.361155,1.831831"
     inkscape:connector-curvature="0"
     style="fill:#ffa300;fill-opacity:1" />
  <path
     id="path87"
     d="m 11.42404,19.338546 c -0.05804,0.0025 -0.338875,0.04492 -0.351992,-0.0047 -0.04681,-0.177793 -0.09361,-0.355676 -0.140419,-0.533468 -0.06828,-0.259457 -0.122542,-0.522598 -0.188933,-0.782594 -0.167282,-0.654931 -0.323962,-1.312198 -0.48172,-1.969555 -0.2749996,-1.146264 -0.5759765,-2.410548 -0.8695726,-3.552321 0.1455403,0.0142 0.3293662,0.139762 0.4643054,0.207322 0.1771642,0.08849 0.3221312,0.6163 0.3720822,0.826076 0.174559,0.733091 0.354777,1.464925 0.531582,2.197478 0.289283,1.196664 0.434049,2.410398 0.664667,3.610656"
     inkscape:connector-curvature="0"
     style="fill:#ffd900;fill-opacity:1"
     sodipodi:nodetypes="cccccccscc" />
  <path
     id="path89"
     d="m 10.564454,0.17143256 c 0.196749,0.007726 1.181032,0.0264129 1.025969,0.42269565 C 11.379929,1.1320881 11.169344,1.6701379 10.95885,2.2081877 10.500668,3.379158 10.042396,4.5501282 9.5842133,5.7210985 9.0712288,5.4398105 8.1086866,5.4072885 7.6539182,5.8116569 7.6771867,3.8085018 8.1696877,0.57094957 10.564454,0.17143256"
     inkscape:connector-curvature="0"
     style="fill:#ffa300" />
  <path
     id="path91"
     d="M 8.2421884,5.5550748 C 8.3530505,4.5318908 8.3812602,3.3304649 8.8059323,2.3749301 9.2209916,1.4410468 9.7551782,0.32532791 10.906294,0.1971267 c 0.206991,-0.0230888 0.576771,0.0923552 0.653494,0.24580134 0.0893,0.17860126 -0.09038,0.46042831 -0.180129,0.68969916 -0.271316,0.6932927 -0.542631,1.3866753 -0.813947,2.079968 C 10.238516,4.048733 9.9113196,5.1137743 9.5841235,5.9499121 9.2170386,5.7255824 8.6578765,5.5050341 8.2421884,5.5550748"
     inkscape:connector-curvature="0"
     style="fill:#ffd900"
     sodipodi:nodetypes="cscscccc" />
  <path
     id="path93"
     d="M 11.137541,19.398739 C 10.335363,15.07233 9.7245429,10.76883 9.5846625,6.3665965 9.5525898,5.3576072 9.6209578,4.2965108 9.8060275,3.3051301 10.007089,2.2283118 10.237078,1.0958828 11.101875,0.34895575 c 0.251281,-0.21705265 1.082388,-0.55044766 1.238709,-0.0817541 0.161173,0.48297806 0.139162,1.00916905 0.139162,1.51290005 0,1.0890365 -0.05247,2.1750184 -0.105652,3.2623479 -0.215794,4.4125653 -0.466986,8.8240524 -0.706948,13.2351804 -0.02363,0.433835 -0.0433,0.867941 -0.06217,1.302046 -0.153356,-0.06109 -0.308959,-0.133861 -0.466717,-0.180578"
     inkscape:connector-curvature="0"
     style="fill:#ffa300;fill-opacity:1" />
  <path
     id="path95"
     d="m 10.127294,5.1178251 c 0.08957,-1.1052076 0.191089,-2.1878655 0.54389,-3.2455479 0.175456,-0.5259214 0.424043,-0.95481602 0.780257,-1.37805071 0.133951,-0.15910605 0.370768,-0.28452223 0.56599,-0.34965599 0.269609,-0.08983967 0.352351,0.0592043 0.391701,0.3478592 0.139251,1.0205787 0.1008,2.1081777 0.03656,3.1350451 -0.07142,1.1416825 -0.115085,2.2856111 -0.170246,3.4282818 -0.195312,4.0498824 -0.434825,8.0985074 -0.655291,12.1472214 -0.781426,-4.283555 -1.508049,-8.612929 -1.508049,-12.9809335 0,-0.3684325 0.0042,-0.7355174 0.01518,-1.1041296"
     inkscape:connector-curvature="0"
     style="fill:#ffd900;fill-opacity:1" />
  <path
     id="path97"
     d="m 11.574881,12.190902 c 0.382537,0.51029 0.370049,0.896331 0.342289,1.526646 -0.0301,0.686105 -0.07753,1.371582 -0.110683,2.057598 -0.061,1.262067 -0.20708,2.542283 -0.20142,3.805069 -0.07564,-0.03028 -0.440754,-0.123799 -0.455128,-0.194593 -0.05085,-0.249574 -0.101698,-0.499239 -0.152637,-0.748813 -0.07663,-0.3758 -0.146978,-0.753126 -0.212381,-1.130992 -0.146798,-0.848356 -0.28021,-1.69788 -0.424673,-2.546595 -0.118669,-0.794268 -0.19637,-1.629158 -0.286206,-2.429085 -0.008,-0.451723 0.03394,-0.413891 0.451242,-0.497442 0.314349,-0.06019 0.810444,0.03953 1.049597,0.160813"
     inkscape:connector-curvature="0"
     style="fill:#ffa300;fill-opacity:1"
     sodipodi:nodetypes="ccscccccccc" />
  <path
     id="path99"
     d="m 11.951848,12.929384 c -0.07573,2.092636 -0.236548,4.181857 -0.331688,6.273504 -0.293686,-1.584771 -0.573447,-3.169184 -0.815924,-4.76276 -0.03962,-0.260625 -0.334241,-2.533903 -0.334241,-2.533903 0.372168,-0.182898 0.899517,0.106521 1.128878,0.284228 0.193964,0.150032 0.198858,0.536352 0.352975,0.738482"
     inkscape:connector-curvature="0"
     style="fill:#ffd900;fill-opacity:1"
     sodipodi:nodetypes="cccccc" />
  <path
     id="path101"
     d="M 9.5994861,5.087639 C 9.7036103,4.0108207 9.8228275,2.9755083 10.127923,1.9344462 10.373095,1.0977694 11.072587,-0.17283306 12.140511,0.07341748 12.748906,0.2136572 12.46645,2.282575 12.389457,2.7132663 12.209418,3.720369 12.032704,4.7431937 11.786184,5.7361916 11.201058,5.4783517 10.154965,5.3729698 9.5843032,5.7210087 9.5790925,5.5137485 9.6047866,5.2826809 9.5993963,5.087639"
     inkscape:connector-curvature="0"
     style="fill:#ff0000" />
  <path
     id="path103"
     d="m 12.223343,0.08096401 c 0.316056,0.3553159 0.256493,1.02695729 0.256493,1.47121439 0,0.4977118 -0.007,0.9944354 -0.01833,1.4920573 -0.0203,0.8922876 -0.152997,1.8036212 -0.11751,2.6919559 C 11.895608,5.6612653 11.445332,5.600893 10.990653,5.5800502 10.566341,5.5606448 9.9694459,5.5204865 9.5843032,5.7210087 9.5781941,4.7139958 9.7288552,3.6870385 9.9274907,2.6928727 10.155953,1.5461592 10.840352,-0.1819967 12.222715,0.08096401"
     inkscape:connector-curvature="0"
     style="fill:#ffa300" />
  <path
     id="path105"
     d="m 10.127294,5.1178251 c 0.08041,-0.9915604 0.135299,-2.0206738 0.452612,-2.9719861 0.164407,-0.4926808 0.325579,-1.0029701 0.666072,-1.40751812 0.210494,-0.25011365 0.807838,-0.88869402 1.083017,-0.5066059 0.243825,0.33860571 0.150931,1.08445462 0.150931,1.47786252 0,0.5080434 -0.01105,1.0151883 -0.02264,1.523052 -0.01887,0.8302084 -0.171683,1.9055812 -0.138622,2.7322858 -0.7003,-0.1897414 -1.488554,-0.4224181 -2.206463,-0.3645613 -6.29e-4,-0.1632387 0.01123,-0.3214464 0.01455,-0.4825289"
     inkscape:connector-curvature="0"
     style="fill:#ffd900"
     sodipodi:nodetypes="ccccscccc" />
  <path
     id="path107"
     d="M 12.057499,19.429284 C 13.173128,15.196309 14.123003,10.905476 14.469425,6.5327999 14.55046,5.5097956 14.552347,4.4720576 14.444989,3.4512094 14.329814,2.3557943 14.139713,1.2405246 13.354066,0.41561678 13.187683,0.2410583 12.944936,0.16155019 12.720786,0.09075653 12.621154,0.05931265 12.486933,0.05823457 12.383797,0.07404636 12.184623,0.10468168 12.222715,0.20664971 12.192439,0.388036 c -0.07969,0.47758769 -0.158118,0.9538278 -0.21301,1.4351887 -0.121284,1.0632525 -0.178601,2.1347703 -0.208428,3.2044014 -0.12353,4.4219984 -0.103136,8.8532499 -0.150751,13.2765059 -0.0046,0.425301 -0.01518,0.850512 -0.01518,1.275903 0.13422,-0.04402 0.372565,-0.113198 0.452073,-0.15093"
     inkscape:connector-curvature="0"
     style="fill:#ffa300;fill-opacity:1" />
  <path
     id="path109"
     d="m 12.027313,19.429284 c 0.100261,-4.408342 0.114007,-8.819919 0.163419,-13.2288909 0.02291,-2.0360364 0.06971,-4.1088173 0.424762,-6.11889005 1.025609,0.16099269 1.527274,1.35181755 1.677216,2.26863135 0.18525,1.1326986 0.256403,2.2612645 0.223522,3.4090561 -0.05893,2.0637071 -0.387748,4.156612 -0.761302,6.1839345 -0.230618,1.252095 -0.471029,2.502034 -0.758606,3.742271 -0.13997,0.603543 -0.272663,1.208972 -0.426828,1.809101 -0.113737,0.44273 -0.227295,0.88537 -0.341032,1.32801 -0.03863,0.146439 -0.08265,0.565092 -0.202319,0.607316"
     inkscape:connector-curvature="0"
     style="fill:#ffd900;fill-opacity:1" />
  <path
     id="path111"
     d="m 13.852137,12.055244 c -0.200522,1.319835 -0.501395,2.616042 -0.844314,3.90587 -0.169527,0.637322 -0.34741,1.272219 -0.517296,1.909452 -0.0937,0.351363 -0.187675,0.702636 -0.282097,1.05373 -0.03091,0.115084 -0.05238,0.417215 -0.135748,0.505168 -0.07933,0.08382 -0.354327,0.114366 -0.467525,0.150931 0.01312,-1.728785 0.0087,-3.479769 0.0087,-5.209722 0,-0.398888 0.01318,-0.780159 0.01807,-1.179047 0.0026,-0.214447 -0.01025,-0.475495 0.09879,-1.464828 0.260098,-0.0807 1.446063,0.01922 2.121657,0.328267"
     inkscape:connector-curvature="0"
     style="fill:#ffa300;fill-opacity:1"
     sodipodi:nodetypes="ccccccsccc" />
  <path
     id="path113"
     d="m 13.73773,11.997301 c -0.192167,1.28492 -0.33551,2.489296 -0.651746,3.748556 -0.155962,0.620955 -0.313181,1.242823 -0.485404,1.859395 -0.08274,0.296415 -0.175277,0.589999 -0.259816,0.885865 -0.07969,0.2787 -0.12326,0.737567 -0.298178,0.95344 l 0,-4.814774 c 0,-0.877647 0.07776,-1.767732 0.08943,-2.632575 0.0035,-0.263997 -0.04092,-0.851993 0.197961,-0.92943 0.178152,-0.05781 0.377959,0.518232 0.562849,0.532662 0.336898,0.02556 0.636023,0.05438 0.870504,0.244323"
     inkscape:connector-curvature="0"
     style="fill:#ffd900;fill-opacity:1"
     sodipodi:nodetypes="cccccscccc" />
  <path
     id="path115"
     d="m 10.353421,23.651749 c -0.09119,0.381729 0.638131,0.233942 0.869737,0.243106 0.191898,0.0075 1.262427,0.231876 1.196216,-0.137365 -0.361066,-0.01581 -0.721952,-0.03162 -1.083018,-0.04734 -0.295392,-0.01348 -0.720604,0.02875 -0.982756,-0.0584"
     inkscape:connector-curvature="0"
     style="fill:#84442f" />
  <path
     id="path117"
     d="m 12.238616,22.565587 c 0.01437,-0.317763 0.02875,-0.635526 0.04321,-0.953288 0.02021,-0.446414 0.0035,-0.374812 -0.450456,-0.40392 -0.0092,0.271406 -0.01824,0.542632 -0.0274,0.814038 -0.0055,0.16216 0.09191,0.601925 -0.168629,0.528257 0.01833,-0.43141 0.03665,-0.86282 0.05498,-1.294141 0.01123,-0.264128 0.103585,-0.197737 0.382268,-0.183901 0.210314,0.01042 0.383076,-0.0486 0.374002,0.16234 -0.01914,0.448659 -0.03818,0.897229 -0.05732,1.345798 -0.04582,-0.0045 -0.106909,0.0018 -0.150032,-0.01527"
     inkscape:connector-curvature="0"
     style="fill:#c1d8f1" />
  <path
     id="path119"
     d="m 12.238616,22.565587 c 0.01437,-0.317763 0.02875,-0.635526 0.04321,-0.953288 0.02021,-0.446414 0.0035,-0.374812 -0.450456,-0.40392 -0.0092,0.271406 -0.01824,0.542632 -0.0274,0.814038 -0.0055,0.16216 0.09191,0.601925 -0.168629,0.528257 0.01833,-0.43141 0.03665,-0.86282 0.05498,-1.294141 0.01123,-0.264128 0.103585,-0.197737 0.382268,-0.183901 0.210314,0.01042 0.383076,-0.0486 0.374002,0.16234 -0.01914,0.448659 -0.03818,0.897229 -0.05732,1.345798 -0.04582,-0.0045 -0.106909,0.0018 -0.150032,-0.01527"
     stroke-miterlimit="10"
     inkscape:connector-curvature="0"
     style="fill:none;stroke:#000000;stroke-width:0.09882364;stroke-linecap:square;stroke-miterlimit:10" />
  <path
     id="path125"
     d="m 10.760574,22.429929 c -0.02012,0.147517 0.02165,0.373644 -0.180937,0.361964 0.03153,-0.210404 0.08328,-0.435902 0.165934,-0.633459 0.0049,0.09074 0.01,0.181476 0.015,0.271316"
     inkscape:connector-curvature="0" />
  <path
     id="path133"
     d="m 11.197913,22.520667 c 0.01446,-0.317673 0.02893,-0.635346 0.04339,-0.953019 0.0203,-0.446503 0.0034,-0.374721 -0.450636,-0.404188 -0.0092,0.271405 -0.01824,0.542631 -0.0274,0.814037 -0.0055,0.162071 0.09191,0.601836 -0.168539,0.528257 0.01905,-0.448569 0.03818,-0.897139 0.05732,-1.345798 0.01141,-0.267812 0.405716,-0.130807 0.618995,-0.120116 0.213549,0.01069 0.132693,0.207799 0.123709,0.417755 -0.0084,0.196748 0.07349,1.191274 -0.196839,1.063701"
     inkscape:connector-curvature="0"
     style="fill:#c1d8f1" />
  <path
     id="path135"
     d="m 11.197913,22.520667 c 0.01446,-0.317673 0.02893,-0.635346 0.04339,-0.953019 0.0203,-0.446503 0.0034,-0.374721 -0.450636,-0.404188 -0.0092,0.271405 -0.01824,0.542631 -0.0274,0.814037 -0.0055,0.162071 0.09191,0.601836 -0.168539,0.528257 0.01842,-0.43141 0.03674,-0.86282 0.05507,-1.29414 0.0133,-0.312103 0.265206,-0.189562 0.553592,-0.175188 0.256133,0.01294 0.205912,0.0769 0.194682,0.340852 -0.01159,0.273113 -0.02327,0.546315 -0.03495,0.819517 -0.0066,0.152728 0.06352,0.404908 -0.165305,0.339145"
     stroke-miterlimit="10"
     inkscape:connector-curvature="0"
     style="fill:none;stroke:#000000;stroke-width:0.09882364;stroke-linecap:square;stroke-miterlimit:10" />
  <path
     id="path145"
     d="m 11.077259,22.354464 c -0.01294,0.387658 -0.02578,0.775316 -0.03872,1.162975 -0.01087,0.327016 -0.0619,0.254336 -0.40347,0.245801 -0.302939,-0.0076 -0.28569,0.01015 -0.273023,-0.273652 0.01716,-0.383435 0.03441,-0.766781 0.05157,-1.150217 0.199175,0.0099 0.495376,0.06558 0.663646,0.01527"
     inkscape:connector-curvature="0"
     style="fill:#bf7242" />
  <path
     id="path147"
     d="m 11.047073,23.018379 c 0.005,-0.09056 0.01,-0.181117 0.015,-0.271585 -0.173391,-0.0079 -0.346781,-0.01572 -0.520172,-0.02363 -0.209775,-0.0094 -0.147966,0.08095 -0.158477,0.28012 0.199175,0.0081 0.495376,0.06379 0.663646,0.01437"
     inkscape:connector-curvature="0"
     style="fill:#84442f" />
  <path
     id="path149"
     d="m 11.062076,22.475748 c 0.005,-0.03531 0.01015,-0.07043 0.01518,-0.105742 -0.163059,-0.0074 -0.702187,-0.138353 -0.678649,0.09065 0.192077,0.0081 0.540116,0.0548 0.663466,0.01527"
     inkscape:connector-curvature="0"
     style="fill:#84442f" />
  <path
     id="path151"
     d="m 12.465012,22.415555 c -0.015,0.449468 -0.03001,0.898846 -0.04501,1.348314 -0.005,0.152278 -0.577041,0.05238 -0.698863,0.04824 -0.116522,-0.004 -0.80155,0.06136 -0.794003,-0.108706 0.01994,-0.449378 0.03989,-0.898846 0.05992,-1.348224 0.387209,0.01887 1.18229,0.19046 1.477862,0.06019"
     inkscape:connector-curvature="0"
     style="fill:#ffc461" />
  <path
     id="path153"
     d="m 12.434467,23.078572 c 0.005,-0.0955 0.01006,-0.191089 0.01509,-0.286589 -0.3254,-0.01321 -0.650799,-0.02659 -0.976108,-0.0398 -0.383077,-0.01572 -0.495915,-0.132783 -0.516848,0.266105 0.492501,0.01976 0.985182,0.04043 1.477683,0.06019"
     inkscape:connector-curvature="0"
     style="fill:#e3622d" />
  <path
     id="path155"
     d="m 12.449739,22.53594 c 0.005,-0.04016 0.01006,-0.0805 0.01509,-0.120655 l -1.478043,-0.06037 c -0.03971,0.22999 0.52682,0.147697 0.690867,0.155962 0.198007,0.009 0.642534,0.08355 0.771903,0.02426"
     inkscape:connector-curvature="0"
     style="fill:#e3622d" />
  <path
     id="path157"
     d="m 10.338238,23.787407 c 0.053,-0.351812 0.04231,-0.718897 0.05839,-1.073674 0.0027,-0.05831 -0.0256,-0.329981 0.01698,-0.373913 0.05462,-0.05642 0.4651,0.01222 0.553413,0.01446 0.335281,0.0088 0.670832,0.03342 1.005844,0.05031 0.3758,0.01905 0.512176,-0.09218 0.495017,0.291709 -0.01446,0.320728 0.04995,0.770375 -0.04842,1.076189 -0.06621,0.206003 -0.06262,0.166922 -0.30258,0.157489 -0.259277,-0.01024 -1.709828,0.07493 -1.763373,-0.142485"
     stroke-miterlimit="10"
     inkscape:connector-curvature="0"
     style="fill:none;stroke:#000000;stroke-width:0.11679157;stroke-linecap:square;stroke-miterlimit:10" />
  <path
     id="path159"
     d="m 10.745571,21.193736 c -0.364929,-0.57722 -0.729858,-1.15435 -1.0947865,-1.73148 -0.043572,-0.06891 -0.5656305,-0.827154 -0.2775147,-0.666431 0.1449114,0.08086 0.2969201,0.469592 0.3831662,0.605968 0.2371767,0.375171 0.474353,0.750431 0.71153,1.125512 0.07879,0.124607 0.382717,0.45369 0.383166,0.605968 3.6e-4,0.106011 -0.04753,0.101519 -0.105561,0.0593"
     inkscape:connector-curvature="0" />
  <path
     id="path161"
     d="m 11.213007,21.148816 0.826614,-1.876661 c 0.0318,-0.07205 0.359,-0.911334 0.410029,-0.626722 0.02084,0.116432 -0.219029,0.487111 -0.266195,0.596446 -0.176266,0.408052 -0.352531,0.816103 -0.528797,1.224245 -0.10637,0.246251 -0.21274,0.492411 -0.31911,0.738752 -0.05336,0.122182 -0.122002,-0.03773 -0.122901,-0.0557"
     inkscape:connector-curvature="0" />
  <path
     id="path163"
     d="m 12.223343,0.08096401 c 1.386855,-0.15182904 2.026244,1.51182199 2.145731,2.64820399 0.07708,0.7330018 0.127303,1.448485 0.150931,2.1850804 0.0094,0.2977287 0.05552,0.7045227 -0.01923,0.972784 -0.682332,-0.4571941 -1.964075,-0.4786658 -2.714506,-0.1508408 -0.112928,-0.7524971 0.008,-1.6234927 0.06109,-2.3848839 0.03962,-0.5697632 0.08292,-1.1370109 0.153896,-1.7038992 0.05857,-0.4683342 0.289463,-1.11482047 0.222083,-1.56644449"
     inkscape:connector-curvature="0"
     style="fill:#ffa300" />
  <path
     id="path165"
     d="m 12.208071,5.0272667 c 0.03611,-1.6447847 0.120565,-3.3237982 0.407063,-4.94630269 1.317679,0.20681092 1.609298,1.85312289 1.785833,2.93308559 0.103765,0.6345375 0.105472,1.2895586 0.121643,1.9305646 0.0073,0.2888346 0.05004,0.9883154 -0.02219,1.2475029 C 13.946648,5.732677 12.871447,5.5062918 12.208071,5.615447 c 8.98e-4,-0.1960301 8.98e-4,-0.3921501 8.98e-4,-0.5881803"
     inkscape:connector-curvature="0"
     style="fill:#ffd900"
     sodipodi:nodetypes="ccccccc" />
  <path
     id="path167"
     d="m 9.4486453,19.187616 c 0.2163339,0.214986 0.5879107,0.273741 0.8741397,0.339863 0.215346,0.04986 0.889054,0.292428 0.769567,-0.05336 -0.138263,-0.400146 -1.6232233,-0.844493 -1.6437067,-0.271405"
     stroke-miterlimit="10"
     inkscape:connector-curvature="0"
     style="fill:none;stroke:#000000;stroke-width:0.24256711;stroke-linecap:square;stroke-miterlimit:10" />
  <path
     id="path169"
     d="m 9.4486453,19.187616 c 0.2163339,0.214986 0.5879107,0.273741 0.8741397,0.339863 0.215346,0.04986 0.889054,0.292428 0.769567,-0.05336 -0.15695,-0.45369 -1.7058758,-0.743872 -1.6437067,-0.286588"
     inkscape:connector-curvature="0"
     style="fill:#ffd900;fill-opacity:1" />
  <path
     id="path171"
     d="M 9.4486453,19.187616 C 8.1713947,17.378514 6.9305292,15.552074 5.7454541,13.681252 4.6543513,11.959026 3.4336099,9.8927137 3.173524,7.8417639 2.9011301,5.6940568 3.6462604,3.3929933 5.4516784,2.1123288 5.8671868,1.8175648 6.355735,1.661154 6.781575,1.3901077 7.1496481,1.1558058 7.5308378,0.89697773 7.970603,0.81980546 8.1216235,0.79330275 8.1626802,0.81890706 8.3023809,0.75952304 8.4077629,0.71469304 8.4987705,0.64075499 8.6039727,0.59358917 8.7947922,0.50815164 8.991541,0.47032914 9.192153,0.4201986 9.3066088,0.3916296 9.4116313,0.397559 9.5238411,0.397559 c 0.2038462,0 0.2822762,-0.0309947 0.4825289,-0.10556161 0.304916,-0.11346751 0.604531,-0.12065468 0.919958,-0.12065468 0.194683,0 0.238165,0.047615 0.422247,0 0.230438,-0.0595637 0.456385,-0.16207077 0.701198,-0.11310815 0.382627,0.0765434 0.729858,-0.03467811 1.094517,0.19297561 0.178961,0.11185039 0.612257,5.3904e-4 0.850961,0.0483338 0.178152,0.0355765 0.327915,0.0849883 0.490076,0.16584403 0.197647,0.098644 0.252359,0.082922 0.452342,0.0980151 0.332856,0.0250653 0.637054,0.14527074 0.935052,0.29404524 0.109245,0.0545327 0.195671,0.1256857 0.294045,0.19603016 0.100531,0.071782 0.224779,0.017339 0.339235,0.060372 0.221365,0.083192 0.415957,0.1710547 0.618276,0.2940452 0.209147,0.127213 0.39772,0.2683511 0.58818,0.4222465 0.206362,0.1666526 0.434824,0.2346612 0.658885,0.376518 2.003873,1.2690752 2.541474,3.3674604 2.508323,5.6141709 -0.01518,1.0278556 -0.580274,2.1121306 -1.040613,3.0015439 -0.511187,0.987607 -1.102422,1.920143 -1.723484,2.841449 -1.047351,1.553777 -2.202599,3.042869 -3.381296,4.498811 -0.318212,0.392869 -0.630854,0.789152 -0.941879,1.18786 -0.15129,0.193874 -0.746837,0.04223 -0.96946,0.03046 -1.124792,-0.05929 -2.249675,-0.118679 -3.3744674,-0.178063"
     stroke-miterlimit="10"
     inkscape:connector-curvature="0"
     style="fill:none;stroke:#000000;stroke-width:0.08983967;stroke-linecap:square;stroke-miterlimit:10" />
  <path
     id="path173"
     d="m 13.746126,19.384365 c -0.374991,0.480372 -0.749982,0.960565 -1.124883,1.440938 -0.05408,0.06918 -0.253707,0.418114 -0.348847,0.412005 -0.394756,-0.02533 -0.419731,1.79e-4 -0.589618,-0.339504 -0.457374,-0.914389 -1.179774,-1.656644 -2.2345819,-1.694556 0.345703,-0.79562 4.4110379,-0.576142 4.3129329,0.181206"
     stroke-miterlimit="10"
     inkscape:connector-curvature="0"
     style="fill:none;stroke:#000000;stroke-width:0.08983967;stroke-linecap:square;stroke-miterlimit:10" />
  <path
     id="path175"
     d="m 13.746126,19.384365 c -0.652685,-0.478756 -1.868755,-0.407423 -2.63904,-0.407423 -0.445695,0 -0.905135,-0.01518 -1.3404083,0.09397 -0.2227125,0.05579 -0.2760773,0.192796 -0.4162272,-0.0079 C 9.1970942,18.84335 9.0436481,18.623692 8.8902917,18.404034 9.2367135,18.17099 9.7602093,18.161467 10.16305,18.142241 c 0.491333,-0.02336 0.98051,-0.03495 1.471933,-0.0097 0.809456,0.0415 2.037115,-0.0031 2.714506,0.512804 -0.19612,0.246341 -0.39206,0.492681 -0.58818,0.739111"
     stroke-miterlimit="10"
     inkscape:connector-curvature="0"
     style="fill:none;stroke:#000000;stroke-width:0.08983967;stroke-linecap:square;stroke-miterlimit:10" />
</svg>
