<?xml version="1.0" encoding="UTF-8" standalone="no"?>
<svg xmlns="http://www.w3.org/2000/svg" xmlns:sodipodi="http://sodipodi.sourceforge.net/DTD/sodipodi-0.dtd" xmlns:inkscape="http://www.inkscape.org/namespaces/inkscape" width="24" height="24" viewBox="0 0 19.2 19.2" version="1.1">
 <metadata id="metadata28"/>
 <defs id="defs4">
  <clipPath id="clip0">
   <rect width="613" height="614" id="rect7"/>
  </clipPath>
 </defs>
 <path inkscape:connector-curvature="0" id="path14" d="M 1.604758,0.06952736 C 1.7625114,0.04362326 1.9223224,0.02981971 2.0821728,0.02733721 7.0737472,0.02752566 12.065322,0.02782914 17.0569,0.02718512 c 0.539089,0.0028419 1.115964,0.13308216 1.511562,0.5226716 0.415734,0.39426025 0.56682,0.98697028 0.580152,1.54299378 -5.66e-4,5.0698973 3.59e-4,10.1398085 -4.63e-4,15.2097015 -0.01933,0.51838 -0.17125,1.065417 -0.5621,1.428542 -0.389149,0.368051 -0.942727,0.487456 -1.463001,0.496275 -5.047611,-9.9e-5 -10.0952288,-6.6e-5 -15.1428377,-2.6e-5 -0.5493575,-0.0078 -1.13492185,-0.162009 -1.51608879,-0.581107 -0.37358438,-0.404708 -0.48755143,-0.974179 -0.4907003,-1.508866 -1.161e-5,-4.970902 -1.461e-5,-9.9418123 2.01e-6,-14.9127118 C -0.0233684,1.7214326 0.06661653,1.1952838 0.36990312,0.78057058 0.65440497,0.37793323 1.1263722,0.1454494 1.604758,0.06952736 z m 0,0" fill="none" stroke="#000000" stroke-width="0.003" stroke-miterlimit="10"/>
 <path inkscape:connector-curvature="0" id="path16" d="M 1.633454,0.0422503 C 1.7914115,0.0163462 1.9514292,0.00254265 2.1114863,6.015e-5 7.1095164,2.486e-4 12.107547,5.5208e-4 17.10558,-9.194e-5 c 0.539787,0.0028419 1.117408,0.13308216 1.513517,0.5226716 C 19.035369,0.91683991 19.18665,1.5095499 19.2,2.0655734 c -5.67e-4,5.0698973 3.59e-4,10.1398086 -4.64e-4,15.2097016 -0.01936,0.51838 -0.171471,1.065417 -0.562827,1.428542 -0.389652,0.368051 -0.943946,0.487456 -1.464893,0.496275 -5.054139,-9.9e-5 -10.108285,-6.6e-5 -15.1624221,-2.6e-5 C 1.4593259,19.192266 0.87300425,19.038057 0.49134434,18.618959 0.1172768,18.214251 0.00316235,17.64478 9.4079049e-6,17.110093 c -1.162e-5,-4.970902 -1.463e-5,-9.9418124 2.0100001e-6,-14.9127119 C 0.00322195,1.6941555 0.09332326,1.1680067 0.3970021,0.75329352 0.6818719,0.35065617 1.1544495,0.11817234 1.633454,0.0422503 z m 0,0" fill="#000080"/>
 <g id="g2994" transform="translate(1.0060726,0.07373165)">
  <path d="m 3.4728087,2.0010816 c 0.00138,-0.1708048 0.1709478,-0.3110212 0.3391428,-0.2812512 0.1545729,0.013421 0.2646869,0.1615458 0.2629,0.3112065 0.00107,1.1646728 -1.653e-4,2.3293977 5.952e-4,3.4940983 0.1625127,-1.985e-4 0.3250499,2.313e-4 0.4876223,-2.976e-4 1.323e-4,-1.1852932 -0.00133,-2.3706502 6.976e-4,-3.5558917 0.011179,-0.1979393 0.2603406,-0.3076961 0.4252605,-0.2117066 0.1143448,0.052513 0.154541,0.1864385 0.1521275,0.3033371 8.728e-4,1.1548519 -1.322e-4,2.3097353 4.86e-4,3.4646067 0.165158,-1.653e-4 0.3303424,-1.653e-4 0.4955685,3.6e-6 3.669e-4,-1.1667829 9.91e-5,-2.3335686 9.91e-5,-3.5003379 -0.010748,-0.1518673 0.1086753,-0.3020027 0.2646061,-0.3078944 0.1575032,-0.01787 0.2981664,0.1214766 0.2968879,0.2766415 0.00152,1.1771637 -6.61e-5,2.3543938 7.638e-4,3.5315901 0.1679247,-1.652e-4 0.3358812,-9.91e-5 0.5038824,-6.6e-5 5.388e-4,-1.1766086 -3.307e-4,-2.353235 4.067e-4,-3.5298205 -0.00646,-0.1540869 0.1400726,-0.2841741 0.2911416,-0.2736707 0.1641936,-0.011239 0.3002875,0.1412094 0.2942986,0.3008784 0.00258,1.5892636 3.305e-4,3.178635 0.00112,4.767939 0.00363,0.5639413 -0.4984761,1.0809111 -1.0662497,1.0758746 -1.653e-4,2.8711612 2.975e-4,5.7423332 -2.316e-4,8.6134912 -0.00631,0.267496 -0.1202482,0.544438 -0.3442624,0.701187 -0.249048,0.185615 -0.6036462,0.205261 -0.8768842,0.06146 C 4.7235476,17.100228 4.5631771,16.7859 4.5624825,16.478971 4.5633587,13.608156 4.5624164,10.737345 4.5629487,7.8665346 4.2845706,7.8656124 4.0032698,7.7635043 3.8046501,7.5654307 3.5846567,7.3591136 3.4706267,7.0554499 3.4714678,6.7565577 c 0.00149,-1.5851483 -0.00116,-3.1703581 0.00132,-4.7554619 z m 0,0" id="path18" inkscape:connector-curvature="0" fill="none" stroke="#ffffff" stroke-width="0.003" stroke-miterlimit="10"/>
  <path d="m 3.4728087,2.0010816 c 0.00138,-0.1708048 0.1709478,-0.3110212 0.3391428,-0.2812512 0.1545729,0.013421 0.2646869,0.1615458 0.2629,0.3112065 0.00107,1.1646728 -1.653e-4,2.3293977 5.952e-4,3.4940983 0.1625127,-1.985e-4 0.3250499,2.313e-4 0.4876223,-2.976e-4 1.323e-4,-1.1852932 -0.00133,-2.3706502 6.976e-4,-3.5558917 0.011179,-0.1979393 0.2603406,-0.3076961 0.4252605,-0.2117066 0.1143448,0.052513 0.154541,0.1864385 0.1521275,0.3033371 8.728e-4,1.1548519 -1.322e-4,2.3097353 4.86e-4,3.4646067 0.165158,-1.653e-4 0.3303424,-1.653e-4 0.4955685,3.6e-6 3.669e-4,-1.1667829 9.91e-5,-2.3335686 9.91e-5,-3.5003379 -0.010748,-0.1518673 0.1086753,-0.3020027 0.2646061,-0.3078944 0.1575032,-0.01787 0.2981664,0.1214766 0.2968879,0.2766415 0.00152,1.1771637 -6.61e-5,2.3543938 7.638e-4,3.5315901 0.1679247,-1.652e-4 0.3358812,-9.91e-5 0.5038824,-6.6e-5 5.388e-4,-1.1766086 -3.307e-4,-2.353235 4.067e-4,-3.5298205 -0.00646,-0.1540869 0.1400726,-0.2841741 0.2911416,-0.2736707 0.1641936,-0.011239 0.3002875,0.1412094 0.2942986,0.3008784 0.00258,1.5892636 3.305e-4,3.178635 0.00112,4.767939 0.00363,0.5639413 -0.4984761,1.0809111 -1.0662497,1.0758746 -1.653e-4,2.8711612 2.975e-4,5.7423332 -2.316e-4,8.6134912 -0.00631,0.267496 -0.1202482,0.544438 -0.3442624,0.701187 -0.249048,0.185615 -0.6036462,0.205261 -0.8768842,0.06146 C 4.7235476,17.100228 4.5631771,16.7859 4.5624825,16.478971 4.5633587,13.608156 4.5624164,10.737345 4.5629487,7.8665346 4.2845706,7.8656124 4.0032698,7.7635043 3.8046501,7.5654307 3.5846567,7.3591136 3.4706267,7.0554499 3.4714678,6.7565577 c 0.00149,-1.5851483 -0.00116,-3.1703581 0.00132,-4.7554619 z m 0,0" id="path20" inkscape:connector-curvature="0" fill="#ffffff"/>
  <path d="m 11.578286,2.0708961 c 0.38596,-0.3710011 1.014634,-0.4386066 1.478693,-0.1777347 0.288585,0.1579719 0.4998,0.4403753 0.589571,0.755071 0.06485,0.2206266 0.07062,0.4527967 0.06977,0.6811213 -5.62e-4,4.3532356 4.04e-4,8.7064793 -4.8e-4,13.0597113 0.0012,0.256899 -0.06735,0.530945 -0.263201,0.70989 -0.324777,0.313029 -0.906566,0.283913 -1.198022,-0.06072 -0.139638,-0.159969 -0.207469,-0.373875 -0.208181,-0.584304 2.31e-4,-1.765608 1.66e-4,-3.53121 3.3e-5,-5.296808 -0.294772,-1.65e-4 -0.589506,6.7e-5 -0.88422,-9.8e-5 4.6e-4,-2.676446 -10e-4,-5.3529103 7.43e-4,-8.0293333 0.0029,-0.3860244 0.125432,-0.7888934 0.415297,-1.0567865 z m 0,0" id="path22" inkscape:connector-curvature="0" fill="none" stroke="#ffffff" stroke-width="0.003" stroke-miterlimit="10"/>
  <path d="m 11.578286,2.0708961 c 0.38596,-0.3710011 1.014634,-0.4386066 1.478693,-0.1777347 0.288585,0.1579719 0.4998,0.4403753 0.589571,0.755071 0.06485,0.2206266 0.07062,0.4527967 0.06977,0.6811213 -5.62e-4,4.3532356 4.04e-4,8.7064793 -4.8e-4,13.0597113 0.0012,0.256899 -0.06735,0.530945 -0.263201,0.70989 -0.324777,0.313029 -0.906566,0.283913 -1.198022,-0.06072 -0.139638,-0.159969 -0.207469,-0.373875 -0.208181,-0.584304 2.31e-4,-1.765608 1.66e-4,-3.53121 3.3e-5,-5.296808 -0.294772,-1.65e-4 -0.589506,6.7e-5 -0.88422,-9.8e-5 4.6e-4,-2.676446 -10e-4,-5.3529103 7.43e-4,-8.0293333 0.0029,-0.3860244 0.125432,-0.7888934 0.415297,-1.0567865 z m 0,0" id="path24" inkscape:connector-curvature="0" fill="#ffffff"/>
 </g>
</svg>
