<?xml version="1.0" encoding="UTF-8" standalone="no"?>
<svg xmlns="http://www.w3.org/2000/svg" xmlns:sodipodi="http://sodipodi.sourceforge.net/DTD/sodipodi-0.dtd" xmlns:inkscape="http://www.inkscape.org/namespaces/inkscape" width="24" height="24" version="1.1">
 <metadata id="metadata3001"/>
 <g inkscape:label="Layer 1" inkscape:groupmode="layer" id="layer1" transform="translate(0,-1028.3622)">
  <g id="g3013" transform="translate(-528,648.00002)">
   <g transform="matrix(0.05291658,0,0,0.05291658,518.73976,375.22261)" id="layer1-1">
    <path inkscape:connector-curvature="0" d="m 287.44,286.58 c 8.8583,-0.0756 18.161,1.2414 27.843,4.3505 23.639,7.5916 49.437,23.77 72.544,46.876 22.316,22.316 38.195,47.044 46.114,70.042 3.5848,10.411 5.3257,20.665 5.3294,30.127 34.464,-34.381 74.719,-74.501 74.719,-74.501 8.8046,-8.8046 10.662,-25.016 4.0244,-45.788 -6.6374,-20.772 -21.622,-44.897 -43.287,-66.562 -21.664,-21.665 -45.789,-36.649 -66.561,-43.287 -20.772,-6.6373 -36.984,-4.7803 -45.788,4.0241 a 7.3368,7.3368 0 0 1 -0.32655,0.32655 c 1.5e-4,-3.8e-4 -0.15572,-0.0378 -0.32656,0.10658 a 7.3368,7.3368 0 0 1 -0.10733,0.10809 c -0.0755,0.0755 -0.23434,0.23735 -0.3258,0.32655 a 7.3368,7.3368 0 0 1 -0.10734,0.10734 c -0.0227,0.0227 -0.0755,0.0907 -0.10734,0.10734 -0.27741,0.27062 -0.46261,0.46942 -0.87004,0.87005 -1.3246,1.3035 -3.2358,3.2497 -5.7641,5.7642 -5.0603,5.0256 -12.407,12.42 -21.317,21.317 -11.973,11.959 -29.332,29.327 -45.679,45.68 z m -40.639,-122.78 -33.338,-33.338 33.338,-33.338 33.338,33.338 z m 38.467,38.467 -33.338,-33.338 33.338,-33.338 33.338,33.338 z m 38.467,38.467 -33.338,-33.338 33.338,-33.338 33.338,33.338 z m -115.4,-38.467 -33.338,-33.338 33.338,-33.338 33.338,33.338 z m 38.467,38.467 -33.338,-33.338 33.338,-33.338 33.338,33.338 z m 38.467,38.467 -33.338,-33.338 33.338,-33.338 33.338,33.338 z m 233,156.07 -33.338,-33.338 33.338,-33.338 33.338,33.338 z m 38.467,38.467 -33.338,-33.338 33.338,-33.338 33.338,33.338 z m 38.467,38.467 -33.338,-33.338 33.338,-33.338 33.338,33.338 z m -115.4,-38.467 -33.338,-33.338 33.338,-33.338 33.338,33.338 z m 38.467,38.467 -33.338,-33.338 33.338,-33.338 33.338,33.338 z m 38.467,38.467 -33.338,-33.338 33.338,-33.338 33.338,33.338 z m -26.89,-249.86 c 14.671,-18.593 23.601,-32.737 23.601,-32.737 6.0975,-9.8498 8.7897,-20.878 6.5255,-33.498 -2.2639,-12.621 -9.7854,-27.187 -25.667,-43.069 -15.989,-15.989 -29.977,-23.759 -42.199,-26.103 -12.222,-2.3439 -23.154,0.29026 -34.586,6.9608 a 8.7573,8.7573 0 0 1 -0.10733,0.10734 c -0.90581,0.51174 -0.23131,0.0975 -0.4354,0.21694 -0.20486,0.11566 -0.55106,0.2948 -0.97959,0.54275 -0.85462,0.49889 -2.117,1.2198 -3.8063,2.284 -3.3786,2.1287 -8.3084,5.4327 -14.574,10.006 -3.793,2.7685 -8.1932,6.2168 -12.943,10.115 20.824,8.7749 42.483,23.558 62.211,43.287 19.646,19.646 34.196,41.165 42.96,61.885 z m -243.08,138.23 c 15.825,15.825 27.262,20.215 35.673,20.012 8.2898,-0.19956 16.009,-4.9974 24.362,-13.269 0.18141,-0.20258 0.17082,-0.17235 0.32654,-0.32579 0.67351,-0.65991 1.1912,-1.0953 1.5228,-1.3049 0.81396,-0.51552 1.1331,-0.63722 1.4148,-0.75877 0.5639,-0.24415 0.87103,-0.43313 1.196,-0.54349 0.65234,-0.22073 1.3406,-0.40517 2.1753,-0.65311 1.67,-0.49361 3.9356,-1.1132 6.6343,-1.8491 5.3972,-1.4715 12.536,-3.2413 19.686,-5.1116 12.5,-3.2709 22.067,-5.7697 25.015,-6.5254 5.2003,-6.2337 6.9486,-16.641 2.8278,-30.888 -4.3795,-15.141 -14.954,-33.009 -30.779,-48.834 -15.825,-15.825 -33.693,-26.4 -48.834,-30.779 -14.246,-4.121 -24.654,-2.3723 -30.888,2.8278 -0.39307,1.4287 -0.92984,3.0175 -1.5226,5.2205 -1.4259,5.3024 -3.3261,12.432 -5.2202,19.577 -3.793,14.289 -7.613,28.713 -7.613,28.713 a 9.2981,9.2981 0 0 1 -2.3919,4.1331 c -8.4974,8.4974 -13.392,16.277 -13.595,24.689 -0.20259,8.4119 4.1869,19.848 20.012,35.673 z" id="path7145"/>
   </g>
  </g>
 </g>
</svg>
