<?xml version="1.0" encoding="UTF-8" standalone="no"?>
<svg xmlns="http://www.w3.org/2000/svg" xmlns:sodipodi="http://sodipodi.sourceforge.net/DTD/sodipodi-0.dtd" xmlns:inkscape="http://www.inkscape.org/namespaces/inkscape" width="24" height="24" version="1.1">
 <metadata id="metadata3212"/>
 <g inkscape:label="Layer 1" inkscape:groupmode="layer" id="layer1" transform="translate(0,-1028.3622)">
  <path inkscape:connector-curvature="0" d="m 21.848666,1037.81 c -0.04754,0 -0.09459,0 -0.141384,0.01 -0.595046,0.042 -1.128019,0.353 -1.445267,0.8491 -0.113582,0.1776 -0.355024,0.2328 -0.539319,0.1234 -0.120262,-0.071 -0.185965,-0.1951 -0.186049,-0.3217 0,-0.067 0.01833,-0.1361 0.05786,-0.1977 0.468357,-0.7325 1.267984,-1.1804 2.153812,-1.2119 -0.0751,-2.413 -2.088025,-4.3565 -4.590767,-4.4361 0.153072,0.4381 0.263023,0.8963 0.323926,1.3704 0.02659,0.207 -0.126022,0.3955 -0.340873,0.4211 -0.0039,5e-4 -0.0078,3e-4 -0.01169,7e-4 -0.01235,0 -0.02476,0 -0.03689,0 -0.195024,0 -0.363998,-0.14 -0.388586,-0.3312 -0.06361,-0.4955 -0.187092,-0.9716 -0.362621,-1.4222 -0.401817,-1.0318 -1.077428,-1.9286 -1.937,-2.6149 -0.116838,-0.094 -0.237099,-0.1827 -0.360492,-0.2679 -1.070832,-0.7401 -2.380518,-1.173 -3.782706,-1.173 -0.119803,0 -0.239021,0 -0.3575287,0.01 -0.6561161,0.035 -1.291486,0.1636 -1.8889949,0.3757 -1.5991734,0.5677 -2.9268503,1.7289 -3.6547644,3.2572 0.096301,-0.01 0.1932699,-0.01 0.2909068,-0.01 1.0312602,0 2.0260787,0.2927 2.8769675,0.8467 0.1119965,0.073 0.1723986,0.1918 0.1725238,0.3127 8.34e-5,0.073 -0.021706,0.1467 -0.067207,0.2116 -0.1212216,0.1728 -0.3648754,0.2182 -0.5442449,0.1013 -0.720776,-0.4692 -1.563817,-0.7171 -2.4379985,-0.7171 -0.2464505,0 -0.4881007,0.02 -0.723531,0.059 -0.068082,0.035 -0.1465595,0.051 -0.2260382,0.042 -0.02776,0.01 -0.055434,0.013 -0.082985,0.018 -1.9077792,0.448 -3.32820921,2.1078 -3.32820921,4.0817 0,4e-4 -4.175e-5,8e-4 -4.175e-5,0 7.0964e-4,2.528 2.12830736,4.5773 4.75285526,4.5773 l 11.9555222,0 4.4589,0 c 1.24461,0 2.253787,-0.9722 2.253787,-2.1714 0,-0.989 -0.835276,-1.7936 -1.861861,-1.7936 z" id="path3614" fill="#b3b3b3" stroke="#808080" stroke-width="0.491"/>
  <g id="g3616" transform="matrix(0.04172682,0,0,0.04172682,-0.60141574,1027.4975)" stroke="#d45500" stroke-width="11.983">
   <path inkscape:connector-curvature="0" d="m 242.641,428.896 c -0.08,0 -54.669,1.311 -54.669,1.311 l 43.71,-62.555 c 0.465,-0.676 1.056,-1.586 1.671,-2.652 l -79.878,0 -48.62,102.676 c -1.449,3.059 -1.251,6.643 0.525,9.525 1.776,2.881 4.889,4.67 8.273,4.75 l 42.474,1.021 -53.1,90.703 c -2.461,4.193 -1.66,9.635 1.911,12.945 1.936,1.793 4.454,2.779 7.091,2.779 2.898,-0.002 5.689,-1.221 7.649,-3.338 l 130.29,-140.363 c 2.735,-2.947 3.439,-7.246 1.788,-10.91 -1.617,-3.593 -5.19,-5.892 -9.115,-5.892 z" id="path3618" fill="#ffdc21"/>
  </g>
  <g id="g3620" transform="matrix(0.04172682,0,0,0.04172682,-0.60141574,1027.4975)" stroke="#d45500" stroke-width="11.983">
   <path inkscape:connector-curvature="0" d="m 480.641,428.896 c -0.08,0 -54.669,1.311 -54.669,1.311 l 43.71,-62.555 c 0.465,-0.676 1.057,-1.586 1.672,-2.652 l -79.879,0 -48.62,102.676 c -1.448,3.059 -1.251,6.643 0.524,9.525 1.776,2.881 4.89,4.67 8.273,4.75 l 42.475,1.021 -53.1,90.703 c -2.462,4.193 -1.66,9.635 1.91,12.945 1.936,1.793 4.455,2.779 7.092,2.779 2.898,-0.002 5.689,-1.221 7.649,-3.338 l 130.29,-140.363 c 2.735,-2.947 3.439,-7.246 1.788,-10.91 -1.617,-3.593 -5.19,-5.892 -9.115,-5.892 z" id="path3622" fill="#ffdc21"/>
  </g>
 </g>
</svg>
