<?xml version="1.0" encoding="UTF-8" standalone="no"?>
<svg xmlns="http://www.w3.org/2000/svg" xmlns:sodipodi="http://sodipodi.sourceforge.net/DTD/sodipodi-0.dtd" xmlns:inkscape="http://www.inkscape.org/namespaces/inkscape" version="1.0" width="24" height="24">
 <metadata id="metadata16"/>
 <path inkscape:connector-curvature="0" id="path1966" d="m 22.800572,8.2688913 0.01595,-0.7329406 c -0.0157,-0.049247 -0.02412,-0.1057818 -0.09126,-0.1035977 L 1.8714751,7.4189727 C 0.92545083,7.6072532 0.73794541,10.068642 0.24866478,11.442638 l 0,2.980094 c 0.23834022,0.560104 0.4957278,0.605926 0.7512842,0.701199 l 3.10530832,-0.02505 c 0,-2.707608 4.1070207,-2.692523 4.1070207,0 l 8.339255,0 c 0,-2.697709 4.006849,-2.698447 4.006849,0 l 2.879923,0 c 0.136502,-0.04003 0.229533,-0.167006 0.313035,-0.313035 L 23.717887,12.11382 22.498519,8.5944457 c -0.04247,-0.2337777 0.201264,-0.2171274 0.30205,-0.3255564 z" fill="#ffcc00" fill-rule="evenodd" stroke="#000000" stroke-width="0.497"/>
 <path inkscape:connector-curvature="0" id="path2856" d="m 4.6644943,15.108229 a 1.4907993,1.4904321 0 1 0 2.9815985,0 1.4907993,1.4904321 0 1 0 -2.9815985,0 z"/>
 <path inkscape:connector-curvature="0" id="path3745" d="m 17.049313,15.117691 a 1.4907998,1.4907998 0 0 0 2.981599,0 1.4907998,1.4907998 0 1 0 -2.981599,0 z"/>
 <path inkscape:connector-curvature="0" id="path3747" d="M 5.2756717,8.7631877 4.5560579,11.216442 c -0.042363,0.10005 -0.083941,0.200711 -0.2011915,0.242515 l -2.4948567,-0.0061 C 1.7604904,11.366142 1.6579002,11.285068 1.6422613,11.106107 L 2.3490748,8.6534092 C 2.40683,8.4599115 2.486435,8.4047941 2.5694668,8.3713791 l 2.5425805,0.0032 c 0.1239524,0.074007 0.1674796,0.2123551 0.1636244,0.3886085 z" fill="#cccccc" fill-rule="evenodd" stroke="#000000" stroke-width="0.397"/>
 <path inkscape:connector-curvature="0" id="path4634" d="M 9.5750061,8.7585694 8.8553922,11.211823 c -0.042364,0.100051 -0.083941,0.200712 -0.2011914,0.242516 l -2.4948567,-0.0062 C 6.0598247,11.361523 5.9572344,11.28045 5.9415956,11.101488 L 6.648409,8.6487909 C 6.7061646,8.4552932 6.7857693,8.4001758 6.8688011,8.3667608 l 2.5425806,0.0032 c 0.1239523,0.074007 0.1674795,0.2123551 0.1636244,0.3886084 z" fill="#cccccc" fill-rule="evenodd" stroke="#000000" stroke-width="0.397"/>
 <path inkscape:connector-curvature="0" id="path4636" d="m 13.874341,8.7585691 -0.719614,2.4532539 c -0.04236,0.100051 -0.08394,0.200712 -0.201191,0.242516 l -2.494858,-0.0062 c -0.09952,-0.08666 -0.20211,-0.167727 -0.217748,-0.346689 l 0.706813,-2.4526973 c 0.05775,-0.1934977 0.13736,-0.2486152 0.220393,-0.2820302 l 2.542581,0.0032 c 0.123952,0.074007 0.167479,0.2123552 0.163624,0.3886085 z" fill="#cccccc" fill-rule="evenodd" stroke="#000000" stroke-width="0.397"/>
 <path inkscape:connector-curvature="0" id="path4640" d="m 17.87754,8.587075 4.22e-4,2.638863 c -0.04237,0.10005 -0.115944,0.194311 -0.233194,0.236115 l -2.590861,-0.0093 c -0.09952,-0.0867 -0.20211,-0.167767 -0.217748,-0.346728 L 15.542973,8.6533051 C 15.600726,8.4598074 15.680333,8.40469 15.763364,8.371275 l 1.921751,-0.0032 c 0.123952,0.074007 0.151479,0.074749 0.192425,0.2190002 z" fill="#cccccc" fill-rule="evenodd" stroke="#000000" stroke-width="0.397"/>
 <path inkscape:connector-curvature="0" id="path4642" d="M 18.9754,8.6678402 18.98,11.22066 c 0.04237,0.100049 0.08394,0.20071 0.201191,0.242515 l 2.93385,-0.01518 c 0.09952,-0.08669 0.20211,-0.167768 0.217748,-0.346728 L 21.453952,8.6576271 C 21.396196,8.4641294 21.316592,8.409012 21.23356,8.375597 l -2.094536,0.00772 c -0.123952,0.07401 -0.167479,0.1082663 -0.163624,0.2845197 z" fill="#cccccc" fill-rule="evenodd" stroke="#000000" stroke-width="0.397"/>
</svg>
