<?xml version="1.0" encoding="UTF-8" standalone="no"?>
<svg xmlns="http://www.w3.org/2000/svg" xmlns:sodipodi="http://sodipodi.sourceforge.net/DTD/sodipodi-0.dtd" xmlns:inkscape="http://www.inkscape.org/namespaces/inkscape" width="24" height="24" version="1.1">
 <metadata id="metadata3050"/>
 <g inkscape:label="Layer 1" inkscape:groupmode="layer" id="layer1" transform="translate(0,-1028.3622)">
  <switch transform="matrix(0.0408403,0,0,0.0408403,-0.20169302,1028.1994)" id="switch3786">
   <g id="g3790">
    <g id="g3792">
     <circle cx="298.49" cy="306.12" r="216.75" id="circle3794" fill="#ffaa00"/>
     <g id="g3796">
      <g id="g3798">
       <path inkscape:connector-curvature="0" d="m 339.642,72.042 c -0.225,0 -0.451,-0.019 -0.677,-0.058 -13.323,-2.287 -26.942,-3.446 -40.478,-3.446 -12.325,0 -24.765,0.969 -36.975,2.879 -0.207,0.033 -0.414,0.048 -0.619,0.048 -1.305,0 -2.545,-0.64 -3.298,-1.737 -0.872,-1.271 -0.936,-2.928 -0.166,-4.263 l 26.545,-45.98 c 4.29,-7.429 10.016,-11.52 16.125,-11.52 6.11,0 11.836,4.091 16.126,11.52 l 26.879,46.556 c 0.775,1.343 0.704,3.014 -0.183,4.287 -0.754,1.085 -1.985,1.714 -3.279,1.714 z" id="path3800" fill="#ffaa00"/>
      </g>
      <g id="g3802">
       <path inkscape:connector-curvature="0" d="m 116.291,151.497 c -0.356,0 -0.716,-0.047 -1.07,-0.146 -1.485,-0.412 -2.602,-1.641 -2.87,-3.159 l -9.225,-52.317 c -1.279,-7.254 -0.111,-13.48 3.287,-17.53 2.774,-3.306 6.873,-5.053 11.852,-5.053 2.971,0 6.19,0.624 9.568,1.854 l 50.512,18.385 c 1.458,0.531 2.478,1.857 2.616,3.403 0.138,1.546 -0.63,3.032 -1.972,3.812 -22.481,13.09 -42.561,29.703 -59.682,49.377 -0.769,0.885 -1.876,1.374 -3.016,1.374 z" id="path3804" fill="#ffaa00"/>
      </g>
      <g id="g3806">
       <path inkscape:connector-curvature="0" d="m 56.946,305.711 c -0.924,0 -1.837,-0.319 -2.572,-0.936 L 13.69,270.639 C 7.119,265.123 4.084,258.773 5.145,252.757 6.206,246.741 11.23,241.812 19.291,238.878 l 50.482,-18.375 c 0.446,-0.163 0.909,-0.241 1.368,-0.241 1.041,0 2.062,0.406 2.825,1.167 1.099,1.096 1.465,2.729 0.938,4.189 -8.797,24.401 -13.495,50.026 -13.96,76.164 -0.027,1.541 -0.938,2.93 -2.341,3.568 -0.53,0.243 -1.095,0.361 -1.657,0.361 z" id="path3808" fill="#ffaa00"/>
      </g>
      <g id="g3810">
       <path inkscape:connector-curvature="0" d="m 57.515,462.003 c -8.579,0 -14.986,-2.914 -18.041,-8.204 -3.055,-5.291 -2.375,-12.297 1.915,-19.728 l 26.863,-46.524 c 0.718,-1.244 2.043,-2 3.463,-2 0.114,0 0.229,0.005 0.344,0.015 1.547,0.133 2.877,1.149 3.412,2.606 8.962,24.402 21.833,47.051 38.254,67.317 0.971,1.198 1.167,2.848 0.503,4.24 -0.664,1.392 -2.069,2.278 -3.611,2.278 l -53.102,0 z" id="path3812" fill="#ffaa00"/>
      </g>
      <g id="g3814">
       <path inkscape:connector-curvature="0" d="m 199.747,586.558 c -7.979,-10e-4 -14.094,-6.577 -15.961,-17.162 l -9.333,-52.934 c -0.27,-1.529 0.37,-3.077 1.642,-3.969 0.687,-0.482 1.491,-0.726 2.298,-0.726 0.686,0 1.374,0.177 1.993,0.532 22.592,12.986 46.999,22.081 72.543,27.031 1.514,0.293 2.725,1.431 3.111,2.924 0.386,1.493 -0.12,3.076 -1.301,4.067 l -40.646,34.104 c -4.781,4.013 -9.742,6.133 -14.346,6.133 10e-4,0 10e-4,0 0,0 z" id="path3816" fill="#ffaa00"/>
      </g>
      <g id="g3818">
       <path inkscape:connector-curvature="0" d="m 394.197,587.662 c -4.604,0 -9.564,-2.12 -14.343,-6.13 l -41.179,-34.556 c -1.189,-0.999 -1.693,-2.596 -1.293,-4.097 0.4,-1.5 1.634,-2.634 3.163,-2.906 25.633,-4.565 50.176,-13.286 72.947,-25.921 0.605,-0.336 1.274,-0.502 1.94,-0.502 0.817,0 1.631,0.25 2.322,0.743 1.256,0.896 1.885,2.433 1.617,3.951 l -9.215,52.253 c -1.865,10.588 -7.981,17.165 -15.959,17.165 z" id="path3820" fill="#ffaa00"/>
      </g>
      <g id="g3822">
       <path inkscape:connector-curvature="0" d="m 484.058,464.795 c -1.554,0 -2.966,-0.898 -3.624,-2.306 -0.657,-1.406 -0.441,-3.067 0.554,-4.259 16.732,-20.028 29.945,-42.48 39.271,-66.732 0.553,-1.438 1.884,-2.432 3.421,-2.552 0.104,-0.009 0.209,-0.013 0.313,-0.013 1.42,0 2.745,0.756 3.463,2 l 26.517,45.932 c 4.29,7.429 4.971,14.434 1.917,19.725 -3.056,5.291 -9.463,8.205 -18.043,8.205 h -53.789 z" id="path3824" fill="#ffaa00"/>
      </g>
      <g id="g3826">
       <path inkscape:connector-curvature="0" d="m 540.069,309.322 c -0.571,0 -1.146,-0.122 -1.684,-0.372 -1.408,-0.653 -2.311,-2.062 -2.315,-3.615 -0.084,-26.152 -4.398,-51.846 -12.821,-76.367 -0.501,-1.458 -0.12,-3.073 0.98,-4.153 0.761,-0.748 1.772,-1.146 2.803,-1.146 0.459,0 0.922,0.079 1.368,0.241 l 49.841,18.144 c 8.061,2.934 13.085,7.863 14.146,13.879 1.061,6.016 -1.974,12.367 -8.546,17.882 l -41.199,34.572 c -0.736,0.616 -1.65,0.935 -2.573,0.935 z" id="path3828" fill="#ffaa00"/>
      </g>
      <g id="g3830">
       <path inkscape:connector-curvature="0" d="m 483.04,154.215 c -1.16,0 -2.284,-0.506 -3.056,-1.419 -16.812,-19.901 -36.645,-36.804 -58.95,-50.239 -1.32,-0.795 -2.066,-2.278 -1.918,-3.812 0.149,-1.534 1.166,-2.846 2.614,-3.373 L 471.611,77.22 c 3.377,-1.229 6.596,-1.853 9.566,-1.853 4.98,0 9.08,1.748 11.854,5.056 3.398,4.051 4.564,10.276 3.284,17.528 l -9.337,52.959 c -0.27,1.529 -1.399,2.764 -2.897,3.167 -0.345,0.093 -0.694,0.138 -1.041,0.138 z" id="path3832" fill="#ffaa00"/>
      </g>
     </g>
    </g>
   </g>
  </switch>
 </g>
</svg>
