<?xml version="1.0" encoding="UTF-8" standalone="no"?>
<svg
   xmlns:dc="http://purl.org/dc/elements/1.1/"
   xmlns:cc="http://creativecommons.org/ns#"
   xmlns:rdf="http://www.w3.org/1999/02/22-rdf-syntax-ns#"
   xmlns:svg="http://www.w3.org/2000/svg"
   xmlns="http://www.w3.org/2000/svg"
   xmlns:sodipodi="http://sodipodi.sourceforge.net/DTD/sodipodi-0.dtd"
   xmlns:inkscape="http://www.inkscape.org/namespaces/inkscape"
   version="1.1"
   width="24"
   height="24"
   viewBox="0 0 24 24"
   id="svg2"
   inkscape:version="0.91 r13725"
   sodipodi:docname="88-1.svg">
  <defs
     id="defs9" />
  <sodipodi:namedview
     pagecolor="#ffffff"
     bordercolor="#666666"
     borderopacity="1"
     objecttolerance="10"
     gridtolerance="10"
     guidetolerance="10"
     inkscape:pageopacity="0"
     inkscape:pageshadow="2"
     inkscape:window-width="1875"
     inkscape:window-height="1056"
     id="namedview7"
     showgrid="false"
     inkscape:zoom="22.627417"
     inkscape:cx="6.3336698"
     inkscape:cy="19.236151"
     inkscape:window-x="45"
     inkscape:window-y="24"
     inkscape:window-maximized="1"
     inkscape:current-layer="svg2" />
  <metadata
     id="metadata11">
    <rdf:RDF>
      <cc:Work
         rdf:about="">
        <dc:format>image/svg+xml</dc:format>
        <dc:type
           rdf:resource="http://purl.org/dc/dcmitype/StillImage" />
        <dc:title />
      </cc:Work>
    </rdf:RDF>
  </metadata>
  <g
     style="fill:#1a1a1a;stroke:#1a1a1a"
     transform="matrix(-0.04229117,0,0,-0.03508931,28.159572,29.493315)"
     id="g4241">
    <path
       style="fill:#1a1a1a;fill-opacity:1;stroke:#1a1a1a;stroke-width:1;stroke-miterlimit:4;stroke-dasharray:none;stroke-opacity:1"
       d="m 326.12263,515.52088 27.3184,11.99722 -1.97231,4.49106 -27.3184,-11.99722 z"
       id="path4239"
       inkscape:connector-curvature="0" />
    <path
       sodipodi:nodetypes="ccccc"
       inkscape:connector-curvature="0"
       id="rect4236"
       d="m 326.61151,514.77002 37.16036,-30.66177 0,4.41682 -37.16036,30.66177 z"
       style="fill:#1a1a1a;fill-opacity:1;stroke:#1a1a1a;stroke-width:1;stroke-miterlimit:4;stroke-dasharray:none;stroke-opacity:1" />
    <rect
       ry="6.0592961"
       y="502.09976"
       x="317.90591"
       height="31.949015"
       width="11.617825"
       id="rect4232"
       style="fill:#1a1a1a;fill-opacity:1;stroke:#1a1a1a;stroke-width:0.99999994;stroke-miterlimit:4;stroke-dasharray:none;stroke-opacity:1" />
  </g>
  <g
     style="fill:#1a1a1a;stroke:#1a1a1a"
     id="g4271"
     transform="matrix(0.04229117,0,0,-0.03508931,-6.1286271,29.420561)">
    <path
       inkscape:connector-curvature="0"
       id="path4273"
       d="m 326.12263,515.52088 27.3184,11.99722 -1.97231,4.49106 -27.3184,-11.99722 z"
       style="fill:#1a1a1a;fill-opacity:1;stroke:#1a1a1a;stroke-width:1;stroke-miterlimit:4;stroke-dasharray:none;stroke-opacity:1" />
    <path
       style="fill:#1a1a1a;fill-opacity:1;stroke:#1a1a1a;stroke-width:1;stroke-miterlimit:4;stroke-dasharray:none;stroke-opacity:1"
       d="m 326.61151,514.77002 37.16036,-30.66177 0,4.41682 -37.16036,30.66177 z"
       id="path4275"
       inkscape:connector-curvature="0"
       sodipodi:nodetypes="ccccc" />
    <rect
       style="fill:#1a1a1a;fill-opacity:1;stroke:#1a1a1a;stroke-width:0.99999994;stroke-miterlimit:4;stroke-dasharray:none;stroke-opacity:1"
       id="rect4277"
       width="11.617825"
       height="31.949015"
       x="317.90591"
       y="502.09976"
       ry="6.0592961" />
  </g>
  <rect
     style="display:inline;fill:#4d4d4d;stroke:#4d4d4d;stroke-width:0.03676214;stroke-miterlimit:4;stroke-dasharray:none;stroke-opacity:1"
     id="rect4203"
     width="0.97268414"
     height="0.17276153"
     x="-12.10735"
     y="-22.702787"
     transform="scale(-1,-1)" />
  <path
     style="display:inline;fill:#1a1a1a;stroke:#1a1a1a;stroke-width:0.03676214;stroke-miterlimit:4;stroke-dasharray:none;stroke-opacity:1"
     d="m 11.465088,3.3466272 c 0.474867,0.084361 0.949281,0.3976852 1.165821,0.7699635 0.09435,0.1622165 0.182284,0.4619006 0.283655,0.9667747 0.03525,0.175543 0.08708,0.401754 0.115167,0.5026916 l 0.05109,-0.4934377 0.15915,0 c 0.204818,0 0.225309,0.030887 0.308503,0.4650482 0.177261,0.9250644 0.186103,1.0841274 0.178538,3.2116134 l -0.0074,2.0648571 -0.141937,0.11038 c -0.179805,0.139822 -0.324288,0.162592 -0.503792,0.0794 l -0.137615,-0.06379 -0.0032,0.377627 c -0.0047,0.563096 -0.01948,0.680253 -0.158442,1.259653 -0.112009,0.467042 -0.151114,0.566912 -0.324967,0.829841 -0.248189,0.37535 -0.399348,0.570194 -0.442359,0.570194 -0.01839,0 -0.08192,0.05387 -0.141226,0.119688 -0.09802,0.108831 -0.110162,0.158783 -0.133684,0.550567 -0.0282,0.469505 -0.05738,0.917571 -0.08734,1.340511 -0.01049,0.149211 -0.02989,0.486733 -0.04295,0.750047 -0.01305,0.263316 -0.04133,0.730099 -0.06282,1.037301 -0.02149,0.307199 -0.04902,0.304645 -0.06114,0.506519 -0.01207,0.201875 -0.03462,0.548095 -0.04999,0.769379 -0.01569,0.225928 -0.01144,0.409848 0.0096,0.419472 0.02069,0.0095 0.123351,0.02598 0.228148,0.03676 0.1048,0.01079 0.23818,0.02556 0.2964,0.03282 0.05823,0.0073 0.305927,0.03751 0.550458,0.06724 0.24453,0.02972 0.468418,0.06852 0.49753,0.08622 0.0707,0.043 0.06935,0.357371 -0.0017,0.401833 -0.07462,0.04669 -0.323935,0.08583 -1.043574,0.163915 -0.336211,0.03647 -0.61496,0.06961 -0.619443,0.07366 -0.0083,0.0073 -0.03558,0.492315 -0.08846,1.563289 -0.02075,0.420025 -0.01529,0.566527 0.02105,0.566527 0.02697,0 0.04903,0.02873 0.04903,0.06383 0,0.0351 -0.02143,0.06025 -0.04763,0.05585 -0.007,0.08796 -0.0023,0.185628 -0.0031,0.18995 -0.04582,0.009 -0.128779,0.04717 -0.144544,0.08478 -0.01577,0.0376 -0.05716,0.101195 -0.09195,0.141339 l -0.06329,0.07297 -0.08448,-0.104705 c -0.09087,-0.112629 -0.09976,-0.197038 -0.199265,-1.890377 -0.02469,-0.420183 -0.05208,-0.769384 -0.06086,-0.776004 -0.0088,-0.0066 -0.338229,-0.04634 -0.7321044,-0.08829 -0.953844,-0.101556 -0.9545792,-0.101804 -0.9545792,-0.318673 0,-0.271581 -0.076965,-0.242873 0.9015809,-0.336271 0.3798967,-0.03625 0.7077807,-0.07387 0.7286307,-0.08358 0.02085,-0.0097 0.02733,-0.156203 0.01438,-0.325531 -0.02481,-0.324748 -0.05129,-0.374508 -0.08951,-1.165479 -0.03719,-0.769747 -0.104025,-1.899116 -0.12466,-2.106516 -0.01049,-0.105324 -0.03001,-0.464392 -0.04341,-0.797924 -0.03727,-0.928033 -0.03552,-0.920577 -0.252036,-1.071017 C 9.8566166,13.872005 9.4669609,13.300175 9.3422649,12.944183 9.213914,12.577755 9.1257546,12.154533 9.1256046,11.904067 L 9.1254939,11.677833 8.7861528,11.479562 C 8.5995156,11.370518 8.4298354,11.289202 8.409086,11.298867 8.3871879,11.309087 8.3689249,10.475332 8.3655572,9.311828 8.3600856,7.4218728 8.3641016,7.3042885 8.4356381,7.256065 8.5506504,7.1785417 8.8109473,7.1585071 8.9580716,7.2158544 l 0.1250703,0.048756 0,-1.3371496 c 0,-1.411183 0.022808,-0.9606821 0.2134346,-1.4422411 C 9.3728197,4.2926123 9.5835897,3.9844966 9.7282371,3.8541883 9.8814172,3.7161965 10.41948,3.4180375 10.565142,3.3904327 c 0.01168,-0.00221 0.07481,-0.020762 0.140372,-0.041234 0.136741,-0.042701 0.526282,-0.044018 0.759588,-0.00257 z"
     id="path3357"
     inkscape:connector-curvature="0"
     sodipodi:nodetypes="ccsccssccccccssscsccscscsccccsccssccccccsccscccccscsccccscccssscccc" />
  <path
     style="fill:#999999;fill-opacity:1;stroke:#333333;stroke-width:0.04528588;stroke-miterlimit:4;stroke-dasharray:none;stroke-opacity:1"
     d="m 11.254222,4.5545287 -0.405992,0 c -0.07049,0 -0.127221,-0.052935 -0.127221,-0.1186868 l 0,-0.8447472 c 0,-0.065753 0.05675,-0.1186866 0.127221,-0.1186866 l 0.405992,0 c 0.07049,0 0.12722,0.052934 0.12722,0.1186866 l 0,0.8447472 c 0,0.065752 -0.05674,0.1186868 -0.12722,0.1186868 z"
     id="rect4280"
     inkscape:connector-curvature="0" />
  <path
     id="path4283"
     d="m 11.923185,4.6831344 -0.325896,-0.07595 c -0.06503,-0.015148 -0.113861,-0.06659 -0.107625,-0.1340487 l 0.07133,-0.7722527 c 0.0062,-0.067462 0.07037,-0.1352479 0.132003,-0.1093034 l 0.341281,0.1436735 c 0.06163,0.025948 0.115907,0.066816 0.107637,0.1340486 l -0.08671,0.7045278 c -0.0083,0.067233 -0.06697,0.1244559 -0.132001,0.1093021 z"
     style="fill:#999999;fill-opacity:1;stroke:#333333;stroke-width:0.04528588;stroke-miterlimit:4;stroke-dasharray:none;stroke-opacity:1"
     inkscape:connector-curvature="0"
     sodipodi:nodetypes="sssssssss" />
  <path
     sodipodi:nodetypes="sssssssss"
     inkscape:connector-curvature="0"
     style="fill:#999999;fill-opacity:1;stroke:#333333;stroke-width:0.04528588;stroke-miterlimit:4;stroke-dasharray:none;stroke-opacity:1"
     d="m 10.211293,4.6908172 0.325894,-0.075949 C 10.602217,4.59972 10.651048,4.54828 10.644824,4.4808196 l -0.07133,-0.7722519 c -0.0062,-0.067462 -0.07037,-0.1352491 -0.132001,-0.109302 l -0.341278,0.1436728 c -0.06163,0.025948 -0.115907,0.066816 -0.1076376,0.1340486 l 0.086711,0.704528 c 0.0083,0.067232 0.06697,0.1244558 0.132001,0.109302 z"
     id="path4285" />
  <path
     id="path4287"
     d="M 9.4521724,5.1325653 9.8948551,4.8491864 C 9.9499179,4.8139258 10.016948,4.7815167 10.00248,4.7151376 L 9.8894364,4.1964102 c -0.014461,-0.06638 -0.09503,-0.1616147 -0.132001,-0.1093037 l -0.4705695,0.66609 c -0.03696,0.052312 -0.061393,0.096646 -0.028383,0.1570972 l 0.061691,0.1129696 c 0.033015,0.060449 0.076923,0.1445611 0.1319997,0.109302 z"
     style="fill:#999999;fill-opacity:1;stroke:#333333;stroke-width:0.04528588;stroke-miterlimit:4;stroke-dasharray:none;stroke-opacity:1"
     inkscape:connector-curvature="0"
     sodipodi:nodetypes="sssssssss" />
  <path
     sodipodi:nodetypes="sssssssss"
     inkscape:connector-curvature="0"
     style="fill:#999999;fill-opacity:1;stroke:#333333;stroke-width:0.04528588;stroke-miterlimit:4;stroke-dasharray:none;stroke-opacity:1"
     d="M 12.721004,5.1325653 12.278321,4.8491864 c -0.05506,-0.035261 -0.122093,-0.06767 -0.107625,-0.1340488 l 0.113042,-0.5187275 c 0.01446,-0.066381 0.09503,-0.1616147 0.132001,-0.1093036 l 0.470583,0.6660893 c 0.03695,0.052312 0.06141,0.096646 0.02839,0.1570971 l -0.06167,0.1129696 c -0.03302,0.060449 -0.07692,0.144561 -0.132,0.109302 z"
     id="path4289" />
  <rect
     style="display:inline;fill:#4d4d4d;stroke:#4d4d4d;stroke-width:0.03676214;stroke-miterlimit:4;stroke-dasharray:none;stroke-opacity:1"
     id="rect4205"
     width="0.21801542"
     height="0.2991724"
     x="-12.033846"
     y="-22.765993"
     ry="0.04213696"
     transform="scale(-1,-1)" />
  <rect
     style="display:inline;fill:#4d4d4d;stroke:#4d4d4d;stroke-width:0.44347614;stroke-miterlimit:4;stroke-dasharray:none;stroke-opacity:1"
     id="rect4207"
     width="0.11262723"
     height="1.1137763"
     x="-11.939633"
     y="-23.778214"
     ry="0.014238616"
     transform="scale(-1,-1)" />
  <rect
     ry="0.014238616"
     y="-22.483994"
     x="-11.939633"
     height="1.1137763"
     width="0.11262723"
     id="rect4209"
     style="display:inline;fill:#4d4d4d;stroke:#4d4d4d;stroke-width:0.44347614;stroke-miterlimit:4;stroke-dasharray:none;stroke-opacity:1"
     transform="scale(-1,-1)" />
  <g
     id="g4730"
     style="fill:#4d4d4d;stroke:#4d4d4d">
    <path
       inkscape:transform-center-y="-177.95367"
       inkscape:transform-center-x="75.786419"
       sodipodi:nodetypes="ssssscscss"
       inkscape:connector-curvature="0"
       id="rect4213"
       d="M 15.335599,19.308888 14.86082,19.45435 c -0.05239,0.01605 -0.110055,-0.0073 -0.128038,-0.0529 l -3.695104,-9.35558 c -0.01798,-0.04552 0.0087,-0.094791 0.06111,-0.1108426 l 0.150504,0.065081 0.689638,1.714982 c 0.03751,0.0933 0.268397,-0.03571 0.47442,-0.07057 l 2.98336,7.553527 c 0.01798,0.04552 -0.0087,0.09479 -0.06111,0.110842 z"
       style="fill:#4d4d4d;fill-opacity:1;stroke:#4d4d4d;stroke-width:0.44347614;stroke-miterlimit:4;stroke-dasharray:none;stroke-opacity:1" />
    <path
       style="fill:#4d4d4d;fill-opacity:1;stroke:#4d4d4d;stroke-width:0.41295668;stroke-miterlimit:4;stroke-dasharray:none;stroke-opacity:1"
       d="M 3.2522389,16.066201 2.9944015,15.714178 c -0.028453,-0.03885 -0.020388,-0.09344 0.018761,-0.121475 L 11.058274,9.8312911 c 0.03915,-0.028036 0.09302,-0.020085 0.121475,0.018761 L 11.15491,9.9936786 9.6832178,11.06 c -0.08006,0.05801 0.1011744,0.212406 0.1859704,0.373304 l -6.4954755,4.651657 c -0.039147,0.02804 -0.093024,0.02009 -0.1214758,-0.01876 z"
       id="path4216"
       inkscape:connector-curvature="0"
       sodipodi:nodetypes="ssssscscss"
       inkscape:transform-center-x="-154.08386"
       inkscape:transform-center-y="-113.34617" />
    <path
       inkscape:transform-center-y="108.716"
       inkscape:transform-center-x="-157.12942"
       sodipodi:nodetypes="ssssscscss"
       inkscape:connector-curvature="0"
       id="path4218"
       d="M 2.7291705,4.5029931 2.9729637,4.1411019 c 0.026902,-0.039935 0.080999,-0.050851 0.1206436,-0.023523 l 8.1472117,5.6161043 c 0.03964,0.027328 0.05042,0.080709 0.02353,0.1206439 L 11.120804,9.8796414 9.6187754,8.8564858 C 9.5370656,8.8008265 9.4532362,9.0236647 9.330603,9.1579763 L 2.7526939,4.6236373 C 2.7130494,4.596309 2.7022679,4.5429274 2.7291705,4.5029931 Z"
       style="fill:#4d4d4d;fill-opacity:1;stroke:#4d4d4d;stroke-width:0.41295668;stroke-miterlimit:4;stroke-dasharray:none;stroke-opacity:1" />
    <path
       style="fill:#4d4d4d;fill-opacity:1;stroke:#4d4d4d;stroke-width:0.41295668;stroke-miterlimit:4;stroke-dasharray:none;stroke-opacity:1"
       d="m 13.901821,0.20974224 0.417462,0.12698873 c 0.04607,0.0140127 0.07236,0.0625329 0.05786,0.10844682 l -2.98089,9.43567551 c -0.0145,0.045914 -0.06238,0.071871 -0.108446,0.057858 l -0.06628,-0.1298155 0.537864,-1.7359792 c 0.02926,-0.094437 -0.208364,-0.1092554 -0.372726,-0.1871255 l 2.406717,-7.61819076 c 0.0145,-0.0459145 0.06238,-0.0718717 0.108448,-0.0578584 z"
       id="path4220"
       inkscape:connector-curvature="0"
       sodipodi:nodetypes="ssssscscss"
       inkscape:transform-center-x="58.885611"
       inkscape:transform-center-y="180.05033" />
    <path
       inkscape:transform-center-y="6.6577419"
       inkscape:transform-center-x="187.21113"
       sodipodi:nodetypes="ssssscscss"
       inkscape:connector-curvature="0"
       id="path4222"
       d="m 21.276474,9.4810214 0.0075,0.4362837 c 8.34e-4,0.048144 -0.03725,0.088089 -0.0854,0.088408 l -9.895119,0.06563 c -0.04815,3.2e-4 -0.08758,-0.03725 -0.0884,-0.085395 l 0.103136,-0.1029966 1.817259,-0.022124 c 0.09886,-0.00121 0.03987,-0.2318665 0.06342,-0.4122111 l 7.989136,-0.052988 c 0.04815,-3.198e-4 0.08758,0.037252 0.0884,0.085395 z"
       style="fill:#4d4d4d;fill-opacity:1;stroke:#4d4d4d;stroke-width:0.41295668;stroke-miterlimit:4;stroke-dasharray:none;stroke-opacity:1" />
  </g>
  <ellipse
     style="fill:#4d4d4d;stroke:#4d4d4d;stroke-width:0.06478313;stroke-miterlimit:4;stroke-dasharray:none;stroke-opacity:1"
     id="path4211-2"
     cx="-11.171059"
     cy="-9.9016705"
     transform="scale(-1,-1)"
     rx="0.59183103"
     ry="0.51234722" />
</svg>
