<?xml version="1.0" encoding="UTF-8" standalone="no"?>
<svg xmlns="http://www.w3.org/2000/svg" xmlns:sodipodi="http://sodipodi.sourceforge.net/DTD/sodipodi-0.dtd" xmlns:inkscape="http://www.inkscape.org/namespaces/inkscape" width="24" height="24" viewBox="0 0 24.000001 24.000001" version="1.1">
 <metadata id="metadata7399"/>
 <g inkscape:label="Layer 1" inkscape:groupmode="layer" id="layer1" transform="translate(0,-1028.3622)">
  <path inkscape:connector-curvature="0" d="m 22.936001,1052.3622 c -0.473761,0 -0.935763,-0.1113 -1.345204,-0.298 -0.417842,-0.1985 -0.892324,-0.3137 -1.386966,-0.3137 -0.491761,0 -0.965283,0.1149 -1.383845,0.3137 -0.414961,0.1867 -0.871923,0.298 -1.350965,0.298 -0.473762,0 -0.937203,-0.1113 -1.345205,-0.298 -0.420001,-0.1985 -0.894243,-0.3137 -1.389125,-0.3137 -0.489602,0 -0.964083,0.1149 -1.383365,0.3137 -0.413522,0.1867 -0.872163,0.298 -1.350965,0.298 -0.479762,0 -0.936484,-0.1113 -1.345685,-0.298 -0.420001,-0.1985 -0.894723,-0.3137 -1.387445,-0.3137 -0.494642,0 -0.969364,0.1149 -1.386965,0.3137 -0.410642,0.1867 -0.869523,0.298 -1.349285,0.298 -0.475922,0 -0.936004,-0.1113 -1.347125,-0.298 -0.420722,-0.1985 -0.893763,-0.3137 -1.387445,-0.3137 -0.492002,0 -0.965524,0.1149 -1.385766,0.3137 -0.411601,0.1867 -0.867603,0.298 -1.346645,0.298 v -2.0438 c 0.479042,0 0.935044,-0.1099 1.346645,-0.2981 0.420242,-0.1922 0.894004,-0.3062 1.385766,-0.3062 0.493682,0 0.966723,0.1147 1.387445,0.3062 0.411121,0.1882 0.871203,0.2981 1.347125,0.2981 0.479042,0 0.938643,-0.1099 1.349285,-0.2981 0.417841,-0.1922 0.892323,-0.3062 1.386965,-0.3062 0.492962,0 0.967444,0.1147 1.387445,0.3062 0.409201,0.1882 0.865923,0.2981 1.345685,0.2981 0.478802,0 0.937203,-0.1099 1.350725,-0.2981 0.419281,-0.1922 0.894003,-0.3062 1.383365,-0.3062 0.494882,0 0.969124,0.1147 1.389125,0.3062 0.408002,0.1882 0.871683,0.2981 1.345205,0.2981 0.479042,0 0.936004,-0.1099 1.350965,-0.2981 0.418322,-0.1922 0.892084,-0.3062 1.383845,-0.3062 0.494642,0 0.969124,0.1147 1.386965,0.3062 0.409442,0.1882 0.871444,0.2981 1.345205,0.2981 v 2.0438 h 2.4e-4 z" id="path3" fill="#333333"/>
  <path inkscape:connector-curvature="0" d="m 15.339493,1032.0001 c 3.664814,1.7227 8.01651,6.3156 7.445308,11.8267 h -7.445308 v -11.8267 l 0,0 z" id="path5" fill="#808080"/>
  <path inkscape:connector-curvature="0" d="m 21.211115,1044.939 -3.398653,0 -13.168608,0 c -0.979148,0 -1.851739,2.6193 -2.55001,3.4896 1.279342,-0.9148 2.921291,-0.3458 3.090252,-0.2635 0.411121,0.181 0.871203,0.2926 1.347125,0.2926 0.479762,0 0.939363,-0.1116 1.349285,-0.2926 0.417841,-0.1975 0.892323,-0.3137 1.386965,-0.3137 0.492962,0 0.967444,0.1159 1.387445,0.3137 0.409681,0.181 0.866643,0.2926 1.345685,0.2926 0.478802,0 0.937203,-0.1116 1.350725,-0.2926 0.420002,-0.1975 0.894003,-0.3137 1.383365,-0.3137 0.494882,0 0.969604,0.1159 1.389125,0.3137 0.408002,0.181 0.871683,0.2926 1.345205,0.2926 0.0924,0 0.180241,-0.023 0.266401,-0.033 0.01056,0 0.01056,0.01 0.02136,0.01 0.06048,0 0.104641,-0.027 0.164401,-0.027 0.10896,-0.015 0.217441,-0.028 0.327361,-0.054 0.979684,-0.2049 1.612086,-0.976 1.612086,-0.976 l 1.905127,-2.438 -0.554162,0 0,0 -4.8e-4,0 z" id="path7" sodipodi:nodetypes="cccccscscscscscscccccccc" fill="#165016"/>
  <path inkscape:connector-curvature="0" d="m 14.199249,1028.3785 c -0.03048,-0.022 -0.07056,-0.025 -0.10224,0.011 -2.4e-4,0 -7.2e-4,0 -0.0012,0 -4.8e-4,0 -9.6e-4,0 -0.0014,0 -4.151295,5.1241 -8.302831,10.2478 -12.454126,15.3721 -0.04704,0.058 -0.02112,0.1529 0.06336,0.1529 4.151295,0 8.302831,0 12.454366,0 0.04896,0 0.08976,-0.041 0.08976,-0.09 0,-5.1241 0,-10.2481 0,-15.3719 2.4e-4,-0.039 -0.02112,-0.064 -0.04848,-0.077 z" id="path9" fill="#808080"/>
 </g>
</svg>
