<?xml version="1.0" encoding="UTF-8" standalone="no"?>
<svg xmlns="http://www.w3.org/2000/svg" xmlns:sodipodi="http://sodipodi.sourceforge.net/DTD/sodipodi-0.dtd" xmlns:inkscape="http://www.inkscape.org/namespaces/inkscape" height="24" width="24" version="1.1">
 <metadata id="metadata200"/>
 <g id="g4353" transform="matrix(0.11470234,0,0,0.11470234,1.3941528e-4,2.2500365)">
  <g id="g4" fill="#666666">
   <path id="path6" d="m 108.812,10.5291 0,146.377 c 31.3021,-18.1855 64.5445,-16.3965 99.2748,0.44656 l 0,-145.183 c -34.432,-16.3981 -67.376,-15.5036 -99.275,-1.6409" inkscape:connector-curvature="0"/>
   <path id="path8" d="m 87.3481,20.8139 0,18.4837 18.4837,-9.6884 0,-17.7389 -18.4837,8.94367" inkscape:connector-curvature="0"/>
   <path id="path10" d="m 87.3481,41.9797 0,18.4837 18.4837,-9.6884 0,-17.8873 -18.4837,9.09206" inkscape:connector-curvature="0"/>
   <path id="path12" d="m 87.3481,62.8487 0,18.4837 18.4837,-9.54 0,-17.8873 -18.4837,8.94367" inkscape:connector-curvature="0"/>
   <path id="path14" d="m 87.3481,84.0159 0,18.4837 18.4837,-9.68839 0,-17.7403 -18.4837,8.94506" inkscape:connector-curvature="0"/>
   <path id="path16" d="m 87.3481,104.884 0,18.3353 18.4837,-9.5414 0,-17.8859 -18.4837,9.09205" inkscape:connector-curvature="0"/>
   <path id="path18" d="m 87.3481,126.347 0,18.4823 18.4837,-9.53723 0,-17.8873 -18.4837,8.94228" inkscape:connector-curvature="0"/>
   <path id="path20" d="m 87.3481,147.515 0,18.4837 18.4837,-9.68839 0,-17.7403 -18.4837,8.94505" inkscape:connector-curvature="0"/>
   <path id="path22" d="m 66.4819,27.2238 17.1398,-8.64689 0,16.696 -17.1398,8.6455 0,-16.6947" inkscape:connector-curvature="0"/>
   <path id="path24" d="m 66.4819,48.5394 17.1398,-8.6455 0,16.6947 -17.1398,8.6455 0,-16.6947" inkscape:connector-curvature="0"/>
   <path id="path26" d="m 66.4819,68.8107 17.1398,-8.6455 0,16.696 -17.1398,8.64411 0,-16.6947" inkscape:connector-curvature="0"/>
   <path id="path28" d="m 66.4819,89.9779 17.1398,-8.6455 0,16.6947 -17.1398,8.79527 0,-16.8444" inkscape:connector-curvature="0"/>
   <path id="path30" d="m 66.4819,111.293 17.1398,-8.6455 0,16.6947 -17.1398,8.79527 0,-16.8444" inkscape:connector-curvature="0"/>
   <path id="path32" d="m 66.4819,131.716 17.1398,-8.64827 0,16.696 -17.1398,8.79389 0,-16.8417" inkscape:connector-curvature="0"/>
   <path id="path34" d="m 66.4819,152.88 17.1398,-8.64411 0,16.6947 -17.1398,8.64134 0,-16.6919" inkscape:connector-curvature="0"/>
   <path id="path36" d="m 47.9982,26.4791 14.6061,-6.85788 0,14.6075 -14.6061,7.00765 0,-14.7573" inkscape:connector-curvature="0"/>
   <path id="path38" d="m 47.9982,47.9417 14.6061,-7.00349 0,14.7559 -14.6061,7.00626 0,-14.7586" inkscape:connector-curvature="0"/>
   <path id="path40" d="m 47.9982,68.2143 14.6061,-6.85649 0,14.6089 -14.6061,7.00488 0,-14.7573" inkscape:connector-curvature="0"/>
   <path id="path42" d="m 47.9982,89.3815 14.6061,-6.85649 0,14.6075 -14.6061,7.00627 0,-14.7573" inkscape:connector-curvature="0"/>
   <path id="path44" d="m 47.9982,110.847 14.6061,-7.00765 0,14.7586 -14.6061,7.00488 0,-14.7559" inkscape:connector-curvature="0"/>
   <path id="path46" d="m 47.9982,131.12 14.6061,-7.00766 0,14.7586 -14.6061,6.8551 0,-14.6061" inkscape:connector-curvature="0"/>
   <path id="path48" d="m 47.9982,152.136 14.6061,-6.85649 0,14.6075 -14.6061,7.00627 0,-14.7573" inkscape:connector-curvature="0"/>
   <path id="path50" d="m 30.8542,37.8067 11.9254,-5.36565 0,-10.8811 -11.9254,5.66381 0,10.5829" inkscape:connector-curvature="0"/>
   <path id="path52" d="m 30.8542,59.1223 11.9254,-5.36565 0,-10.8811 -11.9254,5.66381 0,10.5829" inkscape:connector-curvature="0"/>
   <path id="path54" d="m 30.8542,79.395 11.9254,-5.36565 0,-11.0322 -11.9254,5.81359 0,10.5843" inkscape:connector-curvature="0"/>
   <path id="path56" d="m 30.8542,100.561 11.9254,-5.36704 0,-10.8825 -11.9254,5.66659 0,10.5829" inkscape:connector-curvature="0"/>
   <path id="path58" d="m 30.8542,122.026 11.9254,-5.51542 0,-10.8811 -11.9254,5.66381 0,10.7327" inkscape:connector-curvature="0"/>
   <path id="path60" d="m 30.8542,142.447 11.9254,-5.51543 0,-10.8811 -11.9254,5.6652 0,10.7313" inkscape:connector-curvature="0"/>
   <path id="path62" d="m 30.8542,163.463 11.9254,-5.36565 0,-10.8811 -11.9254,5.66382 0,10.5829" inkscape:connector-curvature="0"/>
   <path id="path64" d="m 14.7559,20.2175 8.64411,-5.21587 0,9.09206 -8.64411,4.9177 0,-8.79389" inkscape:connector-curvature="0"/>
   <path id="path66" d="m 14.7559,41.5331 8.64411,-5.21587 0,9.24045 -8.64411,4.7707 0,-8.79528" inkscape:connector-curvature="0"/>
   <path id="path68" d="m 14.7559,61.8058 8.64411,-5.21726 0,9.24184 -8.64411,4.9177 0,-8.94228" inkscape:connector-curvature="0"/>
   <path id="path70" d="m 14.7559,82.9716 8.64411,-5.21726 0,9.24184 -8.64411,4.91909 0,-8.94367" inkscape:connector-curvature="0"/>
   <path id="path72" d="m 14.7559,104.434 8.64411,-5.21448 0,9.09206 -8.64411,4.91909 0,-8.79667" inkscape:connector-curvature="0"/>
   <path id="path74" d="m 14.7559,124.708 8.64411,-5.21587 0,9.24045 -8.64411,4.91909 0,-8.94367" inkscape:connector-curvature="0"/>
   <path id="path76" d="m 14.7559,145.875 8.64411,-5.21726 0,9.24045 -8.64411,4.77209 0,-8.79528" inkscape:connector-curvature="0"/>
   <path id="path78" d="M 3.12992e-6,15.2985 6.70671,11.8702 l 0,6.55971 L 0,21.41021 0,15.29845" inkscape:connector-curvature="0"/>
   <path id="path80" d="M 3.12992e-6,36.4656 6.70671,33.1858 l 0,6.55832 L 0,42.7258 0,36.46565" inkscape:connector-curvature="0"/>
   <path id="path82" d="M 3.12992e-6,56.7369 6.70671,53.6083 l 0,6.55693 L 0,62.99714 0,56.73699" inkscape:connector-curvature="0"/>
   <path id="path84" d="M 3.12992e-6,77.9041 6.70671,74.6243 l 0,6.55693 L 0,84.1643 0,77.90415" inkscape:connector-curvature="0"/>
   <path id="path86" d="M 3.12992e-6,99.3695 6.70671,96.0896 l 0,6.40992 L 0,105.47982 0,99.36945" inkscape:connector-curvature="0"/>
   <path id="path88" d="M 3.12992e-6,119.791 6.70671,116.511 l 0,6.40993 L 0,125.90261 0,119.79085" inkscape:connector-curvature="0"/>
   <path id="path90" d="M 3.12992e-6,140.956 6.70671,137.528 l 0,6.55832 L 0,147.068 0,140.95624" inkscape:connector-curvature="0"/>
  </g>
  <path d="m 1.14772,141.389 6.70671,-3.42824 0,6.55832 -6.70671,2.98168 0,-6.11176" id="path94" inkscape:connector-curvature="0" fill="#231f20"/>
  <path d="m 1.14772,15.7315 6.70671,-3.42824 0,6.55971 -6.70671,2.9803 0,-6.11176" id="path96" inkscape:connector-curvature="0" fill="#231f20"/>
  <path d="m 1.14772,78.3372 6.70671,-3.27985 0,6.55693 -6.70671,2.98307 0,-6.26015" id="path98" inkscape:connector-curvature="0" fill="#231f20"/>
  <path d="m 109.96,10.9622 0,146.377 c 31.3021,-18.1855 64.5445,-16.3965 99.2748,0.44656 l 0,-145.183 c -34.433,-16.3981 -67.377,-15.5036 -99.275,-1.6408" id="path100" inkscape:connector-curvature="0" fill="#231f20"/>
  <path d="m 15.9036,146.308 8.64411,-5.21725 0,9.24044 -8.64411,4.77209 0,-8.79528" id="path102" inkscape:connector-curvature="0" fill="#231f20"/>
  <path d="m 15.9036,20.6506 8.64411,-5.21587 0,9.09206 -8.64411,4.9177 0,-8.79389" id="path104" inkscape:connector-curvature="0" fill="#231f20"/>
  <path d="m 15.9036,83.4047 8.64411,-5.21726 0,9.24184 -8.64411,4.91908 0,-8.94366" id="path106" inkscape:connector-curvature="0" fill="#231f20"/>
  <path d="m 32.0019,100.994 11.9254,-5.36704 0,-10.8825 -11.9254,5.66658 0,10.5829" id="path112" inkscape:connector-curvature="0" fill="#231f20"/>
  <path d="m 32.0019,163.896 11.9254,-5.36565 0,-10.8811 -11.9254,5.66382 0,10.5829" id="path114" inkscape:connector-curvature="0" fill="#231f20"/>
  <path d="m 32.0019,38.2398 11.9254,-5.36565 0,-10.8811 -11.9254,5.66381 0,10.5829" id="path116" inkscape:connector-curvature="0" fill="#231f20"/>
  <path d="m 49.1459,152.569 14.6061,-6.85649 0,14.6075 -14.6061,7.00627 0,-14.7573" id="path118" inkscape:connector-curvature="0" fill="#231f20"/>
  <path d="m 49.1459,26.9121 14.6061,-6.85788 0,14.6075 -14.6061,7.00765 0,-14.7573" id="path120" inkscape:connector-curvature="0" fill="#231f20"/>
  <path d="m 49.1459,89.8146 14.6061,-6.85648 0,14.6075 -14.6061,7.00627 0,-14.7573" id="path122" inkscape:connector-curvature="0" fill="#231f20"/>
  <path d="m 67.6296,153.313 17.1398,-8.64411 0,16.6947 -17.1398,8.64134 0,-16.6919" id="path124" inkscape:connector-curvature="0" fill="#231f20"/>
  <path d="m 67.6296,27.6569 17.1398,-8.64689 0,16.696 -17.1398,8.6455 0,-16.6947" id="path126" inkscape:connector-curvature="0" fill="#231f20"/>
  <path d="m 67.6296,90.4109 17.1398,-8.6455 0,16.6947 -17.1398,8.79527 0,-16.8444" id="path128" inkscape:connector-curvature="0" fill="#231f20"/>
  <path d="m 88.4958,105.317 0,18.3353 18.4837,-9.54139 0,-17.886 -18.4837,9.09206" id="path130" inkscape:connector-curvature="0" fill="#231f20"/>
  <path d="m 88.4958,126.781 0,18.4823 18.4837,-9.53723 0,-17.8873 -18.4837,8.94229" id="path132" inkscape:connector-curvature="0" fill="#231f20"/>
  <path d="m 88.4958,147.948 0,18.4837 18.4837,-9.6884 0,-17.7403 -18.4837,8.94505" id="path134" inkscape:connector-curvature="0" fill="#231f20"/>
  <path d="m 88.4958,21.2469 0,18.4837 18.4837,-9.6884 0,-17.7389 -18.4837,8.94367" id="path136" inkscape:connector-curvature="0" fill="#231f20"/>
  <path d="m 88.4958,42.4127 0,18.4837 18.4837,-9.6884 0,-17.8873 -18.4837,9.09206" id="path138" inkscape:connector-curvature="0" fill="#231f20"/>
  <path d="m 88.4958,63.2818 0,18.4837 18.4837,-9.54 0,-17.8873 -18.4837,8.94367" id="path140" inkscape:connector-curvature="0" fill="#231f20"/>
  <path d="m 88.4958,84.4489 0,18.4837 18.4837,-9.68839 0,-17.7403 -18.4837,8.94506" id="path142" inkscape:connector-curvature="0" fill="#231f20"/>
  <g id="g144" fill="#0000fe">
   <path id="path146" d="m 1.14772,120.224 6.70671,-3.27985 0,6.40993 -6.70671,2.98168 0,-6.11176" inkscape:connector-curvature="0"/>
   <path id="path148" d="m 1.14772,99.8025 6.70671,-3.27985 0,6.40992 -6.70671,2.9803 0,-6.11037" inkscape:connector-curvature="0"/>
   <path id="path150" d="m 109.811,91.9018 c 12.2221,-5.96337 23.253,-8.6455 33.2409,-9.39022 l 0,44.1192 c -11.7756,2.08856 -23.1046,5.22003 -33.2409,9.98933 l 0,-44.7183" inkscape:connector-curvature="0"/>
   <path id="path152" d="m 15.9036,104.867 8.64411,-5.21448 0,9.09206 -8.64411,4.91909 0,-8.79667" inkscape:connector-curvature="0"/>
   <path id="path154" d="m 15.9036,125.141 8.64411,-5.21587 0,9.24045 -8.64411,4.91909 0,-8.94367" inkscape:connector-curvature="0"/>
   <path id="path156" d="m 32.0019,122.459 11.9254,-5.51542 0,-10.8811 -11.9254,5.66381 0,10.7327" inkscape:connector-curvature="0"/>
   <path id="path158" d="m 32.0019,142.88 11.9254,-5.51543 0,-10.8811 -11.9254,5.6652 0,10.7313" inkscape:connector-curvature="0"/>
   <path id="path160" d="m 49.1459,111.28 14.6061,-7.00765 0,14.7586 -14.6061,7.00488 0,-14.7559" inkscape:connector-curvature="0"/>
   <path id="path162" d="m 49.1459,131.553 14.6061,-7.00766 0,14.7586 -14.6061,6.8551 0,-14.6061" inkscape:connector-curvature="0"/>
   <path id="path164" d="m 67.6296,111.726 17.1398,-8.64549 0,16.6947 -17.1398,8.79527 0,-16.8444" inkscape:connector-curvature="0"/>
   <path id="path166" d="m 67.6296,132.149 17.1398,-8.64827 0,16.696 -17.1398,8.79389 0,-16.8417" inkscape:connector-curvature="0"/>
  </g>
  <path id="path168" d="m 156.019,19.7575 0,47.2507 13.1194,0 c 5.81221,0 15.3522,2.98168 19.675,4.62092 l 0,-46.6557 c -10.882,-4.6196 -21.909,-6.2602 -32.794,-5.2159" inkscape:connector-curvature="0" fill="#007f00"/>
  <g id="g170" fill="#fe0000">
   <path id="path172" d="m 1.14772,36.8987 6.70671,-3.27985 0,6.55832 -6.70671,2.98168 0,-6.26015" inkscape:connector-curvature="0"/>
   <path id="path174" d="m 1.14772,57.17 6.70671,-3.12869 0,6.55693 -6.70671,2.83191 0,-6.26015" inkscape:connector-curvature="0"/>
   <path id="path176" d="m 109.811,31.3833 c 13.1166,-5.81359 23.8493,-8.94367 33.2409,-9.54 l 0,46.2092 c -11.1792,0.893119 -22.2101,4.32275 -33.2409,9.39023 l 0,-46.0594" inkscape:connector-curvature="0"/>
   <path id="path178" d="m 15.9036,41.9662 8.64411,-5.21587 0,9.24045 -8.64411,4.7707 0,-8.79528" inkscape:connector-curvature="0"/>
   <path id="path180" d="m 15.9036,62.2389 8.64411,-5.21726 0,9.24184 -8.64411,4.9177 0,-8.94228" inkscape:connector-curvature="0"/>
   <path id="path182" d="m 32.0019,59.5553 11.9254,-5.36565 0,-10.8811 -11.9254,5.66381 0,10.5829" inkscape:connector-curvature="0"/>
   <path id="path184" d="m 32.0019,79.828 11.9254,-5.36565 0,-11.0322 -11.9254,5.81359 0,10.5843" inkscape:connector-curvature="0"/>
   <path id="path186" d="m 49.1459,48.3747 14.6061,-7.00349 0,14.7559 -14.6061,7.00627 0,-14.7586" inkscape:connector-curvature="0"/>
   <path id="path188" d="m 49.1459,68.6474 14.6061,-6.85649 0,14.6089 -14.6061,7.00488 0,-14.7573" inkscape:connector-curvature="0"/>
   <path id="path190" d="m 67.6296,48.9724 17.1398,-8.6455 0,16.6947 -17.1398,8.6455 0,-16.6947" inkscape:connector-curvature="0"/>
   <path id="path192" d="m 67.6296,69.2437 17.1398,-8.6455 0,16.696 -17.1398,8.64411 0,-16.6947" inkscape:connector-curvature="0"/>
  </g>
  <path id="path194" d="m 156.019,80.5728 0,45.4631 c 12.6715,-0.59634 22.3599,1.34245 32.7944,4.77069 l 0,-45.911 c -10.882,-4.3232 -21.909,-5.6643 -32.794,-4.3232" inkscape:connector-curvature="0" fill="#fefe00"/>
 </g>
</svg>
