<?xml version="1.0" encoding="UTF-8" standalone="no"?>
<svg xmlns="http://www.w3.org/2000/svg" xmlns:sodipodi="http://sodipodi.sourceforge.net/DTD/sodipodi-0.dtd" xmlns:inkscape="http://www.inkscape.org/namespaces/inkscape" width="24" height="24" version="1.1">
 <metadata id="metadata3212"/>
 <g inkscape:label="Layer 1" inkscape:groupmode="layer" id="layer1" transform="translate(0,-1028.3622)">
  <path inkscape:connector-curvature="0" d="m 21.86501,1044.7757 c -0.04762,0 -0.09474,0 -0.141619,0.012 -0.596033,0.058 -1.129891,0.4887 -1.447665,1.1754 -0.11377,0.2458 -0.355613,0.3225 -0.540213,0.171 -0.120461,-0.098 -0.186274,-0.27 -0.186358,-0.4454 0,-0.093 0.01835,-0.1884 0.05795,-0.2737 0.469134,-1.0142 1.270088,-1.6342 2.157386,-1.6779 -0.07522,-3.3405 -2.09149,-6.0311 -4.598384,-6.1414 0.153326,0.6066 0.26346,1.2408 0.324463,1.8972 0.02664,0.2865 -0.126231,0.5475 -0.341438,0.5831 -0.0039,7e-4 -0.0078,4e-4 -0.01171,0 -0.01238,0 -0.0248,0 -0.03696,0 -0.195347,0 -0.364602,-0.1938 -0.38923,-0.4585 -0.06372,-0.6862 -0.187403,-1.3452 -0.363223,-1.9691 -0.402484,-1.4284 -1.079215,-2.67 -1.940213,-3.6202 -0.117032,-0.129 -0.237493,-0.2529 -0.36109,-0.3709 -1.072609,-1.0246 -2.384467,-1.624 -3.788982,-1.624 -0.120002,0 -0.239418,0 -0.358122,0.013 -0.6572047,0.047 -1.2936286,0.2264 -1.8921288,0.52 -1.6018266,0.786 -2.9317062,2.3937 -3.6608279,4.5095 0.096461,-0.012 0.1935906,-0.012 0.2913894,-0.012 1.0329711,0 2.0294401,0.4053 2.8817406,1.1722 0.1121822,0.1008 0.1726845,0.2655 0.17281,0.4331 8.35e-5,0.1007 -0.021742,0.203 -0.067318,0.2928 -0.1214227,0.2393 -0.3654807,0.3021 -0.5451478,0.1403 -0.7219718,-0.6496 -1.5664116,-0.9929 -2.4420433,-0.9929 -0.2468594,0 -0.4889104,0.027 -0.7247314,0.082 -0.068196,0.048 -0.1468027,0.07 -0.2264132,0.058 -0.027805,0.014 -0.055527,0.017 -0.083122,0.025 -1.9109443,0.6203 -3.33373081,2.9184 -3.33373081,5.651 0,5e-4 -4.182e-5,0 -4.182e-5,0 7.1082e-4,3.4998 2.13183823,6.3369 4.76074043,6.3369 l 11.9753576,0 4.466298,0 c 1.246674,0 2.257526,-1.3459 2.257526,-3.006 0,-1.3693 -0.836662,-2.4832 -1.86495,-2.4832 z" id="path3614" fill="#b3b3b3" stroke="#808080" stroke-width="0.5"/>
  <text x="2.684" y="1048.01" id="text3355" sodipodi:linespacing="125%" font-family="sans-serif" fill="#000080" word-spacing="0" line-height="125%" font-weight="bold" letter-spacing="0" font-size="9.212"><tspan sodipodi:role="line" id="tspan3357" x="2.684" y="1048.01">WC</tspan>
  </text>
 </g>
</svg>
