<?xml version="1.0" encoding="UTF-8" standalone="no"?>
<svg
   xmlns:dc="http://purl.org/dc/elements/1.1/"
   xmlns:cc="http://creativecommons.org/ns#"
   xmlns:rdf="http://www.w3.org/1999/02/22-rdf-syntax-ns#"
   xmlns:svg="http://www.w3.org/2000/svg"
   xmlns="http://www.w3.org/2000/svg"
   xmlns:sodipodi="http://sodipodi.sourceforge.net/DTD/sodipodi-0.dtd"
   xmlns:inkscape="http://www.inkscape.org/namespaces/inkscape"
   width="24"
   height="24"
   version="1.1"
   id="svg2"
   inkscape:version="0.91 r13725"
   sodipodi:docname="91-3.svg">
  <defs
     id="defs15" />
  <sodipodi:namedview
     pagecolor="#ffffff"
     bordercolor="#666666"
     borderopacity="1"
     objecttolerance="10"
     gridtolerance="10"
     guidetolerance="10"
     inkscape:pageopacity="0"
     inkscape:pageshadow="2"
     inkscape:window-width="1875"
     inkscape:window-height="1056"
     id="namedview13"
     showgrid="false"
     inkscape:zoom="9.8333333"
     inkscape:cx="12"
     inkscape:cy="12"
     inkscape:window-x="45"
     inkscape:window-y="24"
     inkscape:window-maximized="1"
     inkscape:current-layer="layer1" />
  <metadata
     id="metadata3010">
    <rdf:RDF>
      <cc:Work
         rdf:about="">
        <dc:format>image/svg+xml</dc:format>
        <dc:type
           rdf:resource="http://purl.org/dc/dcmitype/StillImage" />
        <dc:title></dc:title>
      </cc:Work>
    </rdf:RDF>
  </metadata>
  <g
     inkscape:label="Layer 1"
     inkscape:groupmode="layer"
     id="layer1"
     transform="translate(0,-1028.3622)">
    <g
       id="g2997"
       transform="matrix(1.2,0,0,1.2,-6.2015396,1025.9622)">
      <path
         id="path4"
         d="M 6,12 C 6,12 6.8,10.8 7.4,9.9 7.8,9.3 8.3,8.9 9,8.7 l 2.1,-0.6 c 1.2,-0.3 2.4,0.3 2.8,1.4 l 0.6,1.3 c 0.3,0.8 0.9,1.3 1.7,1.6 L 18,13"
         stroke-miterlimit="10"
         inkscape:connector-curvature="0"
         style="fill:none;stroke:#000000;stroke-width:2;stroke-miterlimit:10" />
      <circle
         id="circle6"
         r="2"
         cy="4"
         cx="13" />
      <path
         id="path8"
         d="m 10.6,8.1 -1,4.6 c -0.2,0.7 0.1,1.4 0.5,1.9 l 3.4,3.7 -1,-4.7 0.9,-4.1 -0.7,-1.4 -2.1,0 z"
         inkscape:connector-curvature="0" />
      <g
         id="g10">
        <path
           id="path12"
           d="m 14.6,22 2.1,0 c -0.4,-1 -1.4,-3.5 -1.8,-4.7 l -2.9,-4.2 -1.6,1.2 2.7,3.6 1.5,4.1 z"
           inkscape:connector-curvature="0" />
        <polygon
           id="polygon14"
           points="9.2,15.3 8.3,18.2 5.3,22 7.6,22 9.9,19.4 10.7,17 " />
      </g>
    </g>
  </g>
</svg>
