<?xml version="1.0" encoding="UTF-8" standalone="no"?>
<svg xmlns="http://www.w3.org/2000/svg" xmlns:sodipodi="http://sodipodi.sourceforge.net/DTD/sodipodi-0.dtd" xmlns:inkscape="http://www.inkscape.org/namespaces/inkscape" version="1.1" viewBox="0 0 24 24" width="24" height="24">
 <path inkscape:connector-curvature="0" d="M 11.977044,2.0093513 C 11.566241,1.9828154 11.146799,2.1767394 10.883729,2.5250364 L 0.05727741,20.713545 c -0.07304604,0.274732 -0.07581064,0.44968 -0.01066964,0.70843 0.0623332,0.247518 0.3058344,0.502812 0.53862277,0.564584 l 22.54621646,0.0065 c 0.140822,-0.02549 0.335208,-0.09158 0.430673,-0.146869 0.347304,-0.201298 0.582295,-0.737372 0.336073,-1.144719 L 12.938262,2.5587301 C 12.778002,2.2935872 12.455321,2.1025703 12.15251,2.0348375 12.095058,2.0218784 12.035878,2.0129798 11.97713,2.0091785 Z M 11.926934,5.4192321 20.327445,19.51051 3.6845243,19.56451 11.926934,5.4192361 Z" id="foo"/>
 <path inkscape:connector-curvature="0" d="M 11.901229,3.1629299 22.397442,20.769604 1.6025581,20.83707 11.901229,3.1629299 Z" id="white_bg" fill="#ffff00"/>
 <metadata id="metadata10"/>
 <text x="5.821" y="19.554" id="text3335" sodipodi:linespacing="125%" font-family="sans-serif" word-spacing="0" line-height="125%" font-weight="bold" letter-spacing="0" font-size="8.125"><tspan sodipodi:role="line" id="tspan3337" x="5.821" y="19.554">DF</tspan>
 </text>
</svg>
