<?xml version="1.0" encoding="UTF-8" standalone="no"?>
<svg xmlns="http://www.w3.org/2000/svg" xmlns:sodipodi="http://sodipodi.sourceforge.net/DTD/sodipodi-0.dtd" xmlns:inkscape="http://www.inkscape.org/namespaces/inkscape" version="1.1" width="24" height="24" viewBox="-0.258 -0.548 24.000001 24">
 <metadata id="metadata15"/>
 <path inkscape:connector-curvature="0" id="path7" d="m 2.6059382,-0.06530034 c -1.3113268,0 -2.37826117,1.07281774 -2.37826117,2.38552874 l 0,18.2635426 c 0,1.312711 1.06693437,2.379507 2.37826117,2.379507 l 18.2674628,0 c 1.312881,0 2.379815,-1.066796 2.379815,-2.379507 l 0,-18.2635426 c 0,-1.312711 -1.066934,-2.38552874 -2.379815,-2.38552874 l -18.2674628,0 z" fill="#231f20"/>
 <path inkscape:connector-curvature="0" id="path5" d="m 20.873401,-0.54800036 -18.2674628,0 c -1.5829172,0 -2.86393777,1.28376838 -2.86393777,2.86822876 l 0,18.2635426 c 0,1.582712 1.28102057,2.868229 2.86393777,2.868229 l 18.2674628,0 c 1.582917,0 2.8686,-1.285322 2.8686,-2.868229 l 0,-18.2635426 c -1.94e-4,-1.58426614 -1.285683,-2.86822876 -2.8686,-2.86822876 z" fill="#000080"/>
 <path inkscape:connector-curvature="0" id="path9" d="m 19.990052,16.386321 -4.96614,-4.969965 4.965946,-4.9699651 0,9.9399301 z m -15.5097907,0.943838 4.9750769,-4.965303 0.212532,0.203375 c 1.1747548,1.12002 3.0415008,1.12002 4.1661338,0 l 0.214086,-0.212504 4.998001,4.974432 -14.5658297,0 z M 3.587782,6.4463909 8.5463458,11.416356 3.5788456,16.386321 3.587782,6.4463909 z M 19.03696,5.4978902 12.927926,11.601472 c -0.620695,0.625276 -1.731729,0.611484 -2.370685,-0.02428 l -6.0678489,-6.0793008 14.5475679,0 z M 2.2385724,4.1412798 c 0,0.5691392 0,13.9522642 0,14.5258712 0.5783437,0 18.5679996,0 19.1463426,0 0,-0.573607 0,-13.9569262 0,-14.5258712 -0.578343,0 -18.5679989,0 -19.1463426,0 z" fill="#ffffff"/>
</svg>
