<?xml version="1.0" encoding="UTF-8" standalone="no"?>
<svg
   xmlns:dc="http://purl.org/dc/elements/1.1/"
   xmlns:cc="http://creativecommons.org/ns#"
   xmlns:rdf="http://www.w3.org/1999/02/22-rdf-syntax-ns#"
   xmlns:svg="http://www.w3.org/2000/svg"
   xmlns="http://www.w3.org/2000/svg"
   xmlns:sodipodi="http://sodipodi.sourceforge.net/DTD/sodipodi-0.dtd"
   xmlns:inkscape="http://www.inkscape.org/namespaces/inkscape"
   version="1.1"
   width="24"
   height="24"
   viewBox="0 0 24 24"
   id="svg2"
   inkscape:version="0.91 r13725"
   sodipodi:docname="94-2.svg">
  <defs
     id="defs9" />
  <sodipodi:namedview
     pagecolor="#ffffff"
     bordercolor="#666666"
     borderopacity="1"
     objecttolerance="10"
     gridtolerance="10"
     guidetolerance="10"
     inkscape:pageopacity="0"
     inkscape:pageshadow="2"
     inkscape:window-width="1875"
     inkscape:window-height="1056"
     id="namedview7"
     showgrid="false"
     inkscape:zoom="19.666667"
     inkscape:cx="15.507465"
     inkscape:cy="16.399191"
     inkscape:window-x="45"
     inkscape:window-y="24"
     inkscape:window-maximized="1"
     inkscape:current-layer="svg2" />
  <metadata
     id="metadata11">
    <rdf:RDF>
      <cc:Work
         rdf:about="">
        <dc:format>image/svg+xml</dc:format>
        <dc:type
           rdf:resource="http://purl.org/dc/dcmitype/StillImage" />
        <dc:title></dc:title>
      </cc:Work>
    </rdf:RDF>
  </metadata>
  <path
     inkscape:connector-curvature="0"
     style="fill:#333333"
     id="path13"
     d="m 12.000001,2.3295018 c -0.10843,8e-7 -0.172538,0.074557 -0.389749,0.6661681 -0.02564,0.06983 -0.0774,0.3676365 -0.0774,0.3676365 2e-6,0 -0.173556,0.0083 -0.21837,0.0083 -0.08664,3.2e-6 -0.203812,0.077251 -0.262599,0.1713784 -0.182379,0.2920431 -0.467145,1.899345 -0.467146,2.6397943 0,0.4595005 -0.0385,0.7348981 -0.110569,0.7905564 -0.06081,0.04697 -0.379711,0.1917754 -0.7076317,0.3206462 C 9.187937,7.52137 9.0428824,7.5348662 4.85735,7.7583642 1.542796,7.9353556 0.49942198,8.0186875 0.34343998,8.1177078 c -0.432501,0.2745545 -0.455019,0.9088912 -0.07463,2.1090722 l 0.196257,0.619177 c 0,0 10.20259802,1.688917 10.20259802,1.688917 l 0.856898,6.27193 -0.226663,0.06358 c -0.12459,0.03449 -0.961589,0.126537 -1.8602956,0.20455 -0.8987071,0.07801 -1.6848407,0.183399 -1.7469648,0.234956 -0.2497381,0.207267 -0.053487,1.840946 0.2211364,1.840946 0.4334372,0 2.0359995,0.215503 2.120127,0.28471 0.06004,0.04942 1.437291,0.234956 1.968098,0.234955 0.530808,10e-7 1.908036,-0.185542 1.968099,-0.234955 0.08416,-0.06919 1.686691,-0.284709 2.120129,-0.28471 0.274619,0 0.470875,-1.633682 0.221133,-1.840947 -0.06216,-0.05153 -0.848254,-0.156939 -1.746962,-0.234955 -0.898707,-0.07801 -1.735705,-0.170054 -1.860296,-0.20455 l -0.226662,-0.06358 0.856896,-6.271931 c 0,0 10.202601,-1.688918 10.202602,-1.688916 L 23.731192,10.22677 C 24.111579,9.0265907 24.08906,8.3922573 23.656561,8.1177011 23.500576,8.0186805 22.457205,7.9353476 19.142651,7.7583572 14.957117,7.5348578 14.812064,7.5213617 14.233462,7.293975 13.905541,7.1651045 13.586645,7.0202984 13.52583,6.9733301 c -0.07206,-0.05566 -0.110569,-0.3310565 -0.110569,-0.790557 0,-0.74045 -0.284764,-2.3477543 -0.467148,-2.6397947 -0.05878,-0.094127 -0.175951,-0.1713818 -0.262596,-0.1713794 -0.04482,-3.2e-6 -0.215607,-0.0083 -0.215607,-0.0083 0,0 -0.05176,-0.2978087 -0.0774,-0.3676357 C 12.175301,2.4040549 12.10843,2.3294986 12,2.3294986 Z" />
</svg>
