<?xml version="1.0" encoding="UTF-8" standalone="no"?>
<svg
   xmlns:dc="http://purl.org/dc/elements/1.1/"
   xmlns:cc="http://creativecommons.org/ns#"
   xmlns:rdf="http://www.w3.org/1999/02/22-rdf-syntax-ns#"
   xmlns:svg="http://www.w3.org/2000/svg"
   xmlns="http://www.w3.org/2000/svg"
   xmlns:sodipodi="http://sodipodi.sourceforge.net/DTD/sodipodi-0.dtd"
   xmlns:inkscape="http://www.inkscape.org/namespaces/inkscape"
   version="1.1"
   width="24"
   height="24"
   viewBox="0 0 24 24"
   id="svg2"
   inkscape:version="0.92.2 (5c3e80d, 2017-08-06)"
   sodipodi:docname="94-68.svg">
  <defs
     id="defs9" />
  <sodipodi:namedview
     pagecolor="#ffffff"
     bordercolor="#666666"
     borderopacity="1"
     objecttolerance="10"
     gridtolerance="10"
     guidetolerance="10"
     inkscape:pageopacity="0"
     inkscape:pageshadow="2"
     inkscape:window-width="1865"
     inkscape:window-height="1025"
     id="namedview7"
     showgrid="false"
     inkscape:zoom="6.9532165"
     inkscape:cx="-40.448274"
     inkscape:cy="0.54852928"
     inkscape:window-x="55"
     inkscape:window-y="27"
     inkscape:window-maximized="1"
     inkscape:current-layer="svg2" />
  <metadata
     id="metadata11">
    <rdf:RDF>
      <cc:Work
         rdf:about="">
        <dc:format>image/svg+xml</dc:format>
        <dc:type
           rdf:resource="http://purl.org/dc/dcmitype/StillImage" />
        <dc:title />
      </cc:Work>
    </rdf:RDF>
  </metadata>
  <g
     id="g3596"
     transform="matrix(0.66667404,0,0,0.66667404,15.835203,-1.9387406)">
    <path
       inkscape:connector-curvature="0"
       class="st0"
       d="m -12.75489,19.005988 c 0.569295,0 1.117121,-0.09741 1.62815,-0.272811 0.01739,-0.0059 0.03553,-0.0099 0.05292,-0.01594 l -3.28e-4,-5.62e-4 c 0.0025,-7.03e-4 0.005,-0.0013 0.0073,-0.0022 -0.18328,-0.455389 -0.483232,-0.874731 -0.858043,-1.194043 -0.266577,0.06389 -0.544217,0.09722 -0.830013,0.09722 -1.990727,0 -3.609548,-1.618635 -3.609548,-3.609361 0,-1.987961 1.618821,-3.609502 3.609548,-3.609502 1.990727,0 3.6093613,1.621587 3.6093613,3.609502 0,0.313686 -0.041531,0.619075 -0.1166245,0.91059 0.3065144,0.338342 0.6914036,0.610826 1.1365269,0.806575 0.016078,0.0075 0.031125,0.01645 0.04739,0.02358 l 1.875e-4,-5.16e-4 c 0.00239,0.0011 0.00459,0.0023 0.00698,0.0033 0.2026868,-0.544217 0.313827,-1.129965 0.313827,-1.743556 0,-2.754271 -2.2408508,-4.9976529 -4.9977002,-4.9976529 -2.754223,4.69e-5 -4.997793,2.2434289 -4.997793,4.9976529 0,2.757036 2.24357,4.997699 4.99784,4.997699 z"
       style="fill:#333333"
       id="path3408" />
    <path
       inkscape:connector-curvature="0"
       class="st0"
       d="m -3.4511287,15.708814 c 0,0 3.75e-4,-1.88e-4 7.032e-4,-1.88e-4 7.5e-4,0.0024 0.0015,0.0048 0.0022,0.0072 0.4664044,-0.197015 0.8744966,-0.496967 1.1856048,-0.880028 -0.06389,-0.266577 -0.097218,-0.544217 -0.097218,-0.827481 0,-1.987961 1.61863443,-3.609502 3.6093612,-3.609502 1.9906798,0 3.6095017,1.621588 3.6095017,3.609502 0,1.990727 -1.6188219,3.609361 -3.6095017,3.609361 -0.31368634,0 -0.61907579,-0.04153 -0.9107778,-0.116625 -0.22757725,0.191718 -0.42754523,0.416577 -0.58846649,0.666513 -0.0974059,0.147187 -0.18145243,0.310734 -0.25870213,0.485577 -0.003469,0.0073 -0.007172,0.01355 -0.0106406,0.02105 l 5.625e-4,1.87e-4 c -0.001078,0.0024 -0.002203,0.0044 -0.003281,0.0068 0.54984164,0.210937 1.14679247,0.324842 1.77139942,0.324842 2.7542707,0 4.9976527,-2.240663 4.9976527,-4.997699 -9.38e-5,-2.754224 -2.2434758,-4.997606 -4.9977464,-4.997606 -2.7570363,0 -4.9976996,2.243382 -4.9976996,4.997653 0,0.575154 0.099422,1.12612 0.2789052,1.640618 0.00656,0.01978 0.011156,0.04027 0.01814,0.05986 z"
       style="fill:#333333"
       id="path3410" />
    <path
       inkscape:connector-curvature="0"
       class="st0"
       d="m -8.0045956,26.254195 -5.156e-4,1.87e-4 c -7.5e-4,-0.0023 -0.00131,-0.005 -0.00202,-0.0073 -0.4693107,0.172124 -0.8858403,0.449904 -1.2162141,0.808028 0.049969,0.244218 0.077812,0.494154 0.077812,0.752341 0,1.987961 -1.6186347,3.609361 -3.6093617,3.609361 -1.990727,0 -3.609548,-1.6214 -3.609548,-3.609361 0,-1.990914 1.618821,-3.609361 3.609548,-3.609361 0.344061,0 0.677341,0.04978 0.993887,0.141515 0.317718,-0.325921 0.570373,-0.727075 0.742497,-1.183589 0.0031,-0.0077 0.007,-0.015 0.01008,-0.02274 -1.87e-4,-1.4e-4 -1.87e-4,-1.4e-4 -1.87e-4,-1.4e-4 7.03e-4,-0.0024 0.0018,-0.0046 0.0027,-0.007 -0.544216,-0.205405 -1.13287,-0.316405 -1.74904,-0.316405 -2.754223,9.4e-5 -4.997793,2.240711 -4.997793,4.997747 0,2.75427 2.24357,4.997653 4.99784,4.997653 2.7568494,0 4.9977001,-2.243383 4.9977001,-4.997653 0,-0.526779 -0.084984,-1.034715 -0.2362022,-1.512651 -0.00422,-0.01355 -0.00703,-0.02728 -0.011203,-0.04064 z"
       style="fill:#333333"
       id="path3412" />
    <path
       inkscape:connector-curvature="0"
       class="st0"
       d="m 1.2495252,22.809833 c -0.64377882,0 -1.26271395,0.123234 -1.8279774,0.347155 -0.002719,0.0011 -0.005672,0.0018 -0.008578,0.0029 0,0 0,0 0,1.88e-4 -0.002203,7.5e-4 -0.004781,0.0015 -0.006984,0.0024 0.13884322,0.374624 0.33327997,0.730216 0.59690396,1.035653 0.05278105,0.05822 0.10565584,0.113718 0.16096813,0.169405 0.34152994,-0.11114 0.70809103,-0.169405 1.08566771,-0.169405 1.9906798,0 3.6095017,1.618447 3.6095017,3.609361 0,1.987961 -1.6188219,3.609361 -3.6095017,3.609361 -1.99072673,0 -3.6093612,-1.6214 -3.6093612,-3.609361 0,-0.222093 0.019406,-0.438702 0.058219,-0.649826 -0.2987801,-0.345702 -0.6785599,-0.625122 -1.1196519,-0.828184 -0.027469,-0.01303 -0.052922,-0.02878 -0.080906,-0.0412 0,3.75e-4 -1.875e-4,7.5e-4 -1.875e-4,0.0011 -0.00239,-0.0011 -0.00459,-0.0024 -0.00698,-0.0033 -0.1554369,0.480279 -0.2387803,0.991121 -0.2387803,1.521416 0,2.75427 2.2406632,4.997652 4.9976995,4.997652 2.7542707,0 4.9976527,-2.243382 4.9976527,-4.997652 -4.69e-5,-2.757083 -2.2434289,-4.9977 -4.9976995,-4.9977 z"
       style="fill:#333333"
       id="path3414" />
    <path
       inkscape:connector-curvature="0"
       class="st0"
       d="M 0.74594881,28.6769 2.2812866,27.141563 c -0.1887649,-0.272109 -3.5054863,-3.296124 -3.6248765,-3.604514 -0.2942801,-0.746903 -0.4110922,-1.57415 -0.4247796,-2.362585 -0.016641,-0.94134 0.108234,-1.971273 0.4969668,-2.854395 0.083859,-0.192843 2.7270674,-2.831617 2.83877,-3.008523 0.012656,-0.01903 0.022734,-0.03881 0.036094,-0.05784 0.00253,-0.0031 0.010785,-0.0062 0.00769,-0.0093 L 0.05640435,13.689443 c -0.191718,0.127781 -2.93800395,2.689915 -3.14912815,2.784414 -0.07214,0.03056 -0.1444682,0.06113 -0.2193742,0.08897 -0.7747001,0.285843 -1.61315,0.421873 -2.4515999,0.421873 -0.6747162,0 -1.3465261,-0.08883 -1.9879611,-0.252702 -0.2332491,-0.05822 -0.4582951,-0.136031 -0.6747162,-0.230343 -0.2414991,-0.10289 -3.1640388,-2.869114 -3.3778818,-3.010676 l -1.560415,1.560463 c 0.14428,0.210937 2.958773,3.080051 3.053085,3.313112 0.02508,0.05278 0.04725,0.105469 0.06666,0.161156 0.5220452,1.427151 0.5414513,3.101285 0.127781,4.556186 -0.039,0.13603 -0.08348,0.272108 -0.136218,0.402467 -0.124875,0.324842 -3.126255,3.293824 -3.32341,3.571417 l 1.538244,1.538244 c 0.266577,-0.183281 3.3983159,-2.996638 3.7037522,-3.113263 0.013922,-0.0057 0.030562,-0.01116 0.044484,-0.01664 0.7802314,-0.28603 1.6159157,-0.419342 2.4516,-0.419342 0.6719974,0 1.3439948,0.08606 1.9852424,0.249936 0.2305303,0.05822 0.449717,0.133312 0.6635599,0.224859 0.2719677,0.116671 3.729859,3.363308 3.93584031,3.157326 z"
       style="fill:#333333"
       id="path3424"
       sodipodi:nodetypes="sccccccscccsccccccccccccsccs" />
    <path
       inkscape:connector-curvature="0"
       class="st0"
       d="m -9.5815114,15.726954 -0.02489,0.02213 c 0.00277,0.0028 0.00553,0.0057 0.00825,0.0057 0.00567,-0.0082 0.011156,-0.01669 0.01664,-0.02784 z"
       style="fill:#333333"
       id="path3426" />
    <circle
       r="2.0134568"
       cy="14.0083"
       cx="-12.755002"
       id="path3479"
       style="fill:#333333" />
    <circle
       r="2.0134568"
       cy="14.008369"
       cx="1.2495462"
       id="path3479-3"
       style="fill:#333333" />
    <circle
       r="2.0134568"
       cy="27.807472"
       cx="1.2495538"
       id="path3479-6"
       style="fill:#333333" />
    <circle
       r="2.0134568"
       cy="27.847139"
       cx="-12.763877"
       id="path3479-7"
       style="fill:#333333" />
  </g>
</svg>
