<?xml version="1.0" encoding="UTF-8" standalone="no"?>
<svg xmlns="http://www.w3.org/2000/svg" xmlns:sodipodi="http://sodipodi.sourceforge.net/DTD/sodipodi-0.dtd" xmlns:inkscape="http://www.inkscape.org/namespaces/inkscape" version="1.1" width="24" height="24" viewBox="0 0 24 24">
 <metadata id="metadata11"/>
 <g id="g3" transform="matrix(0.25417844,0,0,0.25417844,3.6293682e-4,1.6054998)" fill="#333333">
  <path d="m 47.209,81.789 -3.312,-6.008 h -13.25 c -0.414,-1.047 0.625,-3.32 0.625,-3.32 2.688,-3.523 11.594,-7.234 11.594,-7.234 l -2.688,-35 L 5.389,28.148 C -0.408,27.32 0.006,23.195 0.006,23.195 c 0,-3.32 6,-4.359 6,-4.359 L 40.592,14.922 43.069,4.555 H 38.311 V 3.102 h 6.406 L 47.413,0 49.694,3.102 h 6.422 v 1.453 h -4.758 l 2.477,10.367 34.57,3.914 c 0,0 6.008,1.039 6.008,4.359 0,0 0.414,4.125 -5.383,4.953 l -34.781,2.078 -2.694,35 c 0,0 8.913,3.711 11.594,7.233 0,0 1.039,2.272 0.625,3.32 H 50.53 l -3.321,6.01" id="path5" inkscape:connector-curvature="0"/>
 </g>
</svg>
