<?xml version="1.0" encoding="UTF-8" standalone="no"?>
<svg
   xmlns:dc="http://purl.org/dc/elements/1.1/"
   xmlns:cc="http://creativecommons.org/ns#"
   xmlns:rdf="http://www.w3.org/1999/02/22-rdf-syntax-ns#"
   xmlns:svg="http://www.w3.org/2000/svg"
   xmlns="http://www.w3.org/2000/svg"
   xmlns:sodipodi="http://sodipodi.sourceforge.net/DTD/sodipodi-0.dtd"
   xmlns:inkscape="http://www.inkscape.org/namespaces/inkscape"
   version="1.1"
   width="24"
   height="24"
   viewBox="0 0 24 24"
   id="svg2"
   inkscape:version="0.92.2 (5c3e80d, 2017-08-06)"
   sodipodi:docname="94-82.svg">
  <defs
     id="defs9" />
  <sodipodi:namedview
     pagecolor="#ffffff"
     bordercolor="#666666"
     borderopacity="1"
     objecttolerance="10"
     gridtolerance="10"
     guidetolerance="10"
     inkscape:pageopacity="0"
     inkscape:pageshadow="2"
     inkscape:window-width="1865"
     inkscape:window-height="1025"
     id="namedview7"
     showgrid="false"
     inkscape:zoom="19.666667"
     inkscape:cx="6.4566177"
     inkscape:cy="16.399191"
     inkscape:window-x="55"
     inkscape:window-y="27"
     inkscape:window-maximized="1"
     inkscape:current-layer="svg2" />
  <metadata
     id="metadata11">
    <rdf:RDF>
      <cc:Work
         rdf:about="">
        <dc:format>image/svg+xml</dc:format>
        <dc:type
           rdf:resource="http://purl.org/dc/dcmitype/StillImage" />
        <dc:title></dc:title>
      </cc:Work>
    </rdf:RDF>
  </metadata>
  <path
     inkscape:connector-curvature="0"
     style="fill:#333333;stroke-width:0.63999999"
     id="path13"
     d="m 12.000001,5.8108807 c -0.06939,5e-7 -0.110425,0.047717 -0.249439,0.4263476 -0.01641,0.044691 -0.04954,0.2352874 -0.04954,0.2352874 0,0 -0.111076,0.00531 -0.139757,0.00531 -0.05545,2e-6 -0.13044,0.049441 -0.168064,0.1096821 -0.116723,0.1869076 -0.298973,1.2155808 -0.298973,1.6894683 0,0.2940804 -0.02464,0.4703348 -0.07077,0.5059562 C 10.984544,8.8129951 10.78045,8.9056705 10.57058,8.9881478 10.20028,9.1336764 10.107445,9.1423139 7.428704,9.2853526 5.3073894,9.3986271 4.6396301,9.4519596 4.5398016,9.5153325 4.263001,9.6910474 4.2485894,10.097023 4.4920384,10.865139 l 0.1256045,0.396273 c 0,0 6.5296631,1.080907 6.5296631,1.080907 l 0.548414,4.014035 -0.145064,0.04069 c -0.07974,0.02207 -0.615417,0.08098 -1.190589,0.130912 -0.5751728,0.04993 -1.0782982,0.117375 -1.1180576,0.150372 -0.1598324,0.132651 -0.034232,1.178206 0.1415272,1.178206 0.2773999,0 1.3030394,0.137921 1.3568814,0.182214 0.03842,0.03163 0.919866,0.150372 1.259583,0.150371 0.339717,10e-7 1.221143,-0.118747 1.259583,-0.150371 0.05386,-0.04428 1.079482,-0.182214 1.356882,-0.182214 0.175756,0 0.30136,-1.045557 0.141526,-1.178207 -0.03978,-0.03298 -0.542883,-0.100441 -1.118056,-0.150371 -0.575173,-0.04993 -1.110851,-0.108834 -1.19059,-0.130912 l -0.145063,-0.04069 0.548413,-4.014036 c 0,0 6.529665,-1.080907 6.529666,-1.080906 l 0.125601,-0.39628 C 19.75141,10.097018 19.736998,9.6910442 19.460199,9.5153282 19.360369,9.4519551 18.692611,9.398622 16.571297,9.2853481 13.892555,9.1423085 13.799721,9.133671 13.429416,8.9881436 13.219546,8.9056665 13.015453,8.8129905 12.976531,8.7829308 c -0.04612,-0.035622 -0.07076,-0.2118762 -0.07076,-0.5059565 0,-0.473888 -0.182249,-1.5025627 -0.298975,-1.6894686 -0.03762,-0.060242 -0.112608,-0.1096844 -0.168061,-0.1096828 -0.02869,-2e-6 -0.137989,-0.00531 -0.137989,-0.00531 0,0 -0.03313,-0.1905976 -0.04954,-0.2352868 C 12.112193,5.8585947 12.069395,5.8108786 12,5.8108786 Z" />
</svg>
