<?xml version="1.0" encoding="UTF-8" standalone="no"?>
<svg xmlns="http://www.w3.org/2000/svg" xmlns:sodipodi="http://sodipodi.sourceforge.net/DTD/sodipodi-0.dtd" xmlns:inkscape="http://www.inkscape.org/namespaces/inkscape" width="24" height="24" version="1.1">
 <metadata id="metadata4106"/>
 <g inkscape:label="Ebene 1" inkscape:groupmode="layer" id="layer1" transform="translate(-317.72197,-453.96166)">
  <g id="g4068" transform="matrix(0.24863142,0.13038661,-0.13038661,0.24863142,298.90668,257.36886)">
   <g transform="matrix(0.83109018,-0.84335752,0.84335752,0.83109018,-425.72131,478.52845)" id="g4046">
    <path d="m 443.65385,563.57293 c -1.05193,-0.0129 -2.10701,0.0598 -3.12744,0.18048 l 0.06,2.75094 c 0.99036,-0.12733 2.00989,-0.19417 3.0337,-0.18162 12.83055,0.15709 23.11001,11.57671 22.93914,25.53274 -0.002,0.17643 -0.001,0.35569 -0.007,0.53121 l 2.50057,-0.0319 c 0.004,-0.15699 0.004,-0.31113 0.006,-0.46872 0.18944,-15.473 -11.18011,-28.13898 -25.40528,-28.31315 z" id="path3194" inkscape:connector-curvature="0" stroke="#000000" stroke-width="0"/>
    <path d="m 442.89836,570.53348 c -0.79783,-0.01 -1.59802,0.0454 -2.37195,0.13688 l 0.0455,2.52833 c 0.75111,-0.0966 1.52436,-0.14725 2.30084,-0.13774 9.73108,0.11913 16.95911,8.33817 16.82952,18.92284 -0.002,0.1338 -10e-4,0.26976 -0.005,0.40289 l 2.46472,-0.0242 c 0.003,-0.11907 0.003,-0.23598 0.004,-0.35547 0.14368,-11.73519 -8.47933,-21.34145 -19.26811,-21.47354 z" id="path3194-4" inkscape:connector-curvature="0" sodipodi:nodetypes="cccscccccc" stroke="#000000" stroke-width="0"/>
    <path d="m 442.20847,576.88946 c -0.56577,-0.007 -1.13323,0.0322 -1.68206,0.0971 l 0.0323,2.42658 c 0.53265,-0.0685 1.081,-0.10442 1.63165,-0.0977 6.90079,0.46331 10.91426,5.09 11.13804,12.78552 -10e-4,0.0949 -7.7e-4,0.19129 -0.003,0.28572 l 2.54446,-0.0171 c 0.002,-0.0845 0.002,-0.16735 0.003,-0.25208 0.10189,-8.32201 -6.01312,-15.13429 -13.66399,-15.22797 z" id="path3194-0" inkscape:connector-curvature="0" sodipodi:nodetypes="cccccccccc" stroke="#000000" stroke-width="0"/>
   </g>
   <g transform="translate(4.3272904,0)" id="g4061">
    <path inkscape:connector-curvature="0" d="m 428.82958,632.50381 c 1.51739,8.39514 3.18843,16.70366 3.25039,25.86381 13.43389,-7.07008 16.24573,-8.60045 29.67957,-15.67062 -4.84405,-3.37683 -9.59166,-7.39353 -13.56307,-11.22903 -6.14118,1.98174 -12.37667,2.63171 -19.36689,1.03584 z m 3.03559,3.5588 2.90054,0.34654 c 1.65734,7.68989 1.24429,15.11973 -0.19508,18.63703 -0.5999,-6.11993 -0.9108,-10.44519 -2.70546,-18.98357 z" id="path4401"/>
    <path inkscape:connector-curvature="0" d="m 398.11826,602.8218 c 5.46403,15.3042 20.05405,26.26585 37.2409,26.32057 17.18753,0.0547 31.81943,-10.80285 37.38029,-26.07291 l -74.62119,-0.24766 z m 6.11343,4.37701 6.55964,0.18844 c 4.52018,8.23085 9.05564,11.77782 15.40988,16.82483 -9.13544,-2.75636 -16.94711,-7.80772 -21.96952,-17.01327 z" id="path3423-9-5"/>
    <g id="g4055" transform="translate(2.1996971,2)">
     <rect y="594.76" x="431.59" height="8.08" width="3.283" id="rect4051" stroke="#000000" stroke-linejoin="round" stroke-linecap="round" stroke-width="0"/>
     <ellipse id="path4053" cx="433.23" cy="594.01" rx="3.409" ry="3.788" stroke="#000000" stroke-linejoin="round" stroke-linecap="round" stroke-width="0"/>
    </g>
   </g>
  </g>
 </g>
</svg>
