<?xml version="1.0" encoding="UTF-8" standalone="no"?>
<svg xmlns="http://www.w3.org/2000/svg" xmlns:sodipodi="http://sodipodi.sourceforge.net/DTD/sodipodi-0.dtd" xmlns:inkscape="http://www.inkscape.org/namespaces/inkscape" width="24" height="24" version="1.1">
 <metadata id="metadata3212"/>
 <g inkscape:label="Layer 1" inkscape:groupmode="layer" id="layer1" transform="translate(0,-1028.3622)">
  <g id="g3121">
   <path d="m 587.001,191.775 c 0,-34.867 -24.173,-64.178 -56.635,-72.094 -0.487,-0.119 -0.977,-0.23 -1.468,-0.34 -1.321,0.132 -2.625,-0.138 -3.761,-0.734 -4.019,-0.676 -8.14,-1.047 -12.347,-1.047 -14.877,0 -29.225,4.381 -41.491,12.671 -3.054,2.063 -7.2,1.261 -9.263,-1.792 -0.774,-1.146 -1.145,-2.447 -1.144,-3.735 0.002,-2.139 1.03,-4.239 2.936,-5.526 14.481,-9.786 31.411,-14.959 48.962,-14.959 1.654,0 3.297,0.051 4.928,0.142 C 499.864,65.46 460.832,40.014 417.312,40.014 c -46.851,0 -87.649,29.456 -103.479,71.663 -2.983,7.955 -5.083,16.361 -6.166,25.111 -0.418,3.378 -3.293,5.852 -6.612,5.852 -0.207,0 -0.417,-0.019 -0.627,-0.039 -0.067,-0.006 -0.133,-0.004 -0.2,-0.012 -3.656,-0.452 -6.253,-3.783 -5.801,-7.439 1.036,-8.369 2.905,-16.456 5.507,-24.189 -42.585,1.412 -76.817,35.727 -78.098,78.348 8.087,0.308 15.9,2.767 22.695,7.162 1.975,1.276 3.044,3.421 3.043,5.609 -0.001,1.24 -0.342,2.495 -1.065,3.614 -2,3.095 -6.129,3.979 -9.224,1.978 -4.437,-2.869 -9.495,-4.561 -14.755,-4.959 -0.804,-0.062 -1.611,-0.097 -2.423,-0.097 -14.922,0 -27.461,10.372 -30.804,24.284 11.929,-3.955 24.376,-6.65 37.163,-7.951 5.847,-0.594 11.765,-0.901 17.736,-0.901 5.979,0 11.893,0.314 17.732,0.909 11.826,1.203 23.331,3.594 34.384,7.062 20.481,6.429 39.406,16.55 55.945,29.621 6.605,5.221 12.835,10.904 18.624,17.02 h 135.23 c 44.668,0 80.877,-36.205 80.885,-80.871 0,-0.006 -10e-4,-0.01 -10e-4,-0.014 z" id="path3123" inkscape:connector-curvature="0" fill="#b3b3b3"/>
   <path d="m 521.806,465.719 c -1.138,0 -2.266,0.055 -3.387,0.139 -14.255,1.062 -27.023,8.777 -34.622,21.114 -2.721,4.414 -8.506,5.79 -12.921,3.07 -2.88,-1.773 -4.455,-4.852 -4.456,-8.002 0,-1.681 0.439,-3.382 1.385,-4.918 11.22,-18.215 30.377,-29.352 51.597,-30.136 -1.799,-60.006 -50.021,-108.336 -109.977,-110.315 3.667,10.895 6.302,22.287 7.761,34.077 0.637,5.147 -3.02,9.836 -8.166,10.473 -0.094,0.012 -0.187,0.009 -0.281,0.018 -0.296,0.027 -0.592,0.055 -0.884,0.055 -4.672,0 -8.72,-3.482 -9.308,-8.238 -1.525,-12.323 -4.483,-24.163 -8.688,-35.367 -9.626,-25.658 -25.811,-47.963 -46.402,-65.029 -2.799,-2.319 -5.68,-4.541 -8.637,-6.662 -25.652,-18.406 -57.028,-29.169 -90.619,-29.169 -2.87,0 -5.725,0.084 -8.565,0.239 -15.718,0.86 -30.94,4.069 -45.253,9.344 -38.31,14.117 -70.116,42.994 -87.554,81 2.307,-0.129 4.63,-0.201 6.969,-0.201 24.705,0 48.537,7.281 68.921,21.057 2.683,1.812 4.13,4.769 4.133,7.779 0.002,1.812 -0.52,3.645 -1.61,5.259 -2.904,4.298 -8.741,5.427 -13.038,2.522 -17.267,-11.669 -37.463,-17.836 -58.405,-17.836 -5.904,0 -11.693,0.5 -17.333,1.446 -1.631,0.87 -3.511,1.261 -5.415,1.056 -0.665,0.148 -1.328,0.304 -1.988,0.465 -45.703,11.139 -79.73,52.417 -79.73,101.501 0,0.011 -0.001,0.021 -0.001,0.031 0.017,62.868 50.986,113.828 113.86,113.828 H 405.6 512.417 c 29.816,0 53.992,-24.176 53.992,-53.997 0,-24.594 -20.009,-44.603 -44.603,-44.603 z" id="path3125" inkscape:connector-curvature="0" fill="#b3b3b3"/>
  </g>
  <path inkscape:connector-curvature="0" d="m 21.88398,1038.5155 c -0.04769,0 -0.09489,0 -0.141856,0.01 -0.597215,0.045 -1.132066,0.3756 -1.450436,0.9034 -0.11399,0.189 -0.356287,0.2478 -0.541245,0.1314 -0.120706,-0.076 -0.186688,-0.2076 -0.186768,-0.3423 0,-0.072 0.01841,-0.1448 0.05806,-0.2105 0.469996,-0.7795 1.272514,-1.256 2.161522,-1.2895 -0.07535,-2.5677 -2.09554,-4.6358 -4.607196,-4.7205 0.153595,0.4662 0.263928,0.9537 0.325044,1.4582 0.0267,0.2202 -0.126455,0.4209 -0.342093,0.4481 -0.0039,5e-4 -0.0077,4e-4 -0.01174,8e-4 -0.01238,0 -0.02485,0 -0.03703,0 -0.195694,0 -0.365293,-0.1491 -0.389981,-0.3525 -0.06386,-0.5273 -0.187772,-1.0339 -0.363886,-1.5134 -0.403249,-1.0979 -1.081283,-2.0523 -1.943954,-2.7826 -0.117288,-0.099 -0.237952,-0.1944 -0.361794,-0.2851 -1.07473,-0.7876 -2.389102,-1.2481 -3.796314,-1.2481 -0.120224,0 -0.239844,0 -0.3587801,0.01 -0.6584926,0.037 -1.2961572,0.174 -1.895825,0.3997 -1.6048771,0.604 -2.9373425,1.8398 -3.6678885,3.4661 0.096661,-0.01 0.1939652,-0.01 0.291953,-0.01 1.0349234,0 2.0333377,0.3115 2.8872831,0.901 0.1123824,0.077 0.1730167,0.204 0.1731373,0.3328 8.04e-5,0.077 -0.021793,0.156 -0.06747,0.225 -0.1216706,0.184 -0.3661778,0.2323 -0.5461907,0.1079 -0.7233486,-0.4993 -1.5694133,-0.7631 -2.4467601,-0.7631 -0.2473619,0 -0.4898988,0.021 -0.7261633,0.062 -0.068354,0.037 -0.1470822,0.054 -0.2268556,0.045 -0.027864,0.01 -0.055648,0.013 -0.083311,0.02 -1.9144816,0.4768 -3.33994892,2.243 -3.33994892,4.3434 0,5e-4 -4.021e-5,9e-4 -4.021e-5,0 6.8354e-4,2.6902 2.13594933,4.8707 4.76987943,4.8707 l 11.9984616,0 4.47487,0 c 1.249034,0 2.261883,-1.0344 2.261883,-2.3105 0,-1.0524 -0.838265,-1.9086 -1.868564,-1.9086 z" id="path4305" fill="#b3b3b3" stroke="#808080" stroke-width="0.495"/>
  <g id="g4307" transform="matrix(0.04105515,0,0,0.04105515,-0.37250317,1028.0717)">
   <path inkscape:connector-curvature="0" d="m 45.378,497.42 c -3.818,10.365 1.488,21.863 11.853,25.682 2.281,0.84 4.616,1.238 6.912,1.238 8.14,0 15.791,-5.008 18.769,-13.092 l 49.855,-135.322 -42.627,0 -44.762,121.494 z" id="path4309" fill="#b3b3b3"/>
   <path inkscape:connector-curvature="0" d="m 181.378,497.42 c -3.818,10.365 1.488,21.863 11.853,25.682 2.281,0.84 4.616,1.238 6.912,1.238 8.14,0 15.791,-5.008 18.769,-13.092 l 49.855,-135.322 -42.627,0 -44.762,121.494 z" id="path4311" fill="#b3b3b3"/>
   <path inkscape:connector-curvature="0" d="m 317.379,497.42 c -3.818,10.365 1.488,21.863 11.853,25.682 2.28,0.84 4.616,1.238 6.912,1.238 8.14,0 15.79,-5.008 18.769,-13.092 l 49.855,-135.322 -42.628,0 -44.761,121.494 z" id="path4313" fill="#b3b3b3"/>
   <path inkscape:connector-curvature="0" d="m 498.139,375.926 -44.76,121.494 c -3.818,10.365 1.488,21.863 11.853,25.682 2.28,0.84 4.616,1.238 6.912,1.238 8.14,0 15.79,-5.008 18.769,-13.092 l 49.855,-135.322 -42.629,0 z" id="path4315" fill="#b3b3b3"/>
   <path inkscape:connector-curvature="0" d="m 91.823,555.93 c -3.818,10.363 1.488,21.861 11.853,25.68 2.281,0.842 4.616,1.24 6.912,1.24 8.14,0 15.791,-5.008 18.769,-13.092 l 71.411,-193.832 -42.628,0 -66.317,180.004 z" id="path4317" fill="#b3b3b3"/>
   <path inkscape:connector-curvature="0" d="m 227.823,555.93 c -3.818,10.363 1.488,21.861 11.853,25.68 2.281,0.842 4.616,1.24 6.912,1.24 8.141,0 15.791,-5.008 18.77,-13.092 l 71.41,-193.832 -42.628,0 -66.317,180.004 z" id="path4319" fill="#b3b3b3"/>
   <path inkscape:connector-curvature="0" d="m 363.822,555.93 c -3.818,10.363 1.488,21.861 11.854,25.68 2.281,0.842 4.615,1.24 6.912,1.24 8.141,0 15.791,-5.008 18.77,-13.092 l 71.41,-193.832 -42.629,0 -66.317,180.004 z" id="path4321" fill="#b3b3b3"/>
  </g>
 </g>
</svg>
