<?xml version="1.0" encoding="UTF-8" standalone="no"?>
<svg xmlns="http://www.w3.org/2000/svg" xmlns:sodipodi="http://sodipodi.sourceforge.net/DTD/sodipodi-0.dtd" xmlns:inkscape="http://www.inkscape.org/namespaces/inkscape" version="1.0" width="24" height="24" viewBox="0 0 24 24" enable-background="new 0 0 100 68.387">
 <metadata id="metadata15"/>
 <path inkscape:connector-curvature="0" d="m 12.349522,5.5937539 0,-0.5564514 0.72689,0 0,-0.352091 c 0,-0.6262128 0.547149,-1.1323266 1.223973,-1.1323266 0.675731,0 1.222335,0.5063872 1.222335,1.1323266 l 0,0.352091 0.711293,0 0,0.5564514 -3.884491,0 z" id="path3" fill="#0000ff" stroke="#000000" stroke-width="0"/>
 <g id="g4137" transform="matrix(0.99169525,0,0,0.99169525,0.09965485,0.10761902)">
  <path id="path5" d="m 18.133659,15.805247 c -1.105106,0 -2.000949,0.895303 -2.000949,1.999789 0,1.104698 0.895843,2.000211 2.000949,2.000211 1.104261,0 1.999051,-0.895513 1.999051,-2.000211 0,-1.104486 -0.89479,-1.999789 -1.999051,-1.999789 z m -4.23e-4,2.956815 c -0.528738,0 -0.957166,-0.428271 -0.957166,-0.956814 0,-0.528545 0.428428,-0.956183 0.957166,-0.956183 0.528108,0 0.956115,0.427428 0.956115,0.956183 0,0.528543 -0.428007,0.956814 -0.956115,0.956814 z" inkscape:connector-curvature="0" stroke="#000000" stroke-width="0.4"/>
  <path id="path7" d="m 5.3582413,15.783389 c -1.1040294,0 -1.9996839,0.896239 -1.9996839,2.000421 0,1.104815 0.8954438,1.999579 1.9996839,1.999579 1.1048723,0 2.0003161,-0.894764 2.0003161,-1.999579 0,-1.104182 -0.8954438,-2.000421 -2.0003161,-2.000421 z m 0.00442,2.959234 c -0.528417,0 -0.956966,-0.427895 -0.956966,-0.956916 0,-0.52839 0.428549,-0.956285 0.956966,-0.956285 0.5284173,0 0.9567554,0.427895 0.9567554,0.956285 -2.108e-4,0.529021 -0.4283381,0.956916 -0.9567554,0.956916 z" inkscape:connector-curvature="0" stroke="#000000" stroke-width="0.4"/>
  <ellipse ry="3.917" rx="3.957" cy="12" cx="10.695" id="path4147" fill="#ff0000" stroke-width="0.1"/>
  <path sodipodi:nodetypes="cccscsccscsssscscccccccccccccccccccc" id="path9" d="m 21.878581,11.460007 c 0.666324,0.12974 1.065414,0.417658 1.366258,2.062197 l 0.475711,2.968492 c 0.171341,0.965994 -0.374646,1.318312 -1.055072,1.318312 l -1.634669,0 c 0,-1.600589 -1.296688,-2.902683 -2.897041,-2.902683 -1.600589,0 -2.898687,1.302329 -2.898687,2.902683 l -6.9861805,0 c 0,-1.600589 -1.2973932,-2.902683 -2.8979817,-2.902683 -1.6012936,0 -2.8986868,1.302329 -2.8986868,2.902683 l -1.3545068,0 c -0.47688607,0 -0.84871145,-0.361015 -0.84871145,-0.827089 l 0,-9.7605333 c 0,-0.5318841 0.41977253,-0.9591779 0.93426415,-0.9591779 l 15.0765561,0 2.463401,0 c 0.666325,0 1.153788,0.3309294 1.394698,0.9107608 z m -5.846731,-3.7820206 0,3.6337136 4.183427,0 -1.644539,-3.6337136 z m -4.193965,3.1133456 0,-2.487845 -2.4878456,0 0,2.487845 -2.4883156,0 0,2.488316 2.4883156,0 0,2.48761 2.4878456,0 0,-2.48761 2.487846,0 0,-2.488316 z" inkscape:connector-curvature="0" fill="#ffffff" stroke="#000000" stroke-width="0.7"/>
 </g>
</svg>
