<?xml version="1.0" encoding="UTF-8" standalone="no"?>
<svg xmlns="http://www.w3.org/2000/svg" xmlns:sodipodi="http://sodipodi.sourceforge.net/DTD/sodipodi-0.dtd" xmlns:inkscape="http://www.inkscape.org/namespaces/inkscape" width="24" height="24" version="1.0">
 <metadata id="metadata3205"/>
 <g inkscape:label="Layer 1" inkscape:groupmode="layer" id="layer1" transform="translate(0,-73)">
  <text x="-35.536" y="68.786" id="text3301" font-family="RoadSign" font-size="72"><tspan sodipodi:role="line" id="tspan3303" x="-35.536" y="68.786"/>
  </text>
  <text x="-14.286" y="63.25" id="text3305" font-family="RoadSign" font-size="72"><tspan sodipodi:role="line" id="tspan3307" x="-14.286" y="63.25"/>
  </text>
  <text x="-10.536" y="52.54" id="text3309" font-family="RoadSign" font-size="72"><tspan sodipodi:role="line" id="tspan3311" x="-10.536" y="52.54"/>
  </text>
  <g id="g4201" transform="translate(-24.61803,17.041885)">
   <path id="path3555" d="m 40.755457,59.2729 c -1.8e-5,-0.549346 -0.194586,-1.007152 -0.583704,-1.37342 -0.366262,-0.366222 -0.824068,-0.549344 -1.373419,-0.549368 -0.526493,2.4e-5 -0.984299,0.194592 -1.37342,0.583703 -0.36626,0.366269 -0.549382,0.81263 -0.549368,1.339085 -1.4e-5,0.526499 0.183108,0.984305 0.549368,1.373419 0.389121,0.366266 0.846927,0.549388 1.37342,0.549368 0.549351,2e-5 1.007157,-0.183102 1.373419,-0.549368 0.389118,-0.366224 0.583686,-0.82403 0.583704,-1.373419" inkscape:connector-curvature="0"/>
   <path id="path3551" d="m 41.957199,64.938256 c -1.9e-5,-0.572241 -0.274702,-0.85837 -0.824052,-0.858387 l -2.300478,0 -1.716775,-3.227537 c -0.274697,-0.389114 -0.652388,-0.583682 -1.133071,-0.583703 -0.5036,2.1e-5 -0.88129,0.183144 -1.133071,0.549368 l -3.708234,3.639562 c -0.297582,0.297591 -0.446369,0.709617 -0.446361,1.236078 -8e-6,0.686725 0.21745,1.144531 0.652374,1.37342 l 4.188931,2.300478 -0.03434,4.18893 c -1.2e-5,0.686717 0.343342,1.030072 1.030065,1.030065 0.709586,7e-6 1.064386,-0.343348 1.0644,-1.030065 l 0,-5.150324 c -1.4e-5,-0.27467 -0.125911,-0.62947 -0.37769,-1.0644 l -2.815511,-1.510762 2.266143,-2.300478 0.961394,1.854117 c 0.137327,0.251809 0.377675,0.377706 0.721045,0.37769 l 2.74684,0 c 0.572239,1.6e-5 0.858368,-0.274668 0.858387,-0.824052" inkscape:connector-curvature="0"/>
   <path id="path3547" d="m 47.857557,73.316117 c -2.7e-5,1.232373 -0.434978,2.283509 -1.304859,3.153408 -0.86993,0.86991 -1.921065,1.304863 -3.153408,1.304859 -1.232387,4e-6 -2.283522,-0.434949 -3.153408,-1.304859 -0.869924,-0.869899 -1.304876,-1.921035 -1.304859,-3.153408 -1.7e-5,-1.232357 0.434935,-2.283492 1.304859,-3.153408 0.869886,-0.869893 1.921021,-1.304845 3.153408,-1.304859 1.232343,1.4e-5 2.283478,0.434966 3.153408,1.304859 0.869881,0.869916 1.304832,1.921051 1.304859,3.153408" inkscape:connector-curvature="0" fill="none" stroke="#000000" stroke-width="1.583"/>
   <path id="text3540" d="m 34.295036,73.316117 c -1.1e-5,1.232373 -0.434964,2.283509 -1.304858,3.153408 -0.869915,0.86991 -1.92105,1.304863 -3.153408,1.304859 -1.232373,4e-6 -2.283508,-0.434949 -3.153409,-1.304859 -0.869909,-0.869899 -1.304861,-1.921035 -1.304858,-3.153408 -3e-6,-1.232357 0.434949,-2.283492 1.304858,-3.153408 0.869901,-0.869893 1.921036,-1.304845 3.153409,-1.304859 1.232358,1.4e-5 2.283493,0.434966 3.153408,1.304859 0.869894,0.869916 1.304847,1.921051 1.304858,3.153408" inkscape:connector-curvature="0" fill="none" stroke="#000000" stroke-width="1.583"/>
  </g>
 </g>
</svg>
