<?xml version="1.0" encoding="UTF-8" standalone="no"?>
<svg xmlns="http://www.w3.org/2000/svg" xmlns:sodipodi="http://sodipodi.sourceforge.net/DTD/sodipodi-0.dtd" xmlns:inkscape="http://www.inkscape.org/namespaces/inkscape" width="24" height="24" version="1.1">
 <metadata id="metadata4044"/>
 <g inkscape:label="Layer 1" inkscape:groupmode="layer" id="layer1" transform="translate(0,-1028.3622)">
  <path sodipodi:type="spiral" id="path4049" sodipodi:cx="334.28571" sodipodi:cy="423.79074" sodipodi:expansion="0.69" sodipodi:revolution="0.98159838" sodipodi:radius="259.73999" sodipodi:argument="-10.691573" sodipodi:t0="0.27220243" d="M 237.31145,381.40835 C 239.11471,299.73947 328.93243,255.98729 401.1349,270.8345 508.43992,292.89994 562.8951,410.94953 535.07058,511.54334 505.06609,620.0184 395.6532,687.41952 285.64468,678.93563" transform="matrix(0.02139504,-0.00206403,0.00238602,0.0185078,10.27631,1029.4979)" fill="none" stroke="#4d4d4d" stroke-linecap="round" stroke-width="99.89"/>
  <path d="m 18.038234,1041.4669 -4.258212,-0.026 -12.79635679,0" id="path4561" inkscape:connector-curvature="0" sodipodi:nodetypes="ccc" fill="none" stroke="#4d4d4d" stroke-linecap="round" stroke-width="1.9"/>
  <path sodipodi:type="spiral" id="path4049-7" sodipodi:cx="334.28571" sodipodi:cy="423.79074" sodipodi:expansion="0.69" sodipodi:revolution="0.98159838" sodipodi:radius="259.73999" sodipodi:argument="-10.691573" sodipodi:t0="0.27220243" d="M 237.31145,381.40835 C 239.11471,299.73947 328.93243,255.98729 401.1349,270.8345 508.43992,292.89994 562.8951,410.94953 535.07058,511.54334 505.06609,620.0184 395.6532,687.41952 285.64468,678.93563" transform="matrix(0.01283702,-0.00123842,0.00143161,0.01110468,5.8580561,1031.741)" fill="none" stroke="#4d4d4d" stroke-linecap="round" stroke-width="166.48"/>
  <path d="m 10.521214,1038.9285 -1.4203126,-0.028 -4.2681873,0" id="path4561-9" inkscape:connector-curvature="0" sodipodi:nodetypes="ccc" fill="none" stroke="#4d4d4d" stroke-linecap="round" stroke-width="1.9"/>
  <path sodipodi:type="spiral" id="path4049-0" sodipodi:cx="334.28571" sodipodi:cy="423.79074" sodipodi:expansion="0.69" sodipodi:revolution="0.98159838" sodipodi:radius="259.73999" sodipodi:argument="-10.691573" sodipodi:t0="0.27220243" d="M 237.31145,381.40835 C 239.11471,299.73947 328.93243,255.98729 401.1349,270.8345 508.43992,292.89994 562.8951,410.94953 535.07058,511.54334 505.06609,620.0184 395.6532,687.41952 285.64468,678.93563" transform="matrix(0.00855802,8.25612e-4,9.54408e-4,-0.00740312,12.757315,1048.7221)" fill="none" stroke="#4d4d4d" stroke-linecap="round" stroke-width="249.72"/>
  <path d="m 15.912862,1043.9369 -3.193959,0 -9.5981739,0" id="path4561-3" inkscape:connector-curvature="0" sodipodi:nodetypes="ccc" fill="none" stroke="#4d4d4d" stroke-linecap="round" stroke-width="1.9"/>
 </g>
</svg>
