<?xml version="1.0" encoding="UTF-8" standalone="no"?>
<svg
   width="800px"
   height="800px"
   viewBox="0 0 24 24"
   version="1.1"
   id="svg9"
   sodipodi:docname="my-location.svg"
   inkscape:version="1.1.2 (0a00cf5339, 2022-02-04)"
   xmlns:inkscape="http://www.inkscape.org/namespaces/inkscape"
   xmlns:sodipodi="http://sodipodi.sourceforge.net/DTD/sodipodi-0.dtd"
   xmlns="http://www.w3.org/2000/svg"
   xmlns:svg="http://www.w3.org/2000/svg"
   xmlns:rdf="http://www.w3.org/1999/02/22-rdf-syntax-ns#"
   xmlns:cc="http://creativecommons.org/ns#"
   xmlns:dc="http://purl.org/dc/elements/1.1/">
  <defs
     id="defs13" />
  <sodipodi:namedview
     id="namedview11"
     pagecolor="#ffffff"
     bordercolor="#666666"
     borderopacity="1.0"
     inkscape:pageshadow="2"
     inkscape:pageopacity="0.0"
     inkscape:pagecheckerboard="0"
     showgrid="false"
     inkscape:zoom="1.09125"
     inkscape:cx="192.89805"
     inkscape:cy="425.65865"
     inkscape:window-width="2496"
     inkscape:window-height="1376"
     inkscape:window-x="64"
     inkscape:window-y="1467"
     inkscape:window-maximized="1"
     inkscape:current-layer="svg9" />
  <!-- Uploaded to: SVG Repo, www.svgrepo.com, Generator: SVG Repo Mixer Tools -->
  <title
     id="title2">ic_fluent_my_location_24_regular</title>
  <desc
     id="desc4">Created with Sketch.</desc>
  <path
     d="m 12,2 c 0.379696,0 0.693491,0.2821539 0.743153,0.6482294 L 12.75,2.75 12.749069,4.5377088 v 0 c 3.543745,0.3498655 6.363357,3.1694772 6.71415,6.7148232 L 19.5,11.25 h 1.75 c 0.414214,0 0.75,0.335786 0.75,0.75 0,0.379696 -0.282154,0.693491 -0.648229,0.743153 L 21.25,12.75 19.461656,12.749037 v 0 c -0.34923,3.543777 -3.168842,6.363389 -6.714188,6.714182 L 12.75,19.5 v 1.75 C 12.75,21.664214 12.414214,22 12,22 11.620304,22 11.306509,21.717846 11.256847,21.351771 L 11.25,21.25 l 9.63e-4,-1.788344 v 0 C 7.707186,19.112426 4.8875743,16.292814 4.5367805,12.747468 L 4.5,12.75 H 2.75 C 2.3357864,12.75 2,12.414214 2,12 2,11.620304 2.2821539,11.306509 2.6482294,11.256847 L 2.75,11.25 l 1.7877088,9.32e-4 v 0 C 4.8875743,7.707186 7.707186,4.8875743 11.252532,4.5367805 L 11.25,4.5 V 2.75 C 11.25,2.3357864 11.585786,2 12,2 Z m 0,4 c -3.3137085,0 -6,2.6862915 -6,6 0,3.313709 2.6862915,6 6,6 3.313709,0 6,-2.686291 6,-6 0,-3.3137085 -2.686291,-6 -6,-6 z"
     id="🎨-Color"
     style="fill:#ffffff;fill-rule:nonzero;stroke:none;stroke-width:1"
     sodipodi:nodetypes="scccsccsscccsccsscccsccsscccsccsssssss"
     inkscape:export-filename="/home/peqv/PycharmProjects/trackdirect/htdocs/public/images/mylocation.png"
     inkscape:export-xdpi="96"
     inkscape:export-ydpi="96" />
  <circle
     id="path211"
     cx="12"
     cy="12"
     style="stroke-width:0.0375;fill:#ffffff"
     r="3.75"
     inkscape:export-filename="/home/peqv/PycharmProjects/trackdirect/htdocs/public/images/mylocation.png"
     inkscape:export-xdpi="96"
     inkscape:export-ydpi="96" />
  <metadata
     id="metadata495">
    <rdf:RDF>
      <cc:Work
         rdf:about="">
        <dc:title>ic_fluent_my_location_24_regular</dc:title>
      </cc:Work>
    </rdf:RDF>
  </metadata>
</svg>
